<svg width="85" height="85" viewBox="0 0 85 85" fill="none" xmlns="http://www.w3.org/2000/svg">
<circle cx="42.5" cy="42.5" r="41" stroke="#3B2017" stroke-width="3"/>
<rect x="26.5" y="31.5002" width="35" height="31" rx="4" stroke="#3B2017" stroke-width="3"/>
<path d="M54.5 31.5V28C54.5 22.201 49.799 17.5 44 17.5C38.201 17.5 33.5 22.201 33.5 28V31.5" stroke="#3B2017" stroke-width="3" stroke-linecap="round"/>
<path d="M44.0447 38.5002V37.5002H44.0446L44.0447 38.5002ZM48.0447 42.5002L49.0447 42.5003V42.5002H48.0447ZM40.0447 42.5002H39.0447V42.5003L40.0447 42.5002ZM42.4685 46.7144L41.5317 46.3645L42.4685 46.7144ZM39.5322 54.5753L38.5954 54.2254L39.5322 54.5753ZM48.5542 54.5753L49.491 54.2253L48.5542 54.5753ZM45.8995 46.0434L45.4352 45.1578L45.8995 46.0434ZM44.0447 38.5002V39.5002C45.7015 39.5002 47.0447 40.8434 47.0447 42.5002H48.0447H49.0447C49.0447 39.7388 46.8061 37.5002 44.0447 37.5002V38.5002ZM48.0447 42.5002L47.0447 42.5002C47.0447 43.6531 46.3943 44.655 45.4352 45.1578L45.8995 46.0434L46.3638 46.9291C47.9548 46.0951 49.0447 44.4266 49.0447 42.5003L48.0447 42.5002ZM45.6181 46.7158L44.6814 47.0658L47.6175 54.9252L48.5542 54.5753L49.491 54.2253L46.5549 46.3659L45.6181 46.7158ZM48.0859 55.2502V54.2502H40.0005V55.2502V56.2502H48.0859V55.2502ZM39.5322 54.5753L40.4689 54.9252L43.4052 47.0643L42.4685 46.7144L41.5317 46.3645L38.5954 54.2254L39.5322 54.5753ZM42.1875 46.0423L42.6525 45.157C41.6943 44.6537 41.0447 43.6522 41.0447 42.5002L40.0447 42.5002L39.0447 42.5003C39.0447 44.4253 40.1333 46.093 41.7225 46.9276L42.1875 46.0423ZM40.0447 42.5002H41.0447C41.0447 40.8435 42.3879 39.5003 44.0447 39.5002L44.0447 38.5002L44.0446 37.5002C41.2834 37.5004 39.0447 39.7388 39.0447 42.5002H40.0447ZM42.4685 46.7144L43.4052 47.0643C43.7044 46.2635 43.2727 45.4827 42.6525 45.157L42.1875 46.0423L41.7225 46.9276C41.591 46.8585 41.4257 46.6482 41.5317 46.3645L42.4685 46.7144ZM40.0005 55.2502V54.2502C40.3494 54.2502 40.591 54.5984 40.4689 54.9252L39.5322 54.5753L38.5954 54.2254C38.2292 55.2057 38.9541 56.2502 40.0005 56.2502V55.2502ZM48.5542 54.5753L47.6175 54.9252C47.4954 54.5984 47.737 54.2502 48.0859 54.2502V55.2502V56.2502C49.1324 56.2502 49.8572 55.2056 49.491 54.2253L48.5542 54.5753ZM45.8995 46.0434L45.4352 45.1578C44.8144 45.4832 44.382 46.2644 44.6814 47.0658L45.6181 46.7158L46.5549 46.3659C46.661 46.6498 46.4954 46.8601 46.3638 46.9291L45.8995 46.0434Z" fill="#3B2017"/>
</svg>
