<svg width="37" height="37" viewBox="0 0 37 37" fill="none" xmlns="http://www.w3.org/2000/svg">
<g clip-path="url(#clip0_34_41)">
<path d="M37 18.6131C37 27.903 30.2359 35.602 21.3915 37V23.9929H25.7027L26.5221 18.6131H21.3915V15.1193C21.3915 13.6496 22.1068 12.2129 24.4063 12.2129H26.7387V7.63273C26.7387 7.63273 24.6201 7.26874 22.5974 7.26874C18.3712 7.26874 15.6085 9.847 15.6085 14.5099V18.6131H10.9136V23.9929H15.6085V37C6.76415 35.602 0 27.903 0 18.6131C0 8.33313 8.28252 0 18.5 0C28.7175 0 37 8.33313 37 18.6131Z" fill="#3B2017"/>
</g>
<defs>
<clipPath id="clip0_34_41">
<rect width="37" height="37" fill="white"/>
</clipPath>
</defs>
</svg>
