<svg width="135" height="135" viewBox="0 0 135 135" fill="none" xmlns="http://www.w3.org/2000/svg">
<path d="M67.502 133.504C103.954 133.504 133.504 103.954 133.504 67.502C133.504 31.0501 103.954 1.5 67.502 1.5C31.0501 1.5 1.5 31.0501 1.5 67.502C1.5 103.954 31.0501 133.504 67.502 133.504Z" stroke="#3B2017" stroke-width="3" stroke-miterlimit="10" stroke-linecap="round"/>
<path d="M67.502 133.504C103.954 133.504 133.504 103.954 133.504 67.502C133.504 31.0501 103.954 1.5 67.502 1.5C31.0501 1.5 1.5 31.0501 1.5 67.502C1.5 103.954 31.0501 133.504 67.502 133.504Z" stroke="#3B2017" stroke-width="3" stroke-miterlimit="10" stroke-linecap="round"/>
<path d="M67.502 1.99438V10.5955" stroke="#3B2017" stroke-width="3" stroke-miterlimit="10" stroke-linecap="round"/>
<path d="M34.7454 10.7712L39.0459 18.2189" stroke="#3B2017" stroke-width="3" stroke-miterlimit="10" stroke-linecap="round"/>
<path d="M10.7712 34.7456L18.2189 39.0461" stroke="#3B2017" stroke-width="3" stroke-miterlimit="10" stroke-linecap="round"/>
<path d="M1.99438 67.502H10.5955" stroke="#3B2017" stroke-width="3" stroke-miterlimit="10" stroke-linecap="round"/>
<path d="M10.7712 100.259L18.2189 95.9583" stroke="#3B2017" stroke-width="3" stroke-miterlimit="10" stroke-linecap="round"/>
<path d="M34.7454 124.238L39.0459 116.791" stroke="#3B2017" stroke-width="3" stroke-miterlimit="10" stroke-linecap="round"/>
<path d="M67.502 133.015V124.414" stroke="#3B2017" stroke-width="3" stroke-miterlimit="10" stroke-linecap="round"/>
<path d="M100.259 124.238L95.958 116.791" stroke="#3B2017" stroke-width="3" stroke-miterlimit="10" stroke-linecap="round"/>
<path d="M124.238 100.259L116.791 95.9583" stroke="#3B2017" stroke-width="3" stroke-miterlimit="10" stroke-linecap="round"/>
<path d="M133.015 67.502H124.414" stroke="#3B2017" stroke-width="3" stroke-miterlimit="10" stroke-linecap="round"/>
<path d="M124.238 34.7456L116.791 39.0461" stroke="#3B2017" stroke-width="3" stroke-miterlimit="10" stroke-linecap="round"/>
<path d="M100.259 10.7712L95.958 18.2189" stroke="#3B2017" stroke-width="3" stroke-miterlimit="10" stroke-linecap="round"/>
</svg>
