<svg width="85" height="85" viewBox="0 0 85 85" fill="none" xmlns="http://www.w3.org/2000/svg">
<circle cx="42.5" cy="42.5" r="41" stroke="#3B2017" stroke-width="3"/>
<rect x="26.5" y="31.5002" width="35" height="31" rx="4" stroke="#3B2017" stroke-width="3"/>
<path d="M54.5 31.5V28C54.5 22.201 49.799 17.5 44 17.5C38.201 17.5 33.5 22.201 33.5 28V31.5" stroke="#3B2017" stroke-width="3" stroke-linecap="round"/>
<path d="M44.0444 38.5002V37.5002H44.0443L44.0444 38.5002ZM48.0444 42.5002L49.0444 42.5003V42.5002H48.0444ZM40.0444 42.5002H39.0444V42.5003L40.0444 42.5002ZM42.1873 46.0423L41.7223 46.9276L42.1873 46.0423ZM39.5328 54.5753L38.596 54.2255L39.5328 54.5753ZM48.5549 54.5752L47.6181 54.9253L48.5549 54.5752ZM45.618 46.7159L44.6812 47.0659L45.618 46.7159ZM44.0444 38.5002V39.5002C45.7013 39.5002 47.0444 40.8434 47.0444 42.5002H48.0444H49.0444C49.0444 39.7388 46.8059 37.5002 44.0444 37.5002V38.5002ZM48.0444 42.5002L47.0444 42.5002C47.0444 43.6532 46.3941 44.655 45.4351 45.1577L45.8993 46.0434L46.3636 46.9291C47.9548 46.0951 49.0444 44.4266 49.0444 42.5003L48.0444 42.5002ZM45.618 46.7159L44.6812 47.0659L47.6181 54.9253L48.5549 54.5752L49.4916 54.2252L46.5547 46.3658L45.618 46.7159ZM48.0865 55.2502V54.2502H40.0012V55.2502V56.2502H48.0865V55.2502ZM39.5328 54.5753L40.4696 54.9252L43.4051 47.0642L42.4683 46.7144L41.5315 46.3645L38.596 54.2255L39.5328 54.5753ZM42.1873 46.0423L42.6523 45.157C41.6942 44.6537 41.0444 43.6521 41.0444 42.5002L40.0444 42.5002L39.0444 42.5003C39.0445 44.4253 40.1333 46.093 41.7223 46.9276L42.1873 46.0423ZM40.0444 42.5002H41.0444C41.0444 40.8437 42.3877 39.5004 44.0445 39.5002L44.0444 38.5002L44.0443 37.5002C41.2833 37.5006 39.0444 39.7389 39.0444 42.5002H40.0444ZM42.4683 46.7144L43.4051 47.0642C43.7042 46.2634 43.2725 45.4827 42.6523 45.157L42.1873 46.0423L41.7223 46.9276C41.5908 46.8585 41.4255 46.6483 41.5315 46.3645L42.4683 46.7144ZM40.0012 55.2502V54.2502C40.35 54.2502 40.5916 54.5984 40.4696 54.9252L39.5328 54.5753L38.596 54.2255C38.2299 55.2058 38.9548 56.2502 40.0012 56.2502V55.2502ZM48.5549 54.5752L47.6181 54.9253C47.496 54.5985 47.7377 54.2502 48.0865 54.2502V55.2502V56.2502C49.1331 56.2502 49.858 55.2055 49.4916 54.2252L48.5549 54.5752ZM45.8993 46.0434L45.4351 45.1577C44.8142 45.4832 44.3817 46.2644 44.6812 47.0659L45.618 46.7159L46.5547 46.3658C46.6608 46.6498 46.4952 46.8601 46.3636 46.9291L45.8993 46.0434Z" fill="#3B2017"/>
</svg>
