<svg width="108" height="127" viewBox="0 0 108 127" fill="none" xmlns="http://www.w3.org/2000/svg">
<path d="M105.802 119.865L105.802 6.94886C105.802 3.93954 103.13 1.5 99.8335 1.5L7.46838 1.5C4.17209 1.5 1.49992 3.93954 1.49992 6.94886L1.49992 119.865C1.49992 122.875 4.17209 125.314 7.46838 125.314H99.8335C103.13 125.314 105.802 122.875 105.802 119.865Z" stroke="#3B2017" stroke-width="3" stroke-linecap="round" stroke-linejoin="round"/>
<path d="M19.2197 19.8406C24.0475 19.8406 24.0475 23.0695 28.8665 23.0695C33.6855 23.0695 33.6943 19.8406 38.5222 19.8406C43.35 19.8406 43.35 23.0695 48.1778 23.0695C53.0056 23.0695 53.0056 19.8406 57.8334 19.8406C62.6612 19.8406 62.6612 23.0695 67.4891 23.0695C72.3169 23.0695 72.3169 19.8406 77.1535 19.8406C81.9902 19.8406 81.9814 23.0695 86.818 23.0695" stroke="#3B2017" stroke-width="3" stroke-linecap="round" stroke-linejoin="round"/>
<path d="M19.2197 37.3496C24.0475 37.3496 24.0475 40.5786 28.8665 40.5786C33.6855 40.5786 33.6943 37.3496 38.5222 37.3496C43.35 37.3496 43.35 40.5786 48.1778 40.5786C53.0056 40.5786 53.0056 37.3496 57.8334 37.3496C62.6612 37.3496 62.6612 40.5786 67.4891 40.5786C72.3169 40.5786 72.3169 37.3496 77.1535 37.3496C81.9902 37.3496 81.9814 40.5786 86.818 40.5786" stroke="#3B2017" stroke-width="3" stroke-linecap="round" stroke-linejoin="round"/>
<path d="M19.2197 54.8586C24.0475 54.8586 24.0475 58.0876 28.8665 58.0876C33.6855 58.0876 33.6943 54.8586 38.5222 54.8586C43.35 54.8586 43.35 58.0876 48.1778 58.0876C53.0056 58.0876 53.0056 54.8586 57.8334 54.8586C62.6612 54.8586 62.6612 58.0876 67.4891 58.0876C72.3169 58.0876 72.3169 54.8586 77.1535 54.8586C81.9902 54.8586 81.9814 58.0876 86.818 58.0876" stroke="#3B2017" stroke-width="3" stroke-linecap="round" stroke-linejoin="round"/>
<path d="M19.2197 72.3594C24.0475 72.3594 24.0475 75.5883 28.8665 75.5883C33.6855 75.5883 33.6943 72.3594 38.5222 72.3594C43.35 72.3594 43.35 75.5883 48.1778 75.5883C53.0056 75.5883 53.0056 72.3594 57.8334 72.3594C62.6612 72.3594 62.6612 75.5883 67.4891 75.5883C72.3169 75.5883 72.3169 72.3594 77.1535 72.3594C81.9902 72.3594 81.9814 75.5883 86.818 75.5883" stroke="#3B2017" stroke-width="3" stroke-linecap="round" stroke-linejoin="round"/>
<path d="M19.2197 89.8687C24.0475 89.8687 24.0475 93.0976 28.8665 93.0976C33.6855 93.0976 33.6943 89.8687 38.5222 89.8687C43.35 89.8687 43.35 93.0976 48.1778 93.0976C53.0056 93.0976 53.0056 89.8687 57.8334 89.8687C62.6612 89.8687 62.6612 93.0976 67.4891 93.0976C72.3169 93.0976 72.3169 89.8687 77.1535 89.8687C81.9902 89.8687 81.9814 93.0976 86.818 93.0976" stroke="#3B2017" stroke-width="3" stroke-linecap="round" stroke-linejoin="round"/>
</svg>
