<svg width="141" height="142" viewBox="0 0 141 142" fill="none" xmlns="http://www.w3.org/2000/svg">
<mask id="mask0_23_198" style="mask-type:luminance" maskUnits="userSpaceOnUse" x="1" y="1" width="140" height="140">
<path d="M129.336 1H12.6637C6.22204 1 1 6.22204 1 12.6637V129.336C1 135.778 6.22204 141 12.6637 141H129.336C135.778 141 141 135.778 141 129.336V12.6637C141 6.22204 135.778 1 129.336 1Z" fill="white"/>
</mask>
<g mask="url(#mask0_23_198)">
<path d="M129.336 1H12.6637C6.22204 1 1 6.22204 1 12.6637V129.336C1 135.778 6.22204 141 12.6637 141H129.336C135.778 141 141 135.778 141 129.336V12.6637C141 6.22204 135.778 1 129.336 1Z" fill="#FDFAF1"/>
<path d="M71 70.9981C32.3425 70.9981 1.00001 102.341 1 140.998L71 140.998L71 70.9981Z" fill="#E59BF0"/>
<path d="M141 71C141 32.3425 109.657 1 70.9999 1L70.9999 71L141 71Z" fill="#FFFA64"/>
<path d="M70.9993 71C70.9993 32.3425 39.6568 0.999999 0.999268 0.999997L0.999265 71L70.9993 71Z" fill="#E59BF0"/>
<path d="M70.9999 71L70.9999 141L141 141C141 102.342 109.657 71 70.9999 71Z" fill="#E59BF0"/>
</g>
<path d="M129.336 1H12.6637C6.22204 1 1 6.22204 1 12.6637V129.336C1 135.778 6.22204 141 12.6637 141H129.336C135.778 141 141 135.778 141 129.336V12.6637C141 6.22204 135.778 1 129.336 1Z" stroke="#3B2017" stroke-width="2" stroke-miterlimit="10"/>
</svg>
