<svg width="142" height="142" viewBox="0 0 142 142" fill="none" xmlns="http://www.w3.org/2000/svg">
<mask id="mask0_23_174" style="mask-type:luminance" maskUnits="userSpaceOnUse" x="1" y="1" width="140" height="140">
<path d="M12.6638 141L129.336 141C135.778 141 141 135.778 141 129.336L141 12.6638C141 6.22205 135.778 1.00001 129.336 1.00001L12.6638 1C6.22207 1 1.00002 6.22205 1.00002 12.6638L1 129.336C1 135.778 6.22205 141 12.6638 141Z" fill="white"/>
</mask>
<g mask="url(#mask0_23_174)">
<path d="M12.6638 141L129.336 141C135.778 141 141 135.778 141 129.336L141 12.6638C141 6.22205 135.778 1.00001 129.336 1.00001L12.6638 1C6.22207 1 1.00002 6.22205 1.00002 12.6638L1 129.336C1 135.778 6.22205 141 12.6638 141Z" fill="#FDFAF1"/>
<path d="M0.99806 0.999989C0.998053 39.6575 32.3405 71 70.998 71L70.9981 0.999992L0.99806 0.999989Z" fill="#FFA872"/>
<path d="M71 71C71 109.658 102.342 141 141 141L141 71L71 71Z" fill="#FFA872"/>
<path d="M71 71C109.658 71 141 39.6575 141 0.999992L71 0.999989L71 71Z" fill="#FFA872"/>
<path d="M70.9981 71L0.99806 71L0.998047 141C39.6555 141 70.9981 109.657 70.9981 71Z" fill="#FFA872"/>
</g>
<path d="M12.6638 141L129.336 141C135.778 141 141 135.778 141 129.336L141 12.6638C141 6.22205 135.778 1.00001 129.336 1.00001L12.6638 0.999996C6.22206 0.999996 1.00001 6.22204 1.00001 12.6638L1 129.336C1 135.778 6.22205 141 12.6638 141Z" stroke="#3B2017" stroke-width="2" stroke-miterlimit="10"/>
</svg>
