<svg width="31" height="31" viewBox="0 0 31 31" fill="none" xmlns="http://www.w3.org/2000/svg">
<path d="M29.3587 15.2593C29.6969 15.3505 29.7003 15.8433 29.3621 15.9362C26.846 16.636 21.4228 18.3635 19.2963 20.7697C17.6548 22.6252 16.4386 26.6765 15.8032 29.2002C15.6717 29.7264 14.944 29.7264 14.8125 29.2002C14.1771 26.6748 12.9592 22.6235 11.316 20.7662C9.18776 18.3618 3.76627 16.6343 1.25195 15.9362C0.913748 15.8415 0.917164 15.3505 1.25537 15.2593C3.71844 14.5928 8.95546 12.9688 11.0615 10.6994C12.9934 8.61939 14.377 3.72102 14.9765 1.2657C15.0636 0.911433 15.5521 0.911433 15.6392 1.2657C16.2422 3.72628 17.636 8.6457 19.5798 10.7292C21.6842 12.9828 26.899 14.5981 29.3587 15.261V15.2593Z" fill="#E59BF0" stroke="#3B2017" stroke-width="2" stroke-linecap="round" stroke-linejoin="round"/>
</svg>
