<svg width="142" height="142" viewBox="0 0 142 142" fill="none" xmlns="http://www.w3.org/2000/svg">
<mask id="mask0_23_226" style="mask-type:luminance" maskUnits="userSpaceOnUse" x="1" y="1" width="140" height="140">
<path d="M12.6638 141L129.336 141C135.778 141 141 135.778 141 129.336L141 12.6637C141 6.22198 135.778 0.999939 129.336 0.999938L12.6638 0.999933C6.22207 0.999932 1.00002 6.22198 1.00002 12.6637L1 129.336C1 135.778 6.22205 141 12.6638 141Z" fill="white"/>
</mask>
<g mask="url(#mask0_23_226)">
<path d="M12.6638 141L129.336 141C135.778 141 141 135.778 141 129.336L141 12.6637C141 6.22198 135.778 0.999939 129.336 0.999938L12.6638 0.999933C6.22207 0.999932 1.00002 6.22198 1.00002 12.6637L1 129.336C1 135.778 6.22205 141 12.6638 141Z" fill="#FDFAF1"/>
<path d="M71.0019 0.999811C32.3444 0.999814 1.00189 32.3423 1.00189 70.9998L71.0019 70.9998L71.0019 0.999811Z" fill="#E59BF0"/>
<path d="M71 141C109.657 141 141 109.657 141 70.9999L71 70.9999L71 141Z" fill="#E59BF0"/>
<path d="M141 70.9999C141 32.3424 109.658 0.999878 71 0.999877L71 70.9999L141 70.9999Z" fill="#E59BF0"/>
<path d="M71 141L71 70.9998L1 70.9998C1 109.657 32.3425 141 71 141Z" fill="#E59BF0"/>
</g>
<path d="M12.6638 141L129.336 141C135.778 141 141 135.778 141 129.336L141 12.6638C141 6.22205 135.778 1 129.336 0.999999L12.6638 0.999989C6.22206 0.999988 1.00001 6.22203 1.00001 12.6637L1 129.336C1 135.778 6.22205 141 12.6638 141Z" stroke="#3B2017" stroke-width="2" stroke-miterlimit="10"/>
</svg>
