<svg width="35" height="41" viewBox="0 0 35 41" fill="none" xmlns="http://www.w3.org/2000/svg">
<path d="M33.3572 37.72V2.69038C33.3572 1.75681 32.5283 1 31.5057 1L2.8516 1C1.829 1 1.00003 1.75681 1.00003 2.69038V37.72C1.00003 38.6536 1.829 39.4104 2.8516 39.4104H31.5057C32.5283 39.4104 33.3572 38.6536 33.3572 37.72Z" stroke="#3B2017" stroke-width="2" stroke-linecap="round" stroke-linejoin="round"/>
<path d="M6.49713 6.6897C7.99485 6.6897 7.99485 7.6914 9.48982 7.6914C10.9848 7.6914 10.9875 6.6897 12.4852 6.6897C13.983 6.6897 13.983 7.6914 15.4807 7.6914C16.9784 7.6914 16.9784 6.6897 18.4761 6.6897C19.9738 6.6897 19.9738 7.6914 21.4715 7.6914C22.9692 7.6914 22.9692 6.6897 24.4697 6.6897C25.9702 6.6897 25.9674 7.6914 27.4679 7.6914" stroke="#3B2017" stroke-width="2" stroke-linecap="round" stroke-linejoin="round"/>
<path d="M6.49713 12.1215C7.99485 12.1215 7.99485 13.1232 9.48982 13.1232C10.9848 13.1232 10.9875 12.1215 12.4852 12.1215C13.983 12.1215 13.983 13.1232 15.4807 13.1232C16.9784 13.1232 16.9784 12.1215 18.4761 12.1215C19.9738 12.1215 19.9738 13.1232 21.4715 13.1232C22.9692 13.1232 22.9692 12.1215 24.4697 12.1215C25.9702 12.1215 25.9674 13.1232 27.4679 13.1232" stroke="#3B2017" stroke-width="2" stroke-linecap="round" stroke-linejoin="round"/>
<path d="M6.49713 17.5532C7.99485 17.5532 7.99485 18.5549 9.48982 18.5549C10.9848 18.5549 10.9875 17.5532 12.4852 17.5532C13.983 17.5532 13.983 18.5549 15.4807 18.5549C16.9784 18.5549 16.9784 17.5532 18.4761 17.5532C19.9738 17.5532 19.9738 18.5549 21.4715 18.5549C22.9692 18.5549 22.9692 17.5532 24.4697 17.5532C25.9702 17.5532 25.9674 18.5549 27.4679 18.5549" stroke="#3B2017" stroke-width="2" stroke-linecap="round" stroke-linejoin="round"/>
<path d="M6.49713 22.9824C7.99485 22.9824 7.99485 23.9841 9.48982 23.9841C10.9848 23.9841 10.9875 22.9824 12.4852 22.9824C13.983 22.9824 13.983 23.9841 15.4807 23.9841C16.9784 23.9841 16.9784 22.9824 18.4761 22.9824C19.9738 22.9824 19.9738 23.9841 21.4715 23.9841C22.9692 23.9841 22.9692 22.9824 24.4697 22.9824C25.9702 22.9824 25.9674 23.9841 27.4679 23.9841" stroke="#3B2017" stroke-width="2" stroke-linecap="round" stroke-linejoin="round"/>
<path d="M6.49713 28.4142C7.99485 28.4142 7.99485 29.4159 9.48982 29.4159C10.9848 29.4159 10.9875 28.4142 12.4852 28.4142C13.983 28.4142 13.983 29.4159 15.4807 29.4159C16.9784 29.4159 16.9784 28.4142 18.4761 28.4142C19.9738 28.4142 19.9738 29.4159 21.4715 29.4159C22.9692 29.4159 22.9692 28.4142 24.4697 28.4142C25.9702 28.4142 25.9674 29.4159 27.4679 29.4159" stroke="#3B2017" stroke-width="2" stroke-linecap="round" stroke-linejoin="round"/>
</svg>
