<svg width="49" height="49" viewBox="0 0 49 49" fill="none" xmlns="http://www.w3.org/2000/svg">
<path d="M46.829 24.0437C47.3756 24.1911 47.3811 24.9875 46.8346 25.1377C42.7685 26.2686 34.0044 29.0603 30.5677 32.9489C27.915 35.9475 25.9496 42.4946 24.9228 46.573C24.7102 47.4233 23.5343 47.4233 23.3217 46.573C22.2949 42.4917 20.3267 35.9447 17.6713 32.9432C14.2318 29.0575 5.47043 26.2658 1.40716 25.1377C0.860612 24.9847 0.866133 24.1911 1.41269 24.0437C5.39314 22.9667 13.8564 20.3422 17.26 16.6747C20.3819 13.3133 22.6178 5.39731 23.5867 1.42939C23.7275 0.856871 24.517 0.856871 24.6578 1.42939C25.6322 5.40581 27.8846 13.3558 31.0259 16.7229C34.4267 20.3649 42.8541 22.9752 46.829 24.0466V24.0437Z" fill="#E59BF0" stroke="#3B2017" stroke-width="2" stroke-linecap="round" stroke-linejoin="round"/>
</svg>
