<svg width="37" height="37" viewBox="0 0 37 37" fill="none" xmlns="http://www.w3.org/2000/svg">
<g clip-path="url(#clip0_23_136)">
<path d="M18.5 0C8.28252 0 0 8.28252 0 18.5C0 28.7175 8.28252 37 18.5 37C28.7175 37 37 28.7175 37 18.5C37 8.28252 28.7175 0 18.5 0ZM28.6681 16.3814C27.9775 16.3841 27.3005 16.291 26.629 16.1375C25.4752 15.8716 24.409 15.403 23.4224 14.7561C23.3703 14.7205 23.3155 14.6493 23.2607 14.6739C23.1922 14.7068 23.2278 14.7945 23.2278 14.8603C23.2278 17.5133 23.2387 20.1664 23.2223 22.8194C23.2113 24.6749 22.6221 26.333 21.4079 27.7473C20.117 29.2492 18.4781 30.1207 16.5102 30.3619C14.9946 30.5483 13.5557 30.2715 12.1908 29.5973C11.9716 29.4876 11.7605 29.3616 11.5632 29.2136C11.5001 29.1587 11.4371 29.1039 11.3768 29.0464H11.3741C11.2261 28.9833 11.1082 28.8764 10.9849 28.7778C9.76526 27.8103 8.90467 26.5934 8.43326 25.1079C8.26882 24.5927 8.16741 24.0637 8.11533 23.5238C8.0797 23.1319 8.07422 22.7399 8.10163 22.3507C8.15919 21.4518 8.37296 20.5857 8.74296 19.7635C9.13215 18.9056 9.66111 18.141 10.3353 17.4832C11.1192 16.713 12.0264 16.1375 13.0624 15.7675C13.7119 15.5318 14.3779 15.392 15.0659 15.3399C15.5647 15.3043 16.0607 15.3153 16.5568 15.3756C16.6226 15.3838 16.6637 15.3975 16.661 15.477C16.6555 15.751 16.6555 16.0251 16.6555 16.3019C16.6582 16.3074 16.6939 18.3959 16.6939 19.3524C16.6939 19.3853 16.6939 19.4209 16.6911 19.4538C16.6884 19.5497 16.639 19.5826 16.5486 19.5552C16.2855 19.4812 16.0169 19.4483 15.7483 19.4319C15.329 19.4099 14.9151 19.4702 14.5232 19.6155C13.2076 20.1006 12.4101 21.0407 12.2429 22.4275C12.0784 23.7951 12.6184 24.8887 13.7558 25.678C13.8517 25.7438 13.9504 25.8041 14.0381 25.8781C14.06 25.8973 14.0819 25.9192 14.1011 25.9384C14.367 26.0425 14.6301 26.1494 14.9124 26.2042C15.8031 26.3796 16.6445 26.2453 17.4201 25.7657C18.3136 25.2148 18.8399 24.409 19.0262 23.3785C19.0619 23.1839 19.0673 22.9839 19.0673 22.7865C19.0646 17.4585 19.0646 12.1305 19.0673 6.80252C19.0673 6.55311 19.0317 6.58326 19.2784 6.58326H23.0524C23.1784 6.586 23.1812 6.586 23.1784 6.71207C23.1784 6.99711 23.2963 7.66585 23.3073 7.71793C23.839 10.4121 26.9771 12.0593 27.9446 12.2073C28.2132 12.2456 28.479 12.2785 28.7504 12.2758C28.8627 12.2758 28.8655 12.2785 28.8655 12.3854C28.8655 12.6376 28.9148 15.2139 28.9148 16.1567C28.9148 16.3704 28.8847 16.3814 28.6681 16.3814Z" fill="#3B2017"/>
</g>
<defs>
<clipPath id="clip0_23_136">
<rect width="37" height="37" fill="white"/>
</clipPath>
</defs>
</svg>
