<svg width="37" height="37" viewBox="0 0 37 37" fill="none" xmlns="http://www.w3.org/2000/svg">
<g clip-path="url(#clip0_23_130)">
<path d="M22.3836 18.4998C22.3836 20.6431 20.6432 22.3807 18.5 22.3807C16.3567 22.3807 14.6163 20.6431 14.6163 18.4998C14.6163 16.3566 16.354 14.6162 18.5 14.6162C20.646 14.6162 22.3836 16.3538 22.3836 18.4998Z" fill="#3B2017"/>
<path d="M27.9803 13.7916C27.9282 12.657 27.7391 12.0403 27.5801 11.6292C27.3691 11.0865 27.1169 10.6973 26.7086 10.289C26.3002 9.88332 25.9137 9.63117 25.3683 9.4174C24.96 9.25843 24.3433 9.06932 23.2059 9.01725C21.978 8.96243 21.6108 8.94873 18.5 8.94873C15.3893 8.94873 15.022 8.96243 13.7914 9.01725C12.6568 9.06932 12.0401 9.25843 11.629 9.4174C11.0863 9.63117 10.6971 9.88332 10.2915 10.289C9.88589 10.6946 9.631 11.0865 9.41996 11.6292C9.261 12.0403 9.06915 12.657 9.01707 13.7916C8.96226 15.0195 8.95129 15.3895 8.95129 18.5002C8.95129 21.611 8.96226 21.9782 9.01707 23.2061C9.06915 24.3407 9.261 24.9574 9.41996 25.3685C9.631 25.9112 9.88315 26.3004 10.2915 26.7087C10.6971 27.1171 11.0863 27.3692 11.629 27.5803C12.0401 27.7392 12.6568 27.9284 13.7942 27.9804C15.022 28.0352 15.3893 28.049 18.5 28.049C21.6108 28.049 21.978 28.0352 23.2059 27.9804C24.3433 27.9284 24.96 27.7392 25.3683 27.5803C25.9137 27.3692 26.3002 27.1171 26.7086 26.7087C27.1169 26.3004 27.3691 25.9112 27.5801 25.3685C27.7391 24.9574 27.9282 24.3407 27.9803 23.2061C28.0378 21.9782 28.0488 21.6082 28.0488 18.5002C28.0488 15.3922 28.0378 15.0195 27.9803 13.7916ZM18.5 24.4805C15.1974 24.4805 12.517 21.8028 12.517 18.5002C12.517 15.1976 15.1974 12.5172 18.5 12.5172C21.8026 12.5172 24.4803 15.1949 24.4803 18.5002C24.4803 21.8055 21.8026 24.4805 18.5 24.4805ZM24.7188 13.6792C23.9459 13.6792 23.321 13.0544 23.321 12.2815C23.321 11.5086 23.9459 10.8837 24.7188 10.8837C25.4917 10.8837 26.1166 11.5086 26.1166 12.2815C26.1166 13.0544 25.4889 13.6792 24.7188 13.6792Z" fill="#3B2017"/>
<path d="M18.5 0C8.28252 0 0 8.28252 0 18.5C0 28.7175 8.28252 37 18.5 37C28.7175 37 37 28.7175 37 18.5C37 8.28252 28.7175 0 18.5 0ZM30.0769 23.3018C30.0221 24.5406 29.8247 25.3875 29.537 26.1302C29.2382 26.8949 28.8408 27.5444 28.194 28.1913C27.5444 28.8408 26.8949 29.2382 26.1302 29.5342C25.3875 29.8247 24.5433 30.0193 23.3018 30.0769C22.0602 30.1344 21.6628 30.1481 18.5 30.1481C15.3372 30.1481 14.9398 30.1344 13.6982 30.0769C12.4567 30.0193 11.6098 29.8247 10.8698 29.5342C10.1024 29.2382 9.45282 28.8408 8.806 28.1913C8.15919 27.5444 7.76178 26.8949 7.46304 26.1302C7.17526 25.3875 6.97793 24.5406 6.92037 23.3018C6.86556 22.0602 6.85185 21.6628 6.85185 18.5C6.85185 15.3372 6.86556 14.9398 6.92037 13.6955C6.97793 12.4567 7.17526 11.6098 7.46304 10.8698C7.76178 10.1024 8.15919 9.45282 8.806 8.806C9.45282 8.15919 10.1024 7.75904 10.8698 7.46304C11.6098 7.17526 12.4567 6.97793 13.6982 6.92037C14.9398 6.86281 15.3372 6.85185 18.5 6.85185C21.6628 6.85185 22.0602 6.86281 23.3018 6.92037C24.5433 6.97793 25.3875 7.17526 26.1302 7.46304C26.8949 7.75904 27.5444 8.15919 28.194 8.806C28.8408 9.45282 29.2382 10.1024 29.537 10.8698C29.8247 11.6098 30.0221 12.4567 30.0769 13.6955C30.1344 14.9398 30.1481 15.3344 30.1481 18.5C30.1481 21.6656 30.1344 22.0602 30.0769 23.3018Z" fill="#3B2017"/>
</g>
<defs>
<clipPath id="clip0_23_130">
<rect width="37" height="37" fill="white"/>
</clipPath>
</defs>
</svg>
