<svg width="29" height="36" viewBox="0 0 29 36" fill="none" xmlns="http://www.w3.org/2000/svg">
<path d="M28.2201 21.5671C28.2201 29.1769 23.0801 35.6789 14.0693 35.6789C5.05841 35.6789 0 29.4494 0 21.549C0 14.0754 5.54794 7.6098 14.1781 7.6098C22.8082 7.6098 28.2201 14.0936 28.2201 21.5581V21.5671ZM4.0159 21.4491C4.0159 27.2427 7.54229 32.4824 14.1962 32.4824C20.8501 32.4824 24.1952 27.4788 24.1952 21.6398C24.1952 15.8008 20.6869 10.8063 13.9605 10.8063C7.6964 10.8063 4.0159 15.7644 4.0159 21.4491ZM22.5906 0L15.0937 5.26692H11.3044L17.7045 0H22.5906Z" fill="#3B2017"/>
</svg>
