<svg width="161" height="133" viewBox="0 0 161 133" fill="none" xmlns="http://www.w3.org/2000/svg">
<path d="M137.214 7.95754L23.7907 7.95752C20.6521 7.95752 18.1077 10.5045 18.1077 13.6463L18.1077 86.0365C18.1077 89.1783 20.6521 91.7253 23.7907 91.7253L137.214 91.7253C140.353 91.7253 142.897 89.1783 142.897 86.0365L142.897 13.6463C142.897 10.5045 140.353 7.95754 137.214 7.95754Z" stroke="#3B2017" stroke-width="3" stroke-miterlimit="10"/>
<path d="M150.87 115.728C150.65 117.205 149.385 118.423 147.751 118.423L13.2585 118.423C11.6198 118.423 10.3548 117.205 10.1344 115.728C10.0577 115.243 10.096 114.73 10.2733 114.221L17.3698 93.8454C17.8154 92.5743 19.0085 91.7253 20.355 91.7253L140.655 91.7254C141.996 91.7254 143.194 92.5744 143.635 93.8455L150.731 114.221C150.909 114.73 150.947 115.243 150.87 115.728Z" stroke="#3B2017" stroke-width="3" stroke-miterlimit="10"/>
<path d="M132.824 16L28.176 16C26.9742 16 26 16.9633 26 18.1517L26 81.8483C26 83.0367 26.9742 84 28.176 84L132.824 84C134.026 84 135 83.0367 135 81.8484L135 18.1517C135 16.9634 134.026 16 132.824 16Z" stroke="#3B2017" stroke-width="3" stroke-miterlimit="10"/>
<path d="M150.904 115.728L150.904 121.723C150.904 123.556 149.419 125.038 147.593 125.038L13.4071 125.038C11.5767 125.038 10.096 123.551 10.096 121.723L10.096 115.728L10.1344 115.728C10.3548 117.205 11.6198 118.423 13.2585 118.423L147.751 118.423C149.385 118.423 150.65 117.205 150.87 115.728L150.909 115.728L150.904 115.728Z" stroke="#3B2017" stroke-width="3" stroke-miterlimit="10"/>
<path d="M21.0755 111.21L25.6558 97.9019C25.8418 97.359 26.3468 97 26.9094 97L134.091 97C134.658 97 135.159 97.3635 135.345 97.9019L139.925 111.21C140.226 112.085 139.584 113 138.671 113L22.3291 113C21.4121 113 20.7742 112.085 21.0755 111.21Z" stroke="#3B2017" stroke-width="3" stroke-miterlimit="10"/>
<path d="M83.1633 67C83.1633 57.7245 75.6612 50.2063 66.4056 50.2063L66.4056 67L83.1633 67Z" fill="#3B2017"/>
<path d="M66.4056 50.2063C75.6612 50.2063 83.1633 42.6881 83.1633 33.4126L66.4056 33.4126L66.4056 50.2063Z" fill="#3B2017"/>
<path d="M99.9242 50.2063C90.6686 50.2063 83.1665 57.7245 83.1665 67L99.9242 67L99.9242 50.2063Z" fill="#3B2017"/>
<path d="M83.1632 33.4126L83.1632 50.2063L99.9209 50.2063C99.9209 40.9308 92.4189 33.4126 83.1632 33.4126Z" fill="#3B2017"/>
</svg>
