<svg width="392" height="216" viewBox="0 0 392 216" fill="none" xmlns="http://www.w3.org/2000/svg">
<rect x="1" y="1" width="390" height="214" rx="9" fill="#FFA872"/>
<rect x="1" y="1" width="390" height="214" rx="9" stroke="#3B2017" stroke-width="2"/>
<path d="M171 94.5H221V44.5H171V94.5Z" fill="black"/>
<path d="M111.642 126.886C111.642 126.606 111.617 126.352 111.566 126.123C111.516 125.894 111.409 125.683 111.244 125.489C111.087 125.296 110.854 125.103 110.546 124.909C110.245 124.716 109.851 124.515 109.364 124.308C108.784 124.064 108.222 123.806 107.678 123.534C107.133 123.255 106.643 122.933 106.206 122.567C105.769 122.202 105.422 121.772 105.164 121.278C104.913 120.777 104.788 120.19 104.788 119.517C104.788 118.858 104.906 118.26 105.143 117.723C105.386 117.186 105.73 116.727 106.174 116.348C106.618 115.961 107.137 115.664 107.731 115.456C108.333 115.248 109.003 115.145 109.74 115.145C110.743 115.145 111.609 115.352 112.34 115.768C113.077 116.183 113.647 116.752 114.048 117.476C114.456 118.199 114.66 119.03 114.66 119.968H111.523C111.523 119.524 111.459 119.133 111.33 118.797C111.208 118.453 111.011 118.185 110.739 117.991C110.467 117.798 110.116 117.701 109.687 117.701C109.285 117.701 108.952 117.784 108.688 117.948C108.43 118.106 108.236 118.324 108.107 118.604C107.986 118.876 107.925 119.184 107.925 119.527C107.925 119.785 107.986 120.018 108.107 120.226C108.236 120.426 108.412 120.609 108.634 120.773C108.856 120.931 109.117 121.085 109.418 121.235C109.726 121.386 110.062 121.533 110.428 121.676C111.137 121.955 111.763 122.263 112.308 122.6C112.852 122.929 113.307 123.301 113.672 123.717C114.037 124.125 114.313 124.587 114.499 125.103C114.685 125.618 114.778 126.205 114.778 126.864C114.778 127.516 114.664 128.11 114.435 128.647C114.213 129.177 113.887 129.636 113.457 130.022C113.027 130.402 112.508 130.696 111.899 130.903C111.298 131.111 110.625 131.215 109.88 131.215C109.157 131.215 108.473 131.115 107.828 130.914C107.184 130.706 106.614 130.395 106.12 129.979C105.633 129.557 105.25 129.023 104.971 128.379C104.691 127.727 104.552 126.957 104.552 126.069H107.699C107.699 126.542 107.746 126.947 107.839 127.283C107.932 127.613 108.075 127.878 108.269 128.078C108.462 128.271 108.698 128.418 108.978 128.519C109.264 128.612 109.59 128.658 109.955 128.658C110.37 128.658 110.7 128.579 110.943 128.422C111.194 128.264 111.373 128.053 111.48 127.788C111.588 127.523 111.642 127.222 111.642 126.886ZM120.171 115.359V131H117.045V115.359H120.171ZM134.544 126.886C134.544 126.606 134.519 126.352 134.469 126.123C134.419 125.894 134.311 125.683 134.146 125.489C133.989 125.296 133.756 125.103 133.448 124.909C133.147 124.716 132.754 124.515 132.267 124.308C131.687 124.064 131.124 123.806 130.58 123.534C130.036 123.255 129.545 122.933 129.108 122.567C128.672 122.202 128.324 121.772 128.066 121.278C127.816 120.777 127.69 120.19 127.69 119.517C127.69 118.858 127.809 118.26 128.045 117.723C128.288 117.186 128.632 116.727 129.076 116.348C129.52 115.961 130.039 115.664 130.634 115.456C131.235 115.248 131.905 115.145 132.643 115.145C133.645 115.145 134.512 115.352 135.242 115.768C135.98 116.183 136.549 116.752 136.95 117.476C137.358 118.199 137.562 119.03 137.562 119.968H134.426C134.426 119.524 134.361 119.133 134.232 118.797C134.111 118.453 133.914 118.185 133.642 117.991C133.369 117.798 133.019 117.701 132.589 117.701C132.188 117.701 131.855 117.784 131.59 117.948C131.332 118.106 131.139 118.324 131.01 118.604C130.888 118.876 130.827 119.184 130.827 119.527C130.827 119.785 130.888 120.018 131.01 120.226C131.139 120.426 131.314 120.609 131.536 120.773C131.758 120.931 132.02 121.085 132.32 121.235C132.628 121.386 132.965 121.533 133.33 121.676C134.039 121.955 134.666 122.263 135.21 122.6C135.754 122.929 136.209 123.301 136.574 123.717C136.939 124.125 137.215 124.587 137.401 125.103C137.588 125.618 137.681 126.205 137.681 126.864C137.681 127.516 137.566 128.11 137.337 128.647C137.115 129.177 136.789 129.636 136.359 130.022C135.93 130.402 135.41 130.696 134.802 130.903C134.2 131.111 133.527 131.215 132.782 131.215C132.059 131.215 131.375 131.115 130.73 130.914C130.086 130.706 129.517 130.395 129.022 129.979C128.535 129.557 128.152 129.023 127.873 128.379C127.594 127.727 127.454 126.957 127.454 126.069H130.602C130.602 126.542 130.648 126.947 130.741 127.283C130.834 127.613 130.978 127.878 131.171 128.078C131.364 128.271 131.601 128.418 131.88 128.519C132.166 128.612 132.492 128.658 132.857 128.658C133.273 128.658 133.602 128.579 133.846 128.422C134.096 128.264 134.275 128.053 134.383 127.788C134.49 127.523 134.544 127.222 134.544 126.886ZM148.777 128.4V131H141.978V128.4H148.777ZM142.955 115.359V131H139.808V115.359H142.955ZM147.864 121.697V124.222H141.978V121.697H147.864ZM148.756 115.359V117.97H141.978V115.359H148.756ZM161.55 115.359V131H158.51L153.601 121.214V131H150.614V115.359H153.611L158.563 125.253V115.359H161.55ZM170.015 115.359V131H166.889V115.359H170.015ZM173.903 115.359V117.97H163.075V115.359H173.903ZM178.995 115.359V131H175.869V115.359H178.995ZM175.944 114.457L178.05 111.138H181.434L178.458 114.457H175.944ZM188.298 126.886C188.298 126.606 188.273 126.352 188.223 126.123C188.173 125.894 188.065 125.683 187.9 125.489C187.743 125.296 187.51 125.103 187.202 124.909C186.901 124.716 186.507 124.515 186.021 124.308C185.44 124.064 184.878 123.806 184.334 123.534C183.79 123.255 183.299 122.933 182.862 122.567C182.425 122.202 182.078 121.772 181.82 121.278C181.57 120.777 181.444 120.19 181.444 119.517C181.444 118.858 181.562 118.26 181.799 117.723C182.042 117.186 182.386 116.727 182.83 116.348C183.274 115.961 183.793 115.664 184.388 115.456C184.989 115.248 185.659 115.145 186.396 115.145C187.399 115.145 188.266 115.352 188.996 115.768C189.734 116.183 190.303 116.752 190.704 117.476C191.112 118.199 191.316 119.03 191.316 119.968H188.18C188.18 119.524 188.115 119.133 187.986 118.797C187.865 118.453 187.668 118.185 187.396 117.991C187.123 117.798 186.772 117.701 186.343 117.701C185.942 117.701 185.609 117.784 185.344 117.948C185.086 118.106 184.893 118.324 184.764 118.604C184.642 118.876 184.581 119.184 184.581 119.527C184.581 119.785 184.642 120.018 184.764 120.226C184.893 120.426 185.068 120.609 185.29 120.773C185.512 120.931 185.773 121.085 186.074 121.235C186.382 121.386 186.719 121.533 187.084 121.676C187.793 121.955 188.42 122.263 188.964 122.6C189.508 122.929 189.963 123.301 190.328 123.717C190.693 124.125 190.969 124.587 191.155 125.103C191.341 125.618 191.435 126.205 191.435 126.864C191.435 127.516 191.32 128.11 191.091 128.647C190.869 129.177 190.543 129.636 190.113 130.022C189.684 130.402 189.164 130.696 188.556 130.903C187.954 131.111 187.281 131.215 186.536 131.215C185.813 131.215 185.129 131.115 184.484 130.914C183.84 130.706 183.271 130.395 182.776 129.979C182.289 129.557 181.906 129.023 181.627 128.379C181.348 127.727 181.208 126.957 181.208 126.069H184.355C184.355 126.542 184.402 126.947 184.495 127.283C184.588 127.613 184.731 127.878 184.925 128.078C185.118 128.271 185.354 128.418 185.634 128.519C185.92 128.612 186.246 128.658 186.611 128.658C187.027 128.658 187.356 128.579 187.6 128.422C187.85 128.264 188.029 128.053 188.137 127.788C188.244 127.523 188.298 127.222 188.298 126.886ZM205.937 128.615L209.675 131.988L207.698 133.804L204.046 130.431L205.937 128.615ZM209.61 121.966V124.394C209.61 125.518 209.478 126.51 209.213 127.369C208.948 128.221 208.565 128.934 208.063 129.507C207.562 130.073 206.968 130.499 206.28 130.785C205.593 131.072 204.83 131.215 203.992 131.215C203.154 131.215 202.388 131.072 201.693 130.785C201.006 130.499 200.411 130.073 199.91 129.507C199.416 128.934 199.029 128.221 198.75 127.369C198.478 126.51 198.342 125.518 198.342 124.394V121.966C198.342 120.834 198.478 119.846 198.75 119.001C199.022 118.149 199.405 117.44 199.899 116.874C200.401 116.301 200.995 115.871 201.683 115.585C202.37 115.291 203.133 115.145 203.971 115.145C204.816 115.145 205.582 115.291 206.27 115.585C206.957 115.871 207.551 116.301 208.053 116.874C208.561 117.44 208.948 118.149 209.213 119.001C209.478 119.846 209.61 120.834 209.61 121.966ZM206.474 124.394V121.944C206.474 121.2 206.42 120.566 206.312 120.043C206.205 119.513 206.044 119.08 205.829 118.743C205.621 118.407 205.36 118.16 205.045 118.002C204.737 117.844 204.379 117.766 203.971 117.766C203.57 117.766 203.212 117.844 202.896 118.002C202.581 118.16 202.32 118.407 202.112 118.743C201.912 119.08 201.754 119.513 201.64 120.043C201.532 120.566 201.479 121.2 201.479 121.944V124.394C201.479 125.138 201.532 125.779 201.64 126.316C201.754 126.846 201.915 127.28 202.123 127.616C202.331 127.953 202.592 128.203 202.907 128.368C203.222 128.526 203.584 128.604 203.992 128.604C204.393 128.604 204.748 128.526 205.056 128.368C205.371 128.203 205.632 127.953 205.84 127.616C206.055 127.28 206.212 126.846 206.312 126.316C206.42 125.779 206.474 125.138 206.474 124.394ZM218.935 115.359H222.071V126.102C222.071 127.305 221.849 128.286 221.405 129.045C220.968 129.797 220.363 130.348 219.59 130.699C218.816 131.043 217.932 131.215 216.937 131.215C215.934 131.215 215.042 131.043 214.262 130.699C213.481 130.348 212.872 129.797 212.436 129.045C212.006 128.286 211.791 127.305 211.791 126.102V115.359H214.928V126.102C214.928 126.782 215.003 127.305 215.153 127.67C215.311 128.035 215.536 128.286 215.83 128.422C216.131 128.551 216.5 128.615 216.937 128.615C217.381 128.615 217.746 128.551 218.032 128.422C218.326 128.286 218.548 128.035 218.698 127.67C218.856 127.305 218.935 126.782 218.935 126.102V115.359ZM233.447 128.4V131H226.647V128.4H233.447ZM227.625 115.359V131H224.478V115.359H227.625ZM232.534 121.697V124.222H226.647V121.697H232.534ZM233.426 115.359V117.97H226.647V115.359H233.426ZM246.016 118.152L242.653 131H239.334L244.222 115.359H246.295L246.016 118.152ZM248.669 131L245.285 118.152L244.974 115.359H247.079L252.01 131H248.669ZM248.787 125.167V127.777H241.729V125.167H248.787ZM262.183 128.4V131H255.684V128.4H262.183ZM256.65 115.359V131H253.503V115.359H256.65ZM273.967 122.782V129.228C273.745 129.464 273.419 129.74 272.989 130.055C272.567 130.363 272.012 130.635 271.324 130.871C270.644 131.1 269.813 131.215 268.832 131.215C267.965 131.215 267.178 131.079 266.469 130.807C265.767 130.535 265.162 130.123 264.653 129.571C264.152 129.013 263.769 128.318 263.504 127.487C263.239 126.649 263.106 125.658 263.106 124.512V121.848C263.106 120.716 263.232 119.731 263.482 118.894C263.74 118.049 264.113 117.347 264.6 116.788C265.087 116.229 265.667 115.814 266.34 115.542C267.02 115.27 267.786 115.134 268.639 115.134C269.813 115.134 270.776 115.331 271.528 115.725C272.287 116.118 272.86 116.702 273.247 117.476C273.641 118.249 273.877 119.198 273.956 120.322H270.916C270.866 119.663 270.755 119.148 270.583 118.775C270.418 118.403 270.186 118.138 269.885 117.98C269.584 117.816 269.194 117.733 268.714 117.733C268.299 117.733 267.937 117.809 267.629 117.959C267.321 118.102 267.063 118.339 266.855 118.668C266.648 118.997 266.494 119.42 266.394 119.936C266.293 120.451 266.243 121.081 266.243 121.826V124.512C266.243 125.249 266.3 125.88 266.415 126.402C266.53 126.925 266.698 127.351 266.92 127.681C267.149 128.01 267.436 128.25 267.779 128.4C268.13 128.544 268.542 128.615 269.015 128.615C269.394 128.615 269.699 128.576 269.928 128.497C270.157 128.418 270.34 128.336 270.476 128.25C270.619 128.157 270.737 128.085 270.83 128.035V125.156H268.585V122.782H273.967ZM287.223 121.966V124.576C287.223 125.679 287.087 126.646 286.814 127.477C286.549 128.3 286.17 128.991 285.676 129.55C285.189 130.101 284.598 130.517 283.903 130.796C283.216 131.075 282.453 131.215 281.615 131.215C280.777 131.215 280.011 131.075 279.316 130.796C278.629 130.517 278.035 130.101 277.533 129.55C277.039 128.991 276.656 128.3 276.384 127.477C276.112 126.646 275.976 125.679 275.976 124.576V121.966C275.976 120.834 276.108 119.846 276.373 119.001C276.638 118.149 277.021 117.44 277.522 116.874C278.024 116.301 278.618 115.871 279.306 115.585C279.993 115.291 280.756 115.145 281.594 115.145C282.432 115.145 283.194 115.291 283.882 115.585C284.569 115.871 285.164 116.301 285.665 116.874C286.166 117.44 286.549 118.149 286.814 119.001C287.087 119.846 287.223 120.834 287.223 121.966ZM284.097 124.576V121.944C284.097 121.2 284.043 120.566 283.936 120.043C283.828 119.513 283.667 119.08 283.452 118.743C283.237 118.407 282.976 118.16 282.668 118.002C282.36 117.844 282.002 117.766 281.594 117.766C281.186 117.766 280.824 117.844 280.509 118.002C280.201 118.16 279.939 118.407 279.725 118.743C279.517 119.08 279.359 119.513 279.252 120.043C279.152 120.566 279.102 121.2 279.102 121.944V124.576C279.102 125.292 279.155 125.905 279.263 126.413C279.37 126.922 279.531 127.337 279.746 127.659C279.961 127.981 280.222 128.221 280.53 128.379C280.845 128.529 281.207 128.604 281.615 128.604C282.016 128.604 282.371 128.529 282.679 128.379C282.994 128.221 283.255 127.981 283.463 127.659C283.671 127.337 283.828 126.922 283.936 126.413C284.043 125.905 284.097 125.292 284.097 124.576ZM158.059 152.886C158.059 152.606 158.034 152.352 157.983 152.123C157.933 151.894 157.826 151.683 157.661 151.489C157.504 151.296 157.271 151.103 156.963 150.909C156.662 150.716 156.268 150.515 155.781 150.308C155.201 150.064 154.639 149.806 154.095 149.534C153.55 149.255 153.06 148.933 152.623 148.567C152.186 148.202 151.839 147.772 151.581 147.278C151.33 146.777 151.205 146.19 151.205 145.517C151.205 144.858 151.323 144.26 151.56 143.723C151.803 143.186 152.147 142.727 152.591 142.348C153.035 141.961 153.554 141.664 154.148 141.456C154.75 141.248 155.42 141.145 156.157 141.145C157.16 141.145 158.026 141.352 158.757 141.768C159.494 142.183 160.064 142.752 160.465 143.476C160.873 144.199 161.077 145.03 161.077 145.968H157.94C157.94 145.524 157.876 145.133 157.747 144.797C157.625 144.453 157.428 144.185 157.156 143.991C156.884 143.798 156.533 143.701 156.104 143.701C155.702 143.701 155.369 143.784 155.104 143.948C154.847 144.106 154.653 144.324 154.524 144.604C154.403 144.876 154.342 145.184 154.342 145.527C154.342 145.785 154.403 146.018 154.524 146.226C154.653 146.426 154.829 146.609 155.051 146.773C155.273 146.931 155.534 147.085 155.835 147.235C156.143 147.386 156.479 147.533 156.845 147.676C157.554 147.955 158.18 148.263 158.725 148.6C159.269 148.929 159.724 149.301 160.089 149.717C160.454 150.125 160.73 150.587 160.916 151.103C161.102 151.618 161.195 152.205 161.195 152.864C161.195 153.516 161.081 154.11 160.852 154.647C160.63 155.177 160.304 155.636 159.874 156.022C159.444 156.402 158.925 156.696 158.316 156.903C157.715 157.111 157.042 157.215 156.297 157.215C155.574 157.215 154.89 157.115 154.245 156.914C153.601 156.706 153.031 156.395 152.537 155.979C152.05 155.557 151.667 155.023 151.388 154.379C151.108 153.727 150.969 152.957 150.969 152.069H154.116C154.116 152.542 154.163 152.947 154.256 153.283C154.349 153.613 154.492 153.878 154.686 154.078C154.879 154.271 155.115 154.418 155.395 154.519C155.681 154.612 156.007 154.658 156.372 154.658C156.787 154.658 157.117 154.579 157.36 154.422C157.611 154.264 157.79 154.053 157.897 153.788C158.005 153.523 158.059 153.222 158.059 152.886ZM172.292 154.4V157H165.492V154.4H172.292ZM166.47 141.359V157H163.322V141.359H166.47ZM171.379 147.697V150.222H165.492V147.697H171.379ZM172.271 141.359V143.97H165.492V141.359H172.271ZM179.21 141.359H184.227C185.272 141.359 186.164 141.538 186.901 141.896C187.639 142.255 188.205 142.785 188.599 143.486C188.993 144.188 189.189 145.055 189.189 146.086C189.189 146.931 189.075 147.654 188.846 148.256C188.617 148.85 188.291 149.348 187.868 149.749C187.446 150.143 186.941 150.458 186.354 150.694L185.397 151.264H181.326L181.315 148.653H184.141C184.57 148.653 184.925 148.56 185.204 148.374C185.491 148.181 185.702 147.912 185.838 147.568C185.981 147.217 186.053 146.809 186.053 146.344C186.053 145.85 185.988 145.427 185.859 145.076C185.738 144.718 185.541 144.446 185.269 144.26C185.004 144.066 184.656 143.97 184.227 143.97H182.357V157H179.21V141.359ZM186.311 157L183.442 150.028L186.74 150.018L189.673 156.85V157H186.311ZM200.351 154.4V157H193.551V154.4H200.351ZM194.528 141.359V157H191.381V141.359H194.528ZM199.438 147.697V150.222H193.551V147.697H199.438ZM200.329 141.359V143.97H193.551V141.359H200.329ZM207.516 151.489H204.314V148.879H207.516C207.967 148.879 208.332 148.779 208.611 148.578C208.891 148.378 209.095 148.102 209.224 147.751C209.353 147.393 209.417 146.992 209.417 146.548C209.417 146.097 209.353 145.674 209.224 145.28C209.095 144.886 208.891 144.571 208.611 144.335C208.332 144.091 207.967 143.97 207.516 143.97H205.335V157H202.188V141.359H207.516C208.568 141.359 209.471 141.581 210.223 142.025C210.982 142.469 211.565 143.082 211.974 143.862C212.382 144.636 212.586 145.524 212.586 146.526C212.586 147.536 212.382 148.413 211.974 149.158C211.565 149.896 210.982 150.469 210.223 150.877C209.471 151.285 208.568 151.489 207.516 151.489ZM217.957 141.359V157H214.831V141.359H217.957ZM226.572 141.359V157H223.446V141.359H226.572ZM230.461 141.359V143.97H219.633V141.359H230.461ZM241.257 154.4V157H234.457V154.4H241.257ZM235.435 141.359V157H232.287V141.359H235.435ZM240.344 147.697V150.222H234.457V147.697H240.344ZM241.235 141.359V143.97H234.457V141.359H241.235Z" fill="#3B2017"/>
</svg>
