<svg width="392" height="216" viewBox="0 0 392 216" fill="none" xmlns="http://www.w3.org/2000/svg">
<rect x="1" y="1" width="390" height="214" rx="9" fill="#E59BF0"/>
<rect x="1" y="1" width="390" height="214" rx="9" stroke="#3B2017" stroke-width="2"/>
<path d="M171 94.5H221V44.5H171V94.5Z" fill="black"/>
<path d="M156.673 126.886C156.673 126.606 156.648 126.352 156.598 126.123C156.548 125.894 156.44 125.683 156.275 125.489C156.118 125.296 155.885 125.103 155.577 124.909C155.276 124.716 154.882 124.515 154.396 124.308C153.815 124.064 153.253 123.806 152.709 123.534C152.165 123.255 151.674 122.933 151.237 122.567C150.8 122.202 150.453 121.772 150.195 121.278C149.945 120.777 149.819 120.19 149.819 119.517C149.819 118.858 149.938 118.26 150.174 117.723C150.417 117.186 150.761 116.727 151.205 116.348C151.649 115.961 152.168 115.664 152.763 115.456C153.364 115.248 154.034 115.145 154.771 115.145C155.774 115.145 156.641 115.352 157.371 115.768C158.109 116.183 158.678 116.752 159.079 117.476C159.487 118.199 159.691 119.03 159.691 119.968H156.555C156.555 119.524 156.49 119.133 156.361 118.797C156.24 118.453 156.043 118.185 155.771 117.991C155.498 117.798 155.147 117.701 154.718 117.701C154.317 117.701 153.984 117.784 153.719 117.948C153.461 118.106 153.268 118.324 153.139 118.604C153.017 118.876 152.956 119.184 152.956 119.527C152.956 119.785 153.017 120.018 153.139 120.226C153.268 120.426 153.443 120.609 153.665 120.773C153.887 120.931 154.148 121.085 154.449 121.235C154.757 121.386 155.094 121.533 155.459 121.676C156.168 121.955 156.795 122.263 157.339 122.6C157.883 122.929 158.338 123.301 158.703 123.717C159.068 124.125 159.344 124.587 159.53 125.103C159.716 125.618 159.81 126.205 159.81 126.864C159.81 127.516 159.695 128.11 159.466 128.647C159.244 129.177 158.918 129.636 158.488 130.022C158.059 130.402 157.539 130.696 156.931 130.903C156.329 131.111 155.656 131.215 154.911 131.215C154.188 131.215 153.504 131.115 152.859 130.914C152.215 130.706 151.646 130.395 151.151 129.979C150.664 129.557 150.281 129.023 150.002 128.379C149.723 127.727 149.583 126.957 149.583 126.069H152.73C152.73 126.542 152.777 126.947 152.87 127.283C152.963 127.613 153.106 127.878 153.3 128.078C153.493 128.271 153.729 128.418 154.009 128.519C154.295 128.612 154.621 128.658 154.986 128.658C155.402 128.658 155.731 128.579 155.975 128.422C156.225 128.264 156.404 128.053 156.512 127.788C156.619 127.523 156.673 127.222 156.673 126.886ZM165.202 115.359V131H162.076V115.359H165.202ZM180.263 128.615L184.001 131.988L182.024 133.804L178.372 130.431L180.263 128.615ZM183.937 121.966V124.394C183.937 125.518 183.804 126.51 183.539 127.369C183.274 128.221 182.891 128.934 182.39 129.507C181.888 130.073 181.294 130.499 180.606 130.785C179.919 131.072 179.156 131.215 178.318 131.215C177.48 131.215 176.714 131.072 176.02 130.785C175.332 130.499 174.738 130.073 174.236 129.507C173.742 128.934 173.355 128.221 173.076 127.369C172.804 126.51 172.668 125.518 172.668 124.394V121.966C172.668 120.834 172.804 119.846 173.076 119.001C173.348 118.149 173.731 117.44 174.226 116.874C174.727 116.301 175.321 115.871 176.009 115.585C176.696 115.291 177.459 115.145 178.297 115.145C179.142 115.145 179.908 115.291 180.596 115.585C181.283 115.871 181.878 116.301 182.379 116.874C182.887 117.44 183.274 118.149 183.539 119.001C183.804 119.846 183.937 120.834 183.937 121.966ZM180.8 124.394V121.944C180.8 121.2 180.746 120.566 180.639 120.043C180.531 119.513 180.37 119.08 180.155 118.743C179.948 118.407 179.686 118.16 179.371 118.002C179.063 117.844 178.705 117.766 178.297 117.766C177.896 117.766 177.538 117.844 177.223 118.002C176.908 118.16 176.646 118.407 176.438 118.743C176.238 119.08 176.08 119.513 175.966 120.043C175.858 120.566 175.805 121.2 175.805 121.944V124.394C175.805 125.138 175.858 125.779 175.966 126.316C176.08 126.846 176.242 127.28 176.449 127.616C176.657 127.953 176.918 128.203 177.233 128.368C177.549 128.526 177.91 128.604 178.318 128.604C178.719 128.604 179.074 128.526 179.382 128.368C179.697 128.203 179.958 127.953 180.166 127.616C180.381 127.28 180.538 126.846 180.639 126.316C180.746 125.779 180.8 125.138 180.8 124.394ZM193.261 115.359H196.397V126.102C196.397 127.305 196.175 128.286 195.731 129.045C195.295 129.797 194.689 130.348 193.916 130.699C193.143 131.043 192.258 131.215 191.263 131.215C190.26 131.215 189.368 131.043 188.588 130.699C187.807 130.348 187.199 129.797 186.762 129.045C186.332 128.286 186.117 127.305 186.117 126.102V115.359H189.254V126.102C189.254 126.782 189.329 127.305 189.479 127.67C189.637 128.035 189.863 128.286 190.156 128.422C190.457 128.551 190.826 128.615 191.263 128.615C191.707 128.615 192.072 128.551 192.358 128.422C192.652 128.286 192.874 128.035 193.024 127.67C193.182 127.305 193.261 126.782 193.261 126.102V115.359ZM207.773 128.4V131H200.974V128.4H207.773ZM201.951 115.359V131H198.804V115.359H201.951ZM206.86 121.697V124.222H200.974V121.697H206.86ZM207.752 115.359V117.97H200.974V115.359H207.752ZM209.621 115.359H214.638C215.683 115.359 216.575 115.538 217.312 115.896C218.05 116.255 218.616 116.785 219.01 117.486C219.404 118.188 219.601 119.055 219.601 120.086C219.601 120.931 219.486 121.654 219.257 122.256C219.028 122.85 218.702 123.348 218.279 123.749C217.857 124.143 217.352 124.458 216.765 124.694L215.809 125.264H211.737L211.727 122.653H214.552C214.981 122.653 215.336 122.56 215.615 122.374C215.902 122.181 216.113 121.912 216.249 121.568C216.392 121.217 216.464 120.809 216.464 120.344C216.464 119.85 216.399 119.427 216.271 119.076C216.149 118.718 215.952 118.446 215.68 118.26C215.415 118.066 215.067 117.97 214.638 117.97H212.769V131H209.621V115.359ZM216.722 131L213.854 124.028L217.151 124.018L220.084 130.85V131H216.722ZM230.762 128.4V131H223.962V128.4H230.762ZM224.939 115.359V131H221.792V115.359H224.939ZM229.849 121.697V124.222H223.962V121.697H229.849ZM230.74 115.359V117.97H223.962V115.359H230.74ZM225.015 114.457L227.12 111.138H230.504L227.528 114.457H225.015ZM239.216 126.886C239.216 126.606 239.191 126.352 239.141 126.123C239.09 125.894 238.983 125.683 238.818 125.489C238.661 125.296 238.428 125.103 238.12 124.909C237.819 124.716 237.425 124.515 236.938 124.308C236.358 124.064 235.796 123.806 235.252 123.534C234.708 123.255 234.217 122.933 233.78 122.567C233.343 122.202 232.996 121.772 232.738 121.278C232.488 120.777 232.362 120.19 232.362 119.517C232.362 118.858 232.48 118.26 232.717 117.723C232.96 117.186 233.304 116.727 233.748 116.348C234.192 115.961 234.711 115.664 235.306 115.456C235.907 115.248 236.577 115.145 237.314 115.145C238.317 115.145 239.184 115.352 239.914 115.768C240.652 116.183 241.221 116.752 241.622 117.476C242.03 118.199 242.234 119.03 242.234 119.968H239.098C239.098 119.524 239.033 119.133 238.904 118.797C238.783 118.453 238.586 118.185 238.313 117.991C238.041 117.798 237.69 117.701 237.261 117.701C236.86 117.701 236.527 117.784 236.262 117.948C236.004 118.106 235.811 118.324 235.682 118.604C235.56 118.876 235.499 119.184 235.499 119.527C235.499 119.785 235.56 120.018 235.682 120.226C235.811 120.426 235.986 120.609 236.208 120.773C236.43 120.931 236.691 121.085 236.992 121.235C237.3 121.386 237.637 121.533 238.002 121.676C238.711 121.955 239.338 122.263 239.882 122.6C240.426 122.929 240.881 123.301 241.246 123.717C241.611 124.125 241.887 124.587 242.073 125.103C242.259 125.618 242.353 126.205 242.353 126.864C242.353 127.516 242.238 128.11 242.009 128.647C241.787 129.177 241.461 129.636 241.031 130.022C240.602 130.402 240.082 130.696 239.474 130.903C238.872 131.111 238.199 131.215 237.454 131.215C236.731 131.215 236.047 131.115 235.402 130.914C234.758 130.706 234.188 130.395 233.694 129.979C233.207 129.557 232.824 129.023 232.545 128.379C232.266 127.727 232.126 126.957 232.126 126.069H235.273C235.273 126.542 235.32 126.947 235.413 127.283C235.506 127.613 235.649 127.878 235.843 128.078C236.036 128.271 236.272 128.418 236.552 128.519C236.838 128.612 237.164 128.658 237.529 128.658C237.945 128.658 238.274 128.579 238.518 128.422C238.768 128.264 238.947 128.053 239.055 127.788C239.162 127.523 239.216 127.222 239.216 126.886ZM137.584 151.489H134.383V148.879H137.584C138.035 148.879 138.4 148.779 138.68 148.578C138.959 148.378 139.163 148.102 139.292 147.751C139.421 147.393 139.485 146.992 139.485 146.548C139.485 146.097 139.421 145.674 139.292 145.28C139.163 144.886 138.959 144.571 138.68 144.335C138.4 144.091 138.035 143.97 137.584 143.97H135.403V157H132.256V141.359H137.584C138.637 141.359 139.539 141.581 140.291 142.025C141.05 142.469 141.634 143.082 142.042 143.862C142.45 144.636 142.654 145.524 142.654 146.526C142.654 147.536 142.45 148.413 142.042 149.158C141.634 149.896 141.05 150.469 140.291 150.877C139.539 151.285 138.637 151.489 137.584 151.489ZM144.771 141.359H149.787C150.833 141.359 151.724 141.538 152.462 141.896C153.2 142.255 153.765 142.785 154.159 143.486C154.553 144.188 154.75 145.055 154.75 146.086C154.75 146.931 154.635 147.654 154.406 148.256C154.177 148.85 153.851 149.348 153.429 149.749C153.006 150.143 152.501 150.458 151.914 150.694L150.958 151.264H146.887L146.876 148.653H149.701C150.131 148.653 150.485 148.56 150.765 148.374C151.051 148.181 151.262 147.912 151.398 147.568C151.542 147.217 151.613 146.809 151.613 146.344C151.613 145.85 151.549 145.427 151.42 145.076C151.298 144.718 151.101 144.446 150.829 144.26C150.564 144.066 150.217 143.97 149.787 143.97H147.918V157H144.771V141.359ZM151.871 157L149.003 150.028L152.301 150.018L155.233 156.85V157H151.871ZM167.931 147.966V150.576C167.931 151.679 167.795 152.646 167.522 153.477C167.257 154.3 166.878 154.991 166.384 155.55C165.897 156.101 165.306 156.517 164.611 156.796C163.924 157.075 163.161 157.215 162.323 157.215C161.485 157.215 160.719 157.075 160.024 156.796C159.337 156.517 158.743 156.101 158.241 155.55C157.747 154.991 157.364 154.3 157.092 153.477C156.82 152.646 156.684 151.679 156.684 150.576V147.966C156.684 146.834 156.816 145.846 157.081 145.001C157.346 144.149 157.729 143.44 158.23 142.874C158.732 142.301 159.326 141.871 160.014 141.585C160.701 141.291 161.464 141.145 162.302 141.145C163.14 141.145 163.902 141.291 164.59 141.585C165.277 141.871 165.872 142.301 166.373 142.874C166.874 143.44 167.257 144.149 167.522 145.001C167.795 145.846 167.931 146.834 167.931 147.966ZM164.805 150.576V147.944C164.805 147.2 164.751 146.566 164.644 146.043C164.536 145.513 164.375 145.08 164.16 144.743C163.945 144.407 163.684 144.16 163.376 144.002C163.068 143.844 162.71 143.766 162.302 143.766C161.894 143.766 161.532 143.844 161.217 144.002C160.909 144.16 160.647 144.407 160.433 144.743C160.225 145.08 160.067 145.513 159.96 146.043C159.86 146.566 159.81 147.2 159.81 147.944V150.576C159.81 151.292 159.863 151.905 159.971 152.413C160.078 152.922 160.239 153.337 160.454 153.659C160.669 153.981 160.93 154.221 161.238 154.379C161.553 154.529 161.915 154.604 162.323 154.604C162.724 154.604 163.079 154.529 163.387 154.379C163.702 154.221 163.963 153.981 164.171 153.659C164.379 153.337 164.536 152.922 164.644 152.413C164.751 151.905 164.805 151.292 164.805 150.576ZM173.366 141.359V157H170.219V141.359H173.366ZM178.265 148.009V150.608H172.571V148.009H178.265ZM178.866 141.359V143.97H172.571V141.359H178.866ZM187.729 141.359H190.865V152.102C190.865 153.305 190.643 154.286 190.199 155.045C189.762 155.797 189.157 156.348 188.384 156.699C187.61 157.043 186.726 157.215 185.73 157.215C184.728 157.215 183.836 157.043 183.056 156.699C182.275 156.348 181.666 155.797 181.229 155.045C180.8 154.286 180.585 153.305 180.585 152.102V141.359H183.722V152.102C183.722 152.782 183.797 153.305 183.947 153.67C184.105 154.035 184.33 154.286 184.624 154.422C184.925 154.551 185.294 154.615 185.73 154.615C186.174 154.615 186.54 154.551 186.826 154.422C187.12 154.286 187.342 154.035 187.492 153.67C187.65 153.305 187.729 152.782 187.729 152.102V141.359ZM204.207 141.359V157H201.167L196.258 147.214V157H193.271V141.359H196.269L201.221 151.253V141.359H204.207ZM210.824 157H208.063L208.085 154.4H210.824C211.583 154.4 212.174 154.264 212.597 153.992C213.019 153.72 213.316 153.29 213.488 152.703C213.667 152.116 213.757 151.346 213.757 150.394V147.955C213.757 147.232 213.71 146.619 213.617 146.118C213.524 145.61 213.367 145.201 213.145 144.894C212.923 144.578 212.625 144.346 212.253 144.195C211.881 144.045 211.419 143.97 210.867 143.97H208.01V141.359H210.867C211.77 141.359 212.59 141.506 213.327 141.8C214.065 142.093 214.699 142.523 215.229 143.089C215.758 143.647 216.167 144.339 216.453 145.162C216.74 145.986 216.883 146.924 216.883 147.977V150.394C216.883 151.453 216.74 152.392 216.453 153.208C216.167 154.024 215.758 154.715 215.229 155.281C214.706 155.84 214.072 156.266 213.327 156.56C212.582 156.853 211.748 157 210.824 157ZM209.89 141.359V157H206.742V141.359H209.89ZM222.447 141.359V157H219.321V141.359H222.447ZM234.833 154.4V157H225.53V154.4H234.833ZM234.715 143.196L226.895 157H224.703V155.099L232.609 141.359H234.715V143.196ZM233.651 141.359V143.97H224.639V141.359H233.651ZM242.61 144.152L239.248 157H235.929L240.816 141.359H242.89L242.61 144.152ZM245.264 157L241.88 144.152L241.568 141.359H243.674L248.604 157H245.264ZM245.382 151.167V153.777H238.324V151.167H245.382ZM250.108 141.359H255.125C256.171 141.359 257.062 141.538 257.8 141.896C258.537 142.255 259.103 142.785 259.497 143.486C259.891 144.188 260.088 145.055 260.088 146.086C260.088 146.931 259.973 147.654 259.744 148.256C259.515 148.85 259.189 149.348 258.767 149.749C258.344 150.143 257.839 150.458 257.252 150.694L256.296 151.264H252.225L252.214 148.653H255.039C255.469 148.653 255.823 148.56 256.103 148.374C256.389 148.181 256.6 147.912 256.736 147.568C256.88 147.217 256.951 146.809 256.951 146.344C256.951 145.85 256.887 145.427 256.758 145.076C256.636 144.718 256.439 144.446 256.167 144.26C255.902 144.066 255.555 143.97 255.125 143.97H253.256V157H250.108V141.359ZM257.209 157L254.341 150.028L257.639 150.018L260.571 156.85V157H257.209Z" fill="#3B2017"/>
</svg>
