<svg width="392" height="216" viewBox="0 0 392 216" fill="none" xmlns="http://www.w3.org/2000/svg">
<rect x="1" y="1" width="390" height="214" rx="9" fill="#BFD43B"/>
<rect x="1" y="1" width="390" height="214" rx="9" stroke="#3B2017" stroke-width="2"/>
<path d="M175 89.94H217V47.94H175V89.94Z" fill="black"/>
<path d="M129.098 126.886C129.098 126.606 129.073 126.352 129.022 126.123C128.972 125.894 128.865 125.683 128.7 125.489C128.543 125.296 128.31 125.103 128.002 124.909C127.701 124.716 127.307 124.515 126.82 124.308C126.24 124.064 125.678 123.806 125.134 123.534C124.59 123.255 124.099 122.933 123.662 122.567C123.225 122.202 122.878 121.772 122.62 121.278C122.369 120.777 122.244 120.19 122.244 119.517C122.244 118.858 122.362 118.26 122.599 117.723C122.842 117.186 123.186 116.727 123.63 116.348C124.074 115.961 124.593 115.664 125.188 115.456C125.789 115.248 126.459 115.145 127.196 115.145C128.199 115.145 129.065 115.352 129.796 115.768C130.534 116.183 131.103 116.752 131.504 117.476C131.912 118.199 132.116 119.03 132.116 119.968H128.979C128.979 119.524 128.915 119.133 128.786 118.797C128.664 118.453 128.467 118.185 128.195 117.991C127.923 117.798 127.572 117.701 127.143 117.701C126.742 117.701 126.409 117.784 126.144 117.948C125.886 118.106 125.692 118.324 125.563 118.604C125.442 118.876 125.381 119.184 125.381 119.527C125.381 119.785 125.442 120.018 125.563 120.226C125.692 120.426 125.868 120.609 126.09 120.773C126.312 120.931 126.573 121.085 126.874 121.235C127.182 121.386 127.519 121.533 127.884 121.676C128.593 121.955 129.219 122.263 129.764 122.6C130.308 122.929 130.763 123.301 131.128 123.717C131.493 124.125 131.769 124.587 131.955 125.103C132.141 125.618 132.234 126.205 132.234 126.864C132.234 127.516 132.12 128.11 131.891 128.647C131.669 129.177 131.343 129.636 130.913 130.022C130.483 130.402 129.964 130.696 129.355 130.903C128.754 131.111 128.081 131.215 127.336 131.215C126.613 131.215 125.929 131.115 125.284 130.914C124.64 130.706 124.07 130.395 123.576 129.979C123.089 129.557 122.706 129.023 122.427 128.379C122.147 127.727 122.008 126.957 122.008 126.069H125.155C125.155 126.542 125.202 126.947 125.295 127.283C125.388 127.613 125.531 127.878 125.725 128.078C125.918 128.271 126.154 128.418 126.434 128.519C126.72 128.612 127.046 128.658 127.411 128.658C127.826 128.658 128.156 128.579 128.399 128.422C128.65 128.264 128.829 128.053 128.937 127.788C129.044 127.523 129.098 127.222 129.098 126.886ZM137.627 115.359V131H134.501V115.359H137.627ZM147.703 115.359L150.088 122.406L152.451 115.359H155.878L151.667 125.317V131H148.498V125.317L144.287 115.359H147.703ZM161.399 118.152L158.037 131H154.718L159.605 115.359H161.679L161.399 118.152ZM164.053 131L160.669 118.152L160.357 115.359H162.463L167.394 131H164.053ZM164.171 125.167V127.777H157.113V125.167H164.171ZM179.285 125.489H176.084V122.879H179.285C179.736 122.879 180.102 122.779 180.381 122.578C180.66 122.378 180.864 122.102 180.993 121.751C181.122 121.393 181.187 120.992 181.187 120.548C181.187 120.097 181.122 119.674 180.993 119.28C180.864 118.886 180.66 118.571 180.381 118.335C180.102 118.091 179.736 117.97 179.285 117.97H177.104V131H173.957V115.359H179.285C180.338 115.359 181.24 115.581 181.992 116.025C182.751 116.469 183.335 117.082 183.743 117.862C184.151 118.636 184.355 119.524 184.355 120.526C184.355 121.536 184.151 122.413 183.743 123.158C183.335 123.896 182.751 124.469 181.992 124.877C181.24 125.285 180.338 125.489 179.285 125.489ZM186.472 115.359H191.488C192.534 115.359 193.425 115.538 194.163 115.896C194.901 116.255 195.466 116.785 195.86 117.486C196.254 118.188 196.451 119.055 196.451 120.086C196.451 120.931 196.337 121.654 196.107 122.256C195.878 122.85 195.552 123.348 195.13 123.749C194.707 124.143 194.202 124.458 193.615 124.694L192.659 125.264H188.588L188.577 122.653H191.402C191.832 122.653 192.187 122.56 192.466 122.374C192.752 122.181 192.964 121.912 193.1 121.568C193.243 121.217 193.314 120.809 193.314 120.344C193.314 119.85 193.25 119.427 193.121 119.076C192.999 118.718 192.802 118.446 192.53 118.26C192.265 118.066 191.918 117.97 191.488 117.97H189.619V131H186.472V115.359ZM193.572 131L190.704 124.028L194.002 124.018L196.935 130.85V131H193.572ZM209.632 121.966V124.576C209.632 125.679 209.496 126.646 209.224 127.477C208.959 128.3 208.579 128.991 208.085 129.55C207.598 130.101 207.007 130.517 206.312 130.796C205.625 131.075 204.862 131.215 204.024 131.215C203.187 131.215 202.42 131.075 201.726 130.796C201.038 130.517 200.444 130.101 199.942 129.55C199.448 128.991 199.065 128.3 198.793 127.477C198.521 126.646 198.385 125.679 198.385 124.576V121.966C198.385 120.834 198.517 119.846 198.782 119.001C199.047 118.149 199.43 117.44 199.932 116.874C200.433 116.301 201.027 115.871 201.715 115.585C202.402 115.291 203.165 115.145 204.003 115.145C204.841 115.145 205.604 115.291 206.291 115.585C206.979 115.871 207.573 116.301 208.074 116.874C208.576 117.44 208.959 118.149 209.224 119.001C209.496 119.846 209.632 120.834 209.632 121.966ZM206.506 124.576V121.944C206.506 121.2 206.452 120.566 206.345 120.043C206.237 119.513 206.076 119.08 205.861 118.743C205.646 118.407 205.385 118.16 205.077 118.002C204.769 117.844 204.411 117.766 204.003 117.766C203.595 117.766 203.233 117.844 202.918 118.002C202.61 118.16 202.349 118.407 202.134 118.743C201.926 119.08 201.769 119.513 201.661 120.043C201.561 120.566 201.511 121.2 201.511 121.944V124.576C201.511 125.292 201.564 125.905 201.672 126.413C201.779 126.922 201.94 127.337 202.155 127.659C202.37 127.981 202.632 128.221 202.939 128.379C203.255 128.529 203.616 128.604 204.024 128.604C204.425 128.604 204.78 128.529 205.088 128.379C205.403 128.221 205.664 127.981 205.872 127.659C206.08 127.337 206.237 126.922 206.345 126.413C206.452 125.905 206.506 125.292 206.506 124.576ZM217.205 124.179H213.993L213.982 121.901H216.711C217.141 121.901 217.492 121.83 217.764 121.687C218.043 121.536 218.247 121.318 218.376 121.031C218.512 120.738 218.58 120.383 218.58 119.968C218.58 119.488 218.516 119.105 218.387 118.818C218.265 118.525 218.068 118.31 217.796 118.174C217.531 118.038 217.18 117.97 216.743 117.97H215.067V131H211.92V115.359H216.743C217.517 115.359 218.211 115.445 218.827 115.617C219.443 115.789 219.966 116.054 220.396 116.412C220.825 116.763 221.155 117.207 221.384 117.744C221.613 118.274 221.728 118.904 221.728 119.635C221.728 120.279 221.599 120.874 221.341 121.418C221.083 121.962 220.678 122.41 220.127 122.761C219.576 123.104 218.863 123.294 217.989 123.33L217.205 124.179ZM217.087 131H213.102L214.358 128.4H217.087C217.509 128.4 217.846 128.311 218.097 128.132C218.347 127.953 218.53 127.713 218.645 127.412C218.766 127.104 218.827 126.753 218.827 126.359C218.827 125.915 218.773 125.529 218.666 125.199C218.566 124.87 218.397 124.619 218.161 124.447C217.925 124.268 217.606 124.179 217.205 124.179H214.498L214.52 121.901H217.807L218.548 122.804C219.386 122.775 220.055 122.936 220.557 123.287C221.058 123.631 221.416 124.082 221.631 124.641C221.853 125.192 221.964 125.779 221.964 126.402C221.964 127.405 221.774 128.25 221.395 128.938C221.022 129.618 220.474 130.133 219.751 130.484C219.028 130.828 218.14 131 217.087 131ZM229.935 118.152L226.572 131H223.253L228.141 115.359H230.214L229.935 118.152ZM232.588 131L229.204 118.152L228.893 115.359H230.998L235.929 131H232.588ZM232.706 125.167V127.777H225.648V125.167H232.706ZM244.039 126.886C244.039 126.606 244.014 126.352 243.964 126.123C243.914 125.894 243.806 125.683 243.642 125.489C243.484 125.296 243.251 125.103 242.943 124.909C242.643 124.716 242.249 124.515 241.762 124.308C241.182 124.064 240.619 123.806 240.075 123.534C239.531 123.255 239.04 122.933 238.604 122.567C238.167 122.202 237.819 121.772 237.562 121.278C237.311 120.777 237.186 120.19 237.186 119.517C237.186 118.858 237.304 118.26 237.54 117.723C237.784 117.186 238.127 116.727 238.571 116.348C239.015 115.961 239.535 115.664 240.129 115.456C240.73 115.248 241.4 115.145 242.138 115.145C243.14 115.145 244.007 115.352 244.737 115.768C245.475 116.183 246.044 116.752 246.445 117.476C246.854 118.199 247.058 119.03 247.058 119.968H243.921C243.921 119.524 243.856 119.133 243.728 118.797C243.606 118.453 243.409 118.185 243.137 117.991C242.865 117.798 242.514 117.701 242.084 117.701C241.683 117.701 241.35 117.784 241.085 117.948C240.827 118.106 240.634 118.324 240.505 118.604C240.383 118.876 240.322 119.184 240.322 119.527C240.322 119.785 240.383 120.018 240.505 120.226C240.634 120.426 240.809 120.609 241.031 120.773C241.253 120.931 241.515 121.085 241.815 121.235C242.123 121.386 242.46 121.533 242.825 121.676C243.534 121.955 244.161 122.263 244.705 122.6C245.249 122.929 245.704 123.301 246.069 123.717C246.435 124.125 246.71 124.587 246.896 125.103C247.083 125.618 247.176 126.205 247.176 126.864C247.176 127.516 247.061 128.11 246.832 128.647C246.61 129.177 246.284 129.636 245.854 130.022C245.425 130.402 244.906 130.696 244.297 130.903C243.695 131.111 243.022 131.215 242.277 131.215C241.554 131.215 240.87 131.115 240.226 130.914C239.581 130.706 239.012 130.395 238.518 129.979C238.031 129.557 237.647 129.023 237.368 128.379C237.089 127.727 236.949 126.957 236.949 126.069H240.097C240.097 126.542 240.143 126.947 240.236 127.283C240.329 127.613 240.473 127.878 240.666 128.078C240.859 128.271 241.096 128.418 241.375 128.519C241.661 128.612 241.987 128.658 242.353 128.658C242.768 128.658 243.097 128.579 243.341 128.422C243.591 128.264 243.771 128.053 243.878 127.788C243.985 127.523 244.039 127.222 244.039 126.886ZM255.533 115.359V131H252.407V115.359H255.533ZM259.422 115.359V117.97H248.594V115.359H259.422ZM270.218 128.4V131H263.418V128.4H270.218ZM264.396 115.359V131H261.248V115.359H264.396ZM269.305 121.697V124.222H263.418V121.697H269.305ZM270.196 115.359V117.97H263.418V115.359H270.196ZM127.647 141.359L130.032 148.406L132.396 141.359H135.822L131.611 151.317V157H128.442V151.317L124.231 141.359H127.647ZM153.278 141.359V157H150.238L145.329 147.214V157H142.343V141.359H145.34L150.292 151.253V141.359H153.278ZM166.803 147.966V150.576C166.803 151.679 166.667 152.646 166.395 153.477C166.13 154.3 165.75 154.991 165.256 155.55C164.769 156.101 164.178 156.517 163.483 156.796C162.796 157.075 162.033 157.215 161.195 157.215C160.357 157.215 159.591 157.075 158.896 156.796C158.209 156.517 157.615 156.101 157.113 155.55C156.619 154.991 156.236 154.3 155.964 153.477C155.692 152.646 155.556 151.679 155.556 150.576V147.966C155.556 146.834 155.688 145.846 155.953 145.001C156.218 144.149 156.601 143.44 157.103 142.874C157.604 142.301 158.198 141.871 158.886 141.585C159.573 141.291 160.336 141.145 161.174 141.145C162.012 141.145 162.774 141.291 163.462 141.585C164.149 141.871 164.744 142.301 165.245 142.874C165.746 143.44 166.13 144.149 166.395 145.001C166.667 145.846 166.803 146.834 166.803 147.966ZM163.677 150.576V147.944C163.677 147.2 163.623 146.566 163.516 146.043C163.408 145.513 163.247 145.08 163.032 144.743C162.817 144.407 162.556 144.16 162.248 144.002C161.94 143.844 161.582 143.766 161.174 143.766C160.766 143.766 160.404 143.844 160.089 144.002C159.781 144.16 159.52 144.407 159.305 144.743C159.097 145.08 158.939 145.513 158.832 146.043C158.732 146.566 158.682 147.2 158.682 147.944V150.576C158.682 151.292 158.735 151.905 158.843 152.413C158.95 152.922 159.111 153.337 159.326 153.659C159.541 153.981 159.802 154.221 160.11 154.379C160.425 154.529 160.787 154.604 161.195 154.604C161.596 154.604 161.951 154.529 162.259 154.379C162.574 154.221 162.835 153.981 163.043 153.659C163.251 153.337 163.408 152.922 163.516 152.413C163.623 151.905 163.677 151.292 163.677 150.576ZM177.309 141.359V157H174.161V141.359H177.309ZM182.207 148.009V150.608H176.514V148.009H182.207ZM182.809 141.359V143.97H176.514V141.359H182.809ZM191.671 141.359H194.808V152.102C194.808 153.305 194.586 154.286 194.142 155.045C193.705 155.797 193.1 156.348 192.326 156.699C191.553 157.043 190.668 157.215 189.673 157.215C188.67 157.215 187.779 157.043 186.998 156.699C186.217 156.348 185.609 155.797 185.172 155.045C184.742 154.286 184.527 153.305 184.527 152.102V141.359H187.664V152.102C187.664 152.782 187.739 153.305 187.89 153.67C188.047 154.035 188.273 154.286 188.566 154.422C188.867 154.551 189.236 154.615 189.673 154.615C190.117 154.615 190.482 154.551 190.769 154.422C191.062 154.286 191.284 154.035 191.435 153.67C191.592 153.305 191.671 152.782 191.671 152.102V141.359ZM208.149 141.359V157H205.109L200.2 147.214V157H197.214V141.359H200.211L205.163 151.253V141.359H208.149ZM218.14 151.79H221.266C221.223 152.965 220.986 153.956 220.557 154.766C220.127 155.568 219.515 156.176 218.72 156.592C217.932 157.007 216.979 157.215 215.862 157.215C214.996 157.215 214.226 157.072 213.553 156.785C212.88 156.492 212.307 156.062 211.834 155.496C211.361 154.93 211.003 154.232 210.76 153.401C210.523 152.563 210.405 151.6 210.405 150.512V147.858C210.405 146.77 210.531 145.807 210.781 144.969C211.039 144.131 211.404 143.429 211.877 142.863C212.357 142.29 212.933 141.861 213.606 141.574C214.287 141.281 215.053 141.134 215.905 141.134C217.044 141.134 217.996 141.349 218.763 141.778C219.529 142.201 220.12 142.824 220.535 143.647C220.958 144.471 221.212 145.474 221.298 146.655H218.161C218.14 145.91 218.054 145.327 217.903 144.904C217.76 144.475 217.531 144.174 217.216 144.002C216.901 143.823 216.464 143.733 215.905 143.733C215.49 143.733 215.132 143.809 214.831 143.959C214.53 144.102 214.283 144.335 214.09 144.657C213.896 144.979 213.753 145.402 213.66 145.925C213.574 146.448 213.531 147.085 213.531 147.837V150.512C213.531 151.249 213.571 151.88 213.649 152.402C213.728 152.918 213.854 153.34 214.025 153.67C214.197 153.999 214.43 154.239 214.724 154.39C215.024 154.54 215.404 154.615 215.862 154.615C216.392 154.615 216.818 154.536 217.141 154.379C217.47 154.221 217.714 153.938 217.871 153.53C218.029 153.122 218.118 152.542 218.14 151.79ZM226.497 141.359V157H223.371V141.359H226.497ZM240.172 147.966V150.576C240.172 151.679 240.036 152.646 239.764 153.477C239.499 154.3 239.119 154.991 238.625 155.55C238.138 156.101 237.547 156.517 236.853 156.796C236.165 157.075 235.402 157.215 234.564 157.215C233.727 157.215 232.96 157.075 232.266 156.796C231.578 156.517 230.984 156.101 230.482 155.55C229.988 154.991 229.605 154.3 229.333 153.477C229.061 152.646 228.925 151.679 228.925 150.576V147.966C228.925 146.834 229.057 145.846 229.322 145.001C229.587 144.149 229.97 143.44 230.472 142.874C230.973 142.301 231.567 141.871 232.255 141.585C232.942 141.291 233.705 141.145 234.543 141.145C235.381 141.145 236.144 141.291 236.831 141.585C237.519 141.871 238.113 142.301 238.614 142.874C239.116 143.44 239.499 144.149 239.764 145.001C240.036 145.846 240.172 146.834 240.172 147.966ZM237.046 150.576V147.944C237.046 147.2 236.992 146.566 236.885 146.043C236.777 145.513 236.616 145.08 236.401 144.743C236.187 144.407 235.925 144.16 235.617 144.002C235.309 143.844 234.951 143.766 234.543 143.766C234.135 143.766 233.773 143.844 233.458 144.002C233.15 144.16 232.889 144.407 232.674 144.743C232.466 145.08 232.309 145.513 232.201 146.043C232.101 146.566 232.051 147.2 232.051 147.944V150.576C232.051 151.292 232.104 151.905 232.212 152.413C232.319 152.922 232.48 153.337 232.695 153.659C232.91 153.981 233.172 154.221 233.479 154.379C233.795 154.529 234.156 154.604 234.564 154.604C234.965 154.604 235.32 154.529 235.628 154.379C235.943 154.221 236.204 153.981 236.412 153.659C236.62 153.337 236.777 152.922 236.885 152.413C236.992 151.905 237.046 151.292 237.046 150.576ZM253.396 141.359V157H250.355L245.446 147.214V157H242.46V141.359H245.457L250.409 151.253V141.359H253.396ZM266.92 147.966V150.576C266.92 151.679 266.784 152.646 266.512 153.477C266.247 154.3 265.867 154.991 265.373 155.55C264.886 156.101 264.295 156.517 263.601 156.796C262.913 157.075 262.15 157.215 261.312 157.215C260.475 157.215 259.708 157.075 259.014 156.796C258.326 156.517 257.732 156.101 257.23 155.55C256.736 154.991 256.353 154.3 256.081 153.477C255.809 152.646 255.673 151.679 255.673 150.576V147.966C255.673 146.834 255.805 145.846 256.07 145.001C256.335 144.149 256.718 143.44 257.22 142.874C257.721 142.301 258.315 141.871 259.003 141.585C259.69 141.291 260.453 141.145 261.291 141.145C262.129 141.145 262.892 141.291 263.579 141.585C264.267 141.871 264.861 142.301 265.362 142.874C265.864 143.44 266.247 144.149 266.512 145.001C266.784 145.846 266.92 146.834 266.92 147.966ZM263.794 150.576V147.944C263.794 147.2 263.74 146.566 263.633 146.043C263.525 145.513 263.364 145.08 263.149 144.743C262.935 144.407 262.673 144.16 262.365 144.002C262.057 143.844 261.699 143.766 261.291 143.766C260.883 143.766 260.521 143.844 260.206 144.002C259.898 144.16 259.637 144.407 259.422 144.743C259.214 145.08 259.057 145.513 258.949 146.043C258.849 146.566 258.799 147.2 258.799 147.944V150.576C258.799 151.292 258.853 151.905 258.96 152.413C259.067 152.922 259.229 153.337 259.443 153.659C259.658 153.981 259.92 154.221 260.228 154.379C260.543 154.529 260.904 154.604 261.312 154.604C261.714 154.604 262.068 154.529 262.376 154.379C262.691 154.221 262.952 153.981 263.16 153.659C263.368 153.337 263.525 152.922 263.633 152.413C263.74 151.905 263.794 151.292 263.794 150.576ZM259.819 140.479L261.925 137.159H265.309L262.333 140.479H259.819Z" fill="#3B2017"/>
</svg>
