<svg width="392" height="216" viewBox="0 0 392 216" fill="none" xmlns="http://www.w3.org/2000/svg">
<rect x="1" y="1" width="390" height="214" rx="9" fill="#BFD43B"/>
<rect x="1" y="1" width="390" height="214" rx="9" stroke="#3B2017" stroke-width="2"/>
<path d="M171 94.5H221V44.5H171V94.5Z" fill="black"/>
<path d="M102.178 126.886C102.178 126.606 102.153 126.352 102.103 126.123C102.052 125.894 101.945 125.683 101.78 125.489C101.623 125.296 101.39 125.103 101.082 124.909C100.781 124.716 100.387 124.515 99.9004 124.308C99.3203 124.064 98.7581 123.806 98.2139 123.534C97.6696 123.255 97.179 122.933 96.7422 122.567C96.3053 122.202 95.958 121.772 95.7002 121.278C95.4495 120.777 95.3242 120.19 95.3242 119.517C95.3242 118.858 95.4424 118.26 95.6787 117.723C95.9222 117.186 96.266 116.727 96.71 116.348C97.154 115.961 97.6732 115.664 98.2676 115.456C98.8691 115.248 99.5387 115.145 100.276 115.145C101.279 115.145 102.146 115.352 102.876 115.768C103.614 116.183 104.183 116.752 104.584 117.476C104.992 118.199 105.196 119.03 105.196 119.968H102.06C102.06 119.524 101.995 119.133 101.866 118.797C101.744 118.453 101.548 118.185 101.275 117.991C101.003 117.798 100.652 117.701 100.223 117.701C99.8216 117.701 99.4886 117.784 99.2236 117.948C98.9658 118.106 98.7725 118.324 98.6436 118.604C98.5218 118.876 98.4609 119.184 98.4609 119.527C98.4609 119.785 98.5218 120.018 98.6436 120.226C98.7725 120.426 98.9479 120.609 99.1699 120.773C99.3919 120.931 99.6533 121.085 99.9541 121.235C100.262 121.386 100.599 121.533 100.964 121.676C101.673 121.955 102.299 122.263 102.844 122.6C103.388 122.929 103.843 123.301 104.208 123.717C104.573 124.125 104.849 124.587 105.035 125.103C105.221 125.618 105.314 126.205 105.314 126.864C105.314 127.516 105.2 128.11 104.971 128.647C104.749 129.177 104.423 129.636 103.993 130.022C103.563 130.402 103.044 130.696 102.436 130.903C101.834 131.111 101.161 131.215 100.416 131.215C99.6927 131.215 99.0088 131.115 98.3643 130.914C97.7197 130.706 97.1504 130.395 96.6562 129.979C96.1693 129.557 95.7861 129.023 95.5068 128.379C95.2275 127.727 95.0879 126.957 95.0879 126.069H98.2354C98.2354 126.542 98.2819 126.947 98.375 127.283C98.4681 127.613 98.6113 127.878 98.8047 128.078C98.998 128.271 99.2344 128.418 99.5137 128.519C99.8001 128.612 100.126 128.658 100.491 128.658C100.907 128.658 101.236 128.579 101.479 128.422C101.73 128.264 101.909 128.053 102.017 127.788C102.124 127.523 102.178 127.222 102.178 126.886ZM110.707 115.359V131H107.581V115.359H110.707ZM125.768 128.615L129.506 131.988L127.529 133.804L123.877 130.431L125.768 128.615ZM129.441 121.966V124.394C129.441 125.518 129.309 126.51 129.044 127.369C128.779 128.221 128.396 128.934 127.895 129.507C127.393 130.073 126.799 130.499 126.111 130.785C125.424 131.072 124.661 131.215 123.823 131.215C122.985 131.215 122.219 131.072 121.524 130.785C120.837 130.499 120.243 130.073 119.741 129.507C119.247 128.934 118.86 128.221 118.581 127.369C118.309 126.51 118.173 125.518 118.173 124.394V121.966C118.173 120.834 118.309 119.846 118.581 119.001C118.853 118.149 119.236 117.44 119.73 116.874C120.232 116.301 120.826 115.871 121.514 115.585C122.201 115.291 122.964 115.145 123.802 115.145C124.647 115.145 125.413 115.291 126.101 115.585C126.788 115.871 127.382 116.301 127.884 116.874C128.392 117.44 128.779 118.149 129.044 119.001C129.309 119.846 129.441 120.834 129.441 121.966ZM126.305 124.394V121.944C126.305 121.2 126.251 120.566 126.144 120.043C126.036 119.513 125.875 119.08 125.66 118.743C125.452 118.407 125.191 118.16 124.876 118.002C124.568 117.844 124.21 117.766 123.802 117.766C123.401 117.766 123.043 117.844 122.728 118.002C122.412 118.16 122.151 118.407 121.943 118.743C121.743 119.08 121.585 119.513 121.471 120.043C121.363 120.566 121.31 121.2 121.31 121.944V124.394C121.31 125.138 121.363 125.779 121.471 126.316C121.585 126.846 121.746 127.28 121.954 127.616C122.162 127.953 122.423 128.203 122.738 128.368C123.053 128.526 123.415 128.604 123.823 128.604C124.224 128.604 124.579 128.526 124.887 128.368C125.202 128.203 125.463 127.953 125.671 127.616C125.886 127.28 126.043 126.846 126.144 126.316C126.251 125.779 126.305 125.138 126.305 124.394ZM138.766 115.359H141.902V126.102C141.902 127.305 141.68 128.286 141.236 129.045C140.799 129.797 140.194 130.348 139.421 130.699C138.647 131.043 137.763 131.215 136.768 131.215C135.765 131.215 134.873 131.043 134.093 130.699C133.312 130.348 132.703 129.797 132.267 129.045C131.837 128.286 131.622 127.305 131.622 126.102V115.359H134.759V126.102C134.759 126.782 134.834 127.305 134.984 127.67C135.142 128.035 135.368 128.286 135.661 128.422C135.962 128.551 136.331 128.615 136.768 128.615C137.212 128.615 137.577 128.551 137.863 128.422C138.157 128.286 138.379 128.035 138.529 127.67C138.687 127.305 138.766 126.782 138.766 126.102V115.359ZM153.278 128.4V131H146.479V128.4H153.278ZM147.456 115.359V131H144.309V115.359H147.456ZM152.365 121.697V124.222H146.479V121.697H152.365ZM153.257 115.359V117.97H146.479V115.359H153.257ZM155.126 115.359H160.143C161.188 115.359 162.08 115.538 162.817 115.896C163.555 116.255 164.121 116.785 164.515 117.486C164.909 118.188 165.105 119.055 165.105 120.086C165.105 120.931 164.991 121.654 164.762 122.256C164.533 122.85 164.207 123.348 163.784 123.749C163.362 124.143 162.857 124.458 162.27 124.694L161.313 125.264H157.242L157.231 122.653H160.057C160.486 122.653 160.841 122.56 161.12 122.374C161.407 122.181 161.618 121.912 161.754 121.568C161.897 121.217 161.969 120.809 161.969 120.344C161.969 119.85 161.904 119.427 161.775 119.076C161.654 118.718 161.457 118.446 161.185 118.26C160.92 118.066 160.572 117.97 160.143 117.97H158.273V131H155.126V115.359ZM162.227 131L159.358 124.028L162.656 124.018L165.589 130.85V131H162.227ZM176.267 128.4V131H169.467V128.4H176.267ZM170.444 115.359V131H167.297V115.359H170.444ZM175.354 121.697V124.222H169.467V121.697H175.354ZM176.245 115.359V117.97H169.467V115.359H176.245ZM170.52 114.457L172.625 111.138H176.009L173.033 114.457H170.52ZM184.721 126.886C184.721 126.606 184.696 126.352 184.646 126.123C184.595 125.894 184.488 125.683 184.323 125.489C184.166 125.296 183.933 125.103 183.625 124.909C183.324 124.716 182.93 124.515 182.443 124.308C181.863 124.064 181.301 123.806 180.757 123.534C180.213 123.255 179.722 122.933 179.285 122.567C178.848 122.202 178.501 121.772 178.243 121.278C177.993 120.777 177.867 120.19 177.867 119.517C177.867 118.858 177.985 118.26 178.222 117.723C178.465 117.186 178.809 116.727 179.253 116.348C179.697 115.961 180.216 115.664 180.811 115.456C181.412 115.248 182.082 115.145 182.819 115.145C183.822 115.145 184.688 115.352 185.419 115.768C186.157 116.183 186.726 116.752 187.127 117.476C187.535 118.199 187.739 119.03 187.739 119.968H184.603C184.603 119.524 184.538 119.133 184.409 118.797C184.287 118.453 184.09 118.185 183.818 117.991C183.546 117.798 183.195 117.701 182.766 117.701C182.365 117.701 182.032 117.784 181.767 117.948C181.509 118.106 181.315 118.324 181.187 118.604C181.065 118.876 181.004 119.184 181.004 119.527C181.004 119.785 181.065 120.018 181.187 120.226C181.315 120.426 181.491 120.609 181.713 120.773C181.935 120.931 182.196 121.085 182.497 121.235C182.805 121.386 183.142 121.533 183.507 121.676C184.216 121.955 184.842 122.263 185.387 122.6C185.931 122.929 186.386 123.301 186.751 123.717C187.116 124.125 187.392 124.587 187.578 125.103C187.764 125.618 187.857 126.205 187.857 126.864C187.857 127.516 187.743 128.11 187.514 128.647C187.292 129.177 186.966 129.636 186.536 130.022C186.106 130.402 185.587 130.696 184.979 130.903C184.377 131.111 183.704 131.215 182.959 131.215C182.236 131.215 181.552 131.115 180.907 130.914C180.263 130.706 179.693 130.395 179.199 129.979C178.712 129.557 178.329 129.023 178.05 128.379C177.771 127.727 177.631 126.957 177.631 126.069H180.778C180.778 126.542 180.825 126.947 180.918 127.283C181.011 127.613 181.154 127.878 181.348 128.078C181.541 128.271 181.777 128.418 182.057 128.519C182.343 128.612 182.669 128.658 183.034 128.658C183.45 128.658 183.779 128.579 184.022 128.422C184.273 128.264 184.452 128.053 184.56 127.788C184.667 127.523 184.721 127.222 184.721 126.886ZM200.383 125.489H197.182V122.879H200.383C200.834 122.879 201.199 122.779 201.479 122.578C201.758 122.378 201.962 122.102 202.091 121.751C202.22 121.393 202.284 120.992 202.284 120.548C202.284 120.097 202.22 119.674 202.091 119.28C201.962 118.886 201.758 118.571 201.479 118.335C201.199 118.091 200.834 117.97 200.383 117.97H198.202V131H195.055V115.359H200.383C201.436 115.359 202.338 115.581 203.09 116.025C203.849 116.469 204.433 117.082 204.841 117.862C205.249 118.636 205.453 119.524 205.453 120.526C205.453 121.536 205.249 122.413 204.841 123.158C204.433 123.896 203.849 124.469 203.09 124.877C202.338 125.285 201.436 125.489 200.383 125.489ZM207.569 115.359H212.586C213.632 115.359 214.523 115.538 215.261 115.896C215.998 116.255 216.564 116.785 216.958 117.486C217.352 118.188 217.549 119.055 217.549 120.086C217.549 120.931 217.434 121.654 217.205 122.256C216.976 122.85 216.65 123.348 216.228 123.749C215.805 124.143 215.3 124.458 214.713 124.694L213.757 125.264H209.686L209.675 122.653H212.5C212.93 122.653 213.284 122.56 213.563 122.374C213.85 122.181 214.061 121.912 214.197 121.568C214.34 121.217 214.412 120.809 214.412 120.344C214.412 119.85 214.348 119.427 214.219 119.076C214.097 118.718 213.9 118.446 213.628 118.26C213.363 118.066 213.016 117.97 212.586 117.97H210.717V131H207.569V115.359ZM214.67 131L211.802 124.028L215.1 124.018L218.032 130.85V131H214.67ZM225.401 118.152L222.039 131H218.72L223.607 115.359H225.681L225.401 118.152ZM228.055 131L224.671 118.152L224.359 115.359H226.465L231.396 131H228.055ZM228.173 125.167V127.777H221.115V125.167H228.173ZM223.586 114.489L225.691 111.17H229.075L226.1 114.489H223.586ZM240.129 125.79H243.255C243.212 126.965 242.976 127.956 242.546 128.766C242.116 129.568 241.504 130.176 240.709 130.592C239.921 131.007 238.969 131.215 237.852 131.215C236.985 131.215 236.215 131.072 235.542 130.785C234.869 130.492 234.296 130.062 233.823 129.496C233.351 128.93 232.993 128.232 232.749 127.401C232.513 126.563 232.395 125.6 232.395 124.512V121.858C232.395 120.77 232.52 119.807 232.771 118.969C233.028 118.131 233.394 117.429 233.866 116.863C234.346 116.29 234.923 115.861 235.596 115.574C236.276 115.281 237.042 115.134 237.895 115.134C239.033 115.134 239.986 115.349 240.752 115.778C241.518 116.201 242.109 116.824 242.524 117.647C242.947 118.471 243.201 119.474 243.287 120.655H240.15C240.129 119.91 240.043 119.327 239.893 118.904C239.749 118.475 239.52 118.174 239.205 118.002C238.89 117.823 238.453 117.733 237.895 117.733C237.479 117.733 237.121 117.809 236.82 117.959C236.52 118.102 236.272 118.335 236.079 118.657C235.886 118.979 235.743 119.402 235.649 119.925C235.563 120.448 235.521 121.085 235.521 121.837V124.512C235.521 125.249 235.56 125.88 235.639 126.402C235.717 126.918 235.843 127.34 236.015 127.67C236.187 127.999 236.419 128.239 236.713 128.39C237.014 128.54 237.393 128.615 237.852 128.615C238.382 128.615 238.808 128.536 239.13 128.379C239.459 128.221 239.703 127.938 239.86 127.53C240.018 127.122 240.107 126.542 240.129 125.79ZM251.15 115.359V131H248.024V115.359H251.15ZM255.039 115.359V117.97H244.211V115.359H255.039ZM260.131 115.359V131H257.005V115.359H260.131ZM270.271 125.79H273.397C273.354 126.965 273.118 127.956 272.688 128.766C272.259 129.568 271.646 130.176 270.852 130.592C270.064 131.007 269.111 131.215 267.994 131.215C267.128 131.215 266.358 131.072 265.685 130.785C265.011 130.492 264.438 130.062 263.966 129.496C263.493 128.93 263.135 128.232 262.892 127.401C262.655 126.563 262.537 125.6 262.537 124.512V121.858C262.537 120.77 262.662 119.807 262.913 118.969C263.171 118.131 263.536 117.429 264.009 116.863C264.489 116.29 265.065 115.861 265.738 115.574C266.419 115.281 267.185 115.134 268.037 115.134C269.176 115.134 270.128 115.349 270.895 115.778C271.661 116.201 272.252 116.824 272.667 117.647C273.09 118.471 273.344 119.474 273.43 120.655H270.293C270.271 119.91 270.186 119.327 270.035 118.904C269.892 118.475 269.663 118.174 269.348 118.002C269.033 117.823 268.596 117.733 268.037 117.733C267.622 117.733 267.264 117.809 266.963 117.959C266.662 118.102 266.415 118.335 266.222 118.657C266.028 118.979 265.885 119.402 265.792 119.925C265.706 120.448 265.663 121.085 265.663 121.837V124.512C265.663 125.249 265.702 125.88 265.781 126.402C265.86 126.918 265.985 127.34 266.157 127.67C266.329 127.999 266.562 128.239 266.855 128.39C267.156 128.54 267.536 128.615 267.994 128.615C268.524 128.615 268.95 128.536 269.272 128.379C269.602 128.221 269.845 127.938 270.003 127.53C270.16 127.122 270.25 126.542 270.271 125.79ZM281.024 118.152L277.662 131H274.343L279.23 115.359H281.304L281.024 118.152ZM283.678 131L280.294 118.152L279.982 115.359H282.088L287.019 131H283.678ZM283.796 125.167V127.777H276.738V125.167H283.796ZM291.369 128.357V130.463C291.369 131.279 291.169 132.096 290.768 132.912C290.367 133.736 289.858 134.409 289.242 134.932L287.631 134.094C287.81 133.764 287.985 133.431 288.157 133.095C288.329 132.765 288.472 132.4 288.587 131.999C288.701 131.598 288.759 131.14 288.759 130.624V128.357H291.369ZM158.854 141.359V157H155.813L150.904 147.214V157H147.918V141.359H150.915L155.867 151.253V141.359H158.854ZM172.378 147.966V150.576C172.378 151.679 172.242 152.646 171.97 153.477C171.705 154.3 171.325 154.991 170.831 155.55C170.344 156.101 169.753 156.517 169.059 156.796C168.371 157.075 167.608 157.215 166.771 157.215C165.933 157.215 165.166 157.075 164.472 156.796C163.784 156.517 163.19 156.101 162.688 155.55C162.194 154.991 161.811 154.3 161.539 153.477C161.267 152.646 161.131 151.679 161.131 150.576V147.966C161.131 146.834 161.263 145.846 161.528 145.001C161.793 144.149 162.176 143.44 162.678 142.874C163.179 142.301 163.773 141.871 164.461 141.585C165.148 141.291 165.911 141.145 166.749 141.145C167.587 141.145 168.35 141.291 169.037 141.585C169.725 141.871 170.319 142.301 170.82 142.874C171.322 143.44 171.705 144.149 171.97 145.001C172.242 145.846 172.378 146.834 172.378 147.966ZM169.252 150.576V147.944C169.252 147.2 169.198 146.566 169.091 146.043C168.983 145.513 168.822 145.08 168.607 144.743C168.393 144.407 168.131 144.16 167.823 144.002C167.515 143.844 167.157 143.766 166.749 143.766C166.341 143.766 165.979 143.844 165.664 144.002C165.356 144.16 165.095 144.407 164.88 144.743C164.672 145.08 164.515 145.513 164.407 146.043C164.307 146.566 164.257 147.2 164.257 147.944V150.576C164.257 151.292 164.311 151.905 164.418 152.413C164.525 152.922 164.687 153.337 164.901 153.659C165.116 153.981 165.378 154.221 165.686 154.379C166.001 154.529 166.362 154.604 166.771 154.604C167.172 154.604 167.526 154.529 167.834 154.379C168.149 154.221 168.41 153.981 168.618 153.659C168.826 153.337 168.983 152.922 169.091 152.413C169.198 151.905 169.252 151.292 169.252 150.576ZM185.344 141.359V157H182.218V141.359H185.344ZM189.232 141.359V143.97H178.404V141.359H189.232ZM200.028 154.4V157H193.229V154.4H200.028ZM194.206 141.359V157H191.059V141.359H194.206ZM199.115 147.697V150.222H193.229V147.697H199.115ZM200.007 141.359V143.97H193.229V141.359H200.007ZM212.854 147.966V150.576C212.854 151.679 212.718 152.646 212.446 153.477C212.181 154.3 211.802 154.991 211.308 155.55C210.821 156.101 210.23 156.517 209.535 156.796C208.848 157.075 208.085 157.215 207.247 157.215C206.409 157.215 205.643 157.075 204.948 156.796C204.261 156.517 203.666 156.101 203.165 155.55C202.671 154.991 202.288 154.3 202.016 153.477C201.743 152.646 201.607 151.679 201.607 150.576V147.966C201.607 146.834 201.74 145.846 202.005 145.001C202.27 144.149 202.653 143.44 203.154 142.874C203.656 142.301 204.25 141.871 204.938 141.585C205.625 141.291 206.388 141.145 207.226 141.145C208.063 141.145 208.826 141.291 209.514 141.585C210.201 141.871 210.796 142.301 211.297 142.874C211.798 143.44 212.181 144.149 212.446 145.001C212.718 145.846 212.854 146.834 212.854 147.966ZM209.729 150.576V147.944C209.729 147.2 209.675 146.566 209.567 146.043C209.46 145.513 209.299 145.08 209.084 144.743C208.869 144.407 208.608 144.16 208.3 144.002C207.992 143.844 207.634 143.766 207.226 143.766C206.817 143.766 206.456 143.844 206.141 144.002C205.833 144.16 205.571 144.407 205.356 144.743C205.149 145.08 204.991 145.513 204.884 146.043C204.784 146.566 204.733 147.2 204.733 147.944V150.576C204.733 151.292 204.787 151.905 204.895 152.413C205.002 152.922 205.163 153.337 205.378 153.659C205.593 153.981 205.854 154.221 206.162 154.379C206.477 154.529 206.839 154.604 207.247 154.604C207.648 154.604 208.003 154.529 208.311 154.379C208.626 154.221 208.887 153.981 209.095 153.659C209.302 153.337 209.46 152.922 209.567 152.413C209.675 151.905 209.729 151.292 209.729 150.576ZM215.153 141.359H220.17C221.215 141.359 222.107 141.538 222.845 141.896C223.582 142.255 224.148 142.785 224.542 143.486C224.936 144.188 225.133 145.055 225.133 146.086C225.133 146.931 225.018 147.654 224.789 148.256C224.56 148.85 224.234 149.348 223.812 149.749C223.389 150.143 222.884 150.458 222.297 150.694L221.341 151.264H217.27L217.259 148.653H220.084C220.514 148.653 220.868 148.56 221.147 148.374C221.434 148.181 221.645 147.912 221.781 147.568C221.924 147.217 221.996 146.809 221.996 146.344C221.996 145.85 221.932 145.427 221.803 145.076C221.681 144.718 221.484 144.446 221.212 144.26C220.947 144.066 220.6 143.97 220.17 143.97H218.301V157H215.153V141.359ZM222.254 157L219.386 150.028L222.684 150.018L225.616 156.85V157H222.254ZM230.59 141.359V157H227.464V141.359H230.59ZM227.539 140.457L229.645 137.138H233.028L230.053 140.457H227.539ZM239.13 144.152L235.768 157H232.448L237.336 141.359H239.409L239.13 144.152ZM241.783 157L238.399 144.152L238.088 141.359H240.193L245.124 157H241.783ZM241.901 151.167V153.777H234.844V151.167H241.901Z" fill="#3B2017"/>
</svg>
