<svg width="667" height="474" viewBox="0 0 667 474" fill="none" xmlns="http://www.w3.org/2000/svg">
<rect x="60.4537" y="20.8179" width="547.194" height="375.439" rx="10" fill="#FDFAF1" stroke="#3B2017" stroke-width="2"/>
<path d="M60.4537 30.8179C60.4537 25.295 64.9308 20.8179 70.4537 20.8179H597.647C603.17 20.8179 607.647 25.295 607.647 30.8179V82.4735H60.4537V30.8179Z" fill="#3B2017" stroke="#3B2017" stroke-width="2"/>
<rect x="93.4835" y="111.099" width="151.937" height="122.21" rx="10" fill="#FFE8BF" stroke="#3B2017" stroke-width="2"/>
<rect x="93.4835" y="252.026" width="151.937" height="122.21" rx="10" fill="#FFE8BF" stroke="#3B2017" stroke-width="2"/>
<rect x="258.632" y="111.099" width="150.836" height="122.21" rx="10" fill="#FFE8BF" stroke="#3B2017" stroke-width="2"/>
<rect x="258.632" y="252.026" width="150.836" height="122.21" rx="10" fill="#FFE8BF" stroke="#3B2017" stroke-width="2"/>
<rect x="422.68" y="111.099" width="151.937" height="122.21" rx="10" fill="#FFE8BF" stroke="#3B2017" stroke-width="2"/>
<rect x="449.104" y="257.425" width="216.896" height="214.8" rx="10" fill="#FFA872" stroke="#3B2017" stroke-width="2"/>
<path d="M575.278 338.851C577.904 340.398 577.904 344.197 575.278 345.744L548.651 361.43C545.985 363.001 542.621 361.079 542.621 357.984L542.621 326.611C542.621 323.516 545.985 321.594 548.651 323.164L575.278 338.851Z" fill="#3B2017"/>
<circle cx="557.028" cy="342.297" r="42.96" stroke="#3B2017" stroke-width="2"/>
<path d="M475.299 426.122H639.805" stroke="#3B2017" stroke-width="2" stroke-linecap="round"/>
<circle cx="503.59" cy="426.122" r="6.28683" fill="#3B2017"/>
<path d="M333.05 183.36C347.185 183.36 358.643 171.866 358.643 157.689C358.643 143.511 347.185 132.018 333.05 132.018C318.916 132.018 307.458 143.511 307.458 157.689C307.458 171.866 318.916 183.36 333.05 183.36Z" fill="#FFFA64" stroke="#3B2017" stroke-width="2" stroke-linecap="round" stroke-linejoin="round"/>
<path d="M382.137 228.37C382.137 229.734 381.586 230.965 380.697 231.865C379.799 232.757 378.572 233.31 377.212 233.31H288.889C286.16 233.31 283.955 231.098 283.955 228.37C283.955 221.397 285.538 214.799 288.364 208.905C290.569 204.295 293.529 200.122 297.094 196.547C300.489 193.141 304.436 190.27 308.783 188.094C314.81 185.071 321.619 183.368 328.819 183.368H337.282C344.482 183.368 351.291 185.071 357.318 188.103C366.216 192.561 373.425 199.899 377.728 208.905C380.554 214.799 382.137 221.397 382.137 228.37Z" fill="#FFFA64" stroke="#3B2017" stroke-width="2" stroke-linecap="round" stroke-linejoin="round"/>
<path d="M333.05 324.287C347.185 324.287 358.643 312.794 358.643 298.616C358.643 284.439 347.185 272.945 333.05 272.945C318.916 272.945 307.458 284.439 307.458 298.616C307.458 312.794 318.916 324.287 333.05 324.287Z" fill="#E59BF0" stroke="#3B2017" stroke-width="2" stroke-linecap="round" stroke-linejoin="round"/>
<path d="M382.137 369.297C382.137 370.661 381.586 371.892 380.697 372.792C379.799 373.684 378.572 374.237 377.212 374.237H288.889C286.16 374.237 283.955 372.025 283.955 369.297C283.955 362.324 285.538 355.726 288.364 349.832C290.569 345.222 293.529 341.049 297.094 337.474C300.489 334.068 304.436 331.197 308.783 329.021C314.81 325.998 321.619 324.295 328.819 324.295H337.282C344.482 324.295 351.291 325.998 357.318 329.03C366.216 333.488 373.425 340.827 377.728 349.832C380.554 355.726 382.137 362.324 382.137 369.297Z" fill="#E59BF0" stroke="#3B2017" stroke-width="2" stroke-linecap="round" stroke-linejoin="round"/>
<path d="M169.002 324.287C183.137 324.287 194.594 312.794 194.594 298.616C194.594 284.439 183.137 272.945 169.002 272.945C154.868 272.945 143.41 284.439 143.41 298.616C143.41 312.794 154.868 324.287 169.002 324.287Z" fill="#FFA872" stroke="#3B2017" stroke-width="2" stroke-linecap="round" stroke-linejoin="round"/>
<path d="M218.089 369.297C218.089 370.661 217.538 371.892 216.649 372.792C215.751 373.684 214.524 374.237 213.164 374.237H124.841C122.112 374.237 119.907 372.025 119.907 369.297C119.907 362.324 121.49 355.726 124.316 349.832C126.521 345.222 129.481 341.049 133.046 337.474C136.441 334.068 140.388 331.197 144.735 329.021C150.762 325.998 157.571 324.295 164.771 324.295H173.234C180.434 324.295 187.243 325.998 193.27 329.03C202.168 333.488 209.377 340.827 213.68 349.832C216.506 355.726 218.089 362.324 218.089 369.297Z" fill="#FFA872" stroke="#3B2017" stroke-width="2" stroke-linecap="round" stroke-linejoin="round"/>
<path d="M169.002 183.36C183.137 183.36 194.594 171.866 194.594 157.689C194.594 143.511 183.137 132.018 169.002 132.018C154.868 132.018 143.41 143.511 143.41 157.689C143.41 171.866 154.868 183.36 169.002 183.36Z" fill="#E59BF0" stroke="#3B2017" stroke-width="2" stroke-linecap="round" stroke-linejoin="round"/>
<path d="M218.089 228.37C218.089 229.734 217.538 230.965 216.649 231.865C215.751 232.757 214.524 233.31 213.164 233.31H124.841C122.112 233.31 119.907 231.098 119.907 228.37C119.907 221.397 121.49 214.799 124.316 208.905C126.521 204.295 129.481 200.122 133.046 196.547C136.441 193.141 140.388 190.27 144.735 188.094C150.762 185.071 157.571 183.368 164.771 183.368H173.234C180.434 183.368 187.243 185.071 193.27 188.103C202.168 192.561 209.377 199.899 213.68 208.905C216.506 214.799 218.089 221.397 218.089 228.37Z" fill="#E59BF0" stroke="#3B2017" stroke-width="2" stroke-linecap="round" stroke-linejoin="round"/>
<path d="M498.199 183.36C512.334 183.36 523.791 171.866 523.791 157.689C523.791 143.511 512.334 132.018 498.199 132.018C484.065 132.018 472.607 143.511 472.607 157.689C472.607 171.866 484.065 183.36 498.199 183.36Z" fill="#BFD43B" stroke="#3B2017" stroke-width="2" stroke-linecap="round" stroke-linejoin="round"/>
<path d="M547.286 228.37C547.286 229.734 546.735 230.965 545.846 231.865C544.948 232.757 543.721 233.31 542.361 233.31H454.038C451.309 233.31 449.104 231.098 449.104 228.37C449.104 221.397 450.687 214.799 453.513 208.905C455.718 204.295 458.678 200.122 462.243 196.547C465.638 193.141 469.585 190.27 473.932 188.094C479.959 185.071 486.768 183.368 493.968 183.368H502.431C509.631 183.368 516.44 185.071 522.467 188.103C531.365 192.561 538.574 199.899 542.877 208.905C545.703 214.799 547.286 221.397 547.286 228.37Z" fill="#BFD43B" stroke="#3B2017" stroke-width="2" stroke-linecap="round" stroke-linejoin="round"/>
<path d="M666 7.70999V111.502C666 115.204 662.941 118.212 659.152 118.212H539.555L516.33 145.678C514.892 147.076 512.438 146.081 512.438 144.09V118.212H498.891C495.113 118.212 492.043 115.204 492.043 111.502V7.70999C492.043 3.99713 495.113 1 498.891 1H659.152C662.941 1 666 3.99713 666 7.70999Z" fill="#FDFAF1" stroke="#3B2017" stroke-width="2" stroke-linecap="round" stroke-linejoin="round"/>
<path d="M582.327 61.4545C590.303 61.4545 596.768 54.969 596.768 46.9687C596.768 38.9684 590.303 32.4828 582.327 32.4828C574.351 32.4828 567.885 38.9684 567.885 46.9687C567.885 54.969 574.351 61.4545 582.327 61.4545Z" fill="#FFFA64" stroke="#3B2017" stroke-width="2" stroke-linecap="round" stroke-linejoin="round"/>
<path d="M610.026 86.8537C610.026 87.6235 609.715 88.3179 609.213 88.826C608.707 89.3292 608.015 89.6411 607.247 89.6411H557.407C555.867 89.6411 554.623 88.3933 554.623 86.8537C554.623 82.919 555.516 79.1956 557.111 75.8698C558.355 73.2685 560.025 70.9137 562.037 68.896C563.953 66.974 566.18 65.3538 568.633 64.1261C572.034 62.4204 575.876 61.4594 579.939 61.4594H584.715C588.778 61.4594 592.62 62.4204 596.021 64.1312C601.042 66.6469 605.11 70.7879 607.538 75.8698C609.133 79.1956 610.026 82.919 610.026 86.8537Z" fill="#FFFA64" stroke="#3B2017" stroke-width="2" stroke-linecap="round" stroke-linejoin="round"/>
<path d="M615.494 53.6102C621.794 53.6102 626.901 48.4875 626.901 42.1684C626.901 35.8493 621.794 30.7267 615.494 30.7267C609.194 30.7267 604.087 35.8493 604.087 42.1684C604.087 48.4875 609.194 53.6102 615.494 53.6102Z" fill="#E59BF0" stroke="#3B2017" stroke-width="2" stroke-linecap="round" stroke-linejoin="round"/>
<path d="M637.374 73.666C637.374 74.2749 637.128 74.8233 636.732 75.2258C636.336 75.6233 635.784 75.8699 635.177 75.8699H607.538C605.11 70.788 601.042 66.647 596.021 64.1312C596.944 62.4205 598.108 60.8557 599.472 59.4871C603.089 55.8594 608.085 53.6153 613.608 53.6153H617.38C628.425 53.6153 637.374 62.5916 637.374 73.666Z" fill="#E59BF0" stroke="#3B2017" stroke-width="2" stroke-linecap="round" stroke-linejoin="round"/>
<path d="M549.155 53.6102C555.455 53.6102 560.562 48.4875 560.562 42.1684C560.562 35.8493 555.455 30.7267 549.155 30.7267C542.855 30.7267 537.749 35.8493 537.749 42.1684C537.749 48.4875 542.855 53.6102 549.155 53.6102Z" fill="#FFA872" stroke="#3B2017" stroke-width="2" stroke-linecap="round" stroke-linejoin="round"/>
<path d="M568.633 64.1262C566.18 65.3539 563.953 66.9741 562.037 68.8961C560.025 70.9138 558.355 73.2685 557.111 75.8699H529.472C528.258 75.8699 527.275 74.8837 527.275 73.666C527.275 68.1313 529.512 63.1149 533.134 59.4871C536.75 55.8594 541.751 53.6153 547.269 53.6153H551.041C558.641 53.6153 565.252 57.867 568.633 64.1262Z" fill="#FFA872" stroke="#3B2017" stroke-width="2" stroke-linecap="round" stroke-linejoin="round"/>
<rect x="1" y="293.864" width="208.088" height="61.6556" rx="10" fill="#BFD43B" stroke="#3B2017" stroke-width="2"/>
<rect x="32.9288" y="364.328" width="208.088" height="61.6556" rx="10" fill="#E59BF0" stroke="#3B2017" stroke-width="2"/>
<path d="M57.8241 410.499L50.7507 412.616C49.6218 412.953 48.5822 411.87 48.9618 410.746L51.2717 403.902L75.5984 379.417C76.1665 378.845 77.0845 378.845 77.6527 379.417L82.1533 383.946C82.7215 384.518 82.7215 385.442 82.1533 386.014L57.8241 410.499Z" stroke="#3B2017" stroke-width="2" stroke-linecap="round" stroke-linejoin="round"/>
<path d="M72.4523 382.715L78.8758 389.18" stroke="#3B2017" stroke-width="2" stroke-linecap="round" stroke-linejoin="round"/>
<path d="M51.5096 403.792L57.9355 410.257" stroke="#3B2017" stroke-width="2" stroke-linecap="round" stroke-linejoin="round"/>
<path d="M49.8721 408.606L52.9536 411.707" stroke="#3B2017" stroke-width="2" stroke-linecap="round" stroke-linejoin="round"/>
<path d="M66.6162 311.598H191.642" stroke="#3B2017" stroke-width="2" stroke-linecap="round"/>
<path d="M66.6162 324.899H191.642" stroke="#3B2017" stroke-width="2" stroke-linecap="round"/>
<path d="M66.6162 338.2H136.666" stroke="#3B2017" stroke-width="2" stroke-linecap="round"/>
<path d="M98.5377 382.535H223.563" stroke="#3B2017" stroke-width="2" stroke-linecap="round"/>
<path d="M98.5377 395.835H223.563" stroke="#3B2017" stroke-width="2" stroke-linecap="round"/>
<path d="M98.5377 409.136H168.587" stroke="#3B2017" stroke-width="2" stroke-linecap="round"/>
<path d="M49.3179 342.111V307.082C49.3179 306.148 48.4889 305.391 47.4663 305.391H18.8122C17.7896 305.391 16.9607 306.148 16.9607 307.082V342.111C16.9607 343.045 17.7896 343.802 18.8122 343.802H47.4663C48.4889 343.802 49.3179 343.045 49.3179 342.111Z" stroke="#3B2017" stroke-width="2" stroke-linecap="round" stroke-linejoin="round"/>
<path d="M22.4578 311.081C23.9555 311.081 23.9555 312.083 25.4504 312.083C26.9454 312.083 26.9482 311.081 28.4459 311.081C29.9436 311.081 29.9436 312.083 31.4413 312.083C32.939 312.083 32.939 311.081 34.4367 311.081C35.9344 311.081 35.9344 312.083 37.4322 312.083C38.9299 312.083 38.9299 311.081 40.4303 311.081C41.9308 311.081 41.928 312.083 43.4285 312.083" stroke="#3B2017" stroke-width="2" stroke-linecap="round" stroke-linejoin="round"/>
<path d="M22.4578 316.513C23.9555 316.513 23.9555 317.515 25.4504 317.515C26.9454 317.515 26.9482 316.513 28.4459 316.513C29.9436 316.513 29.9436 317.515 31.4413 317.515C32.939 317.515 32.939 316.513 34.4367 316.513C35.9344 316.513 35.9344 317.515 37.4322 317.515C38.9299 317.515 38.9299 316.513 40.4303 316.513C41.9308 316.513 41.928 317.515 43.4285 317.515" stroke="#3B2017" stroke-width="2" stroke-linecap="round" stroke-linejoin="round"/>
<path d="M22.4578 321.945C23.9555 321.945 23.9555 322.946 25.4504 322.946C26.9454 322.946 26.9482 321.945 28.4459 321.945C29.9436 321.945 29.9436 322.946 31.4413 322.946C32.939 322.946 32.939 321.945 34.4367 321.945C35.9344 321.945 35.9344 322.946 37.4322 322.946C38.9299 322.946 38.9299 321.945 40.4303 321.945C41.9308 321.945 41.928 322.946 43.4285 322.946" stroke="#3B2017" stroke-width="2" stroke-linecap="round" stroke-linejoin="round"/>
<path d="M22.4578 327.374C23.9555 327.374 23.9555 328.375 25.4504 328.375C26.9454 328.375 26.9482 327.374 28.4459 327.374C29.9436 327.374 29.9436 328.375 31.4413 328.375C32.939 328.375 32.939 327.374 34.4367 327.374C35.9344 327.374 35.9344 328.375 37.4322 328.375C38.9299 328.375 38.9299 327.374 40.4303 327.374C41.9308 327.374 41.928 328.375 43.4285 328.375" stroke="#3B2017" stroke-width="2" stroke-linecap="round" stroke-linejoin="round"/>
<path d="M22.4578 332.806C23.9555 332.806 23.9555 333.807 25.4504 333.807C26.9454 333.807 26.9482 332.806 28.4459 332.806C29.9436 332.806 29.9436 333.807 31.4413 333.807C32.939 333.807 32.939 332.806 34.4367 332.806C35.9344 332.806 35.9344 333.807 37.4322 333.807C38.9299 333.807 38.9299 332.806 40.4303 332.806C41.9308 332.806 41.928 333.807 43.4285 333.807" stroke="#3B2017" stroke-width="2" stroke-linecap="round" stroke-linejoin="round"/>
<path d="M83.1619 155.062C83.7084 155.209 83.7139 156.006 83.1674 156.156C79.1014 157.287 70.3372 160.079 66.9005 163.967C64.2478 166.966 62.2824 173.513 61.2556 177.591C61.043 178.442 59.8671 178.442 59.6546 177.591C58.6277 173.51 56.6596 166.963 54.0041 163.962C50.5647 160.076 41.8033 157.284 37.74 156.156C37.1934 156.003 37.199 155.209 37.7455 155.062C41.726 153.985 50.1893 151.361 53.5928 147.693C56.7148 144.332 58.9507 136.416 59.9196 132.448C60.0603 131.875 60.8498 131.875 60.9906 132.448C61.965 136.424 64.2174 144.374 67.3587 147.741C70.7595 151.383 79.1869 153.994 83.1619 155.065V155.062Z" fill="#FFA872" stroke="#3B2017" stroke-width="2" stroke-linecap="round" stroke-linejoin="round"/>
<path d="M630.356 201.304C630.902 201.451 630.908 202.248 630.361 202.398C626.295 203.529 617.531 206.32 614.094 210.209C611.441 213.208 609.476 219.755 608.449 223.833C608.237 224.683 607.061 224.683 606.848 223.833C605.821 219.752 603.853 213.205 601.198 210.203C597.758 206.318 588.997 203.526 584.934 202.398C584.387 202.245 584.393 201.451 584.939 201.304C588.92 200.227 597.383 197.602 600.786 193.935C603.908 190.573 606.144 182.657 607.113 178.69C607.254 178.117 608.043 178.117 608.184 178.69C609.159 182.666 611.411 190.616 614.552 193.983C617.953 197.625 626.381 200.235 630.356 201.307V201.304Z" fill="#E59BF0" stroke="#3B2017" stroke-width="2" stroke-linecap="round" stroke-linejoin="round"/>
<path d="M51.3786 125.359C51.7168 125.45 51.7202 125.943 51.382 126.036C48.8659 126.735 43.4427 128.463 41.3162 130.869C39.6747 132.725 38.4585 136.776 37.8231 139.3C37.6916 139.826 36.9639 139.826 36.8324 139.3C36.197 136.774 34.9791 132.723 33.3359 130.866C31.2077 128.461 25.7862 126.734 23.2718 126.036C22.9336 125.941 22.9371 125.45 23.2753 125.359C25.7383 124.692 30.9754 123.068 33.0814 120.799C35.0133 118.719 36.3968 113.82 36.9964 111.365C37.0835 111.011 37.572 111.011 37.6591 111.365C38.2621 113.826 39.6559 118.745 41.5997 120.829C43.7041 123.082 48.9189 124.697 51.3786 125.36V125.359Z" fill="#E59BF0" stroke="#3B2017" stroke-width="2" stroke-linecap="round" stroke-linejoin="round"/>
<path d="M654.723 283.902C655.061 283.993 655.065 284.486 654.726 284.579C652.21 285.278 646.787 287.006 644.661 289.412C643.019 291.268 641.803 295.319 641.167 297.843C641.036 298.369 640.308 298.369 640.177 297.843C639.541 295.317 638.323 291.266 636.68 289.409C634.552 287.004 629.131 285.277 626.616 284.579C626.278 284.484 626.281 283.993 626.62 283.902C629.083 283.235 634.32 281.611 636.426 279.342C638.358 277.262 639.741 272.363 640.341 269.908C640.428 269.554 640.916 269.554 641.003 269.908C641.606 272.369 643 277.288 644.944 279.372C647.048 281.625 652.263 283.241 654.723 283.903V283.902Z" fill="#FFFA64" stroke="#3B2017" stroke-width="2" stroke-linecap="round" stroke-linejoin="round"/>
<path d="M107.529 111.046C107.867 111.137 107.871 111.63 107.533 111.723C105.017 112.422 99.5934 114.15 97.4668 116.556C95.8253 118.412 94.6092 122.463 93.9737 124.987C93.8422 125.513 93.1146 125.513 92.983 124.987C92.3476 122.461 91.1298 118.41 89.4866 116.553C87.3583 114.148 81.9368 112.421 79.4225 111.723C79.0843 111.628 79.0877 111.137 79.4259 111.046C81.889 110.379 87.126 108.755 89.2321 106.486C91.1639 104.406 92.5475 99.5075 93.147 97.0521C93.2341 96.6979 93.7227 96.6979 93.8098 97.0521C94.4127 99.5127 95.8065 104.432 97.7503 106.516C99.8547 108.769 105.07 110.385 107.529 111.047V111.046Z" fill="#BFD43B" stroke="#3B2017" stroke-width="2" stroke-linecap="round" stroke-linejoin="round"/>
<path d="M97.8543 67.0596C97.8543 58.5462 90.9686 51.6457 82.4734 51.6457V67.0596H97.8543Z" fill="#FDFAF1"/>
<path d="M82.4734 51.6457C90.9686 51.6457 97.8543 44.7453 97.8543 36.2318H82.4734V51.6457Z" fill="#FDFAF1"/>
<path d="M113.238 51.6457C104.743 51.6457 97.8572 58.5462 97.8572 67.0596H113.238V51.6457Z" fill="#FDFAF1"/>
<path d="M97.8543 36.2318V51.6457H113.235C113.235 43.1323 106.349 36.2318 97.8543 36.2318Z" fill="#FDFAF1"/>
</svg>
