<svg width="1440" height="110" viewBox="0 0 1440 110" fill="none" xmlns="http://www.w3.org/2000/svg">
<rect width="1440" height="110" fill="#FDFAF1"/>
<path d="M579.237 89.2937C579.237 70.6287 564.141 55.5 545.516 55.5V89.2937H579.237Z" fill="#E8BDEF"/>
<path d="M545.516 55.5C564.141 55.5 579.237 40.3713 579.237 21.7063H545.516V55.5Z" fill="#E8BDEF"/>
<path d="M612.965 55.5C594.34 55.5 579.243 70.6287 579.243 89.2937H612.965V55.5Z" fill="#E8BDEF"/>
<path d="M579.237 21.7063V55.5H612.958C612.958 36.835 597.862 21.7063 579.237 21.7063Z" fill="#E59BF0"/>
<path d="M635.495 32.8363H643.417C649.643 32.8363 653.269 36.9001 653.269 42.1818C653.269 48.3753 648.921 52.1525 643.365 52.1525H635.495V32.8428V32.8363ZM638.218 49.8862H642.813C647.914 49.8862 650.377 46.682 650.377 42.26C650.377 37.8379 647.498 35.1092 643.027 35.0896H638.218V49.8862Z" fill="#3B2017"/>
<path d="M676.742 42.4358C676.742 47.8933 673.057 52.5563 666.597 52.5563C660.138 52.5563 656.512 48.0887 656.512 42.4228C656.512 37.0629 660.489 32.426 666.675 32.426C672.862 32.426 676.742 37.0759 676.742 42.4293V42.4358ZM659.391 42.3511C659.391 46.5061 661.918 50.2639 666.688 50.2639C671.458 50.2639 673.856 46.6755 673.856 42.4879C673.856 38.3003 671.341 34.7184 666.519 34.7184C662.029 34.7184 659.391 38.2743 659.391 42.3511ZM672.706 26.9684L667.332 30.7457H664.615L669.203 26.9684H672.706Z" fill="#3B2017"/>
<path d="M681.063 52.1525V32.8428H684.319C688.654 38.893 694.847 46.8253 695.939 48.8116H695.991C695.822 46.2977 695.848 43.2499 695.848 40.1173V32.8493H698.395V52.1591H695.315C692.449 48.3036 684.898 37.89 683.52 35.6432H683.468C683.611 38.131 683.611 40.8663 683.611 44.2788V52.1591H681.063V52.1525Z" fill="#3B2017"/>
<path d="M704.036 32.8363H711.958C718.183 32.8363 721.809 36.9001 721.809 42.1818C721.809 48.3753 717.462 52.1525 711.906 52.1525H704.036V32.8428V32.8363ZM706.759 49.8862H711.353C716.455 49.8862 718.918 46.682 718.918 42.26C718.918 37.8379 716.039 35.1092 711.568 35.0896H706.759V49.8862Z" fill="#3B2017"/>
<path d="M740.395 43.1587H728.841V49.8471H741.591L741.227 52.1525H726.118V32.8428H741.006V35.1482H728.841V40.8598H740.395V43.1652V43.1587Z" fill="#3B2017"/>
<path d="M758.267 35.1547H750.923V32.8428H768.352V35.1547H761.015V52.1525H758.273V35.1547H758.267Z" fill="#3B2017"/>
<path d="M785.853 43.1587H774.299V49.8471H787.049L786.685 52.1525H771.576V32.8428H786.464V35.1482H774.299V40.8598H785.853V43.1652V43.1587Z" fill="#3B2017"/>
<path d="M798.831 32.8363H806.753C812.978 32.8363 816.604 36.9001 816.604 42.1818C816.604 48.3753 812.257 52.1525 806.701 52.1525H798.831V32.8428V32.8363ZM801.554 49.8862H806.148C811.25 49.8862 813.713 46.682 813.713 42.26C813.713 37.8379 810.834 35.1092 806.363 35.0896H801.554V49.8862Z" fill="#3B2017"/>
<path d="M823.519 32.8363V43.8099C823.519 48.8702 826.489 50.2639 829.413 50.2639C832.942 50.2639 835.073 48.5902 835.073 43.8099V32.8363H837.796V43.7774C837.796 50.0555 834.521 52.5498 829.316 52.5498C824.11 52.5498 820.802 50.0034 820.802 43.9858V32.8298H823.525L823.519 32.8363Z" fill="#3B2017"/>
<path d="M857.513 43.1587H845.959V49.8471H858.709L858.345 52.1525H843.236V32.8428H858.124V35.1482H845.959V40.8598H857.513V43.1652V43.1587Z" fill="#3B2017"/>
<path d="M862.679 32.8363H865.383V49.8276H877.002L876.593 52.1525H862.679V32.8428V32.8363Z" fill="#3B2017"/>
<path d="M894.288 43.1587H882.734V49.8471H895.484L895.12 52.1525H880.011V32.8428H894.899V35.1482H882.734V40.8598H894.288V43.1652V43.1587Z" fill="#3B2017"/>
<path d="M635.495 60.2411H638.199V77.2324H649.818L649.409 79.5574H635.495V60.2477V60.2411Z" fill="#3B2017"/>
<path d="M656.947 73.7026L654.458 79.5509H651.618L659.904 60.2411H663.205L671.822 79.5509H668.859L666.266 73.7026H656.947ZM665.382 71.3841C663.03 66.0504 661.918 63.53 661.477 62.2145H661.451C661.054 63.4779 659.735 66.7863 657.798 71.3841H665.382Z" fill="#3B2017"/>
<path d="M688.92 79.5574L680.498 60.2477H683.487L687.867 70.5505C689.485 74.3669 690.129 76.1123 690.493 77.1934H690.545C690.844 76.2555 691.714 74.1976 693.008 70.9934L697.641 60.2477H700.553L691.994 79.5574H688.92Z" fill="#3B2017"/>
<path d="M706.245 60.2411V79.5509H703.522V60.2411H706.245Z" fill="#3B2017"/>
<path d="M711.873 60.2411H719.795C726.021 60.2411 729.647 64.305 729.647 69.5867C729.647 75.7801 725.299 79.5574 719.743 79.5574H711.873V60.2477V60.2411ZM714.596 77.291H719.191C724.292 77.291 726.755 74.0869 726.755 69.6648C726.755 65.2428 723.876 62.514 719.405 62.4945H714.596V77.291Z" fill="#3B2017"/>
<path d="M736.691 73.7026L734.202 79.5509H731.362L739.648 60.2411H742.949L751.567 79.5509H748.603L746.01 73.7026H736.691ZM745.126 71.3841C742.774 66.0504 741.663 63.53 741.221 62.2145H741.195C740.798 63.4779 739.479 66.7863 737.543 71.3841H745.126Z" fill="#3B2017"/>
<path d="M762.621 60.2411H765.344V68.0497H776.944V60.2411H779.666V79.5509H776.944V70.3617H765.344V79.5509H762.621V60.2411Z" fill="#3B2017"/>
<path d="M804.355 69.8407C804.355 75.2982 800.67 79.9612 794.21 79.9612C787.751 79.9612 784.124 75.4936 784.124 69.8276C784.124 64.4678 788.102 59.8309 794.288 59.8309C800.475 59.8309 804.355 64.4808 804.355 69.8342V69.8407ZM787.003 69.756C787.003 73.911 789.531 77.6688 794.301 77.6688C799.071 77.6688 801.469 74.0804 801.469 69.8928C801.469 65.7052 798.954 62.1233 794.132 62.1233C789.642 62.1233 787.003 65.6791 787.003 69.756Z" fill="#3B2017"/>
<path d="M813.44 79.5574V72.2047C813.44 72.0094 813.375 71.8921 813.251 71.7163L805.18 60.2411H808.429C810.678 63.5495 814.018 68.206 814.908 69.8146C815.864 68.193 819.087 63.543 821.355 60.2411H824.383L816.299 71.7879C816.208 71.9312 816.169 72.0224 816.169 72.2503V79.5574H813.44Z" fill="#3B2017"/>
</svg>
