<svg width="1440" height="720" viewBox="0 0 1440 720" fill="none" xmlns="http://www.w3.org/2000/svg">
<rect width="1440" height="720" fill="#E59BF0"/>
<path d="M217.965 163V124.584H224.685V140.432H248.205V124.584H254.925V163H248.205V146.312H224.685V163H217.965ZM265.215 163V124.584H299.263V130.296H271.935V140.488H296.407V146.2H271.935V157.288H299.655V163H265.215ZM308.418 163V124.584H333.338C336.026 124.584 338.247 125.088 340.002 126.096C341.756 127.104 343.063 128.485 343.922 130.24C344.818 131.995 345.266 133.992 345.266 136.232C345.266 138.696 344.668 140.899 343.474 142.84C342.316 144.781 340.599 146.237 338.322 147.208L346.442 163H338.938L331.658 148.384H315.138V163H308.418ZM315.138 142.728H332.162C334.14 142.728 335.671 142.149 336.754 140.992C337.874 139.797 338.434 138.229 338.434 136.288C338.434 135.019 338.191 133.936 337.706 133.04C337.22 132.144 336.511 131.472 335.578 131.024C334.644 130.539 333.506 130.296 332.162 130.296H315.138V142.728ZM354.191 163V124.584H379.111C381.799 124.584 384.02 125.088 385.775 126.096C387.53 127.104 388.836 128.485 389.695 130.24C390.591 131.995 391.039 133.992 391.039 136.232C391.039 138.696 390.442 140.899 389.247 142.84C388.09 144.781 386.372 146.237 384.095 147.208L392.215 163H384.711L377.431 148.384H360.911V163H354.191ZM360.911 142.728H377.935C379.914 142.728 381.444 142.149 382.527 140.992C383.647 139.797 384.207 138.229 384.207 136.288C384.207 135.019 383.964 133.936 383.479 133.04C382.994 132.144 382.284 131.472 381.351 131.024C380.418 130.539 379.279 130.296 377.935 130.296H360.911V142.728ZM395.765 163L413.013 124.584H421.133L438.437 163H431.045L427.293 154.432H406.461L402.709 163H395.765ZM408.925 148.776H424.829L420.125 137.912C419.938 137.539 419.695 137.016 419.397 136.344C419.135 135.672 418.855 134.963 418.557 134.216C418.258 133.432 417.978 132.704 417.717 132.032C417.455 131.323 417.25 130.781 417.101 130.408H416.709C416.41 131.155 416.055 132.013 415.645 132.984C415.271 133.955 414.898 134.888 414.525 135.784C414.151 136.68 413.853 137.408 413.629 137.968L408.925 148.776ZM444.535 163V124.584H454.951L463.855 147.208C464.116 147.843 464.396 148.627 464.695 149.56C465.031 150.456 465.348 151.371 465.647 152.304C465.983 153.237 466.263 154.059 466.487 154.768H466.879C467.103 154.133 467.345 153.368 467.607 152.472C467.905 151.576 468.204 150.661 468.503 149.728C468.839 148.795 469.137 147.973 469.399 147.264L478.303 124.584H488.607V163H481.887V140.376C481.887 139.331 481.887 138.229 481.887 137.072C481.924 135.877 481.961 134.795 481.999 133.824C482.036 132.816 482.055 132.069 482.055 131.584H481.663C481.513 132.069 481.289 132.741 480.991 133.6C480.692 134.459 480.393 135.355 480.095 136.288C479.796 137.221 479.516 138.043 479.255 138.752L469.623 163H463.295L453.663 138.808C453.364 138.061 453.065 137.259 452.767 136.4C452.468 135.541 452.188 134.683 451.927 133.824C451.703 132.965 451.479 132.219 451.255 131.584H450.863C450.863 132.293 450.881 133.171 450.919 134.216C450.956 135.261 450.975 136.325 450.975 137.408C451.012 138.491 451.031 139.48 451.031 140.376V163H444.535ZM498.894 163V124.584H505.614V163H498.894ZM515.902 163V124.584H549.95V130.296H522.622V140.488H547.094V146.2H522.622V157.288H550.342V163H515.902ZM559.105 163V124.584H565.545L585.705 147.824C586.004 148.123 586.377 148.552 586.825 149.112C587.273 149.635 587.721 150.176 588.169 150.736C588.654 151.259 589.028 151.725 589.289 152.136H589.681C589.644 151.464 589.606 150.717 589.569 149.896C589.569 149.075 589.569 148.328 589.569 147.656V124.584H596.065V163H589.849L569.577 139.48C568.98 138.808 568.308 138.024 567.561 137.128C566.852 136.232 566.292 135.541 565.881 135.056H565.545C565.545 135.579 565.545 136.288 565.545 137.184C565.582 138.043 565.601 138.957 565.601 139.928V163H559.105ZM617.555 163V130.464H602.547V124.584H639.339V130.464H624.275V163H617.555ZM635.46 163L652.708 124.584H660.828L678.132 163H670.74L666.988 154.432H646.156L642.404 163H635.46ZM648.62 148.776H664.524L659.82 137.912C659.633 137.539 659.39 137.016 659.092 136.344C658.83 135.672 658.55 134.963 658.252 134.216C657.953 133.432 657.673 132.704 657.412 132.032C657.15 131.323 656.945 130.781 656.796 130.408H656.404C656.105 131.155 655.75 132.013 655.34 132.984C654.966 133.955 654.593 134.888 654.22 135.784C653.846 136.68 653.548 137.408 653.324 137.968L648.62 148.776ZM700.526 163.672C698.062 163.672 695.729 163.467 693.526 163.056C691.323 162.683 689.363 162.048 687.646 161.152C685.966 160.219 684.641 158.987 683.67 157.456C682.699 155.925 682.214 154.003 682.214 151.688C682.214 151.539 682.214 151.389 682.214 151.24C682.214 151.053 682.233 150.904 682.27 150.792H688.99C688.953 150.941 688.915 151.128 688.878 151.352C688.878 151.539 688.878 151.763 688.878 152.024C688.878 153.331 689.345 154.432 690.278 155.328C691.249 156.224 692.611 156.896 694.366 157.344C696.121 157.792 698.155 158.016 700.47 158.016C701.627 158.016 702.747 157.96 703.83 157.848C704.913 157.736 705.921 157.549 706.854 157.288C707.825 157.027 708.665 156.691 709.374 156.28C710.083 155.832 710.643 155.309 711.054 154.712C711.465 154.115 711.67 153.424 711.67 152.64C711.67 151.483 711.278 150.549 710.494 149.84C709.71 149.093 708.627 148.496 707.246 148.048C705.902 147.563 704.39 147.152 702.71 146.816C701.03 146.443 699.275 146.088 697.446 145.752C695.654 145.379 693.918 144.931 692.238 144.408C690.558 143.848 689.027 143.157 687.646 142.336C686.302 141.515 685.238 140.469 684.454 139.2C683.67 137.931 683.278 136.363 683.278 134.496C683.278 132.853 683.651 131.379 684.398 130.072C685.145 128.728 686.246 127.608 687.702 126.712C689.195 125.779 691.006 125.088 693.134 124.64C695.299 124.155 697.801 123.912 700.638 123.912C703.289 123.912 705.641 124.155 707.694 124.64C709.785 125.125 711.539 125.835 712.958 126.768C714.377 127.701 715.441 128.84 716.15 130.184C716.897 131.528 717.27 133.059 717.27 134.776V135.616H710.662V134.776C710.662 133.731 710.251 132.835 709.43 132.088C708.609 131.304 707.451 130.688 705.958 130.24C704.502 129.792 702.803 129.568 700.862 129.568C698.473 129.568 696.475 129.755 694.87 130.128C693.302 130.501 692.107 131.043 691.286 131.752C690.502 132.424 690.11 133.245 690.11 134.216C690.11 135.224 690.502 136.064 691.286 136.736C692.107 137.371 693.19 137.912 694.534 138.36C695.915 138.771 697.446 139.144 699.126 139.48C700.806 139.816 702.542 140.171 704.334 140.544C706.126 140.917 707.862 141.384 709.542 141.944C711.259 142.467 712.79 143.157 714.134 144.016C715.515 144.837 716.598 145.883 717.382 147.152C718.166 148.421 718.558 149.971 718.558 151.8C718.558 154.637 717.793 156.933 716.262 158.688C714.731 160.443 712.603 161.712 709.878 162.496C707.19 163.28 704.073 163.672 700.526 163.672ZM725.602 171.848V168.88C726.424 168.731 727.114 168.376 727.674 167.816C728.234 167.293 728.664 166.603 728.962 165.744C729.261 164.923 729.41 164.008 729.41 163H726.162V155.888H733.274V162.216C733.274 164.531 732.882 166.341 732.098 167.648C731.352 168.992 730.381 169.981 729.186 170.616C728.029 171.251 726.834 171.661 725.602 171.848ZM757.949 163V124.584H782.869C785.557 124.584 787.778 125.088 789.533 126.096C791.288 127.104 792.594 128.485 793.453 130.24C794.349 131.995 794.797 133.992 794.797 136.232C794.797 138.696 794.2 140.899 793.005 142.84C791.848 144.781 790.13 146.237 787.853 147.208L795.973 163H788.469L781.189 148.384H764.669V163H757.949ZM764.669 142.728H781.693C783.672 142.728 785.202 142.149 786.285 140.992C787.405 139.797 787.965 138.229 787.965 136.288C787.965 135.019 787.722 133.936 787.237 133.04C786.752 132.144 786.042 131.472 785.109 131.024C784.176 130.539 783.037 130.296 781.693 130.296H764.669V142.728ZM803.722 163V124.584H837.77V130.296H810.442V140.488H834.914V146.2H810.442V157.288H838.162V163H803.722ZM846.925 163V124.584H878.677V130.296H853.645V141.216H876.381V146.928H853.645V163H846.925ZM886.027 163V124.584H892.747V157.064H914.475V163H886.027ZM921.027 163V124.584H955.075V130.296H927.747V140.488H952.219V146.2H927.747V157.288H955.467V163H921.027ZM960.422 163L976.998 142.952L961.934 124.584H970.502L981.31 138.08H981.758L992.566 124.584H1000.63L985.678 142.728L1002.25 163H993.686L981.366 147.544H980.918L968.542 163H960.422ZM1008.8 163V124.584H1015.52V163H1008.8ZM1045.91 163.672C1041.43 163.672 1037.55 162.925 1034.26 161.432C1030.98 159.939 1028.46 157.717 1026.7 154.768C1024.95 151.819 1024.07 148.16 1024.07 143.792C1024.07 139.387 1024.95 135.728 1026.7 132.816C1028.46 129.867 1030.98 127.645 1034.26 126.152C1037.55 124.659 1041.43 123.912 1045.91 123.912C1050.47 123.912 1054.37 124.659 1057.62 126.152C1060.9 127.645 1063.42 129.867 1065.18 132.816C1066.97 135.728 1067.86 139.387 1067.86 143.792C1067.86 148.16 1066.97 151.819 1065.18 154.768C1063.42 157.717 1060.9 159.939 1057.62 161.432C1054.37 162.925 1050.47 163.672 1045.91 163.672ZM1045.97 157.96C1048.21 157.96 1050.24 157.699 1052.07 157.176C1053.9 156.616 1055.47 155.776 1056.78 154.656C1058.08 153.536 1059.09 152.117 1059.8 150.4C1060.55 148.683 1060.92 146.685 1060.92 144.408V143.176C1060.92 140.861 1060.55 138.845 1059.8 137.128C1059.09 135.411 1058.08 134.011 1056.78 132.928C1055.47 131.808 1053.9 130.968 1052.07 130.408C1050.24 129.848 1048.21 129.568 1045.97 129.568C1043.73 129.568 1041.69 129.848 1039.86 130.408C1038.03 130.968 1036.45 131.808 1035.1 132.928C1033.8 134.011 1032.79 135.411 1032.08 137.128C1031.37 138.845 1031.02 140.861 1031.02 143.176V144.408C1031.02 146.685 1031.37 148.683 1032.08 150.4C1032.79 152.117 1033.8 153.536 1035.1 154.656C1036.45 155.776 1038.03 156.616 1039.86 157.176C1041.69 157.699 1043.73 157.96 1045.97 157.96ZM1076.39 163V124.584H1082.83L1102.99 147.824C1103.29 148.123 1103.67 148.552 1104.11 149.112C1104.56 149.635 1105.01 150.176 1105.46 150.736C1105.94 151.259 1106.32 151.725 1106.58 152.136H1106.97C1106.93 151.464 1106.9 150.717 1106.86 149.896C1106.86 149.075 1106.86 148.328 1106.86 147.656V124.584H1113.35V163H1107.14L1086.87 139.48C1086.27 138.808 1085.6 138.024 1084.85 137.128C1084.14 136.232 1083.58 135.541 1083.17 135.056H1082.83C1082.83 135.579 1082.83 136.288 1082.83 137.184C1082.87 138.043 1082.89 138.957 1082.89 139.928V163H1076.39ZM1123.64 163V124.584H1157.69V130.296H1130.36V140.488H1154.84V146.2H1130.36V157.288H1158.08V163H1123.64ZM1183.14 163.672C1180.68 163.672 1178.35 163.467 1176.14 163.056C1173.94 162.683 1171.98 162.048 1170.26 161.152C1168.58 160.219 1167.26 158.987 1166.29 157.456C1165.32 155.925 1164.83 154.003 1164.83 151.688C1164.83 151.539 1164.83 151.389 1164.83 151.24C1164.83 151.053 1164.85 150.904 1164.89 150.792H1171.61C1171.57 150.941 1171.53 151.128 1171.5 151.352C1171.5 151.539 1171.5 151.763 1171.5 152.024C1171.5 153.331 1171.96 154.432 1172.9 155.328C1173.87 156.224 1175.23 156.896 1176.98 157.344C1178.74 157.792 1180.77 158.016 1183.09 158.016C1184.24 158.016 1185.36 157.96 1186.45 157.848C1187.53 157.736 1188.54 157.549 1189.47 157.288C1190.44 157.027 1191.28 156.691 1191.99 156.28C1192.7 155.832 1193.26 155.309 1193.67 154.712C1194.08 154.115 1194.29 153.424 1194.29 152.64C1194.29 151.483 1193.9 150.549 1193.11 149.84C1192.33 149.093 1191.24 148.496 1189.86 148.048C1188.52 147.563 1187.01 147.152 1185.33 146.816C1183.65 146.443 1181.89 146.088 1180.06 145.752C1178.27 145.379 1176.54 144.931 1174.86 144.408C1173.18 143.848 1171.64 143.157 1170.26 142.336C1168.92 141.515 1167.86 140.469 1167.07 139.2C1166.29 137.931 1165.9 136.363 1165.9 134.496C1165.9 132.853 1166.27 131.379 1167.02 130.072C1167.76 128.728 1168.86 127.608 1170.32 126.712C1171.81 125.779 1173.62 125.088 1175.75 124.64C1177.92 124.155 1180.42 123.912 1183.26 123.912C1185.91 123.912 1188.26 124.155 1190.31 124.64C1192.4 125.125 1194.16 125.835 1195.58 126.768C1196.99 127.701 1198.06 128.84 1198.77 130.184C1199.51 131.528 1199.89 133.059 1199.89 134.776V135.616H1193.28V134.776C1193.28 133.731 1192.87 132.835 1192.05 132.088C1191.23 131.304 1190.07 130.688 1188.58 130.24C1187.12 129.792 1185.42 129.568 1183.48 129.568C1181.09 129.568 1179.09 129.755 1177.49 130.128C1175.92 130.501 1174.72 131.043 1173.9 131.752C1173.12 132.424 1172.73 133.245 1172.73 134.216C1172.73 135.224 1173.12 136.064 1173.9 136.736C1174.72 137.371 1175.81 137.912 1177.15 138.36C1178.53 138.771 1180.06 139.144 1181.74 139.48C1183.42 139.816 1185.16 140.171 1186.95 140.544C1188.74 140.917 1190.48 141.384 1192.16 141.944C1193.88 142.467 1195.41 143.157 1196.75 144.016C1198.13 144.837 1199.22 145.883 1200 147.152C1200.78 148.421 1201.18 149.971 1201.18 151.8C1201.18 154.637 1200.41 156.933 1198.88 158.688C1197.35 160.443 1195.22 161.712 1192.5 162.496C1189.81 163.28 1186.69 163.672 1183.14 163.672ZM221.458 224V208.264L204.546 185.584H212.498L224.818 202.496H225.266L237.642 185.584H245.202L228.234 208.264V224H221.458ZM262.617 224V185.584H269.057L289.217 208.824C289.516 209.123 289.889 209.552 290.337 210.112C290.785 210.635 291.233 211.176 291.681 211.736C292.166 212.259 292.54 212.725 292.801 213.136H293.193C293.156 212.464 293.118 211.717 293.081 210.896C293.081 210.075 293.081 209.328 293.081 208.656V185.584H299.577V224H293.361L273.089 200.48C272.492 199.808 271.82 199.024 271.073 198.128C270.364 197.232 269.804 196.541 269.393 196.056H269.057C269.057 196.579 269.057 197.288 269.057 198.184C269.094 199.043 269.113 199.957 269.113 200.928V224H262.617ZM327.955 224.672C323.923 224.672 320.544 224.037 317.819 222.768C315.094 221.499 313.04 219.632 311.659 217.168C310.278 214.704 309.587 211.699 309.587 208.152V185.584H316.307V208.152C316.307 211.661 317.315 214.349 319.331 216.216C321.347 218.045 324.222 218.96 327.955 218.96C331.651 218.96 334.526 218.045 336.579 216.216C338.632 214.349 339.659 211.661 339.659 208.152V185.584H346.379V208.152C346.379 211.699 345.67 214.704 344.251 217.168C342.87 219.632 340.816 221.499 338.091 222.768C335.366 224.037 331.987 224.672 327.955 224.672ZM356.406 224V185.584H390.454V191.296H363.126V201.488H387.598V207.2H363.126V218.288H390.846V224H356.406ZM411.593 224L395.241 185.584H402.689L412.881 210.56C413.142 211.195 413.441 211.923 413.777 212.744C414.113 213.565 414.43 214.349 414.729 215.096C415.028 215.843 415.289 216.496 415.513 217.056H415.905C416.129 216.533 416.39 215.899 416.689 215.152C416.988 214.405 417.305 213.64 417.641 212.856C417.977 212.035 418.276 211.288 418.537 210.616L428.729 185.584H435.785L419.489 224H411.593ZM435.112 224L452.36 185.584H460.48L477.784 224H470.392L466.64 215.432H445.808L442.056 224H435.112ZM448.272 209.776H464.176L459.472 198.912C459.285 198.539 459.043 198.016 458.744 197.344C458.483 196.672 458.203 195.963 457.904 195.216C457.605 194.432 457.325 193.704 457.064 193.032C456.803 192.323 456.597 191.781 456.448 191.408H456.056C455.757 192.155 455.403 193.013 454.992 193.984C454.619 194.955 454.245 195.888 453.872 196.784C453.499 197.68 453.2 198.408 452.976 198.968L448.272 209.776ZM500.178 224.672C497.714 224.672 495.381 224.467 493.178 224.056C490.976 223.683 489.016 223.048 487.298 222.152C485.618 221.219 484.293 219.987 483.322 218.456C482.352 216.925 481.866 215.003 481.866 212.688C481.866 212.539 481.866 212.389 481.866 212.24C481.866 212.053 481.885 211.904 481.922 211.792H488.642C488.605 211.941 488.568 212.128 488.53 212.352C488.53 212.539 488.53 212.763 488.53 213.024C488.53 214.331 488.997 215.432 489.93 216.328C490.901 217.224 492.264 217.896 494.018 218.344C495.773 218.792 497.808 219.016 500.122 219.016C501.28 219.016 502.4 218.96 503.482 218.848C504.565 218.736 505.573 218.549 506.506 218.288C507.477 218.027 508.317 217.691 509.026 217.28C509.736 216.832 510.296 216.309 510.706 215.712C511.117 215.115 511.322 214.424 511.322 213.64C511.322 212.483 510.93 211.549 510.146 210.84C509.362 210.093 508.28 209.496 506.898 209.048C505.554 208.563 504.042 208.152 502.362 207.816C500.682 207.443 498.928 207.088 497.098 206.752C495.306 206.379 493.57 205.931 491.89 205.408C490.21 204.848 488.68 204.157 487.298 203.336C485.954 202.515 484.89 201.469 484.106 200.2C483.322 198.931 482.93 197.363 482.93 195.496C482.93 193.853 483.304 192.379 484.05 191.072C484.797 189.728 485.898 188.608 487.354 187.712C488.848 186.779 490.658 186.088 492.786 185.64C494.952 185.155 497.453 184.912 500.29 184.912C502.941 184.912 505.293 185.155 507.346 185.64C509.437 186.125 511.192 186.835 512.61 187.768C514.029 188.701 515.093 189.84 515.802 191.184C516.549 192.528 516.922 194.059 516.922 195.776V196.616H510.314V195.776C510.314 194.731 509.904 193.835 509.082 193.088C508.261 192.304 507.104 191.688 505.61 191.24C504.154 190.792 502.456 190.568 500.514 190.568C498.125 190.568 496.128 190.755 494.522 191.128C492.954 191.501 491.76 192.043 490.938 192.752C490.154 193.424 489.762 194.245 489.762 195.216C489.762 196.224 490.154 197.064 490.938 197.736C491.76 198.371 492.842 198.912 494.186 199.36C495.568 199.771 497.098 200.144 498.778 200.48C500.458 200.816 502.194 201.171 503.986 201.544C505.778 201.917 507.514 202.384 509.194 202.944C510.912 203.467 512.442 204.157 513.786 205.016C515.168 205.837 516.25 206.883 517.034 208.152C517.818 209.421 518.21 210.971 518.21 212.8C518.21 215.637 517.445 217.933 515.914 219.688C514.384 221.443 512.256 222.712 509.53 223.496C506.842 224.28 503.725 224.672 500.178 224.672ZM541.25 224V185.584H564.658C567.271 185.584 569.474 186.107 571.266 187.152C573.058 188.16 574.42 189.579 575.354 191.408C576.324 193.2 576.81 195.291 576.81 197.68C576.81 200.069 576.306 202.197 575.298 204.064C574.327 205.931 572.927 207.387 571.098 208.432C569.268 209.44 567.066 209.944 564.49 209.944H547.97V224H541.25ZM547.97 204.232H563.37C565.46 204.232 567.084 203.653 568.242 202.496C569.399 201.339 569.978 199.752 569.978 197.736C569.978 196.392 569.716 195.253 569.194 194.32C568.708 193.349 567.98 192.603 567.01 192.08C566.039 191.557 564.826 191.296 563.37 191.296H547.97V204.232ZM583.687 224V185.584H617.735V191.296H590.407V201.488H614.879V207.2H590.407V218.288H618.127V224H583.687ZM626.89 224V185.584H651.81C654.498 185.584 656.72 186.088 658.474 187.096C660.229 188.104 661.536 189.485 662.394 191.24C663.29 192.995 663.738 194.992 663.738 197.232C663.738 199.696 663.141 201.899 661.946 203.84C660.789 205.781 659.072 207.237 656.794 208.208L664.914 224H657.41L650.13 209.384H633.61V224H626.89ZM633.61 203.728H650.634C652.613 203.728 654.144 203.149 655.226 201.992C656.346 200.797 656.906 199.229 656.906 197.288C656.906 196.019 656.664 194.936 656.178 194.04C655.693 193.144 654.984 192.472 654.05 192.024C653.117 191.539 651.978 191.296 650.634 191.296H633.61V203.728ZM688.96 224.672C686.496 224.672 684.162 224.467 681.96 224.056C679.757 223.683 677.797 223.048 676.08 222.152C674.4 221.219 673.074 219.987 672.104 218.456C671.133 216.925 670.648 215.003 670.648 212.688C670.648 212.539 670.648 212.389 670.648 212.24C670.648 212.053 670.666 211.904 670.704 211.792H677.424C677.386 211.941 677.349 212.128 677.312 212.352C677.312 212.539 677.312 212.763 677.312 213.024C677.312 214.331 677.778 215.432 678.712 216.328C679.682 217.224 681.045 217.896 682.8 218.344C684.554 218.792 686.589 219.016 688.904 219.016C690.061 219.016 691.181 218.96 692.264 218.848C693.346 218.736 694.354 218.549 695.288 218.288C696.258 218.027 697.098 217.691 697.808 217.28C698.517 216.832 699.077 216.309 699.488 215.712C699.898 215.115 700.104 214.424 700.104 213.64C700.104 212.483 699.712 211.549 698.928 210.84C698.144 210.093 697.061 209.496 695.68 209.048C694.336 208.563 692.824 208.152 691.144 207.816C689.464 207.443 687.709 207.088 685.88 206.752C684.088 206.379 682.352 205.931 680.672 205.408C678.992 204.848 677.461 204.157 676.08 203.336C674.736 202.515 673.672 201.469 672.888 200.2C672.104 198.931 671.712 197.363 671.712 195.496C671.712 193.853 672.085 192.379 672.832 191.072C673.578 189.728 674.68 188.608 676.136 187.712C677.629 186.779 679.44 186.088 681.568 185.64C683.733 185.155 686.234 184.912 689.072 184.912C691.722 184.912 694.074 185.155 696.128 185.64C698.218 186.125 699.973 186.835 701.392 187.768C702.81 188.701 703.874 189.84 704.584 191.184C705.33 192.528 705.704 194.059 705.704 195.776V196.616H699.096V195.776C699.096 194.731 698.685 193.835 697.864 193.088C697.042 192.304 695.885 191.688 694.392 191.24C692.936 190.792 691.237 190.568 689.296 190.568C686.906 190.568 684.909 190.755 683.304 191.128C681.736 191.501 680.541 192.043 679.72 192.752C678.936 193.424 678.544 194.245 678.544 195.216C678.544 196.224 678.936 197.064 679.72 197.736C680.541 198.371 681.624 198.912 682.968 199.36C684.349 199.771 685.88 200.144 687.56 200.48C689.24 200.816 690.976 201.171 692.768 201.544C694.56 201.917 696.296 202.384 697.976 202.944C699.693 203.467 701.224 204.157 702.568 205.016C703.949 205.837 705.032 206.883 705.816 208.152C706.6 209.421 706.992 210.971 706.992 212.8C706.992 215.637 706.226 217.933 704.696 219.688C703.165 221.443 701.037 222.712 698.312 223.496C695.624 224.28 692.506 224.672 688.96 224.672ZM715.156 224V185.584H738.564C741.177 185.584 743.38 186.107 745.172 187.152C746.964 188.16 748.327 189.579 749.26 191.408C750.231 193.2 750.716 195.291 750.716 197.68C750.716 200.069 750.212 202.197 749.204 204.064C748.233 205.931 746.833 207.387 745.004 208.432C743.175 209.44 740.972 209.944 738.396 209.944H721.876V224H715.156ZM721.876 204.232H737.276C739.367 204.232 740.991 203.653 742.148 202.496C743.305 201.339 743.884 199.752 743.884 197.736C743.884 196.392 743.623 195.253 743.1 194.32C742.615 193.349 741.887 192.603 740.916 192.08C739.945 191.557 738.732 191.296 737.276 191.296H721.876V204.232ZM757.593 224V185.584H791.641V191.296H764.313V201.488H788.785V207.2H764.313V218.288H792.033V224H757.593ZM819.949 224.672C815.431 224.672 811.605 223.944 808.469 222.488C805.37 221.032 803.018 218.829 801.413 215.88C799.845 212.931 799.061 209.235 799.061 204.792C799.061 198.259 800.871 193.312 804.493 189.952C808.114 186.592 813.247 184.912 819.893 184.912C823.663 184.912 827.005 185.472 829.917 186.592C832.829 187.712 835.106 189.373 836.749 191.576C838.429 193.779 839.269 196.541 839.269 199.864H832.493C832.493 197.773 831.97 196.056 830.925 194.712C829.879 193.331 828.405 192.304 826.501 191.632C824.597 190.923 822.375 190.568 819.837 190.568C816.962 190.568 814.479 191.072 812.389 192.08C810.335 193.088 808.749 194.6 807.629 196.616C806.509 198.632 805.949 201.133 805.949 204.12V205.464C805.949 208.488 806.509 211.008 807.629 213.024C808.749 215.003 810.354 216.496 812.445 217.504C814.535 218.475 817.037 218.96 819.949 218.96C822.525 218.96 824.765 218.624 826.669 217.952C828.61 217.28 830.103 216.272 831.149 214.928C832.194 213.547 832.717 211.829 832.717 209.776H839.269C839.269 213.061 838.429 215.824 836.749 218.064C835.106 220.267 832.829 221.928 829.917 223.048C827.042 224.131 823.719 224.672 819.949 224.672ZM857.442 224V191.464H842.434V185.584H879.226V191.464H864.162V224H857.442ZM885.726 224V185.584H892.446V224H885.726ZM914.718 224L898.366 185.584H905.814L916.006 210.56C916.267 211.195 916.566 211.923 916.902 212.744C917.238 213.565 917.555 214.349 917.854 215.096C918.153 215.843 918.414 216.496 918.638 217.056H919.03C919.254 216.533 919.515 215.899 919.814 215.152C920.113 214.405 920.43 213.64 920.766 212.856C921.102 212.035 921.401 211.288 921.662 210.616L931.854 185.584H938.91L922.614 224H914.718ZM938.237 224L955.485 185.584H963.605L980.909 224H973.517L969.765 215.432H948.933L945.181 224H938.237ZM951.397 209.776H967.301L962.597 198.912C962.41 198.539 962.168 198.016 961.869 197.344C961.608 196.672 961.328 195.963 961.029 195.216C960.73 194.432 960.45 193.704 960.189 193.032C959.928 192.323 959.722 191.781 959.573 191.408H959.181C958.882 192.155 958.528 193.013 958.117 193.984C957.744 194.955 957.37 195.888 956.997 196.784C956.624 197.68 956.325 198.408 956.101 198.968L951.397 209.776ZM1003.3 224.672C1000.84 224.672 998.506 224.467 996.303 224.056C994.101 223.683 992.141 223.048 990.423 222.152C988.743 221.219 987.418 219.987 986.447 218.456C985.477 216.925 984.991 215.003 984.991 212.688C984.991 212.539 984.991 212.389 984.991 212.24C984.991 212.053 985.01 211.904 985.047 211.792H991.767C991.73 211.941 991.693 212.128 991.655 212.352C991.655 212.539 991.655 212.763 991.655 213.024C991.655 214.331 992.122 215.432 993.055 216.328C994.026 217.224 995.389 217.896 997.143 218.344C998.898 218.792 1000.93 219.016 1003.25 219.016C1004.4 219.016 1005.52 218.96 1006.61 218.848C1007.69 218.736 1008.7 218.549 1009.63 218.288C1010.6 218.027 1011.44 217.691 1012.15 217.28C1012.86 216.832 1013.42 216.309 1013.83 215.712C1014.24 215.115 1014.45 214.424 1014.45 213.64C1014.45 212.483 1014.06 211.549 1013.27 210.84C1012.49 210.093 1011.4 209.496 1010.02 209.048C1008.68 208.563 1007.17 208.152 1005.49 207.816C1003.81 207.443 1002.05 207.088 1000.22 206.752C998.431 206.379 996.695 205.931 995.015 205.408C993.335 204.848 991.805 204.157 990.423 203.336C989.079 202.515 988.015 201.469 987.231 200.2C986.447 198.931 986.055 197.363 986.055 195.496C986.055 193.853 986.429 192.379 987.175 191.072C987.922 189.728 989.023 188.608 990.479 187.712C991.973 186.779 993.783 186.088 995.911 185.64C998.077 185.155 1000.58 184.912 1003.42 184.912C1006.07 184.912 1008.42 185.155 1010.47 185.64C1012.56 186.125 1014.32 186.835 1015.74 187.768C1017.15 188.701 1018.22 189.84 1018.93 191.184C1019.67 192.528 1020.05 194.059 1020.05 195.776V196.616H1013.44V195.776C1013.44 194.731 1013.03 193.835 1012.21 193.088C1011.39 192.304 1010.23 191.688 1008.74 191.24C1007.28 190.792 1005.58 190.568 1003.64 190.568C1001.25 190.568 999.253 190.755 997.647 191.128C996.079 191.501 994.885 192.043 994.063 192.752C993.279 193.424 992.887 194.245 992.887 195.216C992.887 196.224 993.279 197.064 994.063 197.736C994.885 198.371 995.967 198.912 997.311 199.36C998.693 199.771 1000.22 200.144 1001.9 200.48C1003.58 200.816 1005.32 201.171 1007.11 201.544C1008.9 201.917 1010.64 202.384 1012.32 202.944C1014.04 203.467 1015.57 204.157 1016.91 205.016C1018.29 205.837 1019.38 206.883 1020.16 208.152C1020.94 209.421 1021.34 210.971 1021.34 212.8C1021.34 215.637 1020.57 217.933 1019.04 219.688C1017.51 221.443 1015.38 222.712 1012.66 223.496C1009.97 224.28 1006.85 224.672 1003.3 224.672ZM1044.37 224V185.584H1067.78C1070.4 185.584 1072.6 186.107 1074.39 187.152C1076.18 188.16 1077.55 189.579 1078.48 191.408C1079.45 193.2 1079.93 195.291 1079.93 197.68C1079.93 200.069 1079.43 202.197 1078.42 204.064C1077.45 205.931 1076.05 207.387 1074.22 208.432C1072.39 209.44 1070.19 209.944 1067.61 209.944H1051.09V224H1044.37ZM1051.09 204.232H1066.49C1068.59 204.232 1070.21 203.653 1071.37 202.496C1072.52 201.339 1073.1 199.752 1073.1 197.736C1073.1 196.392 1072.84 195.253 1072.32 194.32C1071.83 193.349 1071.11 192.603 1070.13 192.08C1069.16 191.557 1067.95 191.296 1066.49 191.296H1051.09V204.232ZM1079.28 224L1096.52 185.584H1104.64L1121.95 224H1114.56L1110.8 215.432H1089.97L1086.22 224H1079.28ZM1092.44 209.776H1108.34L1103.64 198.912C1103.45 198.539 1103.21 198.016 1102.91 197.344C1102.65 196.672 1102.37 195.963 1102.07 195.216C1101.77 194.432 1101.49 193.704 1101.23 193.032C1100.97 192.323 1100.76 191.781 1100.61 191.408H1100.22C1099.92 192.155 1099.57 193.013 1099.16 193.984C1098.78 194.955 1098.41 195.888 1098.04 196.784C1097.66 197.68 1097.36 198.408 1097.14 198.968L1092.44 209.776ZM1128.05 224V185.584H1152.97C1155.65 185.584 1157.88 186.088 1159.63 187.096C1161.39 188.104 1162.69 189.485 1163.55 191.24C1164.45 192.995 1164.89 194.992 1164.89 197.232C1164.89 199.696 1164.3 201.899 1163.1 203.84C1161.95 205.781 1160.23 207.237 1157.95 208.208L1166.07 224H1158.57L1151.29 209.384H1134.77V224H1128.05ZM1134.77 203.728H1151.79C1153.77 203.728 1155.3 203.149 1156.38 201.992C1157.5 200.797 1158.06 199.229 1158.06 197.288C1158.06 196.019 1157.82 194.936 1157.33 194.04C1156.85 193.144 1156.14 192.472 1155.21 192.024C1154.27 191.539 1153.13 191.296 1151.79 191.296H1134.77V203.728ZM1169.62 224L1186.87 185.584H1194.99L1212.29 224H1204.9L1201.15 215.432H1180.32L1176.56 224H1169.62ZM1182.78 209.776H1198.68L1193.98 198.912C1193.79 198.539 1193.55 198.016 1193.25 197.344C1192.99 196.672 1192.71 195.963 1192.41 195.216C1192.11 194.432 1191.83 193.704 1191.57 193.032C1191.31 192.323 1191.11 191.781 1190.96 191.408H1190.56C1190.27 192.155 1189.91 193.013 1189.5 193.984C1189.13 194.955 1188.75 195.888 1188.38 196.784C1188.01 197.68 1187.71 198.408 1187.48 198.968L1182.78 209.776ZM186.995 285.672C182.478 285.672 178.651 284.944 175.515 283.488C172.417 282.032 170.065 279.829 168.459 276.88C166.891 273.931 166.107 270.235 166.107 265.792C166.107 259.259 167.918 254.312 171.539 250.952C175.161 247.592 180.294 245.912 186.939 245.912C190.71 245.912 194.051 246.472 196.963 247.592C199.875 248.712 202.153 250.373 203.795 252.576C205.475 254.779 206.315 257.541 206.315 260.864H199.539C199.539 258.773 199.017 257.056 197.971 255.712C196.926 254.331 195.451 253.304 193.547 252.632C191.643 251.923 189.422 251.568 186.883 251.568C184.009 251.568 181.526 252.072 179.435 253.08C177.382 254.088 175.795 255.6 174.675 257.616C173.555 259.632 172.995 262.133 172.995 265.12V266.464C172.995 269.488 173.555 272.008 174.675 274.024C175.795 276.003 177.401 277.496 179.491 278.504C181.582 279.475 184.083 279.96 186.995 279.96C189.571 279.96 191.811 279.624 193.715 278.952C195.657 278.28 197.15 277.272 198.195 275.928C199.241 274.547 199.763 272.829 199.763 270.776H206.315C206.315 274.061 205.475 276.824 203.795 279.064C202.153 281.267 199.875 282.928 196.963 284.048C194.089 285.131 190.766 285.672 186.995 285.672ZM234.815 285.672C230.335 285.672 226.452 284.925 223.167 283.432C219.881 281.939 217.361 279.717 215.607 276.768C213.852 273.819 212.975 270.16 212.975 265.792C212.975 261.387 213.852 257.728 215.607 254.816C217.361 251.867 219.881 249.645 223.167 248.152C226.452 246.659 230.335 245.912 234.815 245.912C239.369 245.912 243.271 246.659 246.519 248.152C249.804 249.645 252.324 251.867 254.079 254.816C255.871 257.728 256.767 261.387 256.767 265.792C256.767 270.16 255.871 273.819 254.079 276.768C252.324 279.717 249.804 281.939 246.519 283.432C243.271 284.925 239.369 285.672 234.815 285.672ZM234.871 279.96C237.111 279.96 239.145 279.699 240.975 279.176C242.804 278.616 244.372 277.776 245.679 276.656C246.985 275.536 247.993 274.117 248.703 272.4C249.449 270.683 249.823 268.685 249.823 266.408V265.176C249.823 262.861 249.449 260.845 248.703 259.128C247.993 257.411 246.985 256.011 245.679 254.928C244.372 253.808 242.804 252.968 240.975 252.408C239.145 251.848 237.111 251.568 234.871 251.568C232.631 251.568 230.596 251.848 228.767 252.408C226.937 252.968 225.351 253.808 224.007 254.928C222.7 256.011 221.692 257.411 220.983 259.128C220.273 260.845 219.919 262.861 219.919 265.176V266.408C219.919 268.685 220.273 270.683 220.983 272.4C221.692 274.117 222.7 275.536 224.007 276.656C225.351 277.776 226.937 278.616 228.767 279.176C230.596 279.699 232.631 279.96 234.871 279.96ZM265.297 285V246.584H275.713L284.617 269.208C284.878 269.843 285.158 270.627 285.457 271.56C285.793 272.456 286.11 273.371 286.409 274.304C286.745 275.237 287.025 276.059 287.249 276.768H287.641C287.865 276.133 288.107 275.368 288.369 274.472C288.667 273.576 288.966 272.661 289.265 271.728C289.601 270.795 289.899 269.973 290.161 269.264L299.065 246.584H309.369V285H302.649V262.376C302.649 261.331 302.649 260.229 302.649 259.072C302.686 257.877 302.723 256.795 302.761 255.824C302.798 254.816 302.817 254.069 302.817 253.584H302.425C302.275 254.069 302.051 254.741 301.753 255.6C301.454 256.459 301.155 257.355 300.857 258.288C300.558 259.221 300.278 260.043 300.017 260.752L290.385 285H284.057L274.425 260.808C274.126 260.061 273.827 259.259 273.529 258.4C273.23 257.541 272.95 256.683 272.689 255.824C272.465 254.965 272.241 254.219 272.017 253.584H271.625C271.625 254.293 271.643 255.171 271.681 256.216C271.718 257.261 271.737 258.325 271.737 259.408C271.774 260.491 271.793 261.48 271.793 262.376V285H265.297ZM319.656 285V246.584H343.064C345.677 246.584 347.88 247.107 349.672 248.152C351.464 249.16 352.827 250.579 353.76 252.408C354.731 254.2 355.216 256.291 355.216 258.68C355.216 261.069 354.712 263.197 353.704 265.064C352.733 266.931 351.333 268.387 349.504 269.432C347.675 270.44 345.472 270.944 342.896 270.944H326.376V285H319.656ZM326.376 265.232H341.776C343.867 265.232 345.491 264.653 346.648 263.496C347.805 262.339 348.384 260.752 348.384 258.736C348.384 257.392 348.123 256.253 347.6 255.32C347.115 254.349 346.387 253.603 345.416 253.08C344.445 252.557 343.232 252.296 341.776 252.296H326.376V265.232ZM362.093 285V246.584H387.013C389.701 246.584 391.923 247.088 393.677 248.096C395.432 249.104 396.739 250.485 397.597 252.24C398.493 253.995 398.941 255.992 398.941 258.232C398.941 260.696 398.344 262.899 397.149 264.84C395.992 266.781 394.275 268.237 391.997 269.208L400.117 285H392.613L385.333 270.384H368.813V285H362.093ZM368.813 264.728H385.837C387.816 264.728 389.347 264.149 390.429 262.992C391.549 261.797 392.109 260.229 392.109 258.288C392.109 257.019 391.867 255.936 391.381 255.04C390.896 254.144 390.187 253.472 389.253 253.024C388.32 252.539 387.181 252.296 385.837 252.296H368.813V264.728ZM407.867 285V246.584H441.915V252.296H414.587V262.488H439.059V268.2H414.587V279.288H442.307V285H407.867ZM451.07 285V246.584H457.51L477.67 269.824C477.969 270.123 478.342 270.552 478.79 271.112C479.238 271.635 479.686 272.176 480.134 272.736C480.619 273.259 480.993 273.725 481.254 274.136H481.646C481.609 273.464 481.571 272.717 481.534 271.896C481.534 271.075 481.534 270.328 481.534 269.656V246.584H488.03V285H481.814L461.542 261.48C460.945 260.808 460.273 260.024 459.526 259.128C458.817 258.232 458.257 257.541 457.846 257.056H457.51C457.51 257.579 457.51 258.288 457.51 259.184C457.547 260.043 457.566 260.957 457.566 261.928V285H451.07ZM498.32 285V246.584H515.736C520.067 246.584 523.763 247.293 526.824 248.712C529.923 250.093 532.293 252.203 533.936 255.04C535.579 257.877 536.4 261.461 536.4 265.792C536.4 270.085 535.579 273.651 533.936 276.488C532.293 279.325 529.923 281.453 526.824 282.872C523.763 284.291 520.067 285 515.736 285H498.32ZM505.04 279.288H515.568C517.621 279.288 519.507 279.027 521.224 278.504C522.941 277.981 524.397 277.197 525.592 276.152C526.824 275.107 527.776 273.781 528.448 272.176C529.12 270.533 529.456 268.611 529.456 266.408V265.176C529.456 262.973 529.12 261.069 528.448 259.464C527.776 257.821 526.824 256.477 525.592 255.432C524.397 254.349 522.941 253.565 521.224 253.08C519.544 252.557 517.659 252.296 515.568 252.296H505.04V279.288ZM544.968 285V246.584H579.016V252.296H551.688V262.488H576.16V268.2H551.688V279.288H579.408V285H544.968ZM588.172 285V246.584H613.092C615.78 246.584 618.001 247.088 619.756 248.096C621.51 249.104 622.817 250.485 623.676 252.24C624.572 253.995 625.02 255.992 625.02 258.232C625.02 260.696 624.422 262.899 623.228 264.84C622.07 266.781 620.353 268.237 618.076 269.208L626.196 285H618.692L611.412 270.384H594.892V285H588.172ZM594.892 264.728H611.916C613.894 264.728 615.425 264.149 616.508 262.992C617.628 261.797 618.188 260.229 618.188 258.288C618.188 257.019 617.945 255.936 617.46 255.04C616.974 254.144 616.265 253.472 615.332 253.024C614.398 252.539 613.26 252.296 611.916 252.296H594.892V264.728ZM644.62 285L661.868 246.584H669.988L687.292 285H679.9L676.148 276.432H655.316L651.564 285H644.62ZM657.78 270.776H673.684L668.98 259.912C668.793 259.539 668.551 259.016 668.252 258.344C667.991 257.672 667.711 256.963 667.412 256.216C667.113 255.432 666.833 254.704 666.572 254.032C666.311 253.323 666.105 252.781 665.956 252.408H665.564C665.265 253.155 664.911 254.013 664.5 254.984C664.127 255.955 663.753 256.888 663.38 257.784C663.007 258.68 662.708 259.408 662.484 259.968L657.78 270.776ZM721.595 292.28L714.539 285.56C714.128 285.597 713.699 285.616 713.251 285.616C712.84 285.653 712.43 285.672 712.019 285.672C707.464 285.672 703.544 284.925 700.259 283.432C697.011 281.939 694.51 279.717 692.755 276.768C691 273.819 690.123 270.16 690.123 265.792C690.123 261.387 691 257.728 692.755 254.816C694.51 251.867 697.011 249.645 700.259 248.152C703.544 246.659 707.464 245.912 712.019 245.912C716.536 245.912 720.419 246.659 723.667 248.152C726.952 249.645 729.472 251.867 731.227 254.816C733.019 257.728 733.915 261.387 733.915 265.792C733.915 270.571 732.851 274.509 730.723 277.608C728.595 280.669 725.608 282.872 721.763 284.216L730.555 292.28H721.595ZM712.019 279.96C714.259 279.96 716.294 279.699 718.123 279.176C719.952 278.616 721.52 277.776 722.827 276.656C724.134 275.536 725.142 274.117 725.851 272.4C726.598 270.683 726.971 268.685 726.971 266.408V265.176C726.971 262.861 726.598 260.845 725.851 259.128C725.142 257.411 724.134 256.011 722.827 254.928C721.52 253.808 719.952 252.968 718.123 252.408C716.294 251.848 714.259 251.568 712.019 251.568C709.779 251.568 707.744 251.848 705.915 252.408C704.086 252.968 702.499 253.808 701.155 254.928C699.848 256.011 698.84 257.411 698.131 259.128C697.422 260.845 697.067 262.861 697.067 265.176V266.408C697.067 268.685 697.422 270.683 698.131 272.4C698.84 274.117 699.848 275.536 701.155 276.656C702.499 277.776 704.086 278.616 705.915 279.176C707.744 279.699 709.779 279.96 712.019 279.96ZM760.533 285.672C756.501 285.672 753.122 285.037 750.397 283.768C747.672 282.499 745.618 280.632 744.237 278.168C742.856 275.704 742.165 272.699 742.165 269.152V246.584H748.885V269.152C748.885 272.661 749.893 275.349 751.909 277.216C753.925 279.045 756.8 279.96 760.533 279.96C764.229 279.96 767.104 279.045 769.157 277.216C771.21 275.349 772.237 272.661 772.237 269.152V246.584H778.957V269.152C778.957 272.699 778.248 275.704 776.829 278.168C775.448 280.632 773.394 282.499 770.669 283.768C767.944 285.037 764.565 285.672 760.533 285.672ZM788.984 285V246.584H823.032V252.296H795.704V262.488H820.176V268.2H795.704V279.288H823.424V285H788.984ZM832.187 285V246.584H838.907V279.064H860.635V285H832.187ZM867.187 285V246.584H873.907V279.064H895.635V285H867.187ZM920.049 285.672C915.569 285.672 911.686 284.925 908.401 283.432C905.116 281.939 902.596 279.717 900.841 276.768C899.086 273.819 898.209 270.16 898.209 265.792C898.209 261.387 899.086 257.728 900.841 254.816C902.596 251.867 905.116 249.645 908.401 248.152C911.686 246.659 915.569 245.912 920.049 245.912C924.604 245.912 928.505 246.659 931.753 248.152C935.038 249.645 937.558 251.867 939.313 254.816C941.105 257.728 942.001 261.387 942.001 265.792C942.001 270.16 941.105 273.819 939.313 276.768C937.558 279.717 935.038 281.939 931.753 283.432C928.505 284.925 924.604 285.672 920.049 285.672ZM920.105 279.96C922.345 279.96 924.38 279.699 926.209 279.176C928.038 278.616 929.606 277.776 930.913 276.656C932.22 275.536 933.228 274.117 933.937 272.4C934.684 270.683 935.057 268.685 935.057 266.408V265.176C935.057 262.861 934.684 260.845 933.937 259.128C933.228 257.411 932.22 256.011 930.913 254.928C929.606 253.808 928.038 252.968 926.209 252.408C924.38 251.848 922.345 251.568 920.105 251.568C917.865 251.568 915.83 251.848 914.001 252.408C912.172 252.968 910.585 253.808 909.241 254.928C907.934 256.011 906.926 257.411 906.217 259.128C905.508 260.845 905.153 262.861 905.153 265.176V266.408C905.153 268.685 905.508 270.683 906.217 272.4C906.926 274.117 907.934 275.536 909.241 276.656C910.585 277.776 912.172 278.616 914.001 279.176C915.83 279.699 917.865 279.96 920.105 279.96ZM995.142 292.28L988.086 285.56C987.675 285.597 987.246 285.616 986.798 285.616C986.387 285.653 985.977 285.672 985.566 285.672C981.011 285.672 977.091 284.925 973.806 283.432C970.558 281.939 968.057 279.717 966.302 276.768C964.547 273.819 963.67 270.16 963.67 265.792C963.67 261.387 964.547 257.728 966.302 254.816C968.057 251.867 970.558 249.645 973.806 248.152C977.091 246.659 981.011 245.912 985.566 245.912C990.083 245.912 993.966 246.659 997.214 248.152C1000.5 249.645 1003.02 251.867 1004.77 254.816C1006.57 257.728 1007.46 261.387 1007.46 265.792C1007.46 270.571 1006.4 274.509 1004.27 277.608C1002.14 280.669 999.155 282.872 995.31 284.216L1004.1 292.28H995.142ZM985.566 279.96C987.806 279.96 989.841 279.699 991.67 279.176C993.499 278.616 995.067 277.776 996.374 276.656C997.681 275.536 998.689 274.117 999.398 272.4C1000.14 270.683 1000.52 268.685 1000.52 266.408V265.176C1000.52 262.861 1000.14 260.845 999.398 259.128C998.689 257.411 997.681 256.011 996.374 254.928C995.067 253.808 993.499 252.968 991.67 252.408C989.841 251.848 987.806 251.568 985.566 251.568C983.326 251.568 981.291 251.848 979.462 252.408C977.633 252.968 976.046 253.808 974.702 254.928C973.395 256.011 972.387 257.411 971.678 259.128C970.969 260.845 970.614 262.861 970.614 265.176V266.408C970.614 268.685 970.969 270.683 971.678 272.4C972.387 274.117 973.395 275.536 974.702 276.656C976.046 277.776 977.633 278.616 979.462 279.176C981.291 279.699 983.326 279.96 985.566 279.96ZM1034.08 285.672C1030.05 285.672 1026.67 285.037 1023.94 283.768C1021.22 282.499 1019.17 280.632 1017.78 278.168C1016.4 275.704 1015.71 272.699 1015.71 269.152V246.584H1022.43V269.152C1022.43 272.661 1023.44 275.349 1025.46 277.216C1027.47 279.045 1030.35 279.96 1034.08 279.96C1037.78 279.96 1040.65 279.045 1042.7 277.216C1044.76 275.349 1045.78 272.661 1045.78 269.152V246.584H1052.5V269.152C1052.5 272.699 1051.79 275.704 1050.38 278.168C1048.99 280.632 1046.94 282.499 1044.22 283.768C1041.49 285.037 1038.11 285.672 1034.08 285.672ZM1062.53 285V246.584H1096.58V252.296H1069.25V262.488H1093.72V268.2H1069.25V279.288H1096.97V285H1062.53ZM1120.61 285V246.584H1127.33V262.432H1150.85V246.584H1157.57V285H1150.85V268.312H1127.33V285H1120.61ZM1187.96 285.672C1183.48 285.672 1179.6 284.925 1176.32 283.432C1173.03 281.939 1170.51 279.717 1168.76 276.768C1167 273.819 1166.12 270.16 1166.12 265.792C1166.12 261.387 1167 257.728 1168.76 254.816C1170.51 251.867 1173.03 249.645 1176.32 248.152C1179.6 246.659 1183.48 245.912 1187.96 245.912C1192.52 245.912 1196.42 246.659 1199.67 248.152C1202.95 249.645 1205.47 251.867 1207.23 254.816C1209.02 257.728 1209.92 261.387 1209.92 265.792C1209.92 270.16 1209.02 273.819 1207.23 276.768C1205.47 279.717 1202.95 281.939 1199.67 283.432C1196.42 284.925 1192.52 285.672 1187.96 285.672ZM1188.02 279.96C1190.26 279.96 1192.29 279.699 1194.12 279.176C1195.95 278.616 1197.52 277.776 1198.83 276.656C1200.13 275.536 1201.14 274.117 1201.85 272.4C1202.6 270.683 1202.97 268.685 1202.97 266.408V265.176C1202.97 262.861 1202.6 260.845 1201.85 259.128C1201.14 257.411 1200.13 256.011 1198.83 254.928C1197.52 253.808 1195.95 252.968 1194.12 252.408C1192.29 251.848 1190.26 251.568 1188.02 251.568C1185.78 251.568 1183.74 251.848 1181.92 252.408C1180.09 252.968 1178.5 253.808 1177.16 254.928C1175.85 256.011 1174.84 257.411 1174.13 259.128C1173.42 260.845 1173.07 262.861 1173.07 265.176V266.408C1173.07 268.685 1173.42 270.683 1174.13 272.4C1174.84 274.117 1175.85 275.536 1177.16 276.656C1178.5 277.776 1180.09 278.616 1181.92 279.176C1183.74 279.699 1185.78 279.96 1188.02 279.96ZM1229.79 285V269.264L1212.87 246.584H1220.83L1233.15 263.496H1233.59L1245.97 246.584H1253.53L1236.56 269.264V285H1229.79ZM339.059 346V313.464H324.051V307.584H360.843V313.464H345.779V346H339.059ZM367.343 346V307.584H401.391V313.296H374.063V323.488H398.535V329.2H374.063V340.288H401.783V346H367.343ZM444.91 346.672C438.003 346.672 432.758 345.048 429.174 341.8C425.627 338.552 423.854 333.549 423.854 326.792C423.854 322.387 424.712 318.709 426.43 315.76C428.184 312.811 430.704 310.608 433.99 309.152C437.312 307.659 441.307 306.912 445.974 306.912C448.96 306.912 451.686 307.192 454.15 307.752C456.614 308.312 458.742 309.171 460.534 310.328C462.326 311.485 463.707 312.941 464.678 314.696C465.648 316.413 466.134 318.467 466.134 320.856H459.414C459.414 319.325 459.059 318.037 458.35 316.992C457.64 315.947 456.67 315.107 455.438 314.472C454.206 313.8 452.787 313.315 451.182 313.016C449.614 312.717 447.952 312.568 446.198 312.568C443.883 312.568 441.774 312.829 439.87 313.352C438.003 313.875 436.379 314.696 434.998 315.816C433.654 316.899 432.608 318.299 431.862 320.016C431.115 321.733 430.742 323.768 430.742 326.12V327.408C430.742 330.619 431.32 333.232 432.478 335.248C433.672 337.227 435.352 338.683 437.518 339.616C439.72 340.512 442.315 340.96 445.302 340.96C448.55 340.96 451.219 340.587 453.31 339.84C455.4 339.093 456.95 338.011 457.958 336.592C459.003 335.136 459.526 333.381 459.526 331.328V330.768H444.798V325.28H466.19V346H461.598L460.87 341.016C459.675 342.36 458.256 343.443 456.614 344.264C454.971 345.085 453.16 345.683 451.182 346.056C449.24 346.467 447.15 346.672 444.91 346.672ZM476.062 346V307.584H510.11V313.296H482.782V323.488H507.254V329.2H482.782V340.288H510.502V346H476.062ZM519.265 346V307.584H525.705L545.865 330.824C546.164 331.123 546.537 331.552 546.985 332.112C547.433 332.635 547.881 333.176 548.329 333.736C548.815 334.259 549.188 334.725 549.449 335.136H549.841C549.804 334.464 549.767 333.717 549.729 332.896C549.729 332.075 549.729 331.328 549.729 330.656V307.584H556.225V346H550.009L529.737 322.48C529.14 321.808 528.468 321.024 527.721 320.128C527.012 319.232 526.452 318.541 526.041 318.056H525.705C525.705 318.579 525.705 319.288 525.705 320.184C525.743 321.043 525.761 321.957 525.761 322.928V346H519.265ZM566.515 346V307.584H600.563V313.296H573.235V323.488H597.707V329.2H573.235V340.288H600.955V346H566.515ZM609.718 346V307.584H634.638C637.326 307.584 639.548 308.088 641.302 309.096C643.057 310.104 644.364 311.485 645.222 313.24C646.118 314.995 646.566 316.992 646.566 319.232C646.566 321.696 645.969 323.899 644.774 325.84C643.617 327.781 641.9 329.237 639.622 330.208L647.742 346H640.238L632.958 331.384H616.438V346H609.718ZM616.438 325.728H633.462C635.441 325.728 636.972 325.149 638.054 323.992C639.174 322.797 639.734 321.229 639.734 319.288C639.734 318.019 639.492 316.936 639.006 316.04C638.521 315.144 637.812 314.472 636.878 314.024C635.945 313.539 634.806 313.296 633.462 313.296H616.438V325.728ZM651.292 346L668.54 307.584H676.66L693.964 346H686.572L682.82 337.432H661.988L658.236 346H651.292ZM664.452 331.776H680.356L675.652 320.912C675.465 320.539 675.223 320.016 674.924 319.344C674.663 318.672 674.383 317.963 674.084 317.216C673.785 316.432 673.505 315.704 673.244 315.032C672.983 314.323 672.777 313.781 672.628 313.408H672.236C671.937 314.155 671.583 315.013 671.172 315.984C670.799 316.955 670.425 317.888 670.052 318.784C669.679 319.68 669.38 320.408 669.156 320.968L664.452 331.776ZM734.089 346.672C729.572 346.672 725.745 345.944 722.609 344.488C719.51 343.032 717.158 340.829 715.553 337.88C713.985 334.931 713.201 331.235 713.201 326.792C713.201 320.259 715.012 315.312 718.633 311.952C722.254 308.592 727.388 306.912 734.033 306.912C737.804 306.912 741.145 307.472 744.057 308.592C746.969 309.712 749.246 311.373 750.889 313.576C752.569 315.779 753.409 318.541 753.409 321.864H746.633C746.633 319.773 746.11 318.056 745.065 316.712C744.02 315.331 742.545 314.304 740.641 313.632C738.737 312.923 736.516 312.568 733.977 312.568C731.102 312.568 728.62 313.072 726.529 314.08C724.476 315.088 722.889 316.6 721.769 318.616C720.649 320.632 720.089 323.133 720.089 326.12V327.464C720.089 330.488 720.649 333.008 721.769 335.024C722.889 337.003 724.494 338.496 726.585 339.504C728.676 340.475 731.177 340.96 734.089 340.96C736.665 340.96 738.905 340.624 740.809 339.952C742.75 339.28 744.244 338.272 745.289 336.928C746.334 335.547 746.857 333.829 746.857 331.776H753.409C753.409 335.061 752.569 337.824 750.889 340.064C749.246 342.267 746.969 343.928 744.057 345.048C741.182 346.131 737.86 346.672 734.089 346.672ZM781.908 346.672C777.428 346.672 773.546 345.925 770.26 344.432C766.975 342.939 764.455 340.717 762.7 337.768C760.946 334.819 760.068 331.16 760.068 326.792C760.068 322.387 760.946 318.728 762.7 315.816C764.455 312.867 766.975 310.645 770.26 309.152C773.546 307.659 777.428 306.912 781.908 306.912C786.463 306.912 790.364 307.659 793.612 309.152C796.898 310.645 799.418 312.867 801.172 315.816C802.964 318.728 803.86 322.387 803.86 326.792C803.86 331.16 802.964 334.819 801.172 337.768C799.418 340.717 796.898 342.939 793.612 344.432C790.364 345.925 786.463 346.672 781.908 346.672ZM781.964 340.96C784.204 340.96 786.239 340.699 788.068 340.176C789.898 339.616 791.466 338.776 792.772 337.656C794.079 336.536 795.087 335.117 795.796 333.4C796.543 331.683 796.916 329.685 796.916 327.408V326.176C796.916 323.861 796.543 321.845 795.796 320.128C795.087 318.411 794.079 317.011 792.772 315.928C791.466 314.808 789.898 313.968 788.068 313.408C786.239 312.848 784.204 312.568 781.964 312.568C779.724 312.568 777.69 312.848 775.86 313.408C774.031 313.968 772.444 314.808 771.1 315.928C769.794 317.011 768.786 318.411 768.076 320.128C767.367 321.845 767.012 323.861 767.012 326.176V327.408C767.012 329.685 767.367 331.683 768.076 333.4C768.786 335.117 769.794 336.536 771.1 337.656C772.444 338.776 774.031 339.616 775.86 340.176C777.69 340.699 779.724 340.96 781.964 340.96ZM812.39 346V307.584H818.83L838.99 330.824C839.289 331.123 839.662 331.552 840.11 332.112C840.558 332.635 841.006 333.176 841.454 333.736C841.94 334.259 842.313 334.725 842.574 335.136H842.966C842.929 334.464 842.892 333.717 842.854 332.896C842.854 332.075 842.854 331.328 842.854 330.656V307.584H849.35V346H843.134L822.862 322.48C822.265 321.808 821.593 321.024 820.846 320.128C820.137 319.232 819.577 318.541 819.166 318.056H818.83C818.83 318.579 818.83 319.288 818.83 320.184C818.868 321.043 818.886 321.957 818.886 322.928V346H812.39ZM859.64 346V307.584H891.392V313.296H866.36V324.216H889.096V329.928H866.36V346H859.64ZM898.742 346V307.584H905.462V340.064H927.19V346H898.742ZM933.742 346V307.584H940.462V346H933.742ZM969.902 346.672C965.384 346.672 961.558 345.944 958.422 344.488C955.323 343.032 952.971 340.829 951.366 337.88C949.798 334.931 949.014 331.235 949.014 326.792C949.014 320.259 950.824 315.312 954.446 311.952C958.067 308.592 963.2 306.912 969.846 306.912C973.616 306.912 976.958 307.472 979.87 308.592C982.782 309.712 985.059 311.373 986.702 313.576C988.382 315.779 989.222 318.541 989.222 321.864H982.446C982.446 319.773 981.923 318.056 980.878 316.712C979.832 315.331 978.358 314.304 976.454 313.632C974.55 312.923 972.328 312.568 969.79 312.568C966.915 312.568 964.432 313.072 962.342 314.08C960.288 315.088 958.702 316.6 957.582 318.616C956.462 320.632 955.902 323.133 955.902 326.12V327.464C955.902 330.488 956.462 333.008 957.582 335.024C958.702 337.003 960.307 338.496 962.398 339.504C964.488 340.475 966.99 340.96 969.902 340.96C972.478 340.96 974.718 340.624 976.622 339.952C978.563 339.28 980.056 338.272 981.102 336.928C982.147 335.547 982.67 333.829 982.67 331.776H989.222C989.222 335.061 988.382 337.824 986.702 340.064C985.059 342.267 982.782 343.928 979.87 345.048C976.995 346.131 973.672 346.672 969.902 346.672ZM1007.39 346V313.464H992.387V307.584H1029.18V313.464H1014.11V346H1007.39ZM1054.42 346.672C1049.94 346.672 1046.05 345.925 1042.77 344.432C1039.48 342.939 1036.96 340.717 1035.21 337.768C1033.45 334.819 1032.58 331.16 1032.58 326.792C1032.58 322.387 1033.45 318.728 1035.21 315.816C1036.96 312.867 1039.48 310.645 1042.77 309.152C1046.05 307.659 1049.94 306.912 1054.42 306.912C1058.97 306.912 1062.87 307.659 1066.12 309.152C1069.41 310.645 1071.93 312.867 1073.68 315.816C1075.47 318.728 1076.37 322.387 1076.37 326.792C1076.37 331.16 1075.47 334.819 1073.68 337.768C1071.93 340.717 1069.41 342.939 1066.12 344.432C1062.87 345.925 1058.97 346.672 1054.42 346.672ZM1054.47 340.96C1056.71 340.96 1058.75 340.699 1060.58 340.176C1062.41 339.616 1063.97 338.776 1065.28 337.656C1066.59 336.536 1067.59 335.117 1068.3 333.4C1069.05 331.683 1069.42 329.685 1069.42 327.408V326.176C1069.42 323.861 1069.05 321.845 1068.3 320.128C1067.59 318.411 1066.59 317.011 1065.28 315.928C1063.97 314.808 1062.41 313.968 1060.58 313.408C1058.75 312.848 1056.71 312.568 1054.47 312.568C1052.23 312.568 1050.2 312.848 1048.37 313.408C1046.54 313.968 1044.95 314.808 1043.61 315.928C1042.3 317.011 1041.29 318.411 1040.58 320.128C1039.87 321.845 1039.52 323.861 1039.52 326.176V327.408C1039.52 329.685 1039.87 331.683 1040.58 333.4C1041.29 335.117 1042.3 336.536 1043.61 337.656C1044.95 338.776 1046.54 339.616 1048.37 340.176C1050.2 340.699 1052.23 340.96 1054.47 340.96ZM1082.53 346V338.888H1089.65V346H1082.53ZM175.402 407.672C170.884 407.672 167.058 406.944 163.922 405.488C160.823 404.032 158.471 401.829 156.866 398.88C155.298 395.931 154.514 392.235 154.514 387.792C154.514 381.259 156.324 376.312 159.946 372.952C163.567 369.592 168.7 367.912 175.346 367.912C179.116 367.912 182.458 368.472 185.37 369.592C188.282 370.712 190.559 372.373 192.202 374.576C193.882 376.779 194.722 379.541 194.722 382.864H187.946C187.946 380.773 187.423 379.056 186.378 377.712C185.332 376.331 183.858 375.304 181.954 374.632C180.05 373.923 177.828 373.568 175.29 373.568C172.415 373.568 169.932 374.072 167.842 375.08C165.788 376.088 164.202 377.6 163.082 379.616C161.962 381.632 161.402 384.133 161.402 387.12V388.464C161.402 391.488 161.962 394.008 163.082 396.024C164.202 398.003 165.807 399.496 167.898 400.504C169.988 401.475 172.49 401.96 175.402 401.96C177.978 401.96 180.218 401.624 182.122 400.952C184.063 400.28 185.556 399.272 186.602 397.928C187.647 396.547 188.17 394.829 188.17 392.776H194.722C194.722 396.061 193.882 398.824 192.202 401.064C190.559 403.267 188.282 404.928 185.37 406.048C182.495 407.131 179.172 407.672 175.402 407.672ZM223.221 407.672C218.741 407.672 214.858 406.925 211.573 405.432C208.288 403.939 205.768 401.717 204.013 398.768C202.258 395.819 201.381 392.16 201.381 387.792C201.381 383.387 202.258 379.728 204.013 376.816C205.768 373.867 208.288 371.645 211.573 370.152C214.858 368.659 218.741 367.912 223.221 367.912C227.776 367.912 231.677 368.659 234.925 370.152C238.21 371.645 240.73 373.867 242.485 376.816C244.277 379.728 245.173 383.387 245.173 387.792C245.173 392.16 244.277 395.819 242.485 398.768C240.73 401.717 238.21 403.939 234.925 405.432C231.677 406.925 227.776 407.672 223.221 407.672ZM223.277 401.96C225.517 401.96 227.552 401.699 229.381 401.176C231.21 400.616 232.778 399.776 234.085 398.656C235.392 397.536 236.4 396.117 237.109 394.4C237.856 392.683 238.229 390.685 238.229 388.408V387.176C238.229 384.861 237.856 382.845 237.109 381.128C236.4 379.411 235.392 378.011 234.085 376.928C232.778 375.808 231.21 374.968 229.381 374.408C227.552 373.848 225.517 373.568 223.277 373.568C221.037 373.568 219.002 373.848 217.173 374.408C215.344 374.968 213.757 375.808 212.413 376.928C211.106 378.011 210.098 379.411 209.389 381.128C208.68 382.845 208.325 384.861 208.325 387.176V388.408C208.325 390.685 208.68 392.683 209.389 394.4C210.098 396.117 211.106 397.536 212.413 398.656C213.757 399.776 215.344 400.616 217.173 401.176C219.002 401.699 221.037 401.96 223.277 401.96ZM253.703 407V368.584H264.119L273.023 391.208C273.284 391.843 273.564 392.627 273.863 393.56C274.199 394.456 274.516 395.371 274.815 396.304C275.151 397.237 275.431 398.059 275.655 398.768H276.047C276.271 398.133 276.513 397.368 276.775 396.472C277.073 395.576 277.372 394.661 277.671 393.728C278.007 392.795 278.305 391.973 278.567 391.264L287.471 368.584H297.775V407H291.055V384.376C291.055 383.331 291.055 382.229 291.055 381.072C291.092 379.877 291.129 378.795 291.167 377.824C291.204 376.816 291.223 376.069 291.223 375.584H290.831C290.681 376.069 290.457 376.741 290.159 377.6C289.86 378.459 289.561 379.355 289.263 380.288C288.964 381.221 288.684 382.043 288.423 382.752L278.791 407H272.463L262.831 382.808C262.532 382.061 262.233 381.259 261.935 380.4C261.636 379.541 261.356 378.683 261.095 377.824C260.871 376.965 260.647 376.219 260.423 375.584H260.031C260.031 376.293 260.049 377.171 260.087 378.216C260.124 379.261 260.143 380.325 260.143 381.408C260.18 382.491 260.199 383.48 260.199 384.376V407H253.703ZM308.062 407V368.584H331.47C334.083 368.584 336.286 369.107 338.078 370.152C339.87 371.16 341.233 372.579 342.166 374.408C343.137 376.2 343.622 378.291 343.622 380.68C343.622 383.069 343.118 385.197 342.11 387.064C341.139 388.931 339.739 390.387 337.91 391.432C336.081 392.44 333.878 392.944 331.302 392.944H314.782V407H308.062ZM314.782 387.232H330.182C332.273 387.232 333.897 386.653 335.054 385.496C336.211 384.339 336.79 382.752 336.79 380.736C336.79 379.392 336.529 378.253 336.006 377.32C335.521 376.349 334.793 375.603 333.822 375.08C332.851 374.557 331.638 374.296 330.182 374.296H314.782V387.232ZM350.5 407V368.584H375.42C378.108 368.584 380.329 369.088 382.084 370.096C383.838 371.104 385.145 372.485 386.004 374.24C386.9 375.995 387.348 377.992 387.348 380.232C387.348 382.696 386.75 384.899 385.556 386.84C384.398 388.781 382.681 390.237 380.404 391.208L388.524 407H381.02L373.74 392.384H357.22V407H350.5ZM357.22 386.728H374.244C376.222 386.728 377.753 386.149 378.836 384.992C379.956 383.797 380.516 382.229 380.516 380.288C380.516 379.019 380.273 377.936 379.788 377.04C379.302 376.144 378.593 375.472 377.66 375.024C376.726 374.539 375.588 374.296 374.244 374.296H357.22V386.728ZM396.273 407V368.584H430.321V374.296H402.993V384.488H427.465V390.2H402.993V401.288H430.713V407H396.273ZM439.476 407V368.584H445.916L466.076 391.824C466.375 392.123 466.748 392.552 467.196 393.112C467.644 393.635 468.092 394.176 468.54 394.736C469.026 395.259 469.399 395.725 469.66 396.136H470.052C470.015 395.464 469.978 394.717 469.94 393.896C469.94 393.075 469.94 392.328 469.94 391.656V368.584H476.436V407H470.22L449.948 383.48C449.351 382.808 448.679 382.024 447.932 381.128C447.223 380.232 446.663 379.541 446.252 379.056H445.916C445.916 379.579 445.916 380.288 445.916 381.184C445.954 382.043 445.972 382.957 445.972 383.928V407H439.476ZM486.726 407V368.584H504.142C508.473 368.584 512.169 369.293 515.23 370.712C518.329 372.093 520.7 374.203 522.342 377.04C523.985 379.877 524.806 383.461 524.806 387.792C524.806 392.085 523.985 395.651 522.342 398.488C520.7 401.325 518.329 403.453 515.23 404.872C512.169 406.291 508.473 407 504.142 407H486.726ZM493.446 401.288H503.974C506.028 401.288 507.913 401.027 509.63 400.504C511.348 399.981 512.804 399.197 513.998 398.152C515.23 397.107 516.182 395.781 516.854 394.176C517.526 392.533 517.862 390.611 517.862 388.408V387.176C517.862 384.973 517.526 383.069 516.854 381.464C516.182 379.821 515.23 378.477 513.998 377.432C512.804 376.349 511.348 375.565 509.63 375.08C507.95 374.557 506.065 374.296 503.974 374.296H493.446V401.288ZM533.375 407V368.584H567.423V374.296H540.095V384.488H564.567V390.2H540.095V401.288H567.815V407H533.375ZM576.578 407V368.584H601.498C604.186 368.584 606.407 369.088 608.162 370.096C609.916 371.104 611.223 372.485 612.082 374.24C612.978 375.995 613.426 377.992 613.426 380.232C613.426 382.696 612.828 384.899 611.634 386.84C610.476 388.781 608.759 390.237 606.482 391.208L614.602 407H607.098L599.818 392.384H583.298V407H576.578ZM583.298 386.728H600.322C602.3 386.728 603.831 386.149 604.914 384.992C606.034 383.797 606.594 382.229 606.594 380.288C606.594 379.019 606.351 377.936 605.866 377.04C605.38 376.144 604.671 375.472 603.738 375.024C602.804 374.539 601.666 374.296 600.322 374.296H583.298V386.728ZM637.226 407V368.584H671.274V374.296H643.946V384.488H668.418V390.2H643.946V401.288H671.666V407H637.226ZM696.725 407.672C694.261 407.672 691.928 407.467 689.725 407.056C687.523 406.683 685.563 406.048 683.845 405.152C682.165 404.219 680.84 402.987 679.869 401.456C678.899 399.925 678.413 398.003 678.413 395.688C678.413 395.539 678.413 395.389 678.413 395.24C678.413 395.053 678.432 394.904 678.469 394.792H685.189C685.152 394.941 685.115 395.128 685.077 395.352C685.077 395.539 685.077 395.763 685.077 396.024C685.077 397.331 685.544 398.432 686.477 399.328C687.448 400.224 688.811 400.896 690.565 401.344C692.32 401.792 694.355 402.016 696.669 402.016C697.827 402.016 698.947 401.96 700.029 401.848C701.112 401.736 702.12 401.549 703.053 401.288C704.024 401.027 704.864 400.691 705.573 400.28C706.283 399.832 706.843 399.309 707.253 398.712C707.664 398.115 707.869 397.424 707.869 396.64C707.869 395.483 707.477 394.549 706.693 393.84C705.909 393.093 704.827 392.496 703.445 392.048C702.101 391.563 700.589 391.152 698.909 390.816C697.229 390.443 695.475 390.088 693.645 389.752C691.853 389.379 690.117 388.931 688.437 388.408C686.757 387.848 685.227 387.157 683.845 386.336C682.501 385.515 681.437 384.469 680.653 383.2C679.869 381.931 679.477 380.363 679.477 378.496C679.477 376.853 679.851 375.379 680.597 374.072C681.344 372.728 682.445 371.608 683.901 370.712C685.395 369.779 687.205 369.088 689.333 368.64C691.499 368.155 694 367.912 696.837 367.912C699.488 367.912 701.84 368.155 703.893 368.64C705.984 369.125 707.739 369.835 709.157 370.768C710.576 371.701 711.64 372.84 712.349 374.184C713.096 375.528 713.469 377.059 713.469 378.776V379.616H706.861V378.776C706.861 377.731 706.451 376.835 705.629 376.088C704.808 375.304 703.651 374.688 702.157 374.24C700.701 373.792 699.003 373.568 697.061 373.568C694.672 373.568 692.675 373.755 691.069 374.128C689.501 374.501 688.307 375.043 687.485 375.752C686.701 376.424 686.309 377.245 686.309 378.216C686.309 379.224 686.701 380.064 687.485 380.736C688.307 381.371 689.389 381.912 690.733 382.36C692.115 382.771 693.645 383.144 695.325 383.48C697.005 383.816 698.741 384.171 700.533 384.544C702.325 384.917 704.061 385.384 705.741 385.944C707.459 386.467 708.989 387.157 710.333 388.016C711.715 388.837 712.797 389.883 713.581 391.152C714.365 392.421 714.757 393.971 714.757 395.8C714.757 398.637 713.992 400.933 712.461 402.688C710.931 404.443 708.803 405.712 706.077 406.496C703.389 407.28 700.272 407.672 696.725 407.672ZM737.797 407V368.584H771.845V374.296H744.517V384.488H768.989V390.2H744.517V401.288H772.237V407H737.797ZM781 407V368.584H787.72V401.064H809.448V407H781ZM830.875 407V368.584H854.283C856.896 368.584 859.099 369.107 860.891 370.152C862.683 371.16 864.045 372.579 864.979 374.408C865.949 376.2 866.435 378.291 866.435 380.68C866.435 383.069 865.931 385.197 864.923 387.064C863.952 388.931 862.552 390.387 860.723 391.432C858.893 392.44 856.691 392.944 854.115 392.944H837.595V407H830.875ZM837.595 387.232H852.995C855.085 387.232 856.709 386.653 857.867 385.496C859.024 384.339 859.603 382.752 859.603 380.736C859.603 379.392 859.341 378.253 858.819 377.32C858.333 376.349 857.605 375.603 856.635 375.08C855.664 374.557 854.451 374.296 852.995 374.296H837.595V387.232ZM873.312 407V368.584H898.232C900.92 368.584 903.141 369.088 904.896 370.096C906.651 371.104 907.957 372.485 908.816 374.24C909.712 375.995 910.16 377.992 910.16 380.232C910.16 382.696 909.563 384.899 908.368 386.84C907.211 388.781 905.493 390.237 903.216 391.208L911.336 407H903.832L896.552 392.384H880.032V407H873.312ZM880.032 386.728H897.056C899.035 386.728 900.565 386.149 901.648 384.992C902.768 383.797 903.328 382.229 903.328 380.288C903.328 379.019 903.085 377.936 902.6 377.04C902.115 376.144 901.405 375.472 900.472 375.024C899.539 374.539 898.4 374.296 897.056 374.296H880.032V386.728ZM919.086 407V368.584H925.806V407H919.086ZM936.093 407V368.584H946.509L955.413 391.208C955.675 391.843 955.955 392.627 956.253 393.56C956.589 394.456 956.907 395.371 957.205 396.304C957.541 397.237 957.821 398.059 958.045 398.768H958.437C958.661 398.133 958.904 397.368 959.165 396.472C959.464 395.576 959.763 394.661 960.061 393.728C960.397 392.795 960.696 391.973 960.957 391.264L969.861 368.584H980.165V407H973.445V384.376C973.445 383.331 973.445 382.229 973.445 381.072C973.483 379.877 973.52 378.795 973.557 377.824C973.595 376.816 973.613 376.069 973.613 375.584H973.221C973.072 376.069 972.848 376.741 972.549 377.6C972.251 378.459 971.952 379.355 971.653 380.288C971.355 381.221 971.075 382.043 970.813 382.752L961.181 407H954.853L945.221 382.808C944.923 382.061 944.624 381.259 944.325 380.4C944.027 379.541 943.747 378.683 943.485 377.824C943.261 376.965 943.037 376.219 942.813 375.584H942.421C942.421 376.293 942.44 377.171 942.477 378.216C942.515 379.261 942.533 380.325 942.533 381.408C942.571 382.491 942.589 383.48 942.589 384.376V407H936.093ZM990.453 407V368.584H1024.5V374.296H997.173V384.488H1021.64V390.2H997.173V401.288H1024.89V407H990.453ZM1033.66 407V368.584H1058.58C1061.26 368.584 1063.49 369.088 1065.24 370.096C1066.99 371.104 1068.3 372.485 1069.16 374.24C1070.06 375.995 1070.5 377.992 1070.5 380.232C1070.5 382.696 1069.91 384.899 1068.71 386.84C1067.55 388.781 1065.84 390.237 1063.56 391.208L1071.68 407H1064.18L1056.9 392.384H1040.38V407H1033.66ZM1040.38 386.728H1057.4C1059.38 386.728 1060.91 386.149 1061.99 384.992C1063.11 383.797 1063.67 382.229 1063.67 380.288C1063.67 379.019 1063.43 377.936 1062.94 377.04C1062.46 376.144 1061.75 375.472 1060.82 375.024C1059.88 374.539 1058.74 374.296 1057.4 374.296H1040.38V386.728ZM1094.3 407V368.584H1117.71C1120.33 368.584 1122.53 369.107 1124.32 370.152C1126.11 371.16 1127.48 372.579 1128.41 374.408C1129.38 376.2 1129.86 378.291 1129.86 380.68C1129.86 383.069 1129.36 385.197 1128.35 387.064C1127.38 388.931 1125.98 390.387 1124.15 391.432C1122.32 392.44 1120.12 392.944 1117.54 392.944H1101.02V407H1094.3ZM1101.02 387.232H1116.42C1118.52 387.232 1120.14 386.653 1121.3 385.496C1122.45 384.339 1123.03 382.752 1123.03 380.736C1123.03 379.392 1122.77 378.253 1122.25 377.32C1121.76 376.349 1121.04 375.603 1120.06 375.08C1119.09 374.557 1117.88 374.296 1116.42 374.296H1101.02V387.232ZM1129.21 407L1146.45 368.584H1154.57L1171.88 407H1164.49L1160.73 398.432H1139.9L1136.15 407H1129.21ZM1142.37 392.776H1158.27L1153.57 381.912C1153.38 381.539 1153.14 381.016 1152.84 380.344C1152.58 379.672 1152.3 378.963 1152 378.216C1151.7 377.432 1151.42 376.704 1151.16 376.032C1150.9 375.323 1150.69 374.781 1150.54 374.408H1150.15C1149.85 375.155 1149.5 376.013 1149.09 376.984C1148.71 377.955 1148.34 378.888 1147.97 379.784C1147.59 380.68 1147.29 381.408 1147.07 381.968L1142.37 392.776ZM1194.27 407.672C1191.81 407.672 1189.47 407.467 1187.27 407.056C1185.07 406.683 1183.11 406.048 1181.39 405.152C1179.71 404.219 1178.39 402.987 1177.42 401.456C1176.45 399.925 1175.96 398.003 1175.96 395.688C1175.96 395.539 1175.96 395.389 1175.96 395.24C1175.96 395.053 1175.98 394.904 1176.02 394.792H1182.74C1182.7 394.941 1182.66 395.128 1182.62 395.352C1182.62 395.539 1182.62 395.763 1182.62 396.024C1182.62 397.331 1183.09 398.432 1184.02 399.328C1184.99 400.224 1186.36 400.896 1188.11 401.344C1189.87 401.792 1191.9 402.016 1194.22 402.016C1195.37 402.016 1196.49 401.96 1197.58 401.848C1198.66 401.736 1199.67 401.549 1200.6 401.288C1201.57 401.027 1202.41 400.691 1203.12 400.28C1203.83 399.832 1204.39 399.309 1204.8 398.712C1205.21 398.115 1205.42 397.424 1205.42 396.64C1205.42 395.483 1205.02 394.549 1204.24 393.84C1203.46 393.093 1202.37 392.496 1200.99 392.048C1199.65 391.563 1198.14 391.152 1196.46 390.816C1194.78 390.443 1193.02 390.088 1191.19 389.752C1189.4 389.379 1187.66 388.931 1185.98 388.408C1184.3 387.848 1182.77 387.157 1181.39 386.336C1180.05 385.515 1178.98 384.469 1178.2 383.2C1177.42 381.931 1177.02 380.363 1177.02 378.496C1177.02 376.853 1177.4 375.379 1178.14 374.072C1178.89 372.728 1179.99 371.608 1181.45 370.712C1182.94 369.779 1184.75 369.088 1186.88 368.64C1189.05 368.155 1191.55 367.912 1194.38 367.912C1197.03 367.912 1199.39 368.155 1201.44 368.64C1203.53 369.125 1205.29 369.835 1206.7 370.768C1208.12 371.701 1209.19 372.84 1209.9 374.184C1210.64 375.528 1211.02 377.059 1211.02 378.776V379.616H1204.41V378.776C1204.41 377.731 1204 376.835 1203.18 376.088C1202.35 375.304 1201.2 374.688 1199.7 374.24C1198.25 373.792 1196.55 373.568 1194.61 373.568C1192.22 373.568 1190.22 373.755 1188.62 374.128C1187.05 374.501 1185.85 375.043 1185.03 375.752C1184.25 376.424 1183.86 377.245 1183.86 378.216C1183.86 379.224 1184.25 380.064 1185.03 380.736C1185.85 381.371 1186.94 381.912 1188.28 382.36C1189.66 382.771 1191.19 383.144 1192.87 383.48C1194.55 383.816 1196.29 384.171 1198.08 384.544C1199.87 384.917 1201.61 385.384 1203.29 385.944C1205.01 386.467 1206.54 387.157 1207.88 388.016C1209.26 388.837 1210.34 389.883 1211.13 391.152C1211.91 392.421 1212.3 393.971 1212.3 395.8C1212.3 398.637 1211.54 400.933 1210.01 402.688C1208.48 404.443 1206.35 405.712 1203.62 406.496C1200.94 407.28 1197.82 407.672 1194.27 407.672ZM1240.57 407.672C1236.09 407.672 1232.21 406.925 1228.92 405.432C1225.64 403.939 1223.12 401.717 1221.36 398.768C1219.61 395.819 1218.73 392.16 1218.73 387.792C1218.73 383.387 1219.61 379.728 1221.36 376.816C1223.12 373.867 1225.64 371.645 1228.92 370.152C1232.21 368.659 1236.09 367.912 1240.57 367.912C1245.13 367.912 1249.03 368.659 1252.28 370.152C1255.56 371.645 1258.08 373.867 1259.84 376.816C1261.63 379.728 1262.52 383.387 1262.52 387.792C1262.52 392.16 1261.63 395.819 1259.84 398.768C1258.08 401.717 1255.56 403.939 1252.28 405.432C1249.03 406.925 1245.13 407.672 1240.57 407.672ZM1240.63 401.96C1242.87 401.96 1244.9 401.699 1246.73 401.176C1248.56 400.616 1250.13 399.776 1251.44 398.656C1252.74 397.536 1253.75 396.117 1254.46 394.4C1255.21 392.683 1255.58 390.685 1255.58 388.408V387.176C1255.58 384.861 1255.21 382.845 1254.46 381.128C1253.75 379.411 1252.74 378.011 1251.44 376.928C1250.13 375.808 1248.56 374.968 1246.73 374.408C1244.9 373.848 1242.87 373.568 1240.63 373.568C1238.39 373.568 1236.35 373.848 1234.52 374.408C1232.7 374.968 1231.11 375.808 1229.76 376.928C1228.46 378.011 1227.45 379.411 1226.74 381.128C1226.03 382.845 1225.68 384.861 1225.68 387.176V388.408C1225.68 390.685 1226.03 392.683 1226.74 394.4C1227.45 396.117 1228.46 397.536 1229.76 398.656C1231.11 399.776 1232.7 400.616 1234.52 401.176C1236.35 401.699 1238.39 401.96 1240.63 401.96ZM295.101 468V429.584H318.509C321.123 429.584 323.325 430.107 325.117 431.152C326.909 432.16 328.272 433.579 329.205 435.408C330.176 437.2 330.661 439.291 330.661 441.68C330.661 444.069 330.157 446.197 329.149 448.064C328.179 449.931 326.779 451.387 324.949 452.432C323.12 453.44 320.917 453.944 318.341 453.944H301.821V468H295.101ZM301.821 448.232H317.221C319.312 448.232 320.936 447.653 322.093 446.496C323.251 445.339 323.829 443.752 323.829 441.736C323.829 440.392 323.568 439.253 323.045 438.32C322.56 437.349 321.832 436.603 320.861 436.08C319.891 435.557 318.677 435.296 317.221 435.296H301.821V448.232ZM330.003 468L347.251 429.584H355.371L372.675 468H365.283L361.531 459.432H340.699L336.947 468H330.003ZM343.163 453.776H359.067L354.363 442.912C354.176 442.539 353.933 442.016 353.635 441.344C353.373 440.672 353.093 439.963 352.795 439.216C352.496 438.432 352.216 437.704 351.955 437.032C351.693 436.323 351.488 435.781 351.339 435.408H350.947C350.648 436.155 350.293 437.013 349.883 437.984C349.509 438.955 349.136 439.888 348.763 440.784C348.389 441.68 348.091 442.408 347.867 442.968L343.163 453.776ZM378.773 468V429.584H403.693C406.381 429.584 408.602 430.088 410.357 431.096C412.112 432.104 413.418 433.485 414.277 435.24C415.173 436.995 415.621 438.992 415.621 441.232C415.621 443.696 415.024 445.899 413.829 447.84C412.672 449.781 410.954 451.237 408.677 452.208L416.797 468H409.293L402.013 453.384H385.493V468H378.773ZM385.493 447.728H402.517C404.496 447.728 406.026 447.149 407.109 445.992C408.229 444.797 408.789 443.229 408.789 441.288C408.789 440.019 408.546 438.936 408.061 438.04C407.576 437.144 406.866 436.472 405.933 436.024C405 435.539 403.861 435.296 402.517 435.296H385.493V447.728ZM420.347 468L437.595 429.584H445.715L463.019 468H455.627L451.875 459.432H431.043L427.291 468H420.347ZM433.507 453.776H449.411L444.707 442.912C444.52 442.539 444.277 442.016 443.979 441.344C443.717 440.672 443.437 439.963 443.139 439.216C442.84 438.432 442.56 437.704 442.299 437.032C442.037 436.323 441.832 435.781 441.683 435.408H441.291C440.992 436.155 440.637 437.013 440.227 437.984C439.853 438.955 439.48 439.888 439.107 440.784C438.733 441.68 438.435 442.408 438.211 442.968L433.507 453.776ZM495.192 468V435.464H480.184V429.584H516.976V435.464H501.912V468H495.192ZM541.564 468.672C537.532 468.672 534.154 468.037 531.428 466.768C528.703 465.499 526.65 463.632 525.268 461.168C523.887 458.704 523.196 455.699 523.196 452.152V429.584H529.916V452.152C529.916 455.661 530.924 458.349 532.94 460.216C534.956 462.045 537.831 462.96 541.564 462.96C545.26 462.96 548.135 462.045 550.188 460.216C552.242 458.349 553.268 455.661 553.268 452.152V429.584H559.988V452.152C559.988 455.699 559.279 458.704 557.86 461.168C556.479 463.632 554.426 465.499 551.7 466.768C548.975 468.037 545.596 468.672 541.564 468.672ZM584.89 468V429.584H595.306L604.21 452.208C604.472 452.843 604.752 453.627 605.05 454.56C605.386 455.456 605.704 456.371 606.002 457.304C606.338 458.237 606.618 459.059 606.842 459.768H607.234C607.458 459.133 607.701 458.368 607.962 457.472C608.261 456.576 608.56 455.661 608.858 454.728C609.194 453.795 609.493 452.973 609.754 452.264L618.658 429.584H628.962V468H622.242V445.376C622.242 444.331 622.242 443.229 622.242 442.072C622.28 440.877 622.317 439.795 622.354 438.824C622.392 437.816 622.41 437.069 622.41 436.584H622.018C621.869 437.069 621.645 437.741 621.346 438.6C621.048 439.459 620.749 440.355 620.45 441.288C620.152 442.221 619.872 443.043 619.61 443.752L609.978 468H603.65L594.018 443.808C593.72 443.061 593.421 442.259 593.122 441.4C592.824 440.541 592.544 439.683 592.282 438.824C592.058 437.965 591.834 437.219 591.61 436.584H591.218C591.218 437.293 591.237 438.171 591.274 439.216C591.312 440.261 591.33 441.325 591.33 442.408C591.368 443.491 591.386 444.48 591.386 445.376V468H584.89ZM639.25 468V429.584H673.298V435.296H645.97V445.488H670.442V451.2H645.97V462.288H673.69V468H639.25ZM692.119 468.672C689.17 468.672 686.631 468.224 684.503 467.328C682.412 466.395 680.788 465.013 679.631 463.184C678.511 461.355 677.951 459.04 677.951 456.24V454.952H684.615V456.576C684.615 458.629 685.25 460.216 686.519 461.336C687.826 462.419 689.655 462.96 692.007 462.96C694.471 462.96 696.375 462.232 697.719 460.776C699.063 459.32 699.735 457.155 699.735 454.28V429.584H706.455V453.888C706.455 457.211 705.876 459.973 704.719 462.176C703.599 464.379 701.975 466.021 699.847 467.104C697.719 468.149 695.143 468.672 692.119 468.672ZM736.244 468.672C731.764 468.672 727.882 467.925 724.596 466.432C721.311 464.939 718.791 462.717 717.036 459.768C715.282 456.819 714.404 453.16 714.404 448.792C714.404 444.387 715.282 440.728 717.036 437.816C718.791 434.867 721.311 432.645 724.596 431.152C727.882 429.659 731.764 428.912 736.244 428.912C740.799 428.912 744.7 429.659 747.948 431.152C751.234 432.645 753.754 434.867 755.508 437.816C757.3 440.728 758.196 444.387 758.196 448.792C758.196 453.16 757.3 456.819 755.508 459.768C753.754 462.717 751.234 464.939 747.948 466.432C744.7 467.925 740.799 468.672 736.244 468.672ZM736.3 462.96C738.54 462.96 740.575 462.699 742.404 462.176C744.234 461.616 745.802 460.776 747.108 459.656C748.415 458.536 749.423 457.117 750.132 455.4C750.879 453.683 751.252 451.685 751.252 449.408V448.176C751.252 445.861 750.879 443.845 750.132 442.128C749.423 440.411 748.415 439.011 747.108 437.928C745.802 436.808 744.234 435.968 742.404 435.408C740.575 434.848 738.54 434.568 736.3 434.568C734.06 434.568 732.026 434.848 730.196 435.408C728.367 435.968 726.78 436.808 725.436 437.928C724.13 439.011 723.122 440.411 722.412 442.128C721.703 443.845 721.348 445.861 721.348 448.176V449.408C721.348 451.685 721.703 453.683 722.412 455.4C723.122 457.117 724.13 458.536 725.436 459.656C726.78 460.776 728.367 461.616 730.196 462.176C732.026 462.699 734.06 462.96 736.3 462.96ZM766.726 468V429.584H791.646C794.334 429.584 796.556 430.088 798.31 431.096C800.065 432.104 801.372 433.485 802.23 435.24C803.126 436.995 803.574 438.992 803.574 441.232C803.574 443.696 802.977 445.899 801.782 447.84C800.625 449.781 798.908 451.237 796.63 452.208L804.75 468H797.246L789.966 453.384H773.446V468H766.726ZM773.446 447.728H790.47C792.449 447.728 793.98 447.149 795.062 445.992C796.182 444.797 796.742 443.229 796.742 441.288C796.742 440.019 796.5 438.936 796.014 438.04C795.529 437.144 794.82 436.472 793.886 436.024C792.953 435.539 791.814 435.296 790.47 435.296H773.446V447.728ZM839.359 468L823.007 429.584H830.455L840.647 454.56C840.908 455.195 841.207 455.923 841.543 456.744C841.879 457.565 842.196 458.349 842.495 459.096C842.793 459.843 843.055 460.496 843.279 461.056H843.671C843.895 460.533 844.156 459.899 844.455 459.152C844.753 458.405 845.071 457.64 845.407 456.856C845.743 456.035 846.041 455.288 846.303 454.616L856.495 429.584H863.551L847.255 468H839.359ZM869.539 468V429.584H903.587V435.296H876.259V445.488H900.731V451.2H876.259V462.288H903.979V468H869.539ZM912.742 468V429.584H937.662C940.35 429.584 942.571 430.088 944.326 431.096C946.081 432.104 947.387 433.485 948.246 435.24C949.142 436.995 949.59 438.992 949.59 441.232C949.59 443.696 948.993 445.899 947.798 447.84C946.641 449.781 944.923 451.237 942.646 452.208L950.766 468H943.262L935.982 453.384H919.462V468H912.742ZM919.462 447.728H936.486C938.465 447.728 939.995 447.149 941.078 445.992C942.198 444.797 942.758 443.229 942.758 441.288C942.758 440.019 942.515 438.936 942.03 438.04C941.545 437.144 940.835 436.472 939.902 436.024C938.969 435.539 937.83 435.296 936.486 435.296H919.462V447.728ZM974.811 468.672C972.347 468.672 970.014 468.467 967.811 468.056C965.609 467.683 963.649 467.048 961.931 466.152C960.251 465.219 958.926 463.987 957.955 462.456C956.985 460.925 956.499 459.003 956.499 456.688C956.499 456.539 956.499 456.389 956.499 456.24C956.499 456.053 956.518 455.904 956.555 455.792H963.275C963.238 455.941 963.201 456.128 963.163 456.352C963.163 456.539 963.163 456.763 963.163 457.024C963.163 458.331 963.63 459.432 964.563 460.328C965.534 461.224 966.897 461.896 968.651 462.344C970.406 462.792 972.441 463.016 974.755 463.016C975.913 463.016 977.033 462.96 978.115 462.848C979.198 462.736 980.206 462.549 981.139 462.288C982.11 462.027 982.95 461.691 983.659 461.28C984.369 460.832 984.929 460.309 985.339 459.712C985.75 459.115 985.955 458.424 985.955 457.64C985.955 456.483 985.563 455.549 984.779 454.84C983.995 454.093 982.913 453.496 981.531 453.048C980.187 452.563 978.675 452.152 976.995 451.816C975.315 451.443 973.561 451.088 971.731 450.752C969.939 450.379 968.203 449.931 966.523 449.408C964.843 448.848 963.313 448.157 961.931 447.336C960.587 446.515 959.523 445.469 958.739 444.2C957.955 442.931 957.563 441.363 957.563 439.496C957.563 437.853 957.937 436.379 958.683 435.072C959.43 433.728 960.531 432.608 961.987 431.712C963.481 430.779 965.291 430.088 967.419 429.64C969.585 429.155 972.086 428.912 974.923 428.912C977.574 428.912 979.926 429.155 981.979 429.64C984.07 430.125 985.825 430.835 987.243 431.768C988.662 432.701 989.726 433.84 990.435 435.184C991.182 436.528 991.555 438.059 991.555 439.776V440.616H984.947V439.776C984.947 438.731 984.537 437.835 983.715 437.088C982.894 436.304 981.737 435.688 980.243 435.24C978.787 434.792 977.089 434.568 975.147 434.568C972.758 434.568 970.761 434.755 969.155 435.128C967.587 435.501 966.393 436.043 965.571 436.752C964.787 437.424 964.395 438.245 964.395 439.216C964.395 440.224 964.787 441.064 965.571 441.736C966.393 442.371 967.475 442.912 968.819 443.36C970.201 443.771 971.731 444.144 973.411 444.48C975.091 444.816 976.827 445.171 978.619 445.544C980.411 445.917 982.147 446.384 983.827 446.944C985.545 447.467 987.075 448.157 988.419 449.016C989.801 449.837 990.883 450.883 991.667 452.152C992.451 453.421 992.843 454.971 992.843 456.8C992.843 459.637 992.078 461.933 990.547 463.688C989.017 465.443 986.889 466.712 984.163 467.496C981.475 468.28 978.358 468.672 974.811 468.672ZM1001.01 468V429.584H1007.73V468H1001.01ZM1038.18 468.672C1033.62 468.672 1029.7 467.925 1026.42 466.432C1023.17 464.939 1020.67 462.717 1018.91 459.768C1017.16 456.819 1016.28 453.16 1016.28 448.792C1016.28 444.387 1017.16 440.728 1018.91 437.816C1020.67 434.867 1023.17 432.645 1026.42 431.152C1029.7 429.659 1033.62 428.912 1038.18 428.912C1042.69 428.912 1046.58 429.659 1049.82 431.152C1053.11 432.645 1055.63 434.867 1057.38 437.816C1059.18 440.728 1060.07 444.387 1060.07 448.792C1060.07 453.16 1059.18 456.819 1057.38 459.768C1055.63 462.717 1053.11 464.939 1049.82 466.432C1046.58 467.925 1042.69 468.672 1038.18 468.672ZM1038.18 462.96C1040.42 462.96 1042.45 462.699 1044.28 462.176C1046.11 461.616 1047.68 460.776 1048.98 459.656C1050.29 458.536 1051.3 457.117 1052.01 455.4C1052.75 453.683 1053.13 451.685 1053.13 449.408V448.176C1053.13 445.861 1052.75 443.845 1052.01 442.128C1051.3 440.411 1050.29 439.011 1048.98 437.928C1047.68 436.808 1046.11 435.968 1044.28 435.408C1042.45 434.848 1040.42 434.568 1038.18 434.568C1035.94 434.568 1033.9 434.848 1032.07 435.408C1030.24 435.968 1028.66 436.808 1027.31 437.928C1026 439.011 1025 440.411 1024.29 442.128C1023.58 443.845 1023.22 445.861 1023.22 448.176V449.408C1023.22 451.685 1023.58 453.683 1024.29 455.4C1025 457.117 1026 458.536 1027.31 459.656C1028.66 460.776 1030.24 461.616 1032.07 462.176C1033.9 462.699 1035.94 462.96 1038.18 462.96ZM1034.42 426.616L1040.02 419.224H1047.25V419.392L1039.8 426.616H1034.42ZM1068.6 468V429.584H1075.04L1095.2 452.824C1095.5 453.123 1095.87 453.552 1096.32 454.112C1096.77 454.635 1097.22 455.176 1097.67 455.736C1098.15 456.259 1098.52 456.725 1098.79 457.136H1099.18C1099.14 456.464 1099.1 455.717 1099.07 454.896C1099.07 454.075 1099.07 453.328 1099.07 452.656V429.584H1105.56V468H1099.35L1079.07 444.48C1078.48 443.808 1077.8 443.024 1077.06 442.128C1076.35 441.232 1075.79 440.541 1075.38 440.056H1075.04C1075.04 440.579 1075.04 441.288 1075.04 442.184C1075.08 443.043 1075.1 443.957 1075.1 444.928V468H1068.6ZM1115.29 468V460.888H1122.4V468H1115.29Z" fill="#3B2017"/>
<rect x="563" y="544" width="314" height="68" rx="10" fill="#FFE8BF"/>
<rect x="563" y="544" width="314" height="68" rx="10" stroke="#3B2017" stroke-width="2"/>
<path d="M644.665 584.206L648.135 587.354L646.792 588.643L643.397 585.538L644.665 584.206ZM647.92 576.826V579.533C647.92 580.643 647.798 581.617 647.555 582.455C647.318 583.286 646.971 583.98 646.513 584.539C646.054 585.098 645.499 585.517 644.848 585.796C644.203 586.075 643.476 586.215 642.667 586.215C641.886 586.215 641.174 586.075 640.529 585.796C639.885 585.517 639.33 585.098 638.864 584.539C638.399 583.98 638.037 583.286 637.779 582.455C637.529 581.617 637.403 580.643 637.403 579.533V576.826C637.403 575.716 637.529 574.746 637.779 573.915C638.03 573.084 638.388 572.39 638.854 571.831C639.319 571.265 639.874 570.843 640.519 570.563C641.163 570.284 641.876 570.145 642.656 570.145C643.465 570.145 644.192 570.284 644.837 570.563C645.489 570.843 646.044 571.265 646.502 571.831C646.96 572.39 647.311 573.084 647.555 573.915C647.798 574.746 647.92 575.716 647.92 576.826ZM645.965 579.533V576.805C645.965 575.945 645.893 575.208 645.75 574.592C645.607 573.969 645.392 573.46 645.105 573.066C644.826 572.673 644.482 572.382 644.074 572.196C643.666 572.003 643.193 571.906 642.656 571.906C642.155 571.906 641.7 572.003 641.292 572.196C640.891 572.382 640.547 572.673 640.261 573.066C639.974 573.46 639.752 573.969 639.595 574.592C639.444 575.208 639.369 575.945 639.369 576.805V579.533C639.369 580.4 639.444 581.145 639.595 581.768C639.752 582.391 639.974 582.903 640.261 583.304C640.554 583.698 640.902 583.991 641.303 584.185C641.711 584.371 642.166 584.464 642.667 584.464C643.204 584.464 643.677 584.371 644.085 584.185C644.5 583.991 644.848 583.698 645.127 583.304C645.406 582.903 645.614 582.391 645.75 581.768C645.893 581.145 645.965 580.4 645.965 579.533ZM658.426 570.359H660.402V581.37C660.402 582.545 660.177 583.486 659.726 584.195C659.274 584.904 658.68 585.42 657.942 585.742C657.212 586.057 656.424 586.215 655.579 586.215C654.677 586.215 653.864 586.057 653.141 585.742C652.417 585.42 651.841 584.904 651.411 584.195C650.989 583.486 650.777 582.545 650.777 581.37V570.359H652.743V581.37C652.743 582.187 652.858 582.824 653.087 583.282C653.323 583.741 653.653 584.063 654.075 584.249C654.505 584.435 655.006 584.528 655.579 584.528C656.159 584.528 656.66 584.435 657.083 584.249C657.513 584.063 657.842 583.741 658.071 583.282C658.308 582.824 658.426 582.187 658.426 581.37V570.359ZM665.483 570.359V586H663.507V570.359H665.483ZM677.332 584.313V586H670.543V584.313H677.332ZM670.897 570.359V586H668.921V570.359H670.897ZM676.419 577.084V578.771H670.543V577.084H676.419ZM677.225 570.359V572.057H670.543V570.359H677.225ZM679.867 570.359H684.239C685.256 570.359 686.108 570.538 686.796 570.896C687.491 571.255 688.013 571.785 688.364 572.486C688.722 573.181 688.901 574.037 688.901 575.054C688.901 575.77 688.783 576.425 688.547 577.02C688.311 577.607 687.967 578.108 687.516 578.523C687.064 578.932 686.517 579.236 685.872 579.437L685.335 579.662H681.436L681.414 577.976H684.218C684.819 577.976 685.321 577.847 685.722 577.589C686.123 577.324 686.424 576.969 686.624 576.525C686.825 576.081 686.925 575.591 686.925 575.054C686.925 574.452 686.835 573.926 686.656 573.475C686.477 573.023 686.191 572.676 685.797 572.433C685.41 572.182 684.891 572.057 684.239 572.057H681.844V586H679.867V570.359ZM687.376 586L684.261 578.91L686.312 578.899L689.492 585.871V586H687.376ZM701.717 576.826V579.544C701.717 580.647 701.595 581.617 701.352 582.455C701.115 583.286 700.768 583.98 700.31 584.539C699.851 585.098 699.3 585.517 698.655 585.796C698.011 586.075 697.284 586.215 696.475 586.215C695.694 586.215 694.981 586.075 694.337 585.796C693.692 585.517 693.137 585.098 692.672 584.539C692.206 583.98 691.845 583.286 691.587 582.455C691.336 581.617 691.211 580.647 691.211 579.544V576.826C691.211 575.723 691.336 574.757 691.587 573.926C691.838 573.088 692.196 572.39 692.661 571.831C693.127 571.272 693.682 570.854 694.326 570.574C694.971 570.288 695.683 570.145 696.464 570.145C697.273 570.145 698 570.288 698.645 570.574C699.296 570.854 699.848 571.272 700.299 571.831C700.757 572.39 701.108 573.088 701.352 573.926C701.595 574.757 701.717 575.723 701.717 576.826ZM699.762 579.544V576.805C699.762 575.945 699.69 575.208 699.547 574.592C699.404 573.969 699.192 573.46 698.913 573.066C698.634 572.673 698.29 572.382 697.882 572.196C697.474 572.003 697.001 571.906 696.464 571.906C695.955 571.906 695.497 572.003 695.089 572.196C694.688 572.382 694.344 572.673 694.058 573.066C693.771 573.46 693.549 573.969 693.392 574.592C693.241 575.208 693.166 575.945 693.166 576.805V579.544C693.166 580.41 693.241 581.155 693.392 581.778C693.549 582.394 693.771 582.903 694.058 583.304C694.351 583.698 694.702 583.991 695.11 584.185C695.519 584.371 695.973 584.464 696.475 584.464C697.012 584.464 697.484 584.371 697.893 584.185C698.308 583.991 698.652 583.698 698.924 583.304C699.203 582.903 699.411 582.394 699.547 581.778C699.69 581.155 699.762 580.41 699.762 579.544ZM716.67 582.047C716.67 581.682 716.627 581.359 716.541 581.08C716.455 580.794 716.305 580.536 716.09 580.307C715.875 580.077 715.574 579.859 715.188 579.651C714.801 579.444 714.31 579.232 713.716 579.018C713.071 578.788 712.488 578.534 711.965 578.255C711.442 577.968 710.994 577.643 710.622 577.277C710.257 576.912 709.974 576.493 709.773 576.021C709.573 575.548 709.473 575.007 709.473 574.398C709.473 573.79 709.576 573.228 709.784 572.712C709.999 572.196 710.3 571.749 710.687 571.369C711.08 570.982 711.553 570.682 712.104 570.467C712.656 570.252 713.272 570.145 713.952 570.145C714.969 570.145 715.825 570.37 716.52 570.821C717.221 571.265 717.751 571.849 718.109 572.572C718.467 573.288 718.646 574.055 718.646 574.871H716.67C716.67 574.284 716.573 573.765 716.38 573.313C716.194 572.855 715.9 572.497 715.499 572.239C715.105 571.974 714.59 571.842 713.952 571.842C713.379 571.842 712.907 571.953 712.534 572.175C712.169 572.397 711.897 572.698 711.718 573.077C711.546 573.457 711.46 573.89 711.46 574.377C711.46 574.706 711.517 575.007 711.632 575.279C711.746 575.544 711.922 575.791 712.158 576.021C712.402 576.25 712.702 576.461 713.061 576.654C713.426 576.848 713.855 577.034 714.35 577.213C715.116 577.464 715.771 577.743 716.315 578.051C716.86 578.359 717.304 578.706 717.647 579.093C717.991 579.472 718.242 579.906 718.399 580.393C718.564 580.872 718.646 581.417 718.646 582.025C718.646 582.663 718.539 583.239 718.324 583.755C718.117 584.271 717.812 584.711 717.411 585.076C717.01 585.441 716.527 585.724 715.961 585.925C715.395 586.118 714.758 586.215 714.049 586.215C713.433 586.215 712.828 586.115 712.233 585.914C711.646 585.714 711.113 585.413 710.633 585.012C710.153 584.611 709.77 584.117 709.483 583.529C709.197 582.935 709.054 582.247 709.054 581.467H711.03C711.03 582.004 711.109 582.466 711.267 582.853C711.424 583.232 711.643 583.547 711.922 583.798C712.201 584.049 712.52 584.235 712.878 584.356C713.243 584.471 713.633 584.528 714.049 584.528C714.622 584.528 715.102 584.428 715.488 584.228C715.882 584.027 716.176 583.741 716.369 583.368C716.57 582.996 716.67 582.555 716.67 582.047ZM729.646 584.313V586H722.857V584.313H729.646ZM723.212 570.359V586H721.235V570.359H723.212ZM728.733 577.084V578.771H722.857V577.084H728.733ZM729.539 570.359V572.057H722.857V570.359H729.539ZM732.182 570.359H736.554C737.571 570.359 738.423 570.538 739.11 570.896C739.805 571.255 740.328 571.785 740.679 572.486C741.037 573.181 741.216 574.037 741.216 575.054C741.216 575.77 741.098 576.425 740.861 577.02C740.625 577.607 740.281 578.108 739.83 578.523C739.379 578.932 738.831 579.236 738.187 579.437L737.649 579.662H733.75L733.729 577.976H736.532C737.134 577.976 737.635 577.847 738.036 577.589C738.437 577.324 738.738 576.969 738.938 576.525C739.139 576.081 739.239 575.591 739.239 575.054C739.239 574.452 739.15 573.926 738.971 573.475C738.792 573.023 738.505 572.676 738.111 572.433C737.725 572.182 737.205 572.057 736.554 572.057H734.158V586H732.182V570.359ZM739.69 586L736.575 578.91L738.627 578.899L741.807 585.871V586H739.69ZM753.892 579.866H750.476V578.18H753.892C754.536 578.18 755.055 578.051 755.449 577.793C755.85 577.535 756.14 577.177 756.319 576.719C756.506 576.26 756.599 575.738 756.599 575.15C756.599 574.613 756.506 574.108 756.319 573.636C756.14 573.163 755.85 572.784 755.449 572.497C755.055 572.203 754.536 572.057 753.892 572.057H750.884V586H748.907V570.359H753.892C754.901 570.359 755.754 570.563 756.448 570.972C757.143 571.38 757.669 571.946 758.027 572.669C758.393 573.385 758.575 574.205 758.575 575.129C758.575 576.132 758.393 576.987 758.027 577.696C757.669 578.405 757.143 578.946 756.448 579.318C755.754 579.684 754.901 579.866 753.892 579.866ZM764.698 571.745L760.423 586H758.403L763.441 570.359H764.709L764.698 571.745ZM768.157 586L763.882 571.745L763.86 570.359H765.139L770.177 586H768.157ZM768.157 580.21V581.907H760.616V580.21H768.157ZM772.336 570.359H776.708C777.725 570.359 778.577 570.538 779.265 570.896C779.959 571.255 780.482 571.785 780.833 572.486C781.191 573.181 781.37 574.037 781.37 575.054C781.37 575.77 781.252 576.425 781.016 577.02C780.779 577.607 780.436 578.108 779.984 578.523C779.533 578.932 778.985 579.236 778.341 579.437L777.804 579.662H773.904L773.883 577.976H776.687C777.288 577.976 777.789 577.847 778.19 577.589C778.591 577.324 778.892 576.969 779.093 576.525C779.293 576.081 779.394 575.591 779.394 575.054C779.394 574.452 779.304 573.926 779.125 573.475C778.946 573.023 778.66 572.676 778.266 572.433C777.879 572.182 777.36 572.057 776.708 572.057H774.312V586H772.336V570.359ZM779.845 586L776.729 578.91L778.781 578.899L781.961 585.871V586H779.845ZM788.181 570.359V586H786.226V570.359H788.181ZM792.295 570.359V572.057H782.122V570.359H792.295ZM803.016 584.313V586H796.227V584.313H803.016ZM796.581 570.359V586H794.604V570.359H796.581ZM802.103 577.084V578.771H796.227V577.084H802.103ZM802.908 570.359V572.057H796.227V570.359H802.908Z" fill="#3B2017"/>
</svg>
