<svg width="318" height="42" viewBox="0 0 318 42" fill="none" xmlns="http://www.w3.org/2000/svg">
<rect x="1" y="1" width="316" height="40" rx="9" fill="#BFD43B"/>
<rect x="1" y="1" width="316" height="40" rx="9" stroke="#3B2017" stroke-width="2"/>
<path d="M34.9277 13.2812V27.5H32.0859V13.2812H34.9277ZM38.4629 13.2812V15.6543H28.6191V13.2812H38.4629ZM48.2773 25.1367V27.5H42.0957V25.1367H48.2773ZM42.9844 13.2812V27.5H40.123V13.2812H42.9844ZM47.4473 19.043V21.3379H42.0957V19.043H47.4473ZM48.2578 13.2812V15.6543H42.0957V13.2812H48.2578ZM50.9629 13.2812H53.4727L56.373 23.0078L59.2637 13.2812H61.4805L57.4375 27.5H55.2988L50.9629 13.2812ZM49.9473 13.2812H52.3398L52.7109 22.6562V27.5H49.9473V13.2812ZM60.3867 13.2812H62.7891V27.5H60.0352V22.6562L60.3867 13.2812ZM69.9668 22.4902H67.0566V20.1172H69.9668C70.377 20.1172 70.709 20.026 70.9629 19.8438C71.2168 19.6615 71.4023 19.4108 71.5195 19.0918C71.6367 18.7663 71.6953 18.4017 71.6953 17.998C71.6953 17.5879 71.6367 17.2038 71.5195 16.8457C71.4023 16.4876 71.2168 16.2012 70.9629 15.9863C70.709 15.765 70.377 15.6543 69.9668 15.6543H67.9844V27.5H65.123V13.2812H69.9668C70.9238 13.2812 71.7441 13.4831 72.4277 13.8867C73.1178 14.2904 73.6484 14.847 74.0195 15.5566C74.3906 16.2598 74.5762 17.0671 74.5762 17.9785C74.5762 18.8965 74.3906 19.694 74.0195 20.3711C73.6484 21.0417 73.1178 21.5625 72.4277 21.9336C71.7441 22.3047 70.9238 22.4902 69.9668 22.4902ZM86.4805 19.2871V21.6602C86.4805 22.6628 86.3568 23.5417 86.1094 24.2969C85.8685 25.0456 85.5234 25.6738 85.0742 26.1816C84.6315 26.6829 84.0944 27.0605 83.4629 27.3145C82.8379 27.5684 82.1445 27.6953 81.3828 27.6953C80.6211 27.6953 79.9245 27.5684 79.293 27.3145C78.668 27.0605 78.1276 26.6829 77.6719 26.1816C77.2227 25.6738 76.8743 25.0456 76.627 24.2969C76.3796 23.5417 76.2559 22.6628 76.2559 21.6602V19.2871C76.2559 18.2585 76.3763 17.36 76.6172 16.5918C76.8581 15.8171 77.2064 15.1725 77.6621 14.6582C78.1178 14.1374 78.6582 13.7467 79.2832 13.4863C79.9082 13.2194 80.6016 13.0859 81.3633 13.0859C82.125 13.0859 82.8184 13.2194 83.4434 13.4863C84.0684 13.7467 84.6087 14.1374 85.0645 14.6582C85.5202 15.1725 85.8685 15.8171 86.1094 16.5918C86.3568 17.36 86.4805 18.2585 86.4805 19.2871ZM83.6387 21.6602V19.2676C83.6387 18.5905 83.5898 18.0143 83.4922 17.5391C83.3945 17.0573 83.248 16.6634 83.0527 16.3574C82.8574 16.0514 82.6198 15.8268 82.3398 15.6836C82.0599 15.5404 81.7344 15.4688 81.3633 15.4688C80.9922 15.4688 80.6634 15.5404 80.377 15.6836C80.097 15.8268 79.8594 16.0514 79.6641 16.3574C79.4753 16.6634 79.332 17.0573 79.2344 17.5391C79.1432 18.0143 79.0977 18.5905 79.0977 19.2676V21.6602C79.0977 22.3112 79.1465 22.8678 79.2441 23.3301C79.3418 23.7923 79.4883 24.1699 79.6836 24.4629C79.8789 24.7559 80.1165 24.974 80.3965 25.1172C80.6829 25.2539 81.0117 25.3223 81.3828 25.3223C81.7474 25.3223 82.0697 25.2539 82.3496 25.1172C82.6361 24.974 82.8737 24.7559 83.0625 24.4629C83.2513 24.1699 83.3945 23.7923 83.4922 23.3301C83.5898 22.8678 83.6387 22.3112 83.6387 21.6602ZM88.5703 13.2812H93.1309C94.0814 13.2812 94.8919 13.444 95.5625 13.7695C96.2331 14.0951 96.7474 14.5768 97.1055 15.2148C97.4635 15.8529 97.6426 16.6406 97.6426 17.5781C97.6426 18.3464 97.5384 19.0039 97.3301 19.5508C97.1217 20.0911 96.8255 20.5436 96.4414 20.9082C96.0573 21.2663 95.5983 21.5527 95.0645 21.7676L94.1953 22.2852H90.4941L90.4844 19.9121H93.0527C93.4434 19.9121 93.7656 19.8275 94.0195 19.6582C94.2799 19.4824 94.472 19.2383 94.5957 18.9258C94.7259 18.6068 94.791 18.2357 94.791 17.8125C94.791 17.3633 94.7324 16.9792 94.6152 16.6602C94.5046 16.3346 94.3255 16.0872 94.0781 15.918C93.8372 15.7422 93.5215 15.6543 93.1309 15.6543H91.4316V27.5H88.5703V13.2812ZM95.0254 27.5L92.418 21.1621L95.416 21.1523L98.082 27.3633V27.5H95.0254ZM104.781 15.8203L101.725 27.5H98.707L103.15 13.2812H105.035L104.781 15.8203ZM107.193 27.5L104.117 15.8203L103.834 13.2812H105.748L110.23 27.5H107.193ZM107.301 22.1973V24.5703H100.885V22.1973H107.301ZM115.299 27.5H112.789L112.809 25.1367H115.299C115.989 25.1367 116.526 25.013 116.91 24.7656C117.294 24.5182 117.564 24.1276 117.721 23.5938C117.883 23.0599 117.965 22.36 117.965 21.4941V19.2773C117.965 18.6198 117.923 18.0632 117.838 17.6074C117.753 17.1452 117.61 16.7741 117.408 16.4941C117.206 16.2077 116.936 15.9961 116.598 15.8594C116.259 15.7227 115.839 15.6543 115.338 15.6543H112.74V13.2812H115.338C116.158 13.2812 116.904 13.4147 117.574 13.6816C118.245 13.9486 118.821 14.3392 119.303 14.8535C119.785 15.3613 120.156 15.9896 120.416 16.7383C120.676 17.487 120.807 18.3398 120.807 19.2969V21.4941C120.807 22.4577 120.676 23.3105 120.416 24.0527C120.156 24.7949 119.785 25.4232 119.303 25.9375C118.827 26.4453 118.251 26.8327 117.574 27.0996C116.897 27.3665 116.139 27.5 115.299 27.5ZM114.449 13.2812V27.5H111.588V13.2812H114.449ZM127.848 15.8203L124.791 27.5H121.773L126.217 13.2812H128.102L127.848 15.8203ZM130.26 27.5L127.184 15.8203L126.9 13.2812H128.814L133.297 27.5H130.26ZM130.367 22.1973V24.5703H123.951V22.1973H130.367ZM145.104 13.252V27.5H142.369V16.6113L139.654 17.6562V15.3711L144.811 13.252H145.104ZM158.775 20.2637V22.5391H154.02V20.2637H158.775ZM167.936 13.2812L170.104 19.6875L172.252 13.2812H175.367L171.539 22.334V27.5H168.658V22.334L164.83 13.2812H167.936ZM180.387 15.8203L177.33 27.5H174.312L178.756 13.2812H180.641L180.387 15.8203ZM182.799 27.5L179.723 15.8203L179.439 13.2812H181.354L185.836 27.5H182.799ZM182.906 22.1973V24.5703H176.49V22.1973H182.906ZM195.514 27.5H193.004L193.023 25.1367H195.514C196.204 25.1367 196.741 25.013 197.125 24.7656C197.509 24.5182 197.779 24.1276 197.936 23.5938C198.098 23.0599 198.18 22.36 198.18 21.4941V19.2773C198.18 18.6198 198.137 18.0632 198.053 17.6074C197.968 17.1452 197.825 16.7741 197.623 16.4941C197.421 16.2077 197.151 15.9961 196.812 15.8594C196.474 15.7227 196.054 15.6543 195.553 15.6543H192.955V13.2812H195.553C196.373 13.2812 197.118 13.4147 197.789 13.6816C198.46 13.9486 199.036 14.3392 199.518 14.8535C199.999 15.3613 200.37 15.9896 200.631 16.7383C200.891 17.487 201.021 18.3398 201.021 19.2969V21.4941C201.021 22.4577 200.891 23.3105 200.631 24.0527C200.37 24.7949 199.999 25.4232 199.518 25.9375C199.042 26.4453 198.466 26.8327 197.789 27.0996C197.112 27.3665 196.354 27.5 195.514 27.5ZM194.664 13.2812V27.5H191.803V13.2812H194.664ZM206.08 13.2812V27.5H203.238V13.2812H206.08ZM214.537 23.7598C214.537 23.5059 214.514 23.2747 214.469 23.0664C214.423 22.8581 214.326 22.666 214.176 22.4902C214.033 22.3145 213.821 22.1387 213.541 21.9629C213.268 21.7871 212.91 21.6048 212.467 21.416C211.939 21.1947 211.428 20.9603 210.934 20.7129C210.439 20.459 209.993 20.166 209.596 19.834C209.199 19.502 208.883 19.1113 208.648 18.6621C208.421 18.2064 208.307 17.6725 208.307 17.0605C208.307 16.4616 208.414 15.918 208.629 15.4297C208.85 14.9414 209.163 14.5247 209.566 14.1797C209.97 13.8281 210.442 13.5579 210.982 13.3691C211.529 13.1803 212.138 13.0859 212.809 13.0859C213.72 13.0859 214.508 13.2747 215.172 13.6523C215.842 14.0299 216.36 14.5475 216.725 15.2051C217.096 15.8626 217.281 16.6178 217.281 17.4707H214.43C214.43 17.0671 214.371 16.7122 214.254 16.4062C214.143 16.0938 213.964 15.8496 213.717 15.6738C213.469 15.498 213.15 15.4102 212.76 15.4102C212.395 15.4102 212.092 15.485 211.852 15.6348C211.617 15.778 211.441 15.9766 211.324 16.2305C211.214 16.4779 211.158 16.7578 211.158 17.0703C211.158 17.3047 211.214 17.5163 211.324 17.7051C211.441 17.8874 211.601 18.0534 211.803 18.2031C212.005 18.3464 212.242 18.4863 212.516 18.623C212.796 18.7598 213.102 18.8932 213.434 19.0234C214.078 19.2773 214.648 19.5573 215.143 19.8633C215.637 20.1628 216.051 20.5013 216.383 20.8789C216.715 21.25 216.965 21.6699 217.135 22.1387C217.304 22.6074 217.389 23.1413 217.389 23.7402C217.389 24.3327 217.285 24.873 217.076 25.3613C216.874 25.8431 216.578 26.2598 216.188 26.6113C215.797 26.9564 215.325 27.2233 214.771 27.4121C214.225 27.6009 213.613 27.6953 212.936 27.6953C212.278 27.6953 211.656 27.6042 211.07 27.4219C210.484 27.2331 209.967 26.9499 209.518 26.5723C209.075 26.1882 208.727 25.7031 208.473 25.1172C208.219 24.5247 208.092 23.8249 208.092 23.0176H210.953C210.953 23.4473 210.995 23.8151 211.08 24.1211C211.165 24.4206 211.295 24.6615 211.471 24.8438C211.646 25.0195 211.861 25.153 212.115 25.2441C212.376 25.3288 212.672 25.3711 213.004 25.3711C213.382 25.3711 213.681 25.2995 213.902 25.1562C214.13 25.013 214.293 24.821 214.391 24.5801C214.488 24.3392 214.537 24.0658 214.537 23.7598ZM224.166 22.4902H221.256V20.1172H224.166C224.576 20.1172 224.908 20.026 225.162 19.8438C225.416 19.6615 225.602 19.4108 225.719 19.0918C225.836 18.7663 225.895 18.4017 225.895 17.998C225.895 17.5879 225.836 17.2038 225.719 16.8457C225.602 16.4876 225.416 16.2012 225.162 15.9863C224.908 15.765 224.576 15.6543 224.166 15.6543H222.184V27.5H219.322V13.2812H224.166C225.123 13.2812 225.943 13.4831 226.627 13.8867C227.317 14.2904 227.848 14.847 228.219 15.5566C228.59 16.2598 228.775 17.0671 228.775 17.9785C228.775 18.8965 228.59 19.694 228.219 20.3711C227.848 21.0417 227.317 21.5625 226.627 21.9336C225.943 22.3047 225.123 22.4902 224.166 22.4902ZM240.68 19.2871V21.6602C240.68 22.6628 240.556 23.5417 240.309 24.2969C240.068 25.0456 239.723 25.6738 239.273 26.1816C238.831 26.6829 238.294 27.0605 237.662 27.3145C237.037 27.5684 236.344 27.6953 235.582 27.6953C234.82 27.6953 234.124 27.5684 233.492 27.3145C232.867 27.0605 232.327 26.6829 231.871 26.1816C231.422 25.6738 231.074 25.0456 230.826 24.2969C230.579 23.5417 230.455 22.6628 230.455 21.6602V19.2871C230.455 18.2585 230.576 17.36 230.816 16.5918C231.057 15.8171 231.406 15.1725 231.861 14.6582C232.317 14.1374 232.857 13.7467 233.482 13.4863C234.107 13.2194 234.801 13.0859 235.562 13.0859C236.324 13.0859 237.018 13.2194 237.643 13.4863C238.268 13.7467 238.808 14.1374 239.264 14.6582C239.719 15.1725 240.068 15.8171 240.309 16.5918C240.556 17.36 240.68 18.2585 240.68 19.2871ZM237.838 21.6602V19.2676C237.838 18.5905 237.789 18.0143 237.691 17.5391C237.594 17.0573 237.447 16.6634 237.252 16.3574C237.057 16.0514 236.819 15.8268 236.539 15.6836C236.259 15.5404 235.934 15.4688 235.562 15.4688C235.191 15.4688 234.863 15.5404 234.576 15.6836C234.296 15.8268 234.059 16.0514 233.863 16.3574C233.674 16.6634 233.531 17.0573 233.434 17.5391C233.342 18.0143 233.297 18.5905 233.297 19.2676V21.6602C233.297 22.3112 233.346 22.8678 233.443 23.3301C233.541 23.7923 233.688 24.1699 233.883 24.4629C234.078 24.7559 234.316 24.974 234.596 25.1172C234.882 25.2539 235.211 25.3223 235.582 25.3223C235.947 25.3223 236.269 25.2539 236.549 25.1172C236.835 24.974 237.073 24.7559 237.262 24.4629C237.451 24.1699 237.594 23.7923 237.691 23.3301C237.789 22.8678 237.838 22.3112 237.838 21.6602ZM252.701 13.2812V27.5H249.938L245.475 18.6035V27.5H242.76V13.2812H245.484L249.986 22.2754V13.2812H252.701ZM257.975 13.2812V27.5H255.133V13.2812H257.975ZM265.221 21.2988H262.301L262.291 19.2285H264.771C265.162 19.2285 265.481 19.1634 265.729 19.0332C265.982 18.8965 266.168 18.6979 266.285 18.4375C266.409 18.1706 266.471 17.8483 266.471 17.4707C266.471 17.0345 266.412 16.6862 266.295 16.4258C266.184 16.1589 266.005 15.9635 265.758 15.8398C265.517 15.7161 265.198 15.6543 264.801 15.6543H263.277V27.5H260.416V13.2812H264.801C265.504 13.2812 266.135 13.3594 266.695 13.5156C267.255 13.6719 267.73 13.9128 268.121 14.2383C268.512 14.5573 268.811 14.9609 269.02 15.4492C269.228 15.931 269.332 16.5039 269.332 17.168C269.332 17.7539 269.215 18.2943 268.98 18.7891C268.746 19.2839 268.378 19.6908 267.877 20.0098C267.376 20.3223 266.728 20.4948 265.934 20.5273L265.221 21.2988ZM265.113 27.5H261.49L262.633 25.1367H265.113C265.497 25.1367 265.803 25.0553 266.031 24.8926C266.259 24.7298 266.425 24.5117 266.529 24.2383C266.64 23.9583 266.695 23.6393 266.695 23.2812C266.695 22.8776 266.646 22.526 266.549 22.2266C266.458 21.9271 266.305 21.6992 266.09 21.543C265.875 21.3802 265.585 21.2988 265.221 21.2988H262.76L262.779 19.2285H265.768L266.441 20.0488C267.203 20.0228 267.812 20.1693 268.268 20.4883C268.723 20.8008 269.049 21.2109 269.244 21.7188C269.446 22.2201 269.547 22.7539 269.547 23.3203C269.547 24.2318 269.374 25 269.029 25.625C268.691 26.2435 268.193 26.7122 267.535 27.0312C266.878 27.3438 266.07 27.5 265.113 27.5ZM279.537 25.1367V27.5H273.629V25.1367H279.537ZM274.508 13.2812V27.5H271.646V13.2812H274.508ZM289.371 25.1367V27.5H283.189V25.1367H289.371ZM284.078 13.2812V27.5H281.217V13.2812H284.078ZM288.541 19.043V21.3379H283.189V19.043H288.541ZM289.352 13.2812V15.6543H283.189V13.2812H289.352Z" fill="#3B2017"/>
</svg>
