<svg width="318" height="68" viewBox="0 0 318 68" fill="none" xmlns="http://www.w3.org/2000/svg">
<rect x="1" y="1" width="316" height="66" rx="9" fill="#FFE8BF"/>
<rect x="1" y="1" width="316" height="66" rx="9" stroke="#3B2017" stroke-width="2"/>
<path d="M83.665 40.2061L87.1348 43.3535L85.792 44.6426L82.3975 41.5381L83.665 40.2061ZM86.9199 32.8262V35.5332C86.9199 36.6432 86.7982 37.6172 86.5547 38.4551C86.3184 39.2858 85.971 39.9805 85.5127 40.5391C85.0544 41.0977 84.4993 41.5166 83.8477 41.7959C83.2031 42.0752 82.4762 42.2148 81.667 42.2148C80.8864 42.2148 80.1738 42.0752 79.5293 41.7959C78.8848 41.5166 78.3298 41.0977 77.8643 40.5391C77.3988 39.9805 77.0371 39.2858 76.7793 38.4551C76.5286 37.6172 76.4033 36.6432 76.4033 35.5332V32.8262C76.4033 31.7161 76.5286 30.7458 76.7793 29.915C77.0299 29.0843 77.388 28.3896 77.8535 27.8311C78.319 27.2653 78.874 26.8428 79.5186 26.5635C80.1631 26.2842 80.8757 26.1445 81.6562 26.1445C82.4655 26.1445 83.1924 26.2842 83.8369 26.5635C84.4886 26.8428 85.0436 27.2653 85.502 27.8311C85.9603 28.3896 86.3112 29.0843 86.5547 29.915C86.7982 30.7458 86.9199 31.7161 86.9199 32.8262ZM84.9648 35.5332V32.8047C84.9648 31.9453 84.8932 31.2077 84.75 30.5918C84.6068 29.9688 84.3919 29.4603 84.1055 29.0664C83.8262 28.6725 83.4824 28.3825 83.0742 28.1963C82.666 28.0029 82.1934 27.9062 81.6562 27.9062C81.1549 27.9062 80.7002 28.0029 80.292 28.1963C79.891 28.3825 79.5472 28.6725 79.2607 29.0664C78.9743 29.4603 78.7523 29.9688 78.5947 30.5918C78.4443 31.2077 78.3691 31.9453 78.3691 32.8047V35.5332C78.3691 36.3997 78.4443 37.1445 78.5947 37.7676C78.7523 38.3906 78.9743 38.9027 79.2607 39.3037C79.5544 39.6976 79.9017 39.9912 80.3027 40.1846C80.7109 40.3708 81.1657 40.4639 81.667 40.4639C82.2041 40.4639 82.6768 40.3708 83.085 40.1846C83.5003 39.9912 83.8477 39.6976 84.127 39.3037C84.4062 38.9027 84.6139 38.3906 84.75 37.7676C84.8932 37.1445 84.9648 36.3997 84.9648 35.5332ZM97.4258 26.3594H99.4023V37.3701C99.4023 38.5446 99.1768 39.4863 98.7256 40.1953C98.2744 40.9043 97.68 41.4199 96.9424 41.7422C96.2119 42.0573 95.4242 42.2148 94.5791 42.2148C93.6768 42.2148 92.8639 42.0573 92.1406 41.7422C91.4173 41.4199 90.8408 40.9043 90.4111 40.1953C89.9886 39.4863 89.7773 38.5446 89.7773 37.3701V26.3594H91.7432V37.3701C91.7432 38.1865 91.8577 38.8239 92.0869 39.2822C92.3232 39.7406 92.6527 40.0628 93.0752 40.249C93.5049 40.4352 94.0062 40.5283 94.5791 40.5283C95.1592 40.5283 95.6605 40.4352 96.083 40.249C96.5127 40.0628 96.8421 39.7406 97.0713 39.2822C97.3076 38.8239 97.4258 38.1865 97.4258 37.3701V26.3594ZM104.483 26.3594V42H102.507V26.3594H104.483ZM116.332 40.3135V42H109.543V40.3135H116.332ZM109.897 26.3594V42H107.921V26.3594H109.897ZM115.419 33.084V34.7705H109.543V33.084H115.419ZM116.225 26.3594V28.0566H109.543V26.3594H116.225ZM118.867 26.3594H123.239C124.256 26.3594 125.108 26.5384 125.796 26.8965C126.491 27.2546 127.013 27.7845 127.364 28.4863C127.722 29.181 127.901 30.0368 127.901 31.0537C127.901 31.7699 127.783 32.4251 127.547 33.0195C127.311 33.6068 126.967 34.1081 126.516 34.5234C126.064 34.9316 125.517 35.236 124.872 35.4365L124.335 35.6621H120.436L120.414 33.9756H123.218C123.819 33.9756 124.321 33.8467 124.722 33.5889C125.123 33.3239 125.424 32.9694 125.624 32.5254C125.825 32.0814 125.925 31.5908 125.925 31.0537C125.925 30.4521 125.835 29.9258 125.656 29.4746C125.477 29.0234 125.191 28.6761 124.797 28.4326C124.41 28.182 123.891 28.0566 123.239 28.0566H120.844V42H118.867V26.3594ZM126.376 42L123.261 34.9102L125.312 34.8994L128.492 41.8711V42H126.376ZM140.717 32.8262V35.5439C140.717 36.6468 140.595 37.6172 140.352 38.4551C140.115 39.2858 139.768 39.9805 139.31 40.5391C138.851 41.0977 138.3 41.5166 137.655 41.7959C137.011 42.0752 136.284 42.2148 135.475 42.2148C134.694 42.2148 133.981 42.0752 133.337 41.7959C132.692 41.5166 132.137 41.0977 131.672 40.5391C131.206 39.9805 130.845 39.2858 130.587 38.4551C130.336 37.6172 130.211 36.6468 130.211 35.5439V32.8262C130.211 31.7233 130.336 30.7565 130.587 29.9258C130.838 29.0879 131.196 28.3896 131.661 27.8311C132.127 27.2725 132.682 26.8535 133.326 26.5742C133.971 26.2878 134.683 26.1445 135.464 26.1445C136.273 26.1445 137 26.2878 137.645 26.5742C138.296 26.8535 138.848 27.2725 139.299 27.8311C139.757 28.3896 140.108 29.0879 140.352 29.9258C140.595 30.7565 140.717 31.7233 140.717 32.8262ZM138.762 35.5439V32.8047C138.762 31.9453 138.69 31.2077 138.547 30.5918C138.404 29.9688 138.192 29.4603 137.913 29.0664C137.634 28.6725 137.29 28.3825 136.882 28.1963C136.474 28.0029 136.001 27.9062 135.464 27.9062C134.955 27.9062 134.497 28.0029 134.089 28.1963C133.688 28.3825 133.344 28.6725 133.058 29.0664C132.771 29.4603 132.549 29.9688 132.392 30.5918C132.241 31.2077 132.166 31.9453 132.166 32.8047V35.5439C132.166 36.4105 132.241 37.1553 132.392 37.7783C132.549 38.3942 132.771 38.9027 133.058 39.3037C133.351 39.6976 133.702 39.9912 134.11 40.1846C134.519 40.3708 134.973 40.4639 135.475 40.4639C136.012 40.4639 136.484 40.3708 136.893 40.1846C137.308 39.9912 137.652 39.6976 137.924 39.3037C138.203 38.9027 138.411 38.3942 138.547 37.7783C138.69 37.1553 138.762 36.4105 138.762 35.5439ZM155.67 38.0469C155.67 37.6816 155.627 37.3594 155.541 37.0801C155.455 36.7936 155.305 36.5358 155.09 36.3066C154.875 36.0775 154.574 35.859 154.188 35.6514C153.801 35.4437 153.31 35.2324 152.716 35.0176C152.071 34.7884 151.488 34.5342 150.965 34.2549C150.442 33.9684 149.994 33.6426 149.622 33.2773C149.257 32.9121 148.974 32.4932 148.773 32.0205C148.573 31.5479 148.473 31.0072 148.473 30.3984C148.473 29.7897 148.576 29.2275 148.784 28.7119C148.999 28.1963 149.3 27.7487 149.687 27.3691C150.08 26.9824 150.553 26.6816 151.104 26.4668C151.656 26.252 152.272 26.1445 152.952 26.1445C153.969 26.1445 154.825 26.3701 155.52 26.8213C156.221 27.2653 156.751 27.849 157.109 28.5723C157.467 29.2884 157.646 30.0547 157.646 30.8711H155.67C155.67 30.2839 155.573 29.7646 155.38 29.3135C155.194 28.8551 154.9 28.4971 154.499 28.2393C154.105 27.9743 153.59 27.8418 152.952 27.8418C152.379 27.8418 151.907 27.9528 151.534 28.1748C151.169 28.3968 150.897 28.6976 150.718 29.0771C150.546 29.4567 150.46 29.89 150.46 30.377C150.46 30.7064 150.517 31.0072 150.632 31.2793C150.746 31.5443 150.922 31.7913 151.158 32.0205C151.402 32.2497 151.702 32.4609 152.061 32.6543C152.426 32.8477 152.855 33.0339 153.35 33.2129C154.116 33.4635 154.771 33.7428 155.315 34.0508C155.86 34.3587 156.304 34.7061 156.647 35.0928C156.991 35.4723 157.242 35.9056 157.399 36.3926C157.564 36.8724 157.646 37.4167 157.646 38.0254C157.646 38.6628 157.539 39.2393 157.324 39.7549C157.117 40.2705 156.812 40.7109 156.411 41.0762C156.01 41.4414 155.527 41.7243 154.961 41.9248C154.395 42.1182 153.758 42.2148 153.049 42.2148C152.433 42.2148 151.828 42.1146 151.233 41.9141C150.646 41.7135 150.113 41.4128 149.633 41.0117C149.153 40.6107 148.77 40.1165 148.483 39.5293C148.197 38.9349 148.054 38.2474 148.054 37.4668H150.03C150.03 38.0039 150.109 38.4658 150.267 38.8525C150.424 39.2321 150.643 39.5472 150.922 39.7979C151.201 40.0485 151.52 40.2347 151.878 40.3564C152.243 40.471 152.633 40.5283 153.049 40.5283C153.622 40.5283 154.102 40.4281 154.488 40.2275C154.882 40.027 155.176 39.7406 155.369 39.3682C155.57 38.9958 155.67 38.5553 155.67 38.0469ZM168.646 40.3135V42H161.857V40.3135H168.646ZM162.212 26.3594V42H160.235V26.3594H162.212ZM167.733 33.084V34.7705H161.857V33.084H167.733ZM168.539 26.3594V28.0566H161.857V26.3594H168.539ZM171.182 26.3594H175.554C176.571 26.3594 177.423 26.5384 178.11 26.8965C178.805 27.2546 179.328 27.7845 179.679 28.4863C180.037 29.181 180.216 30.0368 180.216 31.0537C180.216 31.7699 180.098 32.4251 179.861 33.0195C179.625 33.6068 179.281 34.1081 178.83 34.5234C178.379 34.9316 177.831 35.236 177.187 35.4365L176.649 35.6621H172.75L172.729 33.9756H175.532C176.134 33.9756 176.635 33.8467 177.036 33.5889C177.437 33.3239 177.738 32.9694 177.938 32.5254C178.139 32.0814 178.239 31.5908 178.239 31.0537C178.239 30.4521 178.15 29.9258 177.971 29.4746C177.792 29.0234 177.505 28.6761 177.111 28.4326C176.725 28.182 176.205 28.0566 175.554 28.0566H173.158V42H171.182V26.3594ZM178.69 42L175.575 34.9102L177.627 34.8994L180.807 41.8711V42H178.69ZM192.892 35.8662H189.476V34.1797H192.892C193.536 34.1797 194.055 34.0508 194.449 33.793C194.85 33.5352 195.14 33.1771 195.319 32.7188C195.506 32.2604 195.599 31.7376 195.599 31.1504C195.599 30.6133 195.506 30.1084 195.319 29.6357C195.14 29.1631 194.85 28.7835 194.449 28.4971C194.055 28.2035 193.536 28.0566 192.892 28.0566H189.884V42H187.907V26.3594H192.892C193.901 26.3594 194.754 26.5635 195.448 26.9717C196.143 27.3799 196.669 27.9456 197.027 28.6689C197.393 29.3851 197.575 30.2051 197.575 31.1289C197.575 32.1315 197.393 32.9873 197.027 33.6963C196.669 34.4053 196.143 34.946 195.448 35.3184C194.754 35.6836 193.901 35.8662 192.892 35.8662ZM203.698 27.7451L199.423 42H197.403L202.441 26.3594H203.709L203.698 27.7451ZM207.157 42L202.882 27.7451L202.86 26.3594H204.139L209.177 42H207.157ZM207.157 36.21V37.9072H199.616V36.21H207.157ZM211.336 26.3594H215.708C216.725 26.3594 217.577 26.5384 218.265 26.8965C218.959 27.2546 219.482 27.7845 219.833 28.4863C220.191 29.181 220.37 30.0368 220.37 31.0537C220.37 31.7699 220.252 32.4251 220.016 33.0195C219.779 33.6068 219.436 34.1081 218.984 34.5234C218.533 34.9316 217.985 35.236 217.341 35.4365L216.804 35.6621H212.904L212.883 33.9756H215.687C216.288 33.9756 216.789 33.8467 217.19 33.5889C217.591 33.3239 217.892 32.9694 218.093 32.5254C218.293 32.0814 218.394 31.5908 218.394 31.0537C218.394 30.4521 218.304 29.9258 218.125 29.4746C217.946 29.0234 217.66 28.6761 217.266 28.4326C216.879 28.182 216.36 28.0566 215.708 28.0566H213.312V42H211.336V26.3594ZM218.845 42L215.729 34.9102L217.781 34.8994L220.961 41.8711V42H218.845ZM227.181 26.3594V42H225.226V26.3594H227.181ZM231.295 26.3594V28.0566H221.122V26.3594H231.295ZM242.016 40.3135V42H235.227V40.3135H242.016ZM235.581 26.3594V42H233.604V26.3594H235.581ZM241.103 33.084V34.7705H235.227V33.084H241.103ZM241.908 26.3594V28.0566H235.227V26.3594H241.908Z" fill="#3B2017"/>
</svg>
