<svg width="392" height="216" viewBox="0 0 392 216" fill="none" xmlns="http://www.w3.org/2000/svg">
<rect x="1" y="1" width="390" height="214" rx="9" fill="#FFA872"/>
<rect x="1" y="1" width="390" height="214" rx="9" stroke="#3B2017" stroke-width="2"/>
<path d="M171 94.5H221V44.5H171V94.5Z" fill="black"/>
<path d="M155.244 126.886C155.244 126.606 155.219 126.352 155.169 126.123C155.119 125.894 155.011 125.683 154.847 125.489C154.689 125.296 154.456 125.103 154.148 124.909C153.848 124.716 153.454 124.515 152.967 124.308C152.387 124.064 151.825 123.806 151.28 123.534C150.736 123.255 150.245 122.933 149.809 122.567C149.372 122.202 149.024 121.772 148.767 121.278C148.516 120.777 148.391 120.19 148.391 119.517C148.391 118.858 148.509 118.26 148.745 117.723C148.989 117.186 149.332 116.727 149.776 116.348C150.22 115.961 150.74 115.664 151.334 115.456C151.936 115.248 152.605 115.145 153.343 115.145C154.345 115.145 155.212 115.352 155.942 115.768C156.68 116.183 157.249 116.752 157.65 117.476C158.059 118.199 158.263 119.03 158.263 119.968H155.126C155.126 119.524 155.062 119.133 154.933 118.797C154.811 118.453 154.614 118.185 154.342 117.991C154.07 117.798 153.719 117.701 153.289 117.701C152.888 117.701 152.555 117.784 152.29 117.948C152.032 118.106 151.839 118.324 151.71 118.604C151.588 118.876 151.527 119.184 151.527 119.527C151.527 119.785 151.588 120.018 151.71 120.226C151.839 120.426 152.014 120.609 152.236 120.773C152.458 120.931 152.72 121.085 153.021 121.235C153.328 121.386 153.665 121.533 154.03 121.676C154.739 121.955 155.366 122.263 155.91 122.6C156.454 122.929 156.909 123.301 157.274 123.717C157.64 124.125 157.915 124.587 158.102 125.103C158.288 125.618 158.381 126.205 158.381 126.864C158.381 127.516 158.266 128.11 158.037 128.647C157.815 129.177 157.489 129.636 157.06 130.022C156.63 130.402 156.111 130.696 155.502 130.903C154.9 131.111 154.227 131.215 153.482 131.215C152.759 131.215 152.075 131.115 151.431 130.914C150.786 130.706 150.217 130.395 149.723 129.979C149.236 129.557 148.853 129.023 148.573 128.379C148.294 127.727 148.154 126.957 148.154 126.069H151.302C151.302 126.542 151.348 126.947 151.441 127.283C151.535 127.613 151.678 127.878 151.871 128.078C152.064 128.271 152.301 128.418 152.58 128.519C152.867 128.612 153.192 128.658 153.558 128.658C153.973 128.658 154.302 128.579 154.546 128.422C154.797 128.264 154.976 128.053 155.083 127.788C155.19 127.523 155.244 127.222 155.244 126.886ZM163.773 115.359V131H160.647V115.359H163.773ZM176.814 124.179H173.603L173.592 121.901H176.32C176.75 121.901 177.101 121.83 177.373 121.687C177.652 121.536 177.856 121.318 177.985 121.031C178.121 120.738 178.189 120.383 178.189 119.968C178.189 119.488 178.125 119.105 177.996 118.818C177.874 118.525 177.677 118.31 177.405 118.174C177.14 118.038 176.789 117.97 176.353 117.97H174.677V131H171.529V115.359H176.353C177.126 115.359 177.821 115.445 178.437 115.617C179.052 115.789 179.575 116.054 180.005 116.412C180.435 116.763 180.764 117.207 180.993 117.744C181.222 118.274 181.337 118.904 181.337 119.635C181.337 120.279 181.208 120.874 180.95 121.418C180.692 121.962 180.288 122.41 179.736 122.761C179.185 123.104 178.472 123.294 177.599 123.33L176.814 124.179ZM176.696 131H172.711L173.968 128.4H176.696C177.119 128.4 177.455 128.311 177.706 128.132C177.957 127.953 178.139 127.713 178.254 127.412C178.376 127.104 178.437 126.753 178.437 126.359C178.437 125.915 178.383 125.529 178.275 125.199C178.175 124.87 178.007 124.619 177.771 124.447C177.534 124.268 177.215 124.179 176.814 124.179H174.107L174.129 121.901H177.416L178.157 122.804C178.995 122.775 179.665 122.936 180.166 123.287C180.667 123.631 181.025 124.082 181.24 124.641C181.462 125.192 181.573 125.779 181.573 126.402C181.573 127.405 181.383 128.25 181.004 128.938C180.632 129.618 180.084 130.133 179.36 130.484C178.637 130.828 177.749 131 176.696 131ZM190.908 115.359H194.045V126.102C194.045 127.305 193.823 128.286 193.379 129.045C192.942 129.797 192.337 130.348 191.563 130.699C190.79 131.043 189.906 131.215 188.91 131.215C187.908 131.215 187.016 131.043 186.235 130.699C185.455 130.348 184.846 129.797 184.409 129.045C183.979 128.286 183.765 127.305 183.765 126.102V115.359H186.901V126.102C186.901 126.782 186.977 127.305 187.127 127.67C187.285 128.035 187.51 128.286 187.804 128.422C188.104 128.551 188.473 128.615 188.91 128.615C189.354 128.615 189.719 128.551 190.006 128.422C190.299 128.286 190.521 128.035 190.672 127.67C190.829 127.305 190.908 126.782 190.908 126.102V115.359ZM203.068 126.886C203.068 126.606 203.043 126.352 202.993 126.123C202.943 125.894 202.836 125.683 202.671 125.489C202.513 125.296 202.281 125.103 201.973 124.909C201.672 124.716 201.278 124.515 200.791 124.308C200.211 124.064 199.649 123.806 199.104 123.534C198.56 123.255 198.07 122.933 197.633 122.567C197.196 122.202 196.849 121.772 196.591 121.278C196.34 120.777 196.215 120.19 196.215 119.517C196.215 118.858 196.333 118.26 196.569 117.723C196.813 117.186 197.157 116.727 197.601 116.348C198.045 115.961 198.564 115.664 199.158 115.456C199.76 115.248 200.429 115.145 201.167 115.145C202.17 115.145 203.036 115.352 203.767 115.768C204.504 116.183 205.074 116.752 205.475 117.476C205.883 118.199 206.087 119.03 206.087 119.968H202.95C202.95 119.524 202.886 119.133 202.757 118.797C202.635 118.453 202.438 118.185 202.166 117.991C201.894 117.798 201.543 117.701 201.113 117.701C200.712 117.701 200.379 117.784 200.114 117.948C199.856 118.106 199.663 118.324 199.534 118.604C199.412 118.876 199.352 119.184 199.352 119.527C199.352 119.785 199.412 120.018 199.534 120.226C199.663 120.426 199.839 120.609 200.061 120.773C200.283 120.931 200.544 121.085 200.845 121.235C201.153 121.386 201.489 121.533 201.854 121.676C202.563 121.955 203.19 122.263 203.734 122.6C204.279 122.929 204.733 123.301 205.099 123.717C205.464 124.125 205.74 124.587 205.926 125.103C206.112 125.618 206.205 126.205 206.205 126.864C206.205 127.516 206.09 128.11 205.861 128.647C205.639 129.177 205.313 129.636 204.884 130.022C204.454 130.402 203.935 130.696 203.326 130.903C202.725 131.111 202.051 131.215 201.307 131.215C200.583 131.215 199.899 131.115 199.255 130.914C198.61 130.706 198.041 130.395 197.547 129.979C197.06 129.557 196.677 129.023 196.397 128.379C196.118 127.727 195.979 126.957 195.979 126.069H199.126C199.126 126.542 199.173 126.947 199.266 127.283C199.359 127.613 199.502 127.878 199.695 128.078C199.889 128.271 200.125 128.418 200.404 128.519C200.691 128.612 201.017 128.658 201.382 128.658C201.797 128.658 202.127 128.579 202.37 128.422C202.621 128.264 202.8 128.053 202.907 127.788C203.015 127.523 203.068 127.222 203.068 126.886ZM215.787 125.79H218.913C218.87 126.965 218.634 127.956 218.204 128.766C217.774 129.568 217.162 130.176 216.367 130.592C215.579 131.007 214.627 131.215 213.51 131.215C212.643 131.215 211.873 131.072 211.2 130.785C210.527 130.492 209.954 130.062 209.481 129.496C209.009 128.93 208.651 128.232 208.407 127.401C208.171 126.563 208.053 125.6 208.053 124.512V121.858C208.053 120.77 208.178 119.807 208.429 118.969C208.687 118.131 209.052 117.429 209.524 116.863C210.004 116.29 210.581 115.861 211.254 115.574C211.934 115.281 212.701 115.134 213.553 115.134C214.691 115.134 215.644 115.349 216.41 115.778C217.176 116.201 217.767 116.824 218.183 117.647C218.605 118.471 218.859 119.474 218.945 120.655H215.809C215.787 119.91 215.701 119.327 215.551 118.904C215.408 118.475 215.178 118.174 214.863 118.002C214.548 117.823 214.111 117.733 213.553 117.733C213.137 117.733 212.779 117.809 212.479 117.959C212.178 118.102 211.931 118.335 211.737 118.657C211.544 118.979 211.401 119.402 211.308 119.925C211.222 120.448 211.179 121.085 211.179 121.837V124.512C211.179 125.249 211.218 125.88 211.297 126.402C211.376 126.918 211.501 127.34 211.673 127.67C211.845 127.999 212.077 128.239 212.371 128.39C212.672 128.54 213.051 128.615 213.51 128.615C214.04 128.615 214.466 128.536 214.788 128.379C215.118 128.221 215.361 127.938 215.519 127.53C215.676 127.122 215.766 126.542 215.787 125.79ZM226.54 118.152L223.178 131H219.858L224.746 115.359H226.819L226.54 118.152ZM229.193 131L225.81 118.152L225.498 115.359H227.604L232.534 131H229.193ZM229.312 125.167V127.777H222.254V125.167H229.312ZM240.645 126.886C240.645 126.606 240.619 126.352 240.569 126.123C240.519 125.894 240.412 125.683 240.247 125.489C240.09 125.296 239.857 125.103 239.549 124.909C239.248 124.716 238.854 124.515 238.367 124.308C237.787 124.064 237.225 123.806 236.681 123.534C236.136 123.255 235.646 122.933 235.209 122.567C234.772 122.202 234.425 121.772 234.167 121.278C233.916 120.777 233.791 120.19 233.791 119.517C233.791 118.858 233.909 118.26 234.146 117.723C234.389 117.186 234.733 116.727 235.177 116.348C235.621 115.961 236.14 115.664 236.734 115.456C237.336 115.248 238.006 115.145 238.743 115.145C239.746 115.145 240.612 115.352 241.343 115.768C242.08 116.183 242.65 116.752 243.051 117.476C243.459 118.199 243.663 119.03 243.663 119.968H240.526C240.526 119.524 240.462 119.133 240.333 118.797C240.211 118.453 240.014 118.185 239.742 117.991C239.47 117.798 239.119 117.701 238.689 117.701C238.288 117.701 237.955 117.784 237.69 117.948C237.433 118.106 237.239 118.324 237.11 118.604C236.989 118.876 236.928 119.184 236.928 119.527C236.928 119.785 236.989 120.018 237.11 120.226C237.239 120.426 237.415 120.609 237.637 120.773C237.859 120.931 238.12 121.085 238.421 121.235C238.729 121.386 239.065 121.533 239.431 121.676C240.14 121.955 240.766 122.263 241.311 122.6C241.855 122.929 242.31 123.301 242.675 123.717C243.04 124.125 243.316 124.587 243.502 125.103C243.688 125.618 243.781 126.205 243.781 126.864C243.781 127.516 243.667 128.11 243.438 128.647C243.215 129.177 242.89 129.636 242.46 130.022C242.03 130.402 241.511 130.696 240.902 130.903C240.301 131.111 239.628 131.215 238.883 131.215C238.16 131.215 237.476 131.115 236.831 130.914C236.187 130.706 235.617 130.395 235.123 129.979C234.636 129.557 234.253 129.023 233.974 128.379C233.694 127.727 233.555 126.957 233.555 126.069H236.702C236.702 126.542 236.749 126.947 236.842 127.283C236.935 127.613 237.078 127.878 237.271 128.078C237.465 128.271 237.701 128.418 237.98 128.519C238.267 128.612 238.593 128.658 238.958 128.658C239.373 128.658 239.703 128.579 239.946 128.422C240.197 128.264 240.376 128.053 240.483 127.788C240.591 127.523 240.645 127.222 240.645 126.886ZM153.697 141.359H158.714C159.759 141.359 160.651 141.538 161.389 141.896C162.126 142.255 162.692 142.785 163.086 143.486C163.48 144.188 163.677 145.055 163.677 146.086C163.677 146.931 163.562 147.654 163.333 148.256C163.104 148.85 162.778 149.348 162.355 149.749C161.933 150.143 161.428 150.458 160.841 150.694L159.885 151.264H155.813L155.803 148.653H158.628C159.058 148.653 159.412 148.56 159.691 148.374C159.978 148.181 160.189 147.912 160.325 147.568C160.468 147.217 160.54 146.809 160.54 146.344C160.54 145.85 160.476 145.427 160.347 145.076C160.225 144.718 160.028 144.446 159.756 144.26C159.491 144.066 159.144 143.97 158.714 143.97H156.845V157H153.697V141.359ZM160.798 157L157.93 150.028L161.228 150.018L164.16 156.85V157H160.798ZM174.838 154.4V157H168.038V154.4H174.838ZM169.016 141.359V157H165.868V141.359H169.016ZM173.925 147.697V150.222H168.038V147.697H173.925ZM174.816 141.359V143.97H168.038V141.359H174.816ZM180.757 157H177.996L178.018 154.4H180.757C181.516 154.4 182.107 154.264 182.529 153.992C182.952 153.72 183.249 153.29 183.421 152.703C183.6 152.116 183.689 151.346 183.689 150.394V147.955C183.689 147.232 183.643 146.619 183.55 146.118C183.457 145.61 183.299 145.201 183.077 144.894C182.855 144.578 182.558 144.346 182.186 144.195C181.813 144.045 181.351 143.97 180.8 143.97H177.942V141.359H180.8C181.702 141.359 182.522 141.506 183.26 141.8C183.997 142.093 184.631 142.523 185.161 143.089C185.691 143.647 186.099 144.339 186.386 145.162C186.672 145.986 186.815 146.924 186.815 147.977V150.394C186.815 151.453 186.672 152.392 186.386 153.208C186.099 154.024 185.691 154.715 185.161 155.281C184.638 155.84 184.005 156.266 183.26 156.56C182.515 156.853 181.681 157 180.757 157ZM179.822 141.359V157H176.675V141.359H179.822ZM194.195 141.359H199.212C200.257 141.359 201.149 141.538 201.887 141.896C202.624 142.255 203.19 142.785 203.584 143.486C203.978 144.188 204.175 145.055 204.175 146.086C204.175 146.931 204.06 147.654 203.831 148.256C203.602 148.85 203.276 149.348 202.854 149.749C202.431 150.143 201.926 150.458 201.339 150.694L200.383 151.264H196.312L196.301 148.653H199.126C199.556 148.653 199.91 148.56 200.189 148.374C200.476 148.181 200.687 147.912 200.823 147.568C200.966 147.217 201.038 146.809 201.038 146.344C201.038 145.85 200.974 145.427 200.845 145.076C200.723 144.718 200.526 144.446 200.254 144.26C199.989 144.066 199.642 143.97 199.212 143.97H197.343V157H194.195V141.359ZM201.296 157L198.428 150.028L201.726 150.018L204.658 156.85V157H201.296ZM215.336 154.4V157H208.536V154.4H215.336ZM209.514 141.359V157H206.366V141.359H209.514ZM214.423 147.697V150.222H208.536V147.697H214.423ZM215.314 141.359V143.97H208.536V141.359H215.314ZM222.834 144.152L219.472 157H216.152L221.04 141.359H223.113L222.834 144.152ZM225.487 157L222.104 144.152L221.792 141.359H223.897L228.828 157H225.487ZM225.605 151.167V153.777H218.548V151.167H225.605ZM239.001 154.4V157H232.502V154.4H239.001ZM233.469 141.359V157H230.321V141.359H233.469Z" fill="#3B2017"/>
</svg>
