<svg width="318" height="68" viewBox="0 0 318 68" fill="none" xmlns="http://www.w3.org/2000/svg">
<rect x="1" y="1" width="316" height="66" rx="9" fill="#FFE8BF"/>
<rect x="1" y="1" width="316" height="66" rx="9" stroke="#3B2017" stroke-width="2"/>
<path d="M67.5518 39.626L71.3115 26.3594H73.46L68.6045 42H67.0898L67.5518 39.626ZM64.1787 26.3594L67.9062 39.626L68.4004 42H66.8857L62.0303 26.3594H64.1787ZM83.998 40.3135V42H77.209V40.3135H83.998ZM77.5635 26.3594V42H75.5869V26.3594H77.5635ZM83.085 33.084V34.7705H77.209V33.084H83.085ZM83.8906 26.3594V28.0566H77.209V26.3594H83.8906ZM86.5332 26.3594H90.9053C91.9222 26.3594 92.7744 26.5384 93.4619 26.8965C94.1566 27.2546 94.6794 27.7845 95.0303 28.4863C95.3883 29.181 95.5674 30.0368 95.5674 31.0537C95.5674 31.7699 95.4492 32.4251 95.2129 33.0195C94.9766 33.6068 94.6328 34.1081 94.1816 34.5234C93.7305 34.9316 93.1826 35.236 92.5381 35.4365L92.001 35.6621H88.1016L88.0801 33.9756H90.8838C91.4854 33.9756 91.9867 33.8467 92.3877 33.5889C92.7887 33.3239 93.0895 32.9694 93.29 32.5254C93.4906 32.0814 93.5908 31.5908 93.5908 31.0537C93.5908 30.4521 93.5013 29.9258 93.3223 29.4746C93.1432 29.0234 92.8568 28.6761 92.4629 28.4326C92.0762 28.182 91.557 28.0566 90.9053 28.0566H88.5098V42H86.5332V26.3594ZM94.042 42L90.9268 34.9102L92.9785 34.8994L96.1582 41.8711V42H94.042ZM106.804 42H104.14L104.161 40.3135H106.804C107.742 40.3135 108.505 40.1344 109.092 39.7764C109.679 39.4111 110.112 38.874 110.392 38.165C110.671 37.4489 110.811 36.5645 110.811 35.5117V32.8369C110.811 32.0062 110.732 31.29 110.574 30.6885C110.417 30.0869 110.18 29.5928 109.865 29.2061C109.55 28.8193 109.153 28.5329 108.673 28.3467C108.193 28.1533 107.631 28.0566 106.986 28.0566H104.086V26.3594H106.986C107.867 26.3594 108.662 26.499 109.371 26.7783C110.08 27.0505 110.689 27.4622 111.197 28.0137C111.706 28.5579 112.092 29.2347 112.357 30.0439C112.63 30.8532 112.766 31.7913 112.766 32.8584V35.5117C112.766 36.5788 112.63 37.5169 112.357 38.3262C112.092 39.1354 111.702 39.8122 111.187 40.3564C110.671 40.9007 110.044 41.3125 109.307 41.5918C108.576 41.8639 107.742 42 106.804 42ZM105.235 26.3594V42H103.259V26.3594H105.235ZM124.238 40.3135V42H117.449V40.3135H124.238ZM117.804 26.3594V42H115.827V26.3594H117.804ZM123.325 33.084V34.7705H117.449V33.084H123.325ZM124.131 26.3594V28.0566H117.449V26.3594H124.131ZM138.644 40.2061L142.113 43.3535L140.771 44.6426L137.376 41.5381L138.644 40.2061ZM141.898 32.8262V35.5332C141.898 36.6432 141.777 37.6172 141.533 38.4551C141.297 39.2858 140.95 39.9805 140.491 40.5391C140.033 41.0977 139.478 41.5166 138.826 41.7959C138.182 42.0752 137.455 42.2148 136.646 42.2148C135.865 42.2148 135.152 42.0752 134.508 41.7959C133.863 41.5166 133.308 41.0977 132.843 40.5391C132.377 39.9805 132.016 39.2858 131.758 38.4551C131.507 37.6172 131.382 36.6432 131.382 35.5332V32.8262C131.382 31.7161 131.507 30.7458 131.758 29.915C132.008 29.0843 132.367 28.3896 132.832 27.8311C133.298 27.2653 133.853 26.8428 134.497 26.5635C135.142 26.2842 135.854 26.1445 136.635 26.1445C137.444 26.1445 138.171 26.2842 138.815 26.5635C139.467 26.8428 140.022 27.2653 140.48 27.8311C140.939 28.3896 141.29 29.0843 141.533 29.915C141.777 30.7458 141.898 31.7161 141.898 32.8262ZM139.943 35.5332V32.8047C139.943 31.9453 139.872 31.2077 139.729 30.5918C139.585 29.9688 139.37 29.4603 139.084 29.0664C138.805 28.6725 138.461 28.3825 138.053 28.1963C137.645 28.0029 137.172 27.9062 136.635 27.9062C136.133 27.9062 135.679 28.0029 135.271 28.1963C134.869 28.3825 134.526 28.6725 134.239 29.0664C133.953 29.4603 133.731 29.9688 133.573 30.5918C133.423 31.2077 133.348 31.9453 133.348 32.8047V35.5332C133.348 36.3997 133.423 37.1445 133.573 37.7676C133.731 38.3906 133.953 38.9027 134.239 39.3037C134.533 39.6976 134.88 39.9912 135.281 40.1846C135.689 40.3708 136.144 40.4639 136.646 40.4639C137.183 40.4639 137.655 40.3708 138.063 40.1846C138.479 39.9912 138.826 39.6976 139.105 39.3037C139.385 38.9027 139.592 38.3906 139.729 37.7676C139.872 37.1445 139.943 36.3997 139.943 35.5332ZM152.404 26.3594H154.381V37.3701C154.381 38.5446 154.155 39.4863 153.704 40.1953C153.253 40.9043 152.659 41.4199 151.921 41.7422C151.19 42.0573 150.403 42.2148 149.558 42.2148C148.655 42.2148 147.842 42.0573 147.119 41.7422C146.396 41.4199 145.819 40.9043 145.39 40.1953C144.967 39.4863 144.756 38.5446 144.756 37.3701V26.3594H146.722V37.3701C146.722 38.1865 146.836 38.8239 147.065 39.2822C147.302 39.7406 147.631 40.0628 148.054 40.249C148.483 40.4352 148.985 40.5283 149.558 40.5283C150.138 40.5283 150.639 40.4352 151.062 40.249C151.491 40.0628 151.821 39.7406 152.05 39.2822C152.286 38.8239 152.404 38.1865 152.404 37.3701V26.3594ZM165.811 40.3135V42H159.021V40.3135H165.811ZM159.376 26.3594V42H157.399V26.3594H159.376ZM164.897 33.084V34.7705H159.021V33.084H164.897ZM165.703 26.3594V28.0566H159.021V26.3594H165.703ZM160.418 25.1992L162.502 22.041H164.897L162.019 25.1992H160.418ZM180.227 38.0469C180.227 37.6816 180.184 37.3594 180.098 37.0801C180.012 36.7936 179.861 36.5358 179.646 36.3066C179.432 36.0775 179.131 35.859 178.744 35.6514C178.357 35.4437 177.867 35.2324 177.272 35.0176C176.628 34.7884 176.044 34.5342 175.521 34.2549C174.999 33.9684 174.551 33.6426 174.179 33.2773C173.813 32.9121 173.531 32.4932 173.33 32.0205C173.13 31.5479 173.029 31.0072 173.029 30.3984C173.029 29.7897 173.133 29.2275 173.341 28.7119C173.556 28.1963 173.856 27.7487 174.243 27.3691C174.637 26.9824 175.11 26.6816 175.661 26.4668C176.213 26.252 176.828 26.1445 177.509 26.1445C178.526 26.1445 179.382 26.3701 180.076 26.8213C180.778 27.2653 181.308 27.849 181.666 28.5723C182.024 29.2884 182.203 30.0547 182.203 30.8711H180.227C180.227 30.2839 180.13 29.7646 179.937 29.3135C179.75 28.8551 179.457 28.4971 179.056 28.2393C178.662 27.9743 178.146 27.8418 177.509 27.8418C176.936 27.8418 176.463 27.9528 176.091 28.1748C175.726 28.3968 175.453 28.6976 175.274 29.0771C175.103 29.4567 175.017 29.89 175.017 30.377C175.017 30.7064 175.074 31.0072 175.188 31.2793C175.303 31.5443 175.479 31.7913 175.715 32.0205C175.958 32.2497 176.259 32.4609 176.617 32.6543C176.982 32.8477 177.412 33.0339 177.906 33.2129C178.673 33.4635 179.328 33.7428 179.872 34.0508C180.416 34.3587 180.86 34.7061 181.204 35.0928C181.548 35.4723 181.799 35.9056 181.956 36.3926C182.121 36.8724 182.203 37.4167 182.203 38.0254C182.203 38.6628 182.096 39.2393 181.881 39.7549C181.673 40.2705 181.369 40.7109 180.968 41.0762C180.567 41.4414 180.083 41.7243 179.518 41.9248C178.952 42.1182 178.314 42.2148 177.605 42.2148C176.99 42.2148 176.384 42.1146 175.79 41.9141C175.203 41.7135 174.669 41.4128 174.189 41.0117C173.71 40.6107 173.326 40.1165 173.04 39.5293C172.754 38.9349 172.61 38.2474 172.61 37.4668H174.587C174.587 38.0039 174.666 38.4658 174.823 38.8525C174.981 39.2321 175.199 39.5472 175.479 39.7979C175.758 40.0485 176.076 40.2347 176.435 40.3564C176.8 40.471 177.19 40.5283 177.605 40.5283C178.178 40.5283 178.658 40.4281 179.045 40.2275C179.439 40.027 179.732 39.7406 179.926 39.3682C180.126 38.9958 180.227 38.5553 180.227 38.0469ZM193.203 40.3135V42H186.414V40.3135H193.203ZM186.769 26.3594V42H184.792V26.3594H186.769ZM192.29 33.084V34.7705H186.414V33.084H192.29ZM193.096 26.3594V28.0566H186.414V26.3594H193.096ZM205.374 26.3594V42H203.419V26.3594H205.374ZM209.488 26.3594V28.0566H199.315V26.3594H209.488ZM211.809 26.3594H216.181C217.198 26.3594 218.05 26.5384 218.737 26.8965C219.432 27.2546 219.955 27.7845 220.306 28.4863C220.664 29.181 220.843 30.0368 220.843 31.0537C220.843 31.7699 220.725 32.4251 220.488 33.0195C220.252 33.6068 219.908 34.1081 219.457 34.5234C219.006 34.9316 218.458 35.236 217.813 35.4365L217.276 35.6621H213.377L213.355 33.9756H216.159C216.761 33.9756 217.262 33.8467 217.663 33.5889C218.064 33.3239 218.365 32.9694 218.565 32.5254C218.766 32.0814 218.866 31.5908 218.866 31.0537C218.866 30.4521 218.777 29.9258 218.598 29.4746C218.419 29.0234 218.132 28.6761 217.738 28.4326C217.352 28.182 216.832 28.0566 216.181 28.0566H213.785V42H211.809V26.3594ZM219.317 42L216.202 34.9102L218.254 34.8994L221.434 41.8711V42H219.317ZM228.556 27.7451L224.28 42H222.261L227.299 26.3594H228.566L228.556 27.7451ZM232.015 42L227.739 27.7451L227.718 26.3594H228.996L234.034 42H232.015ZM232.015 36.21V37.9072H224.474V36.21H232.015ZM239.835 26.3594V42H237.88V26.3594H239.835ZM243.949 26.3594V28.0566H233.776V26.3594H243.949ZM250.491 27.7451L246.216 42H244.196L249.234 26.3594H250.502L250.491 27.7451ZM253.95 42L249.675 27.7451L249.653 26.3594H250.932L255.97 42H253.95ZM253.95 36.21V37.9072H246.409V36.21H253.95Z" fill="#3B2017"/>
</svg>
