<svg width="143" height="78" viewBox="0 0 143 78" fill="none" xmlns="http://www.w3.org/2000/svg">
<path d="M71.1254 40.362C81.2126 40.362 89.3898 32.1596 89.3898 22.0415C89.3898 11.9233 81.2126 3.72095 71.1254 3.72095C61.0382 3.72095 52.861 11.9233 52.861 22.0415C52.861 32.1596 61.0382 40.362 71.1254 40.362Z" stroke="#3B2017" stroke-width="3" stroke-linecap="round" stroke-linejoin="round"/>
<path d="M106.157 72.4848C106.157 73.4584 105.764 74.3366 105.129 74.9793C104.489 75.6156 103.613 76.0102 102.642 76.0102L39.6083 76.0102C37.6607 76.0102 36.0874 74.432 36.0874 72.4848C36.0874 67.5085 37.2166 62.7995 39.234 58.5932C40.8073 55.3033 42.9199 52.3252 45.4639 49.7734C47.8873 47.3426 50.704 45.2935 53.8062 43.7408C58.1075 41.5836 62.967 40.3682 68.1057 40.3682L74.1452 40.3682C79.2838 40.3682 84.1433 41.5836 88.4446 43.7472C94.7949 46.9289 99.9399 52.1661 103.01 58.5933C105.028 62.7995 106.157 67.5085 106.157 72.4848Z" stroke="#3B2017" stroke-width="3" stroke-linecap="round" stroke-linejoin="round"/>
<path d="M113.072 30.4412C121.04 30.4412 127.499 23.9625 127.499 15.9706C127.499 7.97872 121.04 1.5 113.072 1.5C105.105 1.5 98.6459 7.97871 98.6459 15.9706C98.6459 23.9625 105.105 30.4412 113.072 30.4412Z" stroke="#3B2017" stroke-width="3" stroke-linecap="round" stroke-linejoin="round"/>
<path d="M140.745 55.8063C140.745 56.5763 140.434 57.2699 139.933 57.779C139.432 58.2817 138.734 58.5935 137.966 58.5935L103.011 58.5935C99.9401 52.1664 94.7951 46.9292 88.4447 43.7475C89.612 41.5839 91.0838 39.6048 92.8094 37.874C97.3834 33.2859 103.702 30.4478 110.687 30.4478L115.458 30.4478C129.427 30.4478 140.745 41.8003 140.745 55.8063Z" stroke="#3B2017" stroke-width="3" stroke-linecap="round" stroke-linejoin="round"/>
<path d="M29.1726 30.4412C37.14 30.4412 43.5989 23.9625 43.5989 15.9706C43.5989 7.97872 37.14 1.5 29.1726 1.5C21.2052 1.5 14.7463 7.97871 14.7463 15.9706C14.7463 23.9625 21.2051 30.4412 29.1726 30.4412Z" stroke="#3B2017" stroke-width="3" stroke-linecap="round" stroke-linejoin="round"/>
<path d="M53.8064 43.7411C50.7042 45.2938 47.8875 47.3429 45.464 49.7737C42.9201 52.3255 40.8075 55.3036 39.2342 58.5935L4.27868 58.5935C2.74342 58.5935 1.5 57.3463 1.5 55.8063C1.5 48.8065 4.32943 42.4621 8.90981 37.874C13.4839 33.2859 19.8088 30.4478 26.7873 30.4478L31.558 30.4478C41.1691 30.4478 49.5306 35.8249 53.8064 43.7411Z" stroke="#3B2017" stroke-width="3" stroke-linecap="round" stroke-linejoin="round"/>
</svg>
