<svg width="1440" height="320" viewBox="0 0 1440 320" fill="none" xmlns="http://www.w3.org/2000/svg">
<rect width="1440" height="320" fill="#FDFAF1"/>
<path d="M128.944 158.621C128.944 132.595 107.885 111.5 81.9043 111.5V158.621H128.944Z" fill="#E8BDEF"/>
<path d="M81.9043 111.5C107.885 111.5 128.944 90.4053 128.944 64.3794H81.9043V111.5Z" fill="#E8BDEF"/>
<path d="M175.993 111.5C150.012 111.5 128.953 132.595 128.953 158.621H175.993V111.5Z" fill="#E8BDEF"/>
<path d="M128.944 64.3794V111.5H175.984C175.984 85.4743 154.925 64.3794 128.944 64.3794Z" fill="#E59BF0"/>
<path d="M207.422 79.8989H218.472C227.157 79.8989 232.215 85.5654 232.215 92.93C232.215 101.566 226.151 106.833 218.4 106.833H207.422V79.908V79.8989ZM211.22 103.673H217.629C224.746 103.673 228.181 99.2049 228.181 93.039C228.181 86.8731 224.165 83.0682 217.929 83.0409H211.22V103.673Z" fill="#3B2017"/>
<path d="M264.959 93.2839C264.959 100.894 259.819 107.396 250.808 107.396C241.797 107.396 236.739 101.166 236.739 93.2658C236.739 85.7922 242.287 79.3266 250.917 79.3266C259.547 79.3266 264.959 85.8104 264.959 93.2749V93.2839ZM240.755 93.1659C240.755 98.9595 244.281 104.199 250.935 104.199C257.589 104.199 260.934 99.1956 260.934 93.3566C260.934 87.5176 257.426 82.5231 250.699 82.5231C244.435 82.5231 240.755 87.4812 240.755 93.1659ZM259.33 71.7168L251.833 76.9837H248.043L254.443 71.7168H259.33Z" fill="#3B2017"/>
<path d="M270.987 106.833V79.9077H275.529C281.576 88.3439 290.215 99.4044 291.738 102.174H291.81C291.575 98.6689 291.611 94.419 291.611 90.0511V79.9168H295.165V106.842H290.868C286.87 101.466 276.336 86.9454 274.414 83.8125H274.342C274.541 87.2814 274.541 91.0954 274.541 95.8538V106.842H270.987V106.833Z" fill="#3B2017"/>
<path d="M303.033 79.8989H314.084C322.768 79.8989 327.827 85.5654 327.827 92.93C327.827 101.566 321.762 106.833 314.011 106.833H303.033V79.908V79.8989ZM306.832 103.673H313.241C320.357 103.673 323.793 99.2049 323.793 93.039C323.793 86.8731 319.777 83.0682 313.54 83.0409H306.832V103.673Z" fill="#3B2017"/>
<path d="M353.753 94.2919H337.635V103.618H355.421L354.914 106.833H333.837V79.9077H354.605V83.1224H337.635V91.0863H353.753V94.3009V94.2919Z" fill="#3B2017"/>
<path d="M378.683 83.1314H368.439V79.9077H392.752V83.1314H382.517V106.833H378.692V83.1314H378.683Z" fill="#3B2017"/>
<path d="M417.165 94.2919H401.047V103.618H418.833L418.325 106.833H397.248V79.9077H418.017V83.1224H401.047V91.0863H417.165V94.3009V94.2919Z" fill="#3B2017"/>
<path d="M435.268 79.8989H446.319C455.003 79.8989 460.062 85.5654 460.062 92.93C460.062 101.566 453.997 106.833 446.246 106.833H435.268V79.908V79.8989ZM439.066 103.673H445.476C452.592 103.673 456.028 99.2049 456.028 93.039C456.028 86.8731 452.012 83.0682 445.775 83.0409H439.066V103.673Z" fill="#3B2017"/>
<path d="M469.707 79.8987V95.2001C469.707 102.256 473.85 104.199 477.929 104.199C482.852 104.199 485.825 101.865 485.825 95.2001V79.8987H489.623V95.1546C489.623 103.909 485.055 107.387 477.793 107.387C470.532 107.387 465.918 103.836 465.918 95.4452V79.8896H469.716L469.707 79.8987Z" fill="#3B2017"/>
<path d="M517.127 94.2919H501.009V103.618H518.795L518.288 106.833H497.211V79.9077H517.98V83.1224H501.009V91.0863H517.127V94.3009V94.2919Z" fill="#3B2017"/>
<path d="M524.334 79.8989H528.105V103.591H544.314L543.743 106.833H524.334V79.908V79.8989Z" fill="#3B2017"/>
<path d="M568.428 94.2919H552.31V103.618H570.096L569.588 106.833H548.511V79.9077H569.28V83.1224H552.31V91.0863H568.428V94.3009V94.2919Z" fill="#3B2017"/>
<path d="M207.422 118.111H211.193V141.803H227.402L226.831 145.045H207.422V118.12V118.111Z" fill="#3B2017"/>
<path d="M237.346 136.882L233.874 145.036H229.913L241.471 118.111H246.076L258.097 145.036H253.963L250.346 136.882H237.346ZM249.113 133.649C245.831 126.211 244.281 122.697 243.665 120.863H243.629C243.076 122.625 241.235 127.238 238.534 133.649H249.113Z" fill="#3B2017"/>
<path d="M281.947 145.045L270.199 118.12H274.369L280.479 132.486C282.736 137.808 283.634 140.241 284.141 141.749H284.214C284.631 140.441 285.845 137.571 287.649 133.104L294.113 118.12H298.174L286.235 145.045H281.947Z" fill="#3B2017"/>
<path d="M306.115 118.111V145.036H302.317V118.111H306.115Z" fill="#3B2017"/>
<path d="M313.966 118.111H325.016C333.701 118.111 338.759 123.778 338.759 131.142C338.759 139.778 332.695 145.045 324.944 145.045H313.966V118.12V118.111ZM317.764 141.885H324.173C331.29 141.885 334.725 137.417 334.725 131.251C334.725 125.085 330.709 121.281 324.473 121.253H317.764V141.885Z" fill="#3B2017"/>
<path d="M348.586 136.882L345.114 145.036H341.153L352.711 118.111H357.316L369.336 145.036H365.203L361.586 136.882H348.586ZM360.353 133.649C357.071 126.211 355.521 122.697 354.905 120.863H354.868C354.315 122.625 352.475 127.238 349.774 133.649H360.353Z" fill="#3B2017"/>
<path d="M384.756 118.111H388.555V128.999H404.736V118.111H408.535V145.036H404.736V132.223H388.555V145.036H384.756V118.111Z" fill="#3B2017"/>
<path d="M442.974 131.496C442.974 139.106 437.834 145.608 428.823 145.608C419.812 145.608 414.753 139.379 414.753 131.478C414.753 124.005 420.301 117.539 428.931 117.539C437.562 117.539 442.974 124.023 442.974 131.487V131.496ZM418.769 131.378C418.769 137.172 422.296 142.412 428.95 142.412C435.604 142.412 438.949 137.408 438.949 131.569C438.949 125.73 435.44 120.736 428.714 120.736C422.45 120.736 418.769 125.694 418.769 131.378Z" fill="#3B2017"/>
<path d="M455.647 145.045V134.793C455.647 134.521 455.556 134.357 455.384 134.112L444.125 118.111H448.658C451.794 122.724 456.454 129.217 457.696 131.46C459.028 129.199 463.525 122.715 466.688 118.111H470.913L459.636 134.212C459.509 134.412 459.454 134.539 459.454 134.857V145.045H455.647Z" fill="#3B2017"/>
<g clip-path="url(#clip0_23_96)">
<path d="M1221.38 80.4998C1221.38 82.6431 1219.64 84.3807 1217.5 84.3807C1215.36 84.3807 1213.62 82.6431 1213.62 80.4998C1213.62 78.3566 1215.35 76.6162 1217.5 76.6162C1219.65 76.6162 1221.38 78.3538 1221.38 80.4998Z" fill="#3B2017"/>
<path d="M1226.98 75.7916C1226.93 74.657 1226.74 74.0403 1226.58 73.6292C1226.37 73.0865 1226.12 72.6973 1225.71 72.289C1225.3 71.8833 1224.91 71.6312 1224.37 71.4174C1223.96 71.2584 1223.34 71.0693 1222.21 71.0172C1220.98 70.9624 1220.61 70.9487 1217.5 70.9487C1214.39 70.9487 1214.02 70.9624 1212.79 71.0172C1211.66 71.0693 1211.04 71.2584 1210.63 71.4174C1210.09 71.6312 1209.7 71.8833 1209.29 72.289C1208.89 72.6946 1208.63 73.0865 1208.42 73.6292C1208.26 74.0403 1208.07 74.657 1208.02 75.7916C1207.96 77.0195 1207.95 77.3895 1207.95 80.5002C1207.95 83.611 1207.96 83.9782 1208.02 85.2061C1208.07 86.3407 1208.26 86.9574 1208.42 87.3685C1208.63 87.9112 1208.88 88.3004 1209.29 88.7087C1209.7 89.1171 1210.09 89.3692 1210.63 89.5803C1211.04 89.7392 1211.66 89.9284 1212.79 89.9804C1214.02 90.0352 1214.39 90.049 1217.5 90.049C1220.61 90.049 1220.98 90.0352 1222.21 89.9804C1223.34 89.9284 1223.96 89.7392 1224.37 89.5803C1224.91 89.3692 1225.3 89.1171 1225.71 88.7087C1226.12 88.3004 1226.37 87.9112 1226.58 87.3685C1226.74 86.9574 1226.93 86.3407 1226.98 85.2061C1227.04 83.9782 1227.05 83.6082 1227.05 80.5002C1227.05 77.3922 1227.04 77.0195 1226.98 75.7916ZM1217.5 86.4805C1214.2 86.4805 1211.52 83.8028 1211.52 80.5002C1211.52 77.1976 1214.2 74.5172 1217.5 74.5172C1220.8 74.5172 1223.48 77.1949 1223.48 80.5002C1223.48 83.8055 1220.8 86.4805 1217.5 86.4805ZM1223.72 75.6792C1222.95 75.6792 1222.32 75.0544 1222.32 74.2815C1222.32 73.5086 1222.95 72.8837 1223.72 72.8837C1224.49 72.8837 1225.12 73.5086 1225.12 74.2815C1225.12 75.0544 1224.49 75.6792 1223.72 75.6792Z" fill="#3B2017"/>
<path d="M1217.5 62C1207.28 62 1199 70.2825 1199 80.5C1199 90.7175 1207.28 99 1217.5 99C1227.72 99 1236 90.7175 1236 80.5C1236 70.2825 1227.72 62 1217.5 62ZM1229.08 85.3018C1229.02 86.5406 1228.82 87.3875 1228.54 88.1302C1228.24 88.8949 1227.84 89.5444 1227.19 90.1913C1226.54 90.8408 1225.89 91.2382 1225.13 91.5342C1224.39 91.8247 1223.54 92.0193 1222.3 92.0769C1221.06 92.1344 1220.66 92.1481 1217.5 92.1481C1214.34 92.1481 1213.94 92.1344 1212.7 92.0769C1211.46 92.0193 1210.61 91.8247 1209.87 91.5342C1209.1 91.2382 1208.45 90.8408 1207.81 90.1913C1207.16 89.5444 1206.76 88.8949 1206.46 88.1302C1206.18 87.3875 1205.98 86.5406 1205.92 85.3018C1205.87 84.0602 1205.85 83.6628 1205.85 80.5C1205.85 77.3372 1205.87 76.9398 1205.92 75.6955C1205.98 74.4567 1206.18 73.6098 1206.46 72.8698C1206.76 72.1024 1207.16 71.4528 1207.81 70.806C1208.45 70.1592 1209.1 69.759 1209.87 69.463C1210.61 69.1753 1211.46 68.9779 1212.7 68.9204C1213.94 68.8628 1214.34 68.8519 1217.5 68.8519C1220.66 68.8519 1221.06 68.8628 1222.3 68.9204C1223.54 68.9779 1224.39 69.1753 1225.13 69.463C1225.89 69.759 1226.54 70.1592 1227.19 70.806C1227.84 71.4528 1228.24 72.1024 1228.54 72.8698C1228.82 73.6098 1229.02 74.4567 1229.08 75.6955C1229.13 76.9398 1229.15 77.3344 1229.15 80.5C1229.15 83.6656 1229.13 84.0602 1229.08 85.3018Z" fill="#3B2017"/>
</g>
<g clip-path="url(#clip1_23_96)">
<path d="M1298 80.6131C1298 89.903 1291.24 97.602 1282.39 99V85.9929H1286.7L1287.52 80.6131H1282.39V77.1193C1282.39 75.6496 1283.11 74.2129 1285.41 74.2129H1287.74V69.6327C1287.74 69.6327 1285.62 69.2687 1283.6 69.2687C1279.37 69.2687 1276.61 71.847 1276.61 76.5099V80.6131H1271.91V85.9929H1276.61V99C1267.76 97.602 1261 89.903 1261 80.6131C1261 70.3331 1269.28 62 1279.5 62C1289.72 62 1298 70.3331 1298 80.6131Z" fill="#3B2017"/>
</g>
<g clip-path="url(#clip2_23_96)">
<path d="M1341.5 62C1331.28 62 1323 70.2825 1323 80.5C1323 90.7175 1331.28 99 1341.5 99C1351.72 99 1360 90.7175 1360 80.5C1360 70.2825 1351.72 62 1341.5 62ZM1351.67 78.3814C1350.98 78.3841 1350.3 78.291 1349.63 78.1375C1348.48 77.8716 1347.41 77.403 1346.42 76.7561C1346.37 76.7205 1346.32 76.6493 1346.26 76.6739C1346.19 76.7068 1346.23 76.7945 1346.23 76.8603C1346.23 79.5133 1346.24 82.1664 1346.22 84.8194C1346.21 86.6749 1345.62 88.333 1344.41 89.7473C1343.12 91.2492 1341.48 92.1207 1339.51 92.3619C1337.99 92.5483 1336.56 92.2715 1335.19 91.5973C1334.97 91.4876 1334.76 91.3616 1334.56 91.2136C1334.5 91.1587 1334.44 91.1039 1334.38 91.0464H1334.37C1334.23 90.9833 1334.11 90.8764 1333.98 90.7778C1332.77 89.8103 1331.9 88.5934 1331.43 87.1079C1331.27 86.5927 1331.17 86.0637 1331.12 85.5238C1331.08 85.1319 1331.07 84.7399 1331.1 84.3507C1331.16 83.4518 1331.37 82.5857 1331.74 81.7635C1332.13 80.9056 1332.66 80.141 1333.34 79.4832C1334.12 78.713 1335.03 78.1375 1336.06 77.7675C1336.71 77.5318 1337.38 77.392 1338.07 77.3399C1338.56 77.3043 1339.06 77.3153 1339.56 77.3756C1339.62 77.3838 1339.66 77.3975 1339.66 77.477C1339.66 77.751 1339.66 78.0251 1339.66 78.3019C1339.66 78.3074 1339.69 80.3959 1339.69 81.3524C1339.69 81.3853 1339.69 81.4209 1339.69 81.4538C1339.69 81.5497 1339.64 81.5826 1339.55 81.5552C1339.29 81.4812 1339.02 81.4483 1338.75 81.4319C1338.33 81.4099 1337.92 81.4702 1337.52 81.6155C1336.21 82.1006 1335.41 83.0407 1335.24 84.4275C1335.08 85.7951 1335.62 86.8887 1336.76 87.678C1336.85 87.7438 1336.95 87.8041 1337.04 87.8781C1337.06 87.8973 1337.08 87.9192 1337.1 87.9384C1337.37 88.0425 1337.63 88.1494 1337.91 88.2042C1338.8 88.3796 1339.64 88.2453 1340.42 87.7657C1341.31 87.2148 1341.84 86.409 1342.03 85.3785C1342.06 85.1839 1342.07 84.9839 1342.07 84.7865C1342.06 79.4585 1342.06 74.1305 1342.07 68.8025C1342.07 68.5531 1342.03 68.5833 1342.28 68.5833H1346.05C1346.18 68.586 1346.18 68.586 1346.18 68.7121C1346.18 68.9971 1346.3 69.6659 1346.31 69.7179C1346.84 72.4121 1349.98 74.0593 1350.94 74.2073C1351.21 74.2456 1351.48 74.2785 1351.75 74.2758C1351.86 74.2758 1351.87 74.2785 1351.87 74.3854C1351.87 74.6376 1351.91 77.2139 1351.91 78.1567C1351.91 78.3704 1351.88 78.3814 1351.67 78.3814Z" fill="#3B2017"/>
</g>
<rect x="77.25" y="217.25" width="1282.5" height="0.5" stroke="#3B2017" stroke-width="0.5"/>
<path d="M82.264 255.168C81.5453 255.168 80.8827 255.047 80.276 254.804C79.6693 254.552 79.142 254.207 78.694 253.768C78.2553 253.32 77.91 252.793 77.658 252.186C77.4153 251.579 77.294 250.917 77.294 250.198C77.294 249.479 77.4153 248.817 77.658 248.21C77.91 247.603 78.2553 247.081 78.694 246.642C79.142 246.194 79.6693 245.849 80.276 245.606C80.8827 245.354 81.5453 245.228 82.264 245.228C82.9827 245.228 83.6453 245.354 84.252 245.606C84.8587 245.849 85.3813 246.194 85.82 246.642C86.268 247.081 86.6133 247.603 86.856 248.21C87.108 248.817 87.234 249.479 87.234 250.198C87.234 250.917 87.108 251.579 86.856 252.186C86.6133 252.793 86.268 253.32 85.82 253.768C85.3813 254.207 84.8587 254.552 84.252 254.804C83.6453 255.047 82.9827 255.168 82.264 255.168ZM82.222 253.166C81.7273 253.166 81.298 253.068 80.934 252.872C80.5793 252.676 80.3087 252.363 80.122 251.934C79.9353 251.495 79.842 250.921 79.842 250.212C79.842 249.503 79.9307 248.933 80.108 248.504C80.2947 248.075 80.5653 247.762 80.92 247.566C81.284 247.361 81.718 247.258 82.222 247.258C82.6793 247.258 83.0713 247.337 83.398 247.496C83.7247 247.645 83.9767 247.888 84.154 248.224C84.3313 248.56 84.42 249.003 84.42 249.554H83.58C83.58 249.162 83.524 248.854 83.412 248.63C83.3093 248.397 83.1553 248.233 82.95 248.14C82.754 248.037 82.5113 247.986 82.222 247.986C81.7367 247.986 81.3587 248.154 81.088 248.49C80.8173 248.817 80.682 249.335 80.682 250.044V250.38C80.682 250.856 80.7427 251.248 80.864 251.556C80.9853 251.864 81.158 252.088 81.382 252.228C81.6153 252.368 81.8953 252.438 82.222 252.438C82.5113 252.438 82.7587 252.387 82.964 252.284C83.1787 252.172 83.342 252.004 83.454 251.78C83.566 251.547 83.622 251.248 83.622 250.884H84.42C84.42 251.369 84.3313 251.78 84.154 252.116C83.9767 252.452 83.7247 252.713 83.398 252.9C83.0807 253.077 82.6887 253.166 82.222 253.166ZM82.264 254.524C83.0947 254.524 83.832 254.337 84.476 253.964C85.12 253.591 85.624 253.077 85.988 252.424C86.3613 251.771 86.548 251.029 86.548 250.198C86.548 249.367 86.3613 248.63 85.988 247.986C85.624 247.333 85.12 246.819 84.476 246.446C83.832 246.073 83.0947 245.886 82.264 245.886C81.4333 245.886 80.6913 246.073 80.038 246.446C79.394 246.819 78.8853 247.333 78.512 247.986C78.148 248.63 77.966 249.367 77.966 250.198C77.966 251.029 78.148 251.771 78.512 252.424C78.8853 253.077 79.394 253.591 80.038 253.964C80.6913 254.337 81.4333 254.524 82.264 254.524ZM91.1531 255V254.594C91.1531 254.202 91.2278 253.843 91.3771 253.516C91.5358 253.18 91.7411 252.877 91.9931 252.606C92.2545 252.326 92.5485 252.06 92.8751 251.808C93.2018 251.556 93.5331 251.309 93.8691 251.066C94.3265 250.749 94.7465 250.431 95.1291 250.114C95.5211 249.797 95.8338 249.456 96.0671 249.092C96.3005 248.719 96.4171 248.303 96.4171 247.846C96.4171 247.557 96.3471 247.295 96.2071 247.062C96.0765 246.819 95.8758 246.628 95.6051 246.488C95.3345 246.348 94.9891 246.278 94.5691 246.278C94.0745 246.278 93.6778 246.362 93.3791 246.53C93.0805 246.698 92.8611 246.922 92.7211 247.202C92.5905 247.482 92.5251 247.79 92.5251 248.126V248.7H91.3071C91.2978 248.653 91.2885 248.583 91.2791 248.49C91.2698 248.387 91.2651 248.271 91.2651 248.14C91.2651 247.449 91.4191 246.894 91.7271 246.474C92.0351 246.045 92.4458 245.732 92.9591 245.536C93.4725 245.331 94.0278 245.228 94.6251 245.228C95.1571 245.228 95.6145 245.303 95.9971 245.452C96.3798 245.592 96.6971 245.788 96.9491 246.04C97.2011 246.292 97.3878 246.581 97.5091 246.908C97.6305 247.225 97.6911 247.561 97.6911 247.916C97.6911 248.355 97.6118 248.756 97.4531 249.12C97.3038 249.484 97.0891 249.825 96.8091 250.142C96.5385 250.45 96.2165 250.749 95.8431 251.038C95.4791 251.327 95.0825 251.621 94.6531 251.92C94.3545 252.116 94.0605 252.326 93.7711 252.55C93.4818 252.765 93.2345 252.984 93.0291 253.208C92.8238 253.432 92.6931 253.647 92.6371 253.852H97.7471V255H91.1531ZM102.414 255.168C101.892 255.168 101.425 255.093 101.014 254.944C100.604 254.785 100.254 254.519 99.9645 254.146C99.6752 253.763 99.4558 253.255 99.3065 252.62C99.1572 251.976 99.0825 251.169 99.0825 250.198C99.0825 249.227 99.1572 248.425 99.3065 247.79C99.4558 247.146 99.6752 246.637 99.9645 246.264C100.254 245.881 100.604 245.615 101.014 245.466C101.425 245.307 101.892 245.228 102.414 245.228C102.937 245.228 103.399 245.307 103.8 245.466C104.211 245.615 104.561 245.881 104.85 246.264C105.14 246.637 105.359 247.146 105.508 247.79C105.658 248.425 105.732 249.227 105.732 250.198C105.732 251.169 105.658 251.976 105.508 252.62C105.359 253.255 105.14 253.763 104.85 254.146C104.561 254.519 104.211 254.785 103.8 254.944C103.399 255.093 102.937 255.168 102.414 255.168ZM102.414 254.132C102.946 254.132 103.357 253.997 103.646 253.726C103.945 253.455 104.15 253.054 104.262 252.522C104.384 251.99 104.444 251.327 104.444 250.534V249.89C104.444 249.087 104.384 248.42 104.262 247.888C104.15 247.347 103.945 246.941 103.646 246.67C103.357 246.399 102.946 246.264 102.414 246.264C101.882 246.264 101.467 246.399 101.168 246.67C100.87 246.941 100.66 247.342 100.538 247.874C100.426 248.406 100.37 249.073 100.37 249.876V250.506C100.37 251.299 100.426 251.967 100.538 252.508C100.66 253.049 100.87 253.455 101.168 253.726C101.467 253.997 101.882 254.132 102.414 254.132ZM107.122 255V254.594C107.122 254.202 107.197 253.843 107.346 253.516C107.505 253.18 107.71 252.877 107.962 252.606C108.223 252.326 108.517 252.06 108.844 251.808C109.171 251.556 109.502 251.309 109.838 251.066C110.295 250.749 110.715 250.431 111.098 250.114C111.49 249.797 111.803 249.456 112.036 249.092C112.269 248.719 112.386 248.303 112.386 247.846C112.386 247.557 112.316 247.295 112.176 247.062C112.045 246.819 111.845 246.628 111.574 246.488C111.303 246.348 110.958 246.278 110.538 246.278C110.043 246.278 109.647 246.362 109.348 246.53C109.049 246.698 108.83 246.922 108.69 247.202C108.559 247.482 108.494 247.79 108.494 248.126V248.7H107.276C107.267 248.653 107.257 248.583 107.248 248.49C107.239 248.387 107.234 248.271 107.234 248.14C107.234 247.449 107.388 246.894 107.696 246.474C108.004 246.045 108.415 245.732 108.928 245.536C109.441 245.331 109.997 245.228 110.594 245.228C111.126 245.228 111.583 245.303 111.966 245.452C112.349 245.592 112.666 245.788 112.918 246.04C113.17 246.292 113.357 246.581 113.478 246.908C113.599 247.225 113.66 247.561 113.66 247.916C113.66 248.355 113.581 248.756 113.422 249.12C113.273 249.484 113.058 249.825 112.778 250.142C112.507 250.45 112.185 250.749 111.812 251.038C111.448 251.327 111.051 251.621 110.622 251.92C110.323 252.116 110.029 252.326 109.74 252.55C109.451 252.765 109.203 252.984 108.998 253.208C108.793 253.432 108.662 253.647 108.606 253.852H113.716V255H107.122ZM118.565 255.168C118.015 255.168 117.52 255.089 117.081 254.93C116.652 254.771 116.283 254.515 115.975 254.16C115.677 253.805 115.448 253.329 115.289 252.732C115.131 252.125 115.051 251.374 115.051 250.478C115.051 249.489 115.131 248.663 115.289 248C115.448 247.328 115.672 246.791 115.961 246.39C116.26 245.979 116.624 245.685 117.053 245.508C117.492 245.321 117.987 245.228 118.537 245.228C119.228 245.228 119.783 245.359 120.203 245.62C120.633 245.881 120.945 246.236 121.141 246.684C121.337 247.123 121.435 247.627 121.435 248.196H120.175C120.175 247.767 120.115 247.407 119.993 247.118C119.872 246.829 119.681 246.614 119.419 246.474C119.167 246.334 118.85 246.264 118.467 246.264C117.907 246.264 117.469 246.413 117.151 246.712C116.843 247.001 116.629 247.426 116.507 247.986C116.395 248.546 116.335 249.213 116.325 249.988C116.456 249.773 116.638 249.577 116.871 249.4C117.114 249.223 117.399 249.083 117.725 248.98C118.052 248.868 118.397 248.812 118.761 248.812C119.452 248.812 120.021 248.952 120.469 249.232C120.917 249.503 121.249 249.876 121.463 250.352C121.678 250.828 121.785 251.36 121.785 251.948C121.785 252.592 121.645 253.157 121.365 253.642C121.085 254.127 120.703 254.505 120.217 254.776C119.732 255.037 119.181 255.168 118.565 255.168ZM118.481 254.132C118.939 254.132 119.317 254.034 119.615 253.838C119.914 253.633 120.133 253.367 120.273 253.04C120.423 252.704 120.497 252.335 120.497 251.934C120.497 251.551 120.427 251.201 120.287 250.884C120.147 250.567 119.928 250.315 119.629 250.128C119.34 249.932 118.967 249.834 118.509 249.834C118.052 249.834 117.669 249.932 117.361 250.128C117.053 250.324 116.825 250.585 116.675 250.912C116.526 251.229 116.451 251.593 116.451 252.004C116.451 252.387 116.526 252.741 116.675 253.068C116.825 253.395 117.049 253.656 117.347 253.852C117.646 254.039 118.024 254.132 118.481 254.132ZM126.52 255V245.396H130.104C131.112 245.396 131.971 245.564 132.68 245.9C133.39 246.236 133.931 246.759 134.304 247.468C134.687 248.168 134.878 249.078 134.878 250.198C134.878 251.299 134.687 252.205 134.304 252.914C133.931 253.623 133.39 254.151 132.68 254.496C131.971 254.832 131.112 255 130.104 255H126.52ZM127.85 253.852H130.076C130.608 253.852 131.084 253.787 131.504 253.656C131.924 253.516 132.284 253.306 132.582 253.026C132.881 252.746 133.105 252.387 133.254 251.948C133.413 251.5 133.492 250.968 133.492 250.352V250.072C133.492 249.437 133.413 248.901 133.254 248.462C133.105 248.014 132.881 247.65 132.582 247.37C132.293 247.09 131.938 246.885 131.518 246.754C131.098 246.614 130.618 246.544 130.076 246.544H127.85V253.852ZM139.588 255.168C138.841 255.168 138.211 255.033 137.698 254.762C137.194 254.482 136.806 254.057 136.536 253.488C136.274 252.919 136.144 252.195 136.144 251.318C136.144 250.431 136.274 249.708 136.536 249.148C136.806 248.579 137.194 248.159 137.698 247.888C138.211 247.608 138.841 247.468 139.588 247.468C140.334 247.468 140.96 247.608 141.464 247.888C141.977 248.159 142.364 248.579 142.626 249.148C142.887 249.708 143.018 250.431 143.018 251.318C143.018 252.195 142.887 252.919 142.626 253.488C142.364 254.057 141.977 254.482 141.464 254.762C140.96 255.033 140.334 255.168 139.588 255.168ZM139.588 254.132C140.064 254.132 140.46 254.039 140.778 253.852C141.095 253.665 141.333 253.376 141.492 252.984C141.66 252.583 141.744 252.079 141.744 251.472V251.164C141.744 250.548 141.66 250.044 141.492 249.652C141.333 249.26 141.095 248.971 140.778 248.784C140.46 248.597 140.064 248.504 139.588 248.504C139.112 248.504 138.71 248.597 138.384 248.784C138.066 248.971 137.828 249.26 137.67 249.652C137.511 250.044 137.432 250.548 137.432 251.164V251.472C137.432 252.079 137.511 252.583 137.67 252.984C137.828 253.376 138.066 253.665 138.384 253.852C138.71 254.039 139.112 254.132 139.588 254.132ZM138.86 246.726L140.064 244.878H141.464L141.478 244.92L139.924 246.726H138.86ZM144.548 255V247.636H145.542L145.654 248.742H145.752C145.948 248.443 146.167 248.201 146.41 248.014C146.662 247.827 146.937 247.692 147.236 247.608C147.544 247.515 147.871 247.468 148.216 247.468C148.683 247.468 149.089 247.547 149.434 247.706C149.789 247.865 150.064 248.121 150.26 248.476C150.465 248.831 150.568 249.311 150.568 249.918V255H149.336V250.086C149.336 249.778 149.294 249.526 149.21 249.33C149.135 249.134 149.028 248.98 148.888 248.868C148.757 248.756 148.594 248.677 148.398 248.63C148.211 248.583 148.001 248.56 147.768 248.56C147.423 248.56 147.096 248.644 146.788 248.812C146.48 248.98 146.233 249.223 146.046 249.54C145.869 249.857 145.78 250.235 145.78 250.674V255H144.548ZM154.943 255.168C154.336 255.168 153.813 255.033 153.375 254.762C152.945 254.491 152.609 254.071 152.367 253.502C152.133 252.923 152.017 252.177 152.017 251.262C152.017 250.394 152.138 249.68 152.381 249.12C152.623 248.56 152.959 248.145 153.389 247.874C153.818 247.603 154.317 247.468 154.887 247.468C155.213 247.468 155.517 247.505 155.797 247.58C156.077 247.655 156.324 247.771 156.539 247.93C156.763 248.089 156.959 248.299 157.127 248.56H157.211V244.878H158.443V255H157.449L157.337 253.95H157.239C156.987 254.361 156.66 254.669 156.259 254.874C155.857 255.07 155.419 255.168 154.943 255.168ZM155.237 254.09C155.703 254.09 156.081 253.987 156.371 253.782C156.66 253.577 156.87 253.278 157.001 252.886C157.141 252.494 157.211 252.009 157.211 251.43V251.206C157.211 250.702 157.159 250.277 157.057 249.932C156.954 249.587 156.814 249.311 156.637 249.106C156.459 248.901 156.254 248.756 156.021 248.672C155.787 248.588 155.54 248.546 155.279 248.546C154.821 248.546 154.448 248.639 154.159 248.826C153.869 249.003 153.655 249.288 153.515 249.68C153.375 250.063 153.305 250.562 153.305 251.178V251.472C153.305 252.107 153.379 252.62 153.529 253.012C153.678 253.395 153.893 253.67 154.173 253.838C154.462 254.006 154.817 254.09 155.237 254.09ZM163.32 255.168C162.592 255.168 161.976 255.033 161.472 254.762C160.977 254.482 160.599 254.057 160.338 253.488C160.086 252.919 159.96 252.195 159.96 251.318C159.96 250.431 160.086 249.708 160.338 249.148C160.599 248.579 160.982 248.159 161.486 247.888C161.99 247.608 162.62 247.468 163.376 247.468C164.067 247.468 164.645 247.603 165.112 247.874C165.579 248.135 165.929 248.532 166.162 249.064C166.405 249.587 166.526 250.245 166.526 251.038V251.626H161.234C161.253 252.214 161.337 252.699 161.486 253.082C161.645 253.455 161.878 253.731 162.186 253.908C162.494 254.076 162.881 254.16 163.348 254.16C163.665 254.16 163.941 254.123 164.174 254.048C164.417 253.964 164.617 253.847 164.776 253.698C164.944 253.549 165.07 253.371 165.154 253.166C165.238 252.961 165.285 252.737 165.294 252.494H166.498C166.489 252.886 166.414 253.25 166.274 253.586C166.134 253.913 165.929 254.193 165.658 254.426C165.387 254.659 165.056 254.841 164.664 254.972C164.272 255.103 163.824 255.168 163.32 255.168ZM161.262 250.702H165.252C165.252 250.291 165.205 249.946 165.112 249.666C165.019 249.386 164.883 249.157 164.706 248.98C164.538 248.803 164.337 248.677 164.104 248.602C163.88 248.518 163.623 248.476 163.334 248.476C162.905 248.476 162.541 248.555 162.242 248.714C161.943 248.873 161.715 249.115 161.556 249.442C161.397 249.769 161.299 250.189 161.262 250.702ZM172.698 255.168C172.315 255.168 172.016 255.098 171.802 254.958C171.587 254.809 171.433 254.617 171.34 254.384C171.246 254.141 171.2 253.885 171.2 253.614V248.672H170.248V247.636H171.228L171.452 245.578H172.432V247.636H173.818V248.672H172.432V253.432C172.432 253.665 172.474 253.843 172.558 253.964C172.642 254.076 172.8 254.132 173.034 254.132H173.818V254.944C173.724 254.991 173.612 255.028 173.482 255.056C173.351 255.084 173.216 255.107 173.076 255.126C172.945 255.154 172.819 255.168 172.698 255.168ZM178.072 255.168C177.344 255.168 176.728 255.033 176.224 254.762C175.729 254.482 175.351 254.057 175.09 253.488C174.838 252.919 174.712 252.195 174.712 251.318C174.712 250.431 174.838 249.708 175.09 249.148C175.351 248.579 175.734 248.159 176.238 247.888C176.742 247.608 177.372 247.468 178.128 247.468C178.819 247.468 179.397 247.603 179.864 247.874C180.331 248.135 180.681 248.532 180.914 249.064C181.157 249.587 181.278 250.245 181.278 251.038V251.626H175.986C176.005 252.214 176.089 252.699 176.238 253.082C176.397 253.455 176.63 253.731 176.938 253.908C177.246 254.076 177.633 254.16 178.1 254.16C178.417 254.16 178.693 254.123 178.926 254.048C179.169 253.964 179.369 253.847 179.528 253.698C179.696 253.549 179.822 253.371 179.906 253.166C179.99 252.961 180.037 252.737 180.046 252.494H181.25C181.241 252.886 181.166 253.25 181.026 253.586C180.886 253.913 180.681 254.193 180.41 254.426C180.139 254.659 179.808 254.841 179.416 254.972C179.024 255.103 178.576 255.168 178.072 255.168ZM176.014 250.702H180.004C180.004 250.291 179.957 249.946 179.864 249.666C179.771 249.386 179.635 249.157 179.458 248.98C179.29 248.803 179.089 248.677 178.856 248.602C178.632 248.518 178.375 248.476 178.086 248.476C177.657 248.476 177.293 248.555 176.994 248.714C176.695 248.873 176.467 249.115 176.308 249.442C176.149 249.769 176.051 250.189 176.014 250.702ZM188.234 255.168C187.627 255.168 187.104 255.033 186.666 254.762C186.236 254.491 185.9 254.071 185.658 253.502C185.424 252.923 185.308 252.177 185.308 251.262C185.308 250.394 185.429 249.68 185.672 249.12C185.914 248.56 186.25 248.145 186.68 247.874C187.109 247.603 187.608 247.468 188.178 247.468C188.504 247.468 188.808 247.505 189.088 247.58C189.368 247.655 189.615 247.771 189.83 247.93C190.054 248.089 190.25 248.299 190.418 248.56H190.502V244.878H191.734V255H190.74L190.628 253.95H190.53C190.278 254.361 189.951 254.669 189.55 254.874C189.148 255.07 188.71 255.168 188.234 255.168ZM188.528 254.09C188.994 254.09 189.372 253.987 189.662 253.782C189.951 253.577 190.161 253.278 190.292 252.886C190.432 252.494 190.502 252.009 190.502 251.43V251.206C190.502 250.702 190.45 250.277 190.348 249.932C190.245 249.587 190.105 249.311 189.928 249.106C189.75 248.901 189.545 248.756 189.312 248.672C189.078 248.588 188.831 248.546 188.57 248.546C188.112 248.546 187.739 248.639 187.45 248.826C187.16 249.003 186.946 249.288 186.806 249.68C186.666 250.063 186.596 250.562 186.596 251.178V251.472C186.596 252.107 186.67 252.62 186.82 253.012C186.969 253.395 187.184 253.67 187.464 253.838C187.753 254.006 188.108 254.09 188.528 254.09ZM195.953 255.168C195.244 255.168 194.674 254.986 194.245 254.622C193.816 254.258 193.601 253.623 193.601 252.718V247.636H194.833V252.55C194.833 252.858 194.87 253.11 194.945 253.306C195.02 253.502 195.127 253.656 195.267 253.768C195.407 253.88 195.57 253.959 195.757 254.006C195.953 254.053 196.163 254.076 196.387 254.076C196.742 254.076 197.068 253.992 197.367 253.824C197.666 253.656 197.908 253.413 198.095 253.096C198.291 252.769 198.389 252.391 198.389 251.962V247.636H199.621V255H198.627L198.515 253.894H198.417C198.221 254.193 197.997 254.435 197.745 254.622C197.502 254.809 197.227 254.944 196.919 255.028C196.62 255.121 196.298 255.168 195.953 255.168ZM204.472 255.168C203.744 255.168 203.128 255.033 202.624 254.762C202.13 254.482 201.752 254.057 201.49 253.488C201.238 252.919 201.112 252.195 201.112 251.318C201.112 250.431 201.238 249.708 201.49 249.148C201.752 248.579 202.134 248.159 202.638 247.888C203.142 247.608 203.772 247.468 204.528 247.468C205.219 247.468 205.798 247.603 206.264 247.874C206.731 248.135 207.081 248.532 207.314 249.064C207.557 249.587 207.678 250.245 207.678 251.038V251.626H202.386C202.405 252.214 202.489 252.699 202.638 253.082C202.797 253.455 203.03 253.731 203.338 253.908C203.646 254.076 204.034 254.16 204.5 254.16C204.818 254.16 205.093 254.123 205.326 254.048C205.569 253.964 205.77 253.847 205.928 253.698C206.096 253.549 206.222 253.371 206.306 253.166C206.39 252.961 206.437 252.737 206.446 252.494H207.65C207.641 252.886 207.566 253.25 207.426 253.586C207.286 253.913 207.081 254.193 206.81 254.426C206.54 254.659 206.208 254.841 205.816 254.972C205.424 255.103 204.976 255.168 204.472 255.168ZM202.414 250.702H206.404C206.404 250.291 206.358 249.946 206.264 249.666C206.171 249.386 206.036 249.157 205.858 248.98C205.69 248.803 205.49 248.677 205.256 248.602C205.032 248.518 204.776 248.476 204.486 248.476C204.057 248.476 203.693 248.555 203.394 248.714C203.096 248.873 202.867 249.115 202.708 249.442C202.55 249.769 202.452 250.189 202.414 250.702ZM209.202 255V244.878H210.434V255H209.202ZM215.287 255.168C214.559 255.168 213.943 255.033 213.439 254.762C212.944 254.482 212.566 254.057 212.305 253.488C212.053 252.919 211.927 252.195 211.927 251.318C211.927 250.431 212.053 249.708 212.305 249.148C212.566 248.579 212.949 248.159 213.453 247.888C213.957 247.608 214.587 247.468 215.343 247.468C216.034 247.468 216.612 247.603 217.079 247.874C217.546 248.135 217.896 248.532 218.129 249.064C218.372 249.587 218.493 250.245 218.493 251.038V251.626H213.201C213.22 252.214 213.304 252.699 213.453 253.082C213.612 253.455 213.845 253.731 214.153 253.908C214.461 254.076 214.848 254.16 215.315 254.16C215.632 254.16 215.908 254.123 216.141 254.048C216.384 253.964 216.584 253.847 216.743 253.698C216.911 253.549 217.037 253.371 217.121 253.166C217.205 252.961 217.252 252.737 217.261 252.494H218.465C218.456 252.886 218.381 253.25 218.241 253.586C218.101 253.913 217.896 254.193 217.625 254.426C217.354 254.659 217.023 254.841 216.631 254.972C216.239 255.103 215.791 255.168 215.287 255.168ZM213.229 250.702H217.219C217.219 250.291 217.172 249.946 217.079 249.666C216.986 249.386 216.85 249.157 216.673 248.98C216.505 248.803 216.304 248.677 216.071 248.602C215.847 248.518 215.59 248.476 215.301 248.476C214.872 248.476 214.508 248.555 214.209 248.714C213.91 248.873 213.682 249.115 213.523 249.442C213.364 249.769 213.266 250.189 213.229 250.702ZM222.943 255V244.878H224.175V255H222.943ZM227.935 255.168C227.664 255.168 227.394 255.135 227.123 255.07C226.852 255.005 226.6 254.897 226.367 254.748C226.134 254.599 225.947 254.393 225.807 254.132C225.667 253.861 225.597 253.525 225.597 253.124C225.597 252.62 225.718 252.205 225.961 251.878C226.204 251.551 226.54 251.299 226.969 251.122C227.408 250.935 227.926 250.809 228.523 250.744C229.12 250.669 229.769 250.632 230.469 250.632V249.792C230.469 249.521 230.422 249.288 230.329 249.092C230.236 248.896 230.068 248.747 229.825 248.644C229.592 248.532 229.256 248.476 228.817 248.476C228.397 248.476 228.061 248.532 227.809 248.644C227.566 248.747 227.394 248.882 227.291 249.05C227.198 249.218 227.151 249.405 227.151 249.61V249.82H225.961C225.952 249.773 225.947 249.727 225.947 249.68C225.947 249.633 225.947 249.577 225.947 249.512C225.947 249.064 226.068 248.691 226.311 248.392C226.563 248.084 226.913 247.855 227.361 247.706C227.809 247.547 228.322 247.468 228.901 247.468C229.517 247.468 230.03 247.557 230.441 247.734C230.861 247.911 231.174 248.163 231.379 248.49C231.594 248.817 231.701 249.209 231.701 249.666V253.656C231.701 253.833 231.743 253.959 231.827 254.034C231.911 254.099 232.014 254.132 232.135 254.132H232.681V254.944C232.55 255 232.406 255.047 232.247 255.084C232.088 255.131 231.906 255.154 231.701 255.154C231.458 255.154 231.258 255.103 231.099 255C230.94 254.907 230.819 254.776 230.735 254.608C230.651 254.431 230.595 254.235 230.567 254.02H230.469C230.301 254.253 230.086 254.459 229.825 254.636C229.573 254.804 229.288 254.935 228.971 255.028C228.654 255.121 228.308 255.168 227.935 255.168ZM228.243 254.132C228.542 254.132 228.822 254.085 229.083 253.992C229.354 253.899 229.592 253.768 229.797 253.6C230.002 253.423 230.166 253.213 230.287 252.97C230.408 252.727 230.469 252.461 230.469 252.172V251.556C229.713 251.556 229.069 251.598 228.537 251.682C228.005 251.766 227.594 251.915 227.305 252.13C227.025 252.345 226.885 252.648 226.885 253.04C226.885 253.292 226.941 253.497 227.053 253.656C227.165 253.815 227.324 253.936 227.529 254.02C227.734 254.095 227.972 254.132 228.243 254.132ZM238.588 255L235.858 247.636H237.146L238.49 251.318C238.555 251.495 238.63 251.719 238.714 251.99C238.798 252.251 238.882 252.522 238.966 252.802C239.059 253.073 239.134 253.315 239.19 253.53H239.26C239.325 253.325 239.4 253.087 239.484 252.816C239.568 252.536 239.652 252.265 239.736 252.004C239.829 251.733 239.908 251.505 239.974 251.318L241.304 247.636H242.55L239.82 255H238.588ZM243.696 246.25V244.878H244.928V246.25H243.696ZM243.696 255V247.636H244.928V255H243.696ZM249.347 255.168C248.74 255.168 248.218 255.033 247.779 254.762C247.35 254.491 247.014 254.071 246.771 253.502C246.538 252.923 246.421 252.177 246.421 251.262C246.421 250.394 246.542 249.68 246.785 249.12C247.028 248.56 247.364 248.145 247.793 247.874C248.222 247.603 248.722 247.468 249.291 247.468C249.618 247.468 249.921 247.505 250.201 247.58C250.481 247.655 250.728 247.771 250.943 247.93C251.167 248.089 251.363 248.299 251.531 248.56H251.615V244.878H252.847V255H251.853L251.741 253.95H251.643C251.391 254.361 251.064 254.669 250.663 254.874C250.262 255.07 249.823 255.168 249.347 255.168ZM249.641 254.09C250.108 254.09 250.486 253.987 250.775 253.782C251.064 253.577 251.274 253.278 251.405 252.886C251.545 252.494 251.615 252.009 251.615 251.43V251.206C251.615 250.702 251.564 250.277 251.461 249.932C251.358 249.587 251.218 249.311 251.041 249.106C250.864 248.901 250.658 248.756 250.425 248.672C250.192 248.588 249.944 248.546 249.683 248.546C249.226 248.546 248.852 248.639 248.563 248.826C248.274 249.003 248.059 249.288 247.919 249.68C247.779 250.063 247.709 250.562 247.709 251.178V251.472C247.709 252.107 247.784 252.62 247.933 253.012C248.082 253.395 248.297 253.67 248.577 253.838C248.866 254.006 249.221 254.09 249.641 254.09ZM256.632 255.168C256.362 255.168 256.091 255.135 255.82 255.07C255.55 255.005 255.298 254.897 255.064 254.748C254.831 254.599 254.644 254.393 254.504 254.132C254.364 253.861 254.294 253.525 254.294 253.124C254.294 252.62 254.416 252.205 254.658 251.878C254.901 251.551 255.237 251.299 255.666 251.122C256.105 250.935 256.623 250.809 257.22 250.744C257.818 250.669 258.466 250.632 259.166 250.632V249.792C259.166 249.521 259.12 249.288 259.026 249.092C258.933 248.896 258.765 248.747 258.522 248.644C258.289 248.532 257.953 248.476 257.514 248.476C257.094 248.476 256.758 248.532 256.506 248.644C256.264 248.747 256.091 248.882 255.988 249.05C255.895 249.218 255.848 249.405 255.848 249.61V249.82H254.658C254.649 249.773 254.644 249.727 254.644 249.68C254.644 249.633 254.644 249.577 254.644 249.512C254.644 249.064 254.766 248.691 255.008 248.392C255.26 248.084 255.61 247.855 256.058 247.706C256.506 247.547 257.02 247.468 257.598 247.468C258.214 247.468 258.728 247.557 259.138 247.734C259.558 247.911 259.871 248.163 260.076 248.49C260.291 248.817 260.398 249.209 260.398 249.666V253.656C260.398 253.833 260.44 253.959 260.524 254.034C260.608 254.099 260.711 254.132 260.832 254.132H261.378V254.944C261.248 255 261.103 255.047 260.944 255.084C260.786 255.131 260.604 255.154 260.398 255.154C260.156 255.154 259.955 255.103 259.796 255C259.638 254.907 259.516 254.776 259.432 254.608C259.348 254.431 259.292 254.235 259.264 254.02H259.166C258.998 254.253 258.784 254.459 258.522 254.636C258.27 254.804 257.986 254.935 257.668 255.028C257.351 255.121 257.006 255.168 256.632 255.168ZM256.94 254.132C257.239 254.132 257.519 254.085 257.78 253.992C258.051 253.899 258.289 253.768 258.494 253.6C258.7 253.423 258.863 253.213 258.984 252.97C259.106 252.727 259.166 252.461 259.166 252.172V251.556C258.41 251.556 257.766 251.598 257.234 251.682C256.702 251.766 256.292 251.915 256.002 252.13C255.722 252.345 255.582 252.648 255.582 253.04C255.582 253.292 255.638 253.497 255.75 253.656C255.862 253.815 256.021 253.936 256.226 254.02C256.432 254.095 256.67 254.132 256.94 254.132ZM265.339 255V244.878H266.571V248.56H266.669C266.856 248.308 267.066 248.103 267.299 247.944C267.532 247.785 267.789 247.669 268.069 247.594C268.358 247.51 268.671 247.468 269.007 247.468C269.474 247.468 269.88 247.547 270.225 247.706C270.58 247.865 270.855 248.121 271.051 248.476C271.256 248.831 271.359 249.311 271.359 249.918V255H270.127V250.086C270.127 249.778 270.085 249.526 270.001 249.33C269.926 249.134 269.819 248.98 269.679 248.868C269.548 248.756 269.385 248.677 269.189 248.63C269.002 248.583 268.792 248.56 268.559 248.56C268.214 248.56 267.887 248.644 267.579 248.812C267.271 248.971 267.024 249.209 266.837 249.526C266.66 249.834 266.571 250.217 266.571 250.674V255H265.339ZM276.252 255.168C275.505 255.168 274.875 255.033 274.362 254.762C273.858 254.482 273.47 254.057 273.2 253.488C272.938 252.919 272.808 252.195 272.808 251.318C272.808 250.431 272.938 249.708 273.2 249.148C273.47 248.579 273.858 248.159 274.362 247.888C274.875 247.608 275.505 247.468 276.252 247.468C276.998 247.468 277.624 247.608 278.128 247.888C278.641 248.159 279.028 248.579 279.29 249.148C279.551 249.708 279.682 250.431 279.682 251.318C279.682 252.195 279.551 252.919 279.29 253.488C279.028 254.057 278.641 254.482 278.128 254.762C277.624 255.033 276.998 255.168 276.252 255.168ZM276.252 254.132C276.728 254.132 277.124 254.039 277.442 253.852C277.759 253.665 277.997 253.376 278.156 252.984C278.324 252.583 278.408 252.079 278.408 251.472V251.164C278.408 250.548 278.324 250.044 278.156 249.652C277.997 249.26 277.759 248.971 277.442 248.784C277.124 248.597 276.728 248.504 276.252 248.504C275.776 248.504 275.374 248.597 275.048 248.784C274.73 248.971 274.492 249.26 274.334 249.652C274.175 250.044 274.096 250.548 274.096 251.164V251.472C274.096 252.079 274.175 252.583 274.334 252.984C274.492 253.376 274.73 253.665 275.048 253.852C275.374 254.039 275.776 254.132 276.252 254.132ZM281.815 257.548C281.591 257.548 281.395 257.529 281.227 257.492C281.068 257.464 280.961 257.445 280.905 257.436V256.54H281.521C281.745 256.54 281.964 256.493 282.179 256.4C282.393 256.307 282.594 256.148 282.781 255.924C282.967 255.7 283.126 255.392 283.257 255L280.401 247.636H281.689L283.159 251.43C283.224 251.607 283.299 251.827 283.383 252.088C283.476 252.34 283.565 252.601 283.649 252.872C283.742 253.143 283.817 253.381 283.873 253.586H283.957C283.994 253.437 284.041 253.269 284.097 253.082C284.153 252.895 284.209 252.704 284.265 252.508C284.33 252.303 284.391 252.111 284.447 251.934C284.512 251.747 284.563 251.584 284.601 251.444L285.847 247.636H287.093L284.601 254.79C284.461 255.191 284.307 255.56 284.139 255.896C283.971 256.241 283.784 256.535 283.579 256.778C283.373 257.021 283.126 257.207 282.837 257.338C282.547 257.478 282.207 257.548 281.815 257.548ZM286.838 255V253.53H288.21V255H286.838ZM292.498 255L296.292 245.396H298.042L301.85 255H300.408L299.47 252.62H294.794L293.87 255H292.498ZM295.228 251.486H299.022L297.86 248.476C297.832 248.392 297.79 248.275 297.734 248.126C297.678 247.977 297.618 247.813 297.552 247.636C297.487 247.449 297.422 247.263 297.356 247.076C297.291 246.88 297.23 246.703 297.174 246.544H297.09C297.025 246.731 296.95 246.945 296.866 247.188C296.782 247.431 296.698 247.669 296.614 247.902C296.53 248.126 296.46 248.317 296.404 248.476L295.228 251.486ZM302.909 255V244.878H304.141V255H302.909ZM306.054 255V244.878H307.286V255H306.054ZM312.124 255V247.636H313.118L313.23 248.854H313.328C313.403 248.621 313.506 248.401 313.636 248.196C313.767 247.981 313.944 247.809 314.168 247.678C314.392 247.538 314.668 247.468 314.994 247.468C315.134 247.468 315.26 247.482 315.372 247.51C315.494 247.529 315.582 247.552 315.638 247.58V248.714H315.176C314.859 248.714 314.584 248.77 314.35 248.882C314.126 248.985 313.94 249.134 313.79 249.33C313.641 249.526 313.529 249.759 313.454 250.03C313.389 250.301 313.356 250.59 313.356 250.898V255H312.124ZM316.773 246.25V244.878H318.005V246.25H316.773ZM316.773 255V247.636H318.005V255H316.773ZM321.163 257.548C320.809 257.548 320.482 257.473 320.183 257.324C319.885 257.184 319.647 256.979 319.469 256.708C319.292 256.437 319.203 256.115 319.203 255.742C319.203 255.331 319.315 254.991 319.539 254.72C319.773 254.449 320.048 254.249 320.365 254.118C320.132 254.006 319.95 253.852 319.819 253.656C319.689 253.451 319.623 253.227 319.623 252.984C319.623 252.657 319.74 252.382 319.973 252.158C320.216 251.934 320.51 251.785 320.855 251.71C320.538 251.505 320.286 251.243 320.099 250.926C319.922 250.599 319.833 250.24 319.833 249.848C319.833 249.381 319.941 248.971 320.155 248.616C320.379 248.261 320.715 247.981 321.163 247.776C321.621 247.571 322.176 247.468 322.829 247.468C323.128 247.468 323.408 247.491 323.669 247.538C323.931 247.575 324.164 247.641 324.369 247.734C324.696 247.585 324.939 247.393 325.097 247.16C325.265 246.927 325.368 246.689 325.405 246.446H326.623C326.623 246.726 326.558 246.992 326.427 247.244C326.306 247.487 326.138 247.692 325.923 247.86C325.709 248.019 325.447 248.126 325.139 248.182C325.373 248.406 325.545 248.658 325.657 248.938C325.779 249.218 325.839 249.521 325.839 249.848C325.839 250.315 325.727 250.73 325.503 251.094C325.289 251.449 324.962 251.729 324.523 251.934C324.085 252.139 323.534 252.242 322.871 252.242H321.723C321.471 252.242 321.266 252.293 321.107 252.396C320.949 252.489 320.869 252.643 320.869 252.858C320.869 253.045 320.949 253.199 321.107 253.32C321.266 253.432 321.471 253.488 321.723 253.488H324.719C325.261 253.488 325.704 253.67 326.049 254.034C326.395 254.389 326.567 254.846 326.567 255.406C326.567 255.807 326.465 256.167 326.259 256.484C326.063 256.811 325.783 257.067 325.419 257.254C325.065 257.45 324.649 257.548 324.173 257.548H321.163ZM321.513 256.61H324.159C324.374 256.61 324.57 256.563 324.747 256.47C324.925 256.386 325.065 256.265 325.167 256.106C325.27 255.947 325.321 255.775 325.321 255.588C325.321 255.271 325.228 255.019 325.041 254.832C324.855 254.645 324.621 254.552 324.341 254.552H321.513C321.215 254.552 320.963 254.655 320.757 254.86C320.552 255.056 320.449 255.299 320.449 255.588C320.449 255.896 320.552 256.143 320.757 256.33C320.963 256.517 321.215 256.61 321.513 256.61ZM322.843 251.318C323.441 251.318 323.884 251.187 324.173 250.926C324.463 250.665 324.607 250.305 324.607 249.848C324.607 249.4 324.463 249.045 324.173 248.784C323.884 248.523 323.441 248.392 322.843 248.392C322.246 248.392 321.798 248.523 321.499 248.784C321.21 249.045 321.065 249.4 321.065 249.848C321.065 250.137 321.131 250.394 321.261 250.618C321.392 250.842 321.588 251.015 321.849 251.136C322.111 251.257 322.442 251.318 322.843 251.318ZM327.696 255V244.878H328.928V248.56H329.026C329.213 248.308 329.423 248.103 329.656 247.944C329.89 247.785 330.146 247.669 330.426 247.594C330.716 247.51 331.028 247.468 331.364 247.468C331.831 247.468 332.237 247.547 332.582 247.706C332.937 247.865 333.212 248.121 333.408 248.476C333.614 248.831 333.716 249.311 333.716 249.918V255H332.484V250.086C332.484 249.778 332.442 249.526 332.358 249.33C332.284 249.134 332.176 248.98 332.036 248.868C331.906 248.756 331.742 248.677 331.546 248.63C331.36 248.583 331.15 248.56 330.916 248.56C330.571 248.56 330.244 248.644 329.936 248.812C329.628 248.971 329.381 249.209 329.194 249.526C329.017 249.834 328.928 250.217 328.928 250.674V255H327.696ZM337.307 255.168C336.924 255.168 336.626 255.098 336.411 254.958C336.196 254.809 336.042 254.617 335.949 254.384C335.856 254.141 335.809 253.885 335.809 253.614V248.672H334.857V247.636H335.837L336.061 245.578H337.041V247.636H338.427V248.672H337.041V253.432C337.041 253.665 337.083 253.843 337.167 253.964C337.251 254.076 337.41 254.132 337.643 254.132H338.427V254.944C338.334 254.991 338.222 255.028 338.091 255.056C337.96 255.084 337.825 255.107 337.685 255.126C337.554 255.154 337.428 255.168 337.307 255.168ZM342.317 255.168C341.813 255.168 341.37 255.117 340.987 255.014C340.605 254.911 340.287 254.762 340.035 254.566C339.783 254.37 339.592 254.137 339.461 253.866C339.331 253.595 339.265 253.287 339.265 252.942C339.265 252.895 339.265 252.853 339.265 252.816C339.265 252.769 339.27 252.732 339.279 252.704H340.497C340.488 252.741 340.483 252.774 340.483 252.802C340.483 252.83 340.483 252.858 340.483 252.886C340.493 253.213 340.577 253.469 340.735 253.656C340.903 253.843 341.132 253.973 341.421 254.048C341.711 254.123 342.033 254.16 342.387 254.16C342.695 254.16 342.98 254.123 343.241 254.048C343.503 253.964 343.708 253.843 343.857 253.684C344.016 253.516 344.095 253.306 344.095 253.054C344.095 252.746 343.993 252.513 343.787 252.354C343.591 252.186 343.33 252.055 343.003 251.962C342.677 251.869 342.336 251.771 341.981 251.668C341.683 251.584 341.384 251.491 341.085 251.388C340.787 251.285 340.516 251.159 340.273 251.01C340.04 250.861 339.849 250.669 339.699 250.436C339.559 250.193 339.489 249.89 339.489 249.526C339.489 249.199 339.555 248.91 339.685 248.658C339.825 248.406 340.021 248.191 340.273 248.014C340.525 247.837 340.829 247.706 341.183 247.622C341.547 247.529 341.949 247.482 342.387 247.482C342.854 247.482 343.26 247.533 343.605 247.636C343.96 247.739 344.254 247.883 344.487 248.07C344.721 248.257 344.893 248.471 345.005 248.714C345.117 248.947 345.173 249.199 345.173 249.47C345.173 249.526 345.173 249.582 345.173 249.638C345.173 249.685 345.169 249.722 345.159 249.75H343.955V249.596C343.955 249.409 343.904 249.232 343.801 249.064C343.708 248.887 343.54 248.747 343.297 248.644C343.064 248.532 342.737 248.476 342.317 248.476C342.047 248.476 341.813 248.499 341.617 248.546C341.421 248.583 341.258 248.649 341.127 248.742C340.997 248.826 340.899 248.929 340.833 249.05C340.768 249.162 340.735 249.293 340.735 249.442C340.735 249.685 340.815 249.871 340.973 250.002C341.132 250.133 341.342 250.24 341.603 250.324C341.874 250.408 342.163 250.501 342.471 250.604C342.798 250.697 343.129 250.795 343.465 250.898C343.811 250.991 344.123 251.113 344.403 251.262C344.693 251.411 344.921 251.617 345.089 251.878C345.267 252.13 345.355 252.466 345.355 252.886C345.355 253.278 345.281 253.619 345.131 253.908C344.982 254.197 344.767 254.435 344.487 254.622C344.217 254.809 343.895 254.944 343.521 255.028C343.157 255.121 342.756 255.168 342.317 255.168ZM349.804 255V247.636H350.798L350.91 248.854H351.008C351.083 248.621 351.185 248.401 351.316 248.196C351.447 247.981 351.624 247.809 351.848 247.678C352.072 247.538 352.347 247.468 352.674 247.468C352.814 247.468 352.94 247.482 353.052 247.51C353.173 247.529 353.262 247.552 353.318 247.58V248.714H352.856C352.539 248.714 352.263 248.77 352.03 248.882C351.806 248.985 351.619 249.134 351.47 249.33C351.321 249.526 351.209 249.759 351.134 250.03C351.069 250.301 351.036 250.59 351.036 250.898V255H349.804ZM357.256 255.168C356.528 255.168 355.912 255.033 355.408 254.762C354.913 254.482 354.535 254.057 354.274 253.488C354.022 252.919 353.896 252.195 353.896 251.318C353.896 250.431 354.022 249.708 354.274 249.148C354.535 248.579 354.918 248.159 355.422 247.888C355.926 247.608 356.556 247.468 357.312 247.468C358.002 247.468 358.581 247.603 359.048 247.874C359.514 248.135 359.864 248.532 360.098 249.064C360.34 249.587 360.462 250.245 360.462 251.038V251.626H355.17C355.188 252.214 355.272 252.699 355.422 253.082C355.58 253.455 355.814 253.731 356.122 253.908C356.43 254.076 356.817 254.16 357.284 254.16C357.601 254.16 357.876 254.123 358.11 254.048C358.352 253.964 358.553 253.847 358.712 253.698C358.88 253.549 359.006 253.371 359.09 253.166C359.174 252.961 359.22 252.737 359.23 252.494H360.434C360.424 252.886 360.35 253.25 360.21 253.586C360.07 253.913 359.864 254.193 359.594 254.426C359.323 254.659 358.992 254.841 358.6 254.972C358.208 255.103 357.76 255.168 357.256 255.168ZM355.198 250.702H359.188C359.188 250.291 359.141 249.946 359.048 249.666C358.954 249.386 358.819 249.157 358.642 248.98C358.474 248.803 358.273 248.677 358.04 248.602C357.816 248.518 357.559 248.476 357.27 248.476C356.84 248.476 356.476 248.555 356.178 248.714C355.879 248.873 355.65 249.115 355.492 249.442C355.333 249.769 355.235 250.189 355.198 250.702ZM364.562 255.168C364.058 255.168 363.614 255.117 363.232 255.014C362.849 254.911 362.532 254.762 362.28 254.566C362.028 254.37 361.836 254.137 361.706 253.866C361.575 253.595 361.51 253.287 361.51 252.942C361.51 252.895 361.51 252.853 361.51 252.816C361.51 252.769 361.514 252.732 361.524 252.704H362.742C362.732 252.741 362.728 252.774 362.728 252.802C362.728 252.83 362.728 252.858 362.728 252.886C362.737 253.213 362.821 253.469 362.98 253.656C363.148 253.843 363.376 253.973 363.666 254.048C363.955 254.123 364.277 254.16 364.632 254.16C364.94 254.16 365.224 254.123 365.486 254.048C365.747 253.964 365.952 253.843 366.102 253.684C366.26 253.516 366.34 253.306 366.34 253.054C366.34 252.746 366.237 252.513 366.032 252.354C365.836 252.186 365.574 252.055 365.248 251.962C364.921 251.869 364.58 251.771 364.226 251.668C363.927 251.584 363.628 251.491 363.33 251.388C363.031 251.285 362.76 251.159 362.518 251.01C362.284 250.861 362.093 250.669 361.944 250.436C361.804 250.193 361.734 249.89 361.734 249.526C361.734 249.199 361.799 248.91 361.93 248.658C362.07 248.406 362.266 248.191 362.518 248.014C362.77 247.837 363.073 247.706 363.428 247.622C363.792 247.529 364.193 247.482 364.632 247.482C365.098 247.482 365.504 247.533 365.85 247.636C366.204 247.739 366.498 247.883 366.732 248.07C366.965 248.257 367.138 248.471 367.25 248.714C367.362 248.947 367.418 249.199 367.418 249.47C367.418 249.526 367.418 249.582 367.418 249.638C367.418 249.685 367.413 249.722 367.404 249.75H366.2V249.596C366.2 249.409 366.148 249.232 366.046 249.064C365.952 248.887 365.784 248.747 365.542 248.644C365.308 248.532 364.982 248.476 364.562 248.476C364.291 248.476 364.058 248.499 363.862 248.546C363.666 248.583 363.502 248.649 363.372 248.742C363.241 248.826 363.143 248.929 363.078 249.05C363.012 249.162 362.98 249.293 362.98 249.442C362.98 249.685 363.059 249.871 363.218 250.002C363.376 250.133 363.586 250.24 363.848 250.324C364.118 250.408 364.408 250.501 364.716 250.604C365.042 250.697 365.374 250.795 365.71 250.898C366.055 250.991 366.368 251.113 366.648 251.262C366.937 251.411 367.166 251.617 367.334 251.878C367.511 252.13 367.6 252.466 367.6 252.886C367.6 253.278 367.525 253.619 367.376 253.908C367.226 254.197 367.012 254.435 366.732 254.622C366.461 254.809 366.139 254.944 365.766 255.028C365.402 255.121 365 255.168 364.562 255.168ZM372.062 255.168C371.334 255.168 370.718 255.033 370.214 254.762C369.72 254.482 369.342 254.057 369.08 253.488C368.828 252.919 368.702 252.195 368.702 251.318C368.702 250.431 368.828 249.708 369.08 249.148C369.342 248.579 369.724 248.159 370.228 247.888C370.732 247.608 371.362 247.468 372.118 247.468C372.809 247.468 373.388 247.603 373.854 247.874C374.321 248.135 374.671 248.532 374.904 249.064C375.147 249.587 375.268 250.245 375.268 251.038V251.626H369.976C369.995 252.214 370.079 252.699 370.228 253.082C370.387 253.455 370.62 253.731 370.928 253.908C371.236 254.076 371.624 254.16 372.09 254.16C372.408 254.16 372.683 254.123 372.916 254.048C373.159 253.964 373.36 253.847 373.518 253.698C373.686 253.549 373.812 253.371 373.896 253.166C373.98 252.961 374.027 252.737 374.036 252.494H375.24C375.231 252.886 375.156 253.25 375.016 253.586C374.876 253.913 374.671 254.193 374.4 254.426C374.13 254.659 373.798 254.841 373.406 254.972C373.014 255.103 372.566 255.168 372.062 255.168ZM370.004 250.702H373.994C373.994 250.291 373.948 249.946 373.854 249.666C373.761 249.386 373.626 249.157 373.448 248.98C373.28 248.803 373.08 248.677 372.846 248.602C372.622 248.518 372.366 248.476 372.076 248.476C371.647 248.476 371.283 248.555 370.984 248.714C370.686 248.873 370.457 249.115 370.298 249.442C370.14 249.769 370.042 250.189 370.004 250.702ZM376.792 255V247.636H377.786L377.898 248.854H377.996C378.071 248.621 378.174 248.401 378.304 248.196C378.435 247.981 378.612 247.809 378.836 247.678C379.06 247.538 379.336 247.468 379.662 247.468C379.802 247.468 379.928 247.482 380.04 247.51C380.162 247.529 380.25 247.552 380.306 247.58V248.714H379.844C379.527 248.714 379.252 248.77 379.018 248.882C378.794 248.985 378.608 249.134 378.458 249.33C378.309 249.526 378.197 249.759 378.122 250.03C378.057 250.301 378.024 250.59 378.024 250.898V255H376.792ZM383.387 255L380.657 247.636H381.945L383.289 251.318C383.354 251.495 383.429 251.719 383.513 251.99C383.597 252.251 383.681 252.522 383.765 252.802C383.858 253.073 383.933 253.315 383.989 253.53H384.059C384.124 253.325 384.199 253.087 384.283 252.816C384.367 252.536 384.451 252.265 384.535 252.004C384.628 251.733 384.707 251.505 384.773 251.318L386.103 247.636H387.349L384.619 255H383.387ZM391.367 255.168C390.639 255.168 390.023 255.033 389.519 254.762C389.024 254.482 388.646 254.057 388.385 253.488C388.133 252.919 388.007 252.195 388.007 251.318C388.007 250.431 388.133 249.708 388.385 249.148C388.646 248.579 389.029 248.159 389.533 247.888C390.037 247.608 390.667 247.468 391.423 247.468C392.114 247.468 392.692 247.603 393.159 247.874C393.626 248.135 393.976 248.532 394.209 249.064C394.452 249.587 394.573 250.245 394.573 251.038V251.626H389.281C389.3 252.214 389.384 252.699 389.533 253.082C389.692 253.455 389.925 253.731 390.233 253.908C390.541 254.076 390.928 254.16 391.395 254.16C391.712 254.16 391.988 254.123 392.221 254.048C392.464 253.964 392.664 253.847 392.823 253.698C392.991 253.549 393.117 253.371 393.201 253.166C393.285 252.961 393.332 252.737 393.341 252.494H394.545C394.536 252.886 394.461 253.25 394.321 253.586C394.181 253.913 393.976 254.193 393.705 254.426C393.434 254.659 393.103 254.841 392.711 254.972C392.319 255.103 391.871 255.168 391.367 255.168ZM389.309 250.702H393.299C393.299 250.291 393.252 249.946 393.159 249.666C393.066 249.386 392.93 249.157 392.753 248.98C392.585 248.803 392.384 248.677 392.151 248.602C391.927 248.518 391.67 248.476 391.381 248.476C390.952 248.476 390.588 248.555 390.289 248.714C389.99 248.873 389.762 249.115 389.603 249.442C389.444 249.769 389.346 250.189 389.309 250.702ZM398.603 255.168C397.996 255.168 397.474 255.033 397.035 254.762C396.606 254.491 396.27 254.071 396.027 253.502C395.794 252.923 395.677 252.177 395.677 251.262C395.677 250.394 395.798 249.68 396.041 249.12C396.284 248.56 396.62 248.145 397.049 247.874C397.478 247.603 397.978 247.468 398.547 247.468C398.874 247.468 399.177 247.505 399.457 247.58C399.737 247.655 399.984 247.771 400.199 247.93C400.423 248.089 400.619 248.299 400.787 248.56H400.871V244.878H402.103V255H401.109L400.997 253.95H400.899C400.647 254.361 400.32 254.669 399.919 254.874C399.518 255.07 399.079 255.168 398.603 255.168ZM398.897 254.09C399.364 254.09 399.742 253.987 400.031 253.782C400.32 253.577 400.53 253.278 400.661 252.886C400.801 252.494 400.871 252.009 400.871 251.43V251.206C400.871 250.702 400.82 250.277 400.717 249.932C400.614 249.587 400.474 249.311 400.297 249.106C400.12 248.901 399.914 248.756 399.681 248.672C399.448 248.588 399.2 248.546 398.939 248.546C398.482 248.546 398.108 248.639 397.819 248.826C397.53 249.003 397.315 249.288 397.175 249.68C397.035 250.063 396.965 250.562 396.965 251.178V251.472C396.965 252.107 397.04 252.62 397.189 253.012C397.338 253.395 397.553 253.67 397.833 253.838C398.122 254.006 398.477 254.09 398.897 254.09Z" fill="#3B2017"/>
<path d="M1140.2 255V245.396H1143.79C1144.8 245.396 1145.65 245.564 1146.36 245.9C1147.07 246.236 1147.61 246.759 1147.99 247.468C1148.37 248.168 1148.56 249.078 1148.56 250.198C1148.56 251.299 1148.37 252.205 1147.99 252.914C1147.61 253.623 1147.07 254.151 1146.36 254.496C1145.65 254.832 1144.8 255 1143.79 255H1140.2ZM1141.53 253.852H1143.76C1144.29 253.852 1144.77 253.787 1145.19 253.656C1145.61 253.516 1145.97 253.306 1146.27 253.026C1146.56 252.746 1146.79 252.387 1146.94 251.948C1147.1 251.5 1147.18 250.968 1147.18 250.352V250.072C1147.18 249.437 1147.1 248.901 1146.94 248.462C1146.79 248.014 1146.56 247.65 1146.27 247.37C1145.98 247.09 1145.62 246.885 1145.2 246.754C1144.78 246.614 1144.3 246.544 1143.76 246.544H1141.53V253.852ZM1153.19 255.168C1152.46 255.168 1151.84 255.033 1151.34 254.762C1150.84 254.482 1150.47 254.057 1150.21 253.488C1149.95 252.919 1149.83 252.195 1149.83 251.318C1149.83 250.431 1149.95 249.708 1150.21 249.148C1150.47 248.579 1150.85 248.159 1151.35 247.888C1151.86 247.608 1152.49 247.468 1153.24 247.468C1153.93 247.468 1154.51 247.603 1154.98 247.874C1155.45 248.135 1155.8 248.532 1156.03 249.064C1156.27 249.587 1156.39 250.245 1156.39 251.038V251.626H1151.1C1151.12 252.214 1151.2 252.699 1151.35 253.082C1151.51 253.455 1151.75 253.731 1152.05 253.908C1152.36 254.076 1152.75 254.16 1153.22 254.16C1153.53 254.16 1153.81 254.123 1154.04 254.048C1154.28 253.964 1154.48 253.847 1154.64 253.698C1154.81 253.549 1154.94 253.371 1155.02 253.166C1155.11 252.961 1155.15 252.737 1155.16 252.494H1156.37C1156.36 252.886 1156.28 253.25 1156.14 253.586C1156 253.913 1155.8 254.193 1155.53 254.426C1155.25 254.659 1154.92 254.841 1154.53 254.972C1154.14 255.103 1153.69 255.168 1153.19 255.168ZM1151.13 250.702H1155.12C1155.12 250.291 1155.07 249.946 1154.98 249.666C1154.89 249.386 1154.75 249.157 1154.57 248.98C1154.41 248.803 1154.2 248.677 1153.97 248.602C1153.75 248.518 1153.49 248.476 1153.2 248.476C1152.77 248.476 1152.41 248.555 1152.11 248.714C1151.81 248.873 1151.58 249.115 1151.42 249.442C1151.26 249.769 1151.17 250.189 1151.13 250.702ZM1160.49 255.168C1159.99 255.168 1159.55 255.117 1159.16 255.014C1158.78 254.911 1158.46 254.762 1158.21 254.566C1157.96 254.37 1157.77 254.137 1157.64 253.866C1157.51 253.595 1157.44 253.287 1157.44 252.942C1157.44 252.895 1157.44 252.853 1157.44 252.816C1157.44 252.769 1157.45 252.732 1157.46 252.704H1158.67C1158.66 252.741 1158.66 252.774 1158.66 252.802C1158.66 252.83 1158.66 252.858 1158.66 252.886C1158.67 253.213 1158.75 253.469 1158.91 253.656C1159.08 253.843 1159.31 253.973 1159.6 254.048C1159.89 254.123 1160.21 254.16 1160.56 254.16C1160.87 254.16 1161.16 254.123 1161.42 254.048C1161.68 253.964 1161.88 253.843 1162.03 253.684C1162.19 253.516 1162.27 253.306 1162.27 253.054C1162.27 252.746 1162.17 252.513 1161.96 252.354C1161.77 252.186 1161.51 252.055 1161.18 251.962C1160.85 251.869 1160.51 251.771 1160.16 251.668C1159.86 251.584 1159.56 251.491 1159.26 251.388C1158.96 251.285 1158.69 251.159 1158.45 251.01C1158.22 250.861 1158.02 250.669 1157.88 250.436C1157.74 250.193 1157.67 249.89 1157.67 249.526C1157.67 249.199 1157.73 248.91 1157.86 248.658C1158 248.406 1158.2 248.191 1158.45 248.014C1158.7 247.837 1159 247.706 1159.36 247.622C1159.72 247.529 1160.12 247.482 1160.56 247.482C1161.03 247.482 1161.44 247.533 1161.78 247.636C1162.14 247.739 1162.43 247.883 1162.66 248.07C1162.9 248.257 1163.07 248.471 1163.18 248.714C1163.29 248.947 1163.35 249.199 1163.35 249.47C1163.35 249.526 1163.35 249.582 1163.35 249.638C1163.35 249.685 1163.34 249.722 1163.34 249.75H1162.13V249.596C1162.13 249.409 1162.08 249.232 1161.98 249.064C1161.88 248.887 1161.72 248.747 1161.47 248.644C1161.24 248.532 1160.91 248.476 1160.49 248.476C1160.22 248.476 1159.99 248.499 1159.79 248.546C1159.6 248.583 1159.43 248.649 1159.3 248.742C1159.17 248.826 1159.07 248.929 1159.01 249.05C1158.94 249.162 1158.91 249.293 1158.91 249.442C1158.91 249.685 1158.99 249.871 1159.15 250.002C1159.31 250.133 1159.52 250.24 1159.78 250.324C1160.05 250.408 1160.34 250.501 1160.65 250.604C1160.97 250.697 1161.31 250.795 1161.64 250.898C1161.99 250.991 1162.3 251.113 1162.58 251.262C1162.87 251.411 1163.1 251.617 1163.27 251.878C1163.44 252.13 1163.53 252.466 1163.53 252.886C1163.53 253.278 1163.46 253.619 1163.31 253.908C1163.16 254.197 1162.94 254.435 1162.66 254.622C1162.39 254.809 1162.07 254.944 1161.7 255.028C1161.33 255.121 1160.93 255.168 1160.49 255.168ZM1165.05 246.25V244.878H1166.29V246.25H1165.05ZM1165.05 255V247.636H1166.29V255H1165.05ZM1168.2 255V247.636H1169.19L1169.3 248.742H1169.4C1169.6 248.443 1169.82 248.201 1170.06 248.014C1170.31 247.827 1170.59 247.692 1170.89 247.608C1171.19 247.515 1171.52 247.468 1171.87 247.468C1172.33 247.468 1172.74 247.547 1173.08 247.706C1173.44 247.865 1173.71 248.121 1173.91 248.476C1174.12 248.831 1174.22 249.311 1174.22 249.918V255H1172.99V250.086C1172.99 249.778 1172.94 249.526 1172.86 249.33C1172.79 249.134 1172.68 248.98 1172.54 248.868C1172.41 248.756 1172.24 248.677 1172.05 248.63C1171.86 248.583 1171.65 248.56 1171.42 248.56C1171.07 248.56 1170.75 248.644 1170.44 248.812C1170.13 248.98 1169.88 249.223 1169.7 249.54C1169.52 249.857 1169.43 250.235 1169.43 250.674V255H1168.2ZM1177.33 257.548C1176.98 257.548 1176.65 257.473 1176.35 257.324C1176.05 257.184 1175.82 256.979 1175.64 256.708C1175.46 256.437 1175.37 256.115 1175.37 255.742C1175.37 255.331 1175.49 254.991 1175.71 254.72C1175.94 254.449 1176.22 254.249 1176.54 254.118C1176.3 254.006 1176.12 253.852 1175.99 253.656C1175.86 253.451 1175.79 253.227 1175.79 252.984C1175.79 252.657 1175.91 252.382 1176.14 252.158C1176.39 251.934 1176.68 251.785 1177.03 251.71C1176.71 251.505 1176.46 251.243 1176.27 250.926C1176.09 250.599 1176 250.24 1176 249.848C1176 249.381 1176.11 248.971 1176.33 248.616C1176.55 248.261 1176.89 247.981 1177.33 247.776C1177.79 247.571 1178.35 247.468 1179 247.468C1179.3 247.468 1179.58 247.491 1179.84 247.538C1180.1 247.575 1180.33 247.641 1180.54 247.734C1180.87 247.585 1181.11 247.393 1181.27 247.16C1181.44 246.927 1181.54 246.689 1181.58 246.446H1182.79C1182.79 246.726 1182.73 246.992 1182.6 247.244C1182.48 247.487 1182.31 247.692 1182.09 247.86C1181.88 248.019 1181.62 248.126 1181.31 248.182C1181.54 248.406 1181.72 248.658 1181.83 248.938C1181.95 249.218 1182.01 249.521 1182.01 249.848C1182.01 250.315 1181.9 250.73 1181.67 251.094C1181.46 251.449 1181.13 251.729 1180.69 251.934C1180.25 252.139 1179.7 252.242 1179.04 252.242H1177.89C1177.64 252.242 1177.44 252.293 1177.28 252.396C1177.12 252.489 1177.04 252.643 1177.04 252.858C1177.04 253.045 1177.12 253.199 1177.28 253.32C1177.44 253.432 1177.64 253.488 1177.89 253.488H1180.89C1181.43 253.488 1181.87 253.67 1182.22 254.034C1182.56 254.389 1182.74 254.846 1182.74 255.406C1182.74 255.807 1182.63 256.167 1182.43 256.484C1182.23 256.811 1181.95 257.067 1181.59 257.254C1181.23 257.45 1180.82 257.548 1180.34 257.548H1177.33ZM1177.68 256.61H1180.33C1180.54 256.61 1180.74 256.563 1180.92 256.47C1181.09 256.386 1181.23 256.265 1181.34 256.106C1181.44 255.947 1181.49 255.775 1181.49 255.588C1181.49 255.271 1181.4 255.019 1181.21 254.832C1181.02 254.645 1180.79 254.552 1180.51 254.552H1177.68C1177.38 254.552 1177.13 254.655 1176.93 254.86C1176.72 255.056 1176.62 255.299 1176.62 255.588C1176.62 255.896 1176.72 256.143 1176.93 256.33C1177.13 256.517 1177.38 256.61 1177.68 256.61ZM1179.01 251.318C1179.61 251.318 1180.05 251.187 1180.34 250.926C1180.63 250.665 1180.78 250.305 1180.78 249.848C1180.78 249.4 1180.63 249.045 1180.34 248.784C1180.05 248.523 1179.61 248.392 1179.01 248.392C1178.42 248.392 1177.97 248.523 1177.67 248.784C1177.38 249.045 1177.24 249.4 1177.24 249.848C1177.24 250.137 1177.3 250.394 1177.43 250.618C1177.56 250.842 1177.76 251.015 1178.02 251.136C1178.28 251.257 1178.61 251.318 1179.01 251.318ZM1188.64 255.168C1188.37 255.168 1188.1 255.135 1187.83 255.07C1187.56 255.005 1187.31 254.897 1187.07 254.748C1186.84 254.599 1186.65 254.393 1186.51 254.132C1186.37 253.861 1186.3 253.525 1186.3 253.124C1186.3 252.62 1186.42 252.205 1186.67 251.878C1186.91 251.551 1187.24 251.299 1187.67 251.122C1188.11 250.935 1188.63 250.809 1189.23 250.744C1189.83 250.669 1190.47 250.632 1191.17 250.632V249.792C1191.17 249.521 1191.13 249.288 1191.03 249.092C1190.94 248.896 1190.77 248.747 1190.53 248.644C1190.3 248.532 1189.96 248.476 1189.52 248.476C1189.1 248.476 1188.77 248.532 1188.51 248.644C1188.27 248.747 1188.1 248.882 1188 249.05C1187.9 249.218 1187.86 249.405 1187.86 249.61V249.82H1186.67C1186.66 249.773 1186.65 249.727 1186.65 249.68C1186.65 249.633 1186.65 249.577 1186.65 249.512C1186.65 249.064 1186.77 248.691 1187.02 248.392C1187.27 248.084 1187.62 247.855 1188.07 247.706C1188.51 247.547 1189.03 247.468 1189.61 247.468C1190.22 247.468 1190.74 247.557 1191.15 247.734C1191.57 247.911 1191.88 248.163 1192.08 248.49C1192.3 248.817 1192.41 249.209 1192.41 249.666V253.656C1192.41 253.833 1192.45 253.959 1192.53 254.034C1192.62 254.099 1192.72 254.132 1192.84 254.132H1193.39V254.944C1193.26 255 1193.11 255.047 1192.95 255.084C1192.79 255.131 1192.61 255.154 1192.41 255.154C1192.16 255.154 1191.96 255.103 1191.8 255C1191.65 254.907 1191.52 254.776 1191.44 254.608C1191.36 254.431 1191.3 254.235 1191.27 254.02H1191.17C1191.01 254.253 1190.79 254.459 1190.53 254.636C1190.28 254.804 1189.99 254.935 1189.68 255.028C1189.36 255.121 1189.01 255.168 1188.64 255.168ZM1188.95 254.132C1189.25 254.132 1189.53 254.085 1189.79 253.992C1190.06 253.899 1190.3 253.768 1190.5 253.6C1190.71 253.423 1190.87 253.213 1190.99 252.97C1191.11 252.727 1191.17 252.461 1191.17 252.172V251.556C1190.42 251.556 1189.77 251.598 1189.24 251.682C1188.71 251.766 1188.3 251.915 1188.01 252.13C1187.73 252.345 1187.59 252.648 1187.59 253.04C1187.59 253.292 1187.65 253.497 1187.76 253.656C1187.87 253.815 1188.03 253.936 1188.23 254.02C1188.44 254.095 1188.68 254.132 1188.95 254.132ZM1194.42 255V247.636H1195.42L1195.53 248.742H1195.63C1195.82 248.443 1196.04 248.201 1196.28 248.014C1196.54 247.827 1196.81 247.692 1197.11 247.608C1197.42 247.515 1197.74 247.468 1198.09 247.468C1198.56 247.468 1198.96 247.547 1199.31 247.706C1199.66 247.865 1199.94 248.121 1200.13 248.476C1200.34 248.831 1200.44 249.311 1200.44 249.918V255H1199.21V250.086C1199.21 249.778 1199.17 249.526 1199.08 249.33C1199.01 249.134 1198.9 248.98 1198.76 248.868C1198.63 248.756 1198.47 248.677 1198.27 248.63C1198.08 248.583 1197.87 248.56 1197.64 248.56C1197.3 248.56 1196.97 248.644 1196.66 248.812C1196.35 248.98 1196.11 249.223 1195.92 249.54C1195.74 249.857 1195.65 250.235 1195.65 250.674V255H1194.42ZM1204.82 255.168C1204.21 255.168 1203.69 255.033 1203.25 254.762C1202.82 254.491 1202.48 254.071 1202.24 253.502C1202.01 252.923 1201.89 252.177 1201.89 251.262C1201.89 250.394 1202.01 249.68 1202.25 249.12C1202.5 248.56 1202.83 248.145 1203.26 247.874C1203.69 247.603 1204.19 247.468 1204.76 247.468C1205.09 247.468 1205.39 247.505 1205.67 247.58C1205.95 247.655 1206.2 247.771 1206.41 247.93C1206.64 248.089 1206.83 248.299 1207 248.56H1207.08V244.878H1208.32V255H1207.32L1207.21 253.95H1207.11C1206.86 254.361 1206.53 254.669 1206.13 254.874C1205.73 255.07 1205.29 255.168 1204.82 255.168ZM1205.11 254.09C1205.58 254.09 1205.95 253.987 1206.24 253.782C1206.53 253.577 1206.74 253.278 1206.87 252.886C1207.01 252.494 1207.08 252.009 1207.08 251.43V251.206C1207.08 250.702 1207.03 250.277 1206.93 249.932C1206.83 249.587 1206.69 249.311 1206.51 249.106C1206.33 248.901 1206.13 248.756 1205.89 248.672C1205.66 248.588 1205.41 248.546 1205.15 248.546C1204.69 248.546 1204.32 248.639 1204.03 248.826C1203.74 249.003 1203.53 249.288 1203.39 249.68C1203.25 250.063 1203.18 250.562 1203.18 251.178V251.472C1203.18 252.107 1203.25 252.62 1203.4 253.012C1203.55 253.395 1203.77 253.67 1204.05 253.838C1204.34 254.006 1204.69 254.09 1205.11 254.09ZM1215.68 255.168C1215.08 255.168 1214.56 255.033 1214.12 254.762C1213.69 254.491 1213.35 254.071 1213.11 253.502C1212.88 252.923 1212.76 252.177 1212.76 251.262C1212.76 250.394 1212.88 249.68 1213.12 249.12C1213.37 248.56 1213.7 248.145 1214.13 247.874C1214.56 247.603 1215.06 247.468 1215.63 247.468C1215.96 247.468 1216.26 247.505 1216.54 247.58C1216.82 247.655 1217.07 247.771 1217.28 247.93C1217.5 248.089 1217.7 248.299 1217.87 248.56H1217.95V244.878H1219.18V255H1218.19L1218.08 253.95H1217.98C1217.73 254.361 1217.4 254.669 1217 254.874C1216.6 255.07 1216.16 255.168 1215.68 255.168ZM1215.98 254.09C1216.45 254.09 1216.82 253.987 1217.11 253.782C1217.4 253.577 1217.61 253.278 1217.74 252.886C1217.88 252.494 1217.95 252.009 1217.95 251.43V251.206C1217.95 250.702 1217.9 250.277 1217.8 249.932C1217.7 249.587 1217.56 249.311 1217.38 249.106C1217.2 248.901 1217 248.756 1216.76 248.672C1216.53 248.588 1216.28 248.546 1216.02 248.546C1215.56 248.546 1215.19 248.639 1214.9 248.826C1214.61 249.003 1214.4 249.288 1214.26 249.68C1214.12 250.063 1214.05 250.562 1214.05 251.178V251.472C1214.05 252.107 1214.12 252.62 1214.27 253.012C1214.42 253.395 1214.63 253.67 1214.91 253.838C1215.2 254.006 1215.56 254.09 1215.98 254.09ZM1224.06 255.168C1223.33 255.168 1222.72 255.033 1222.21 254.762C1221.72 254.482 1221.34 254.057 1221.08 253.488C1220.83 252.919 1220.7 252.195 1220.7 251.318C1220.7 250.431 1220.83 249.708 1221.08 249.148C1221.34 248.579 1221.72 248.159 1222.23 247.888C1222.73 247.608 1223.36 247.468 1224.12 247.468C1224.81 247.468 1225.39 247.603 1225.85 247.874C1226.32 248.135 1226.67 248.532 1226.9 249.064C1227.15 249.587 1227.27 250.245 1227.27 251.038V251.626H1221.98C1221.99 252.214 1222.08 252.699 1222.23 253.082C1222.39 253.455 1222.62 253.731 1222.93 253.908C1223.24 254.076 1223.62 254.16 1224.09 254.16C1224.41 254.16 1224.68 254.123 1224.92 254.048C1225.16 253.964 1225.36 253.847 1225.52 253.698C1225.69 253.549 1225.81 253.371 1225.9 253.166C1225.98 252.961 1226.03 252.737 1226.04 252.494H1227.24C1227.23 252.886 1227.16 253.25 1227.02 253.586C1226.88 253.913 1226.67 254.193 1226.4 254.426C1226.13 254.659 1225.8 254.841 1225.41 254.972C1225.01 255.103 1224.57 255.168 1224.06 255.168ZM1222 250.702H1225.99C1225.99 250.291 1225.95 249.946 1225.85 249.666C1225.76 249.386 1225.63 249.157 1225.45 248.98C1225.28 248.803 1225.08 248.677 1224.85 248.602C1224.62 248.518 1224.37 248.476 1224.08 248.476C1223.65 248.476 1223.28 248.555 1222.98 248.714C1222.69 248.873 1222.46 249.115 1222.3 249.442C1222.14 249.769 1222.04 250.189 1222 250.702ZM1230.74 255L1228.01 247.636H1229.3L1230.64 251.318C1230.71 251.495 1230.78 251.719 1230.86 251.99C1230.95 252.251 1231.03 252.522 1231.12 252.802C1231.21 253.073 1231.28 253.315 1231.34 253.53H1231.41C1231.48 253.325 1231.55 253.087 1231.63 252.816C1231.72 252.536 1231.8 252.265 1231.89 252.004C1231.98 251.733 1232.06 251.505 1232.12 251.318L1233.45 247.636H1234.7L1231.97 255H1230.74ZM1238.72 255.168C1237.99 255.168 1237.37 255.033 1236.87 254.762C1236.38 254.482 1236 254.057 1235.74 253.488C1235.48 252.919 1235.36 252.195 1235.36 251.318C1235.36 250.431 1235.48 249.708 1235.74 249.148C1236 248.579 1236.38 248.159 1236.88 247.888C1237.39 247.608 1238.02 247.468 1238.77 247.468C1239.47 247.468 1240.04 247.603 1240.51 247.874C1240.98 248.135 1241.33 248.532 1241.56 249.064C1241.8 249.587 1241.92 250.245 1241.92 251.038V251.626H1236.63C1236.65 252.214 1236.74 252.699 1236.88 253.082C1237.04 253.455 1237.28 253.731 1237.58 253.908C1237.89 254.076 1238.28 254.16 1238.75 254.16C1239.06 254.16 1239.34 254.123 1239.57 254.048C1239.82 253.964 1240.02 253.847 1240.17 253.698C1240.34 253.549 1240.47 253.371 1240.55 253.166C1240.64 252.961 1240.68 252.737 1240.69 252.494H1241.9C1241.89 252.886 1241.81 253.25 1241.67 253.586C1241.53 253.913 1241.33 254.193 1241.06 254.426C1240.79 254.659 1240.45 254.841 1240.06 254.972C1239.67 255.103 1239.22 255.168 1238.72 255.168ZM1236.66 250.702H1240.65C1240.65 250.291 1240.6 249.946 1240.51 249.666C1240.42 249.386 1240.28 249.157 1240.1 248.98C1239.94 248.803 1239.74 248.677 1239.5 248.602C1239.28 248.518 1239.02 248.476 1238.73 248.476C1238.3 248.476 1237.94 248.555 1237.64 248.714C1237.34 248.873 1237.11 249.115 1236.95 249.442C1236.8 249.769 1236.7 250.189 1236.66 250.702ZM1243.45 255V244.878H1244.68V255H1243.45ZM1249.62 255.168C1248.87 255.168 1248.24 255.033 1247.73 254.762C1247.22 254.482 1246.84 254.057 1246.56 253.488C1246.3 252.919 1246.17 252.195 1246.17 251.318C1246.17 250.431 1246.3 249.708 1246.56 249.148C1246.84 248.579 1247.22 248.159 1247.73 247.888C1248.24 247.608 1248.87 247.468 1249.62 247.468C1250.36 247.468 1250.99 247.608 1251.49 247.888C1252.01 248.159 1252.39 248.579 1252.65 249.148C1252.92 249.708 1253.05 250.431 1253.05 251.318C1253.05 252.195 1252.92 252.919 1252.65 253.488C1252.39 254.057 1252.01 254.482 1251.49 254.762C1250.99 255.033 1250.36 255.168 1249.62 255.168ZM1249.62 254.132C1250.09 254.132 1250.49 254.039 1250.81 253.852C1251.12 253.665 1251.36 253.376 1251.52 252.984C1251.69 252.583 1251.77 252.079 1251.77 251.472V251.164C1251.77 250.548 1251.69 250.044 1251.52 249.652C1251.36 249.26 1251.12 248.971 1250.81 248.784C1250.49 248.597 1250.09 248.504 1249.62 248.504C1249.14 248.504 1248.74 248.597 1248.41 248.784C1248.1 248.971 1247.86 249.26 1247.7 249.652C1247.54 250.044 1247.46 250.548 1247.46 251.164V251.472C1247.46 252.079 1247.54 252.583 1247.7 252.984C1247.86 253.376 1248.1 253.665 1248.41 253.852C1248.74 254.039 1249.14 254.132 1249.62 254.132ZM1254.58 257.422V247.636H1255.56L1255.68 248.686H1255.78C1256.03 248.275 1256.36 247.972 1256.75 247.776C1257.14 247.571 1257.58 247.468 1258.08 247.468C1258.69 247.468 1259.22 247.603 1259.65 247.874C1260.07 248.145 1260.41 248.569 1260.64 249.148C1260.87 249.717 1260.99 250.459 1260.99 251.374C1260.99 252.233 1260.87 252.947 1260.63 253.516C1260.39 254.076 1260.06 254.491 1259.63 254.762C1259.2 255.033 1258.7 255.168 1258.13 255.168C1257.82 255.168 1257.52 255.131 1257.24 255.056C1256.96 254.981 1256.71 254.865 1256.48 254.706C1256.26 254.538 1256.06 254.328 1255.89 254.076H1255.81V257.422H1254.58ZM1257.74 254.09C1258.2 254.09 1258.57 254.001 1258.86 253.824C1259.15 253.637 1259.37 253.353 1259.51 252.97C1259.65 252.578 1259.72 252.079 1259.72 251.472V251.178C1259.72 250.534 1259.64 250.021 1259.49 249.638C1259.34 249.246 1259.12 248.966 1258.83 248.798C1258.55 248.63 1258.2 248.546 1257.78 248.546C1257.33 248.546 1256.95 248.649 1256.65 248.854C1256.36 249.05 1256.15 249.349 1256.01 249.75C1255.87 250.151 1255.81 250.641 1255.81 251.22V251.43C1255.81 251.943 1255.86 252.373 1255.95 252.718C1256.05 253.054 1256.19 253.325 1256.37 253.53C1256.56 253.735 1256.77 253.88 1257 253.964C1257.23 254.048 1257.48 254.09 1257.74 254.09ZM1262.52 255V247.636H1263.51L1263.63 248.742H1263.72C1263.91 248.443 1264.12 248.201 1264.35 248.014C1264.59 247.827 1264.84 247.692 1265.12 247.608C1265.4 247.515 1265.71 247.468 1266.03 247.468C1266.51 247.468 1266.92 247.566 1267.27 247.762C1267.61 247.949 1267.87 248.275 1268.04 248.742H1268.12C1268.3 248.443 1268.5 248.205 1268.74 248.028C1268.97 247.841 1269.23 247.701 1269.52 247.608C1269.81 247.515 1270.12 247.468 1270.44 247.468C1270.89 247.468 1271.28 247.547 1271.62 247.706C1271.96 247.855 1272.22 248.107 1272.4 248.462C1272.6 248.807 1272.7 249.274 1272.7 249.862V255H1271.47V250.058C1271.47 249.759 1271.43 249.512 1271.35 249.316C1271.29 249.12 1271.19 248.971 1271.06 248.868C1270.93 248.756 1270.78 248.677 1270.6 248.63C1270.43 248.583 1270.25 248.56 1270.05 248.56C1269.73 248.56 1269.42 248.644 1269.14 248.812C1268.87 248.98 1268.65 249.223 1268.48 249.54C1268.32 249.857 1268.23 250.235 1268.23 250.674V255H1267V250.058C1267 249.759 1266.96 249.512 1266.89 249.316C1266.81 249.12 1266.72 248.971 1266.59 248.868C1266.47 248.756 1266.32 248.677 1266.15 248.63C1265.98 248.583 1265.8 248.56 1265.61 248.56C1265.28 248.56 1264.97 248.644 1264.68 248.812C1264.4 248.98 1264.17 249.223 1264 249.54C1263.84 249.857 1263.75 250.235 1263.75 250.674V255H1262.52ZM1277.51 255.168C1276.78 255.168 1276.16 255.033 1275.66 254.762C1275.16 254.482 1274.78 254.057 1274.52 253.488C1274.27 252.919 1274.15 252.195 1274.15 251.318C1274.15 250.431 1274.27 249.708 1274.52 249.148C1274.78 248.579 1275.17 248.159 1275.67 247.888C1276.18 247.608 1276.81 247.468 1277.56 247.468C1278.25 247.468 1278.83 247.603 1279.3 247.874C1279.76 248.135 1280.11 248.532 1280.35 249.064C1280.59 249.587 1280.71 250.245 1280.71 251.038V251.626H1275.42C1275.44 252.214 1275.52 252.699 1275.67 253.082C1275.83 253.455 1276.06 253.731 1276.37 253.908C1276.68 254.076 1277.07 254.16 1277.53 254.16C1277.85 254.16 1278.13 254.123 1278.36 254.048C1278.6 253.964 1278.8 253.847 1278.96 253.698C1279.13 253.549 1279.26 253.371 1279.34 253.166C1279.42 252.961 1279.47 252.737 1279.48 252.494H1280.68C1280.67 252.886 1280.6 253.25 1280.46 253.586C1280.32 253.913 1280.11 254.193 1279.84 254.426C1279.57 254.659 1279.24 254.841 1278.85 254.972C1278.46 255.103 1278.01 255.168 1277.51 255.168ZM1275.45 250.702H1279.44C1279.44 250.291 1279.39 249.946 1279.3 249.666C1279.2 249.386 1279.07 249.157 1278.89 248.98C1278.72 248.803 1278.52 248.677 1278.29 248.602C1278.07 248.518 1277.81 248.476 1277.52 248.476C1277.09 248.476 1276.73 248.555 1276.43 248.714C1276.13 248.873 1275.9 249.115 1275.74 249.442C1275.58 249.769 1275.48 250.189 1275.45 250.702ZM1282.24 255V247.636H1283.23L1283.34 248.742H1283.44C1283.64 248.443 1283.85 248.201 1284.1 248.014C1284.35 247.827 1284.62 247.692 1284.92 247.608C1285.23 247.515 1285.56 247.468 1285.9 247.468C1286.37 247.468 1286.78 247.547 1287.12 247.706C1287.48 247.865 1287.75 248.121 1287.95 248.476C1288.15 248.831 1288.26 249.311 1288.26 249.918V255H1287.02V250.086C1287.02 249.778 1286.98 249.526 1286.9 249.33C1286.82 249.134 1286.72 248.98 1286.58 248.868C1286.44 248.756 1286.28 248.677 1286.09 248.63C1285.9 248.583 1285.69 248.56 1285.46 248.56C1285.11 248.56 1284.78 248.644 1284.48 248.812C1284.17 248.98 1283.92 249.223 1283.73 249.54C1283.56 249.857 1283.47 250.235 1283.47 250.674V255H1282.24ZM1291.85 255.168C1291.46 255.168 1291.16 255.098 1290.95 254.958C1290.74 254.809 1290.58 254.617 1290.49 254.384C1290.39 254.141 1290.35 253.885 1290.35 253.614V248.672H1289.4V247.636H1290.38L1290.6 245.578H1291.58V247.636H1292.97V248.672H1291.58V253.432C1291.58 253.665 1291.62 253.843 1291.71 253.964C1291.79 254.076 1291.95 254.132 1292.18 254.132H1292.97V254.944C1292.87 254.991 1292.76 255.028 1292.63 255.056C1292.5 255.084 1292.36 255.107 1292.22 255.126C1292.09 255.154 1291.97 255.168 1291.85 255.168ZM1300.71 255.168C1300.21 255.168 1299.77 255.07 1299.38 254.874C1298.98 254.669 1298.66 254.361 1298.41 253.95H1298.31L1298.19 255H1297.21V244.878H1298.44V248.56H1298.52C1298.69 248.299 1298.89 248.089 1299.11 247.93C1299.33 247.771 1299.59 247.655 1299.87 247.58C1300.15 247.505 1300.44 247.468 1300.76 247.468C1301.33 247.468 1301.83 247.603 1302.26 247.874C1302.69 248.145 1303.02 248.56 1303.25 249.12C1303.5 249.68 1303.62 250.394 1303.62 251.262C1303.62 252.177 1303.5 252.923 1303.27 253.502C1303.03 254.071 1302.7 254.491 1302.27 254.762C1301.84 255.033 1301.32 255.168 1300.71 255.168ZM1300.41 254.09C1300.83 254.09 1301.18 254.006 1301.46 253.838C1301.75 253.67 1301.97 253.395 1302.12 253.012C1302.27 252.62 1302.34 252.107 1302.34 251.472V251.178C1302.34 250.562 1302.27 250.063 1302.13 249.68C1301.99 249.288 1301.78 249.003 1301.49 248.826C1301.2 248.639 1300.83 248.546 1300.37 248.546C1300.11 248.546 1299.86 248.588 1299.63 248.672C1299.39 248.756 1299.18 248.901 1299 249.106C1298.82 249.311 1298.68 249.587 1298.58 249.932C1298.48 250.277 1298.44 250.702 1298.44 251.206V251.43C1298.44 252.009 1298.5 252.494 1298.63 252.886C1298.77 253.278 1298.99 253.577 1299.28 253.782C1299.58 253.987 1299.95 254.09 1300.41 254.09ZM1305.75 257.548C1305.53 257.548 1305.33 257.529 1305.16 257.492C1305.01 257.464 1304.9 257.445 1304.84 257.436V256.54H1305.46C1305.68 256.54 1305.9 256.493 1306.12 256.4C1306.33 256.307 1306.53 256.148 1306.72 255.924C1306.9 255.7 1307.06 255.392 1307.19 255L1304.34 247.636H1305.63L1307.1 251.43C1307.16 251.607 1307.24 251.827 1307.32 252.088C1307.41 252.34 1307.5 252.601 1307.59 252.872C1307.68 253.143 1307.75 253.381 1307.81 253.586H1307.89C1307.93 253.437 1307.98 253.269 1308.03 253.082C1308.09 252.895 1308.15 252.704 1308.2 252.508C1308.27 252.303 1308.33 252.111 1308.38 251.934C1308.45 251.747 1308.5 251.584 1308.54 251.444L1309.78 247.636H1311.03L1308.54 254.79C1308.4 255.191 1308.24 255.56 1308.08 255.896C1307.91 256.241 1307.72 256.535 1307.52 256.778C1307.31 257.021 1307.06 257.207 1306.77 257.338C1306.48 257.478 1306.14 257.548 1305.75 257.548ZM1315.34 255V245.396H1316.63L1321.29 251.724C1321.34 251.78 1321.4 251.864 1321.47 251.976C1321.55 252.088 1321.62 252.2 1321.7 252.312C1321.77 252.415 1321.83 252.508 1321.88 252.592H1321.93C1321.93 252.443 1321.93 252.298 1321.93 252.158C1321.93 252.009 1321.93 251.864 1321.93 251.724V245.396H1323.24V255H1322.02L1317.3 248.56C1317.24 248.457 1317.14 248.313 1317.01 248.126C1316.89 247.939 1316.78 247.79 1316.7 247.678H1316.63C1316.63 247.827 1316.63 247.977 1316.63 248.126C1316.63 248.266 1316.63 248.411 1316.63 248.56V255H1315.34ZM1328.44 255.168C1327.69 255.168 1327.06 255.033 1326.55 254.762C1326.04 254.482 1325.65 254.057 1325.38 253.488C1325.12 252.919 1324.99 252.195 1324.99 251.318C1324.99 250.431 1325.12 249.708 1325.38 249.148C1325.65 248.579 1326.04 248.159 1326.55 247.888C1327.06 247.608 1327.69 247.468 1328.44 247.468C1329.18 247.468 1329.81 247.608 1330.31 247.888C1330.82 248.159 1331.21 248.579 1331.47 249.148C1331.73 249.708 1331.87 250.431 1331.87 251.318C1331.87 252.195 1331.73 252.919 1331.47 253.488C1331.21 254.057 1330.82 254.482 1330.31 254.762C1329.81 255.033 1329.18 255.168 1328.44 255.168ZM1328.44 254.132C1328.91 254.132 1329.31 254.039 1329.63 253.852C1329.94 253.665 1330.18 253.376 1330.34 252.984C1330.51 252.583 1330.59 252.079 1330.59 251.472V251.164C1330.59 250.548 1330.51 250.044 1330.34 249.652C1330.18 249.26 1329.94 248.971 1329.63 248.784C1329.31 248.597 1328.91 248.504 1328.44 248.504C1327.96 248.504 1327.56 248.597 1327.23 248.784C1326.91 248.971 1326.68 249.26 1326.52 249.652C1326.36 250.044 1326.28 250.548 1326.28 251.164V251.472C1326.28 252.079 1326.36 252.583 1326.52 252.984C1326.68 253.376 1326.91 253.665 1327.23 253.852C1327.56 254.039 1327.96 254.132 1328.44 254.132ZM1333.63 255V245.396H1335.69L1337.88 251.626C1337.93 251.794 1337.99 251.981 1338.04 252.186C1338.11 252.382 1338.17 252.569 1338.21 252.746C1338.27 252.923 1338.31 253.077 1338.34 253.208H1338.44C1338.46 253.068 1338.5 252.909 1338.55 252.732C1338.59 252.545 1338.65 252.354 1338.7 252.158C1338.76 251.962 1338.81 251.785 1338.86 251.626L1341.04 245.396H1343.08V255H1341.75V249.372C1341.75 249.083 1341.76 248.77 1341.77 248.434C1341.78 248.089 1341.79 247.776 1341.8 247.496C1341.81 247.207 1341.81 247.001 1341.81 246.88H1341.7C1341.67 247.001 1341.62 247.174 1341.56 247.398C1341.49 247.613 1341.42 247.841 1341.35 248.084C1341.28 248.317 1341.22 248.527 1341.17 248.714L1338.91 255H1337.76L1335.51 248.714C1335.45 248.555 1335.39 248.373 1335.33 248.168C1335.27 247.953 1335.21 247.734 1335.15 247.51C1335.09 247.286 1335.03 247.076 1334.98 246.88H1334.88C1334.89 247.085 1334.89 247.342 1334.89 247.65C1334.9 247.949 1334.91 248.252 1334.91 248.56C1334.92 248.859 1334.92 249.129 1334.92 249.372V255H1333.63ZM1347.1 255.168C1346.83 255.168 1346.56 255.135 1346.29 255.07C1346.01 255.005 1345.76 254.897 1345.53 254.748C1345.3 254.599 1345.11 254.393 1344.97 254.132C1344.83 253.861 1344.76 253.525 1344.76 253.124C1344.76 252.62 1344.88 252.205 1345.12 251.878C1345.37 251.551 1345.7 251.299 1346.13 251.122C1346.57 250.935 1347.09 250.809 1347.69 250.744C1348.28 250.669 1348.93 250.632 1349.63 250.632V249.792C1349.63 249.521 1349.58 249.288 1349.49 249.092C1349.4 248.896 1349.23 248.747 1348.99 248.644C1348.75 248.532 1348.42 248.476 1347.98 248.476C1347.56 248.476 1347.22 248.532 1346.97 248.644C1346.73 248.747 1346.56 248.882 1346.45 249.05C1346.36 249.218 1346.31 249.405 1346.31 249.61V249.82H1345.12C1345.11 249.773 1345.11 249.727 1345.11 249.68C1345.11 249.633 1345.11 249.577 1345.11 249.512C1345.11 249.064 1345.23 248.691 1345.47 248.392C1345.73 248.084 1346.08 247.855 1346.52 247.706C1346.97 247.547 1347.48 247.468 1348.06 247.468C1348.68 247.468 1349.19 247.557 1349.6 247.734C1350.02 247.911 1350.34 248.163 1350.54 248.49C1350.76 248.817 1350.86 249.209 1350.86 249.666V253.656C1350.86 253.833 1350.91 253.959 1350.99 254.034C1351.07 254.099 1351.18 254.132 1351.3 254.132H1351.84V254.944C1351.71 255 1351.57 255.047 1351.41 255.084C1351.25 255.131 1351.07 255.154 1350.86 255.154C1350.62 255.154 1350.42 255.103 1350.26 255C1350.1 254.907 1349.98 254.776 1349.9 254.608C1349.81 254.431 1349.76 254.235 1349.73 254.02H1349.63C1349.46 254.253 1349.25 254.459 1348.99 254.636C1348.74 254.804 1348.45 254.935 1348.13 255.028C1347.82 255.121 1347.47 255.168 1347.1 255.168ZM1347.41 254.132C1347.7 254.132 1347.98 254.085 1348.25 253.992C1348.52 253.899 1348.75 253.768 1348.96 253.6C1349.16 253.423 1349.33 253.213 1349.45 252.97C1349.57 252.727 1349.63 252.461 1349.63 252.172V251.556C1348.88 251.556 1348.23 251.598 1347.7 251.682C1347.17 251.766 1346.76 251.915 1346.47 252.13C1346.19 252.345 1346.05 252.648 1346.05 253.04C1346.05 253.292 1346.1 253.497 1346.22 253.656C1346.33 253.815 1346.49 253.936 1346.69 254.02C1346.9 254.095 1347.13 254.132 1347.41 254.132ZM1355.38 255.168C1354.78 255.168 1354.25 255.033 1353.82 254.762C1353.39 254.491 1353.05 254.071 1352.81 253.502C1352.57 252.923 1352.46 252.177 1352.46 251.262C1352.46 250.394 1352.58 249.68 1352.82 249.12C1353.06 248.56 1353.4 248.145 1353.83 247.874C1354.26 247.603 1354.76 247.468 1355.33 247.468C1355.65 247.468 1355.96 247.505 1356.24 247.58C1356.52 247.655 1356.77 247.771 1356.98 247.93C1357.2 248.089 1357.4 248.299 1357.57 248.56H1357.65V244.878H1358.88V255H1357.89L1357.78 253.95H1357.68C1357.43 254.361 1357.1 254.669 1356.7 254.874C1356.3 255.07 1355.86 255.168 1355.38 255.168ZM1355.68 254.09C1356.14 254.09 1356.52 253.987 1356.81 253.782C1357.1 253.577 1357.31 253.278 1357.44 252.886C1357.58 252.494 1357.65 252.009 1357.65 251.43V251.206C1357.65 250.702 1357.6 250.277 1357.5 249.932C1357.4 249.587 1357.26 249.311 1357.08 249.106C1356.9 248.901 1356.7 248.756 1356.46 248.672C1356.23 248.588 1355.98 248.546 1355.72 248.546C1355.26 248.546 1354.89 248.639 1354.6 248.826C1354.31 249.003 1354.1 249.288 1353.96 249.68C1353.82 250.063 1353.75 250.562 1353.75 251.178V251.472C1353.75 252.107 1353.82 252.62 1353.97 253.012C1354.12 253.395 1354.33 253.67 1354.61 253.838C1354.9 254.006 1355.26 254.09 1355.68 254.09Z" fill="#3B2017"/>
<defs>
<clipPath id="clip0_23_96">
<rect width="37" height="37" fill="white" transform="translate(1199 62)"/>
</clipPath>
<clipPath id="clip1_23_96">
<rect width="37" height="37" fill="white" transform="translate(1261 62)"/>
</clipPath>
<clipPath id="clip2_23_96">
<rect width="37" height="37" fill="white" transform="translate(1323 62)"/>
</clipPath>
</defs>
</svg>
