<svg width="1440" height="703" viewBox="0 0 1440 703" fill="none" xmlns="http://www.w3.org/2000/svg">
<rect x="-0.000518799" y="1.1938" width="1440" height="700" fill="#3B2017" stroke="#3B2017" stroke-width="2"/>
<path d="M128.336 141L11.6632 141C5.22154 141 -0.000519668 146.222 -0.000520739 152.664L-0.000540148 269.336C-0.00054122 275.778 5.22151 281 11.6632 281L128.336 281C134.777 281 139.999 275.778 139.999 269.336L140 152.664C140 146.222 134.777 141 128.336 141Z" fill="#FFE8BF" stroke="#3B2017" stroke-width="2" stroke-miterlimit="10"/>
<path d="M1288.33 141L1171.66 141C1165.22 141 1160 146.222 1160 152.664L1160 269.336C1160 275.778 1165.22 281 1171.66 281L1288.33 281C1294.78 281 1300 275.778 1300 269.336L1300 152.664C1300 146.222 1294.78 141 1288.33 141Z" fill="#FFE8BF" stroke="#3B2017" stroke-width="2" stroke-miterlimit="10"/>
<path d="M128.336 281L11.6632 281C5.22154 281 -0.000519668 286.222 -0.000520739 292.664L-0.000540148 409.336C-0.00054122 415.778 5.22151 421 11.6632 421L128.336 421C134.777 421 139.999 415.778 139.999 409.336L140 292.664C140 286.222 134.777 281 128.336 281Z" fill="#FFE8BF" stroke="#3B2017" stroke-width="2" stroke-miterlimit="10"/>
<path d="M1288.33 281L1171.66 281C1165.22 281 1160 286.222 1160 292.664L1160 409.336C1160 415.778 1165.22 421 1171.66 421L1288.33 421C1294.78 421 1300 415.778 1300 409.336L1300 292.664C1300 286.222 1294.78 281 1288.33 281Z" fill="#FFE8BF" stroke="#3B2017" stroke-width="2" stroke-miterlimit="10"/>
<path d="M151.663 421.777L268.335 421.777C274.777 421.777 279.999 416.555 279.999 410.113L279.999 293.44C279.999 286.999 274.777 281.777 268.335 281.777L151.663 281.777C145.221 281.777 139.999 286.999 139.999 293.44L139.999 410.113C139.999 416.555 145.221 421.777 151.663 421.777Z" fill="#FFE8BF" stroke="#3B2017" stroke-width="2" stroke-miterlimit="10"/>
<path d="M1288.33 421L1171.66 421C1165.22 421 1160 426.222 1160 432.664L1160 549.336C1160 555.778 1165.22 561 1171.66 561L1288.33 561C1294.78 561 1300 555.778 1300 549.336L1300 432.664C1300 426.222 1294.78 421 1288.33 421Z" fill="#FFE8BF" stroke="#3B2017" stroke-width="2" stroke-miterlimit="10"/>
<path d="M1311.66 561.582L1428.33 561.583C1434.78 561.583 1440 556.36 1440 549.919L1440 433.246C1440 426.805 1434.78 421.583 1428.33 421.583L1311.66 421.583C1305.22 421.583 1300 426.805 1300 433.246L1300 549.919C1300 556.36 1305.22 561.582 1311.66 561.582Z" fill="#FFE8BF" stroke="#3B2017" stroke-width="2" stroke-miterlimit="10"/>
<path d="M1311.66 701.194L1428.33 701.194C1434.78 701.194 1440 695.972 1440 689.53L1440 572.858C1440 566.416 1434.78 561.194 1428.33 561.194L1311.66 561.194C1305.22 561.194 1300 566.416 1300 572.858L1300 689.53C1300 695.972 1305.22 701.194 1311.66 701.194Z" fill="#FFE8BF" stroke="#3B2017" stroke-width="2" stroke-miterlimit="10"/>
<path d="M268.336 1.19383L151.663 1.1938C145.222 1.1938 140 6.41584 140 12.8575L139.999 129.53C139.999 135.972 145.222 141.194 151.663 141.194L268.336 141.194C274.777 141.194 280 135.972 280 129.53L280 12.8576C280 6.41587 274.777 1.19383 268.336 1.19383Z" fill="#FFE8BF" stroke="#3B2017" stroke-width="2" stroke-miterlimit="10"/>
<path d="M1428.33 1.19383L1311.66 1.19381C1305.22 1.19381 1300 6.41585 1300 12.8576L1300 129.53C1300 135.972 1305.22 141.194 1311.66 141.194L1428.33 141.194C1434.78 141.194 1440 135.972 1440 129.53L1440 12.8576C1440 6.41587 1434.78 1.19383 1428.33 1.19383Z" fill="#FFE8BF" stroke="#3B2017" stroke-width="2" stroke-miterlimit="10"/>
<mask id="mask0_23_150" style="mask-type:luminance" maskUnits="userSpaceOnUse" x="-1" y="1" width="141" height="140">
<path d="M11.6633 141L128.336 141C134.777 141 139.999 135.778 140 129.336L140 12.6638C140 6.22205 134.777 1.00001 128.336 1.00001L11.6633 1C5.22157 1 -0.000476778 6.22205 -0.000477954 12.6638L-0.000499264 129.336C-0.00050044 135.778 5.22154 141 11.6633 141Z" fill="white"/>
</mask>
<g mask="url(#mask0_23_150)">
<path d="M-0.00146911 12.6647L-0.0014791 129.337C-0.00147966 135.779 5.22056 141.001 11.6623 141.001L128.335 141.001C134.776 141.001 139.999 135.779 139.999 129.337L139.999 12.6647C139.999 6.22301 134.776 1.00097 128.335 1.00097L11.6623 1.00097C5.22057 1.00097 -0.00146856 6.22301 -0.00146911 12.6647Z" fill="#FDFAF1"/>
<path d="M-0.00176589 70.999C38.6557 70.999 69.9982 39.6565 69.9982 0.999016L-0.00175476 0.999012L-0.00176589 70.999Z" fill="#E59BF0"/>
<path d="M69.9985 71.001C31.341 71.001 -0.00147734 102.343 -0.0014801 141.001L69.9985 141.001L69.9985 71.001Z" fill="#E59BF0"/>
<path d="M69.9985 71.001C69.9985 109.658 101.341 141.001 139.999 141.001L139.999 71.001L69.9985 71.001Z" fill="#E59BF0"/>
<path d="M69.9983 0.998989L69.9983 70.999L139.998 70.999C139.998 32.3415 108.656 0.998991 69.9983 0.998989Z" fill="#FFA872"/>
</g>
<path d="M11.6633 141L128.336 141C134.777 141 140 135.778 140 129.336L140 12.6638C140 6.22205 134.777 1.00001 128.336 1.00001L11.6633 0.999996C5.22157 0.999996 -0.000478644 6.22204 -0.000479208 12.6638L-0.000489407 129.336C-0.00048997 135.778 5.22156 141 11.6633 141Z" stroke="#3B2017" stroke-width="2" stroke-miterlimit="10"/>
<mask id="mask1_23_150" style="mask-type:luminance" maskUnits="userSpaceOnUse" x="1159" y="1" width="141" height="140">
<path d="M1171.66 141L1288.33 141C1294.78 141 1300 135.778 1300 129.336L1300 12.6638C1300 6.22205 1294.78 1.00001 1288.33 1.00001L1171.66 1C1165.22 1 1160 6.22205 1160 12.6638L1160 129.336C1160 135.778 1165.22 141 1171.66 141Z" fill="white"/>
</mask>
<g mask="url(#mask1_23_150)">
<path d="M1171.66 141L1288.33 141C1294.78 141 1300 135.778 1300 129.336L1300 12.6638C1300 6.22205 1294.78 1.00001 1288.33 1.00001L1171.66 1C1165.22 1 1160 6.22205 1160 12.6638L1160 129.336C1160 135.778 1165.22 141 1171.66 141Z" fill="#FDFAF1"/>
<path d="M1160 0.999989C1160 39.6575 1191.34 71 1230 71L1230 0.999992L1160 0.999989Z" fill="#FFA872"/>
<path d="M1230 71C1230 109.658 1261.34 141 1300 141L1300 71L1230 71Z" fill="#FFA872"/>
<path d="M1230 71C1268.66 71 1300 39.6575 1300 0.999992L1230 0.999989L1230 71Z" fill="#FFA872"/>
<path d="M1230 71L1160 71L1160 141C1198.65 141 1230 109.657 1230 71Z" fill="#FFA872"/>
</g>
<path d="M1171.66 141L1288.33 141C1294.78 141 1300 135.778 1300 129.336L1300 12.6638C1300 6.22205 1294.78 1.00001 1288.33 1.00001L1171.66 0.999996C1165.22 0.999996 1160 6.22204 1160 12.6638L1160 129.336C1160 135.778 1165.22 141 1171.66 141Z" stroke="#3B2017" stroke-width="2" stroke-miterlimit="10"/>
<mask id="mask2_23_150" style="mask-type:luminance" maskUnits="userSpaceOnUse" x="139" y="141" width="141" height="140">
<path d="M268.336 141H151.663C145.222 141 140 146.222 140 152.664V269.336C140 275.778 145.222 281 151.663 281H268.336C274.777 281 280 275.778 280 269.336V152.664C280 146.222 274.777 141 268.336 141Z" fill="white"/>
</mask>
<g mask="url(#mask2_23_150)">
<path d="M268.336 141H151.663C145.222 141 140 146.222 140 152.664V269.336C140 275.778 145.222 281 151.663 281H268.336C274.777 281 280 275.778 280 269.336V152.664C280 146.222 274.777 141 268.336 141Z" fill="#FDFAF1"/>
<path d="M279.999 211C279.999 172.343 248.657 141 209.999 141L209.999 211L279.999 211Z" fill="#FFFA64"/>
<path d="M210 141C171.342 141 140 172.343 140 211L210 211L210 141Z" fill="#FFFA64"/>
<path d="M140 211C140 249.657 171.342 281 210 281L210 211L140 211Z" fill="#FFFA64"/>
<path d="M279.998 211L209.998 211L209.998 281C248.655 281 279.998 249.658 279.998 211Z" fill="#FFFA64"/>
</g>
<path d="M268.336 141H151.663C145.222 141 140 146.222 140 152.664V269.336C140 275.778 145.222 281 151.663 281H268.336C274.777 281 280 275.778 280 269.336V152.664C280 146.222 274.777 141 268.336 141Z" stroke="#3B2017" stroke-width="2" stroke-miterlimit="10"/>
<mask id="mask3_23_150" style="mask-type:luminance" maskUnits="userSpaceOnUse" x="1299" y="141" width="141" height="140">
<path d="M1428.33 141H1311.66C1305.22 141 1300 146.222 1300 152.664V269.336C1300 275.778 1305.22 281 1311.66 281H1428.33C1434.78 281 1440 275.778 1440 269.336V152.664C1440 146.222 1434.78 141 1428.33 141Z" fill="white"/>
</mask>
<g mask="url(#mask3_23_150)">
<path d="M1428.33 141H1311.66C1305.22 141 1300 146.222 1300 152.664V269.336C1300 275.778 1305.22 281 1311.66 281H1428.33C1434.78 281 1440 275.778 1440 269.336V152.664C1440 146.222 1434.78 141 1428.33 141Z" fill="#FDFAF1"/>
<path d="M1370 210.998C1331.34 210.998 1300 242.341 1300 280.998L1370 280.998L1370 210.998Z" fill="#E59BF0"/>
<path d="M1440 211C1440 172.343 1408.66 141 1370 141L1370 211L1440 211Z" fill="#FFFA64"/>
<path d="M1370 211C1370 172.343 1338.65 141 1300 141L1300 211L1370 211Z" fill="#E59BF0"/>
<path d="M1370 211L1370 281L1440 281C1440 242.343 1408.66 211 1370 211Z" fill="#E59BF0"/>
</g>
<path d="M1428.33 141H1311.66C1305.22 141 1300 146.222 1300 152.664V269.336C1300 275.778 1305.22 281 1311.66 281H1428.33C1434.78 281 1440 275.778 1440 269.336V152.664C1440 146.222 1434.78 141 1428.33 141Z" stroke="#3B2017" stroke-width="2" stroke-miterlimit="10"/>
<path d="M11.663 561.194L128.336 561.194C134.777 561.194 139.999 555.972 139.999 549.53L139.999 432.858C139.999 426.416 134.777 421.194 128.336 421.194L11.6631 421.194C5.22134 421.194 -0.00070538 426.416 -0.000705944 432.858L-0.000716143 549.53C-0.000716707 555.972 5.22133 561.194 11.663 561.194Z" stroke="#3B2017" stroke-width="2" stroke-miterlimit="10"/>
<mask id="mask4_23_150" style="mask-type:luminance" maskUnits="userSpaceOnUse" x="1299" y="281" width="141" height="141">
<path d="M1428.33 281.777H1311.66C1305.22 281.777 1300 286.999 1300 293.44V410.113C1300 416.555 1305.22 421.777 1311.66 421.777H1428.33C1434.78 421.777 1440 416.555 1440 410.113V293.44C1440 286.999 1434.78 281.777 1428.33 281.777Z" fill="white"/>
</mask>
<g mask="url(#mask4_23_150)">
<path d="M1428.33 281.777H1311.66C1305.22 281.777 1300 286.999 1300 293.44V410.113C1300 416.555 1305.22 421.777 1311.66 421.777H1428.33C1434.78 421.777 1440 416.555 1440 410.113V293.44C1440 286.999 1434.78 281.777 1428.33 281.777Z" fill="#FDFAF1"/>
<path d="M1370 351.777C1370 390.434 1401.34 421.777 1440 421.777L1440 351.777L1370 351.777Z" fill="#FFA872"/>
<path d="M1370 281.777C1331.34 281.777 1300 313.119 1300 351.777L1370 351.777L1370 281.777Z" fill="#FFA872"/>
<path d="M1300 351.777C1300 390.434 1331.34 421.777 1370 421.777L1370 351.777L1300 351.777Z" fill="#FFA872"/>
<path d="M1370 351.777H1440V281.777C1401.34 281.777 1370 313.119 1370 351.777Z" fill="#FFA872"/>
</g>
<path d="M1428.33 281.777H1311.66C1305.22 281.777 1300 286.999 1300 293.44V410.113C1300 416.555 1305.22 421.777 1311.66 421.777H1428.33C1434.78 421.777 1440 416.555 1440 410.113V293.44C1440 286.999 1434.78 281.777 1428.33 281.777Z" stroke="#3B2017" stroke-width="2" stroke-miterlimit="10"/>
<path d="M268.336 421.583H151.663C145.222 421.583 140 426.805 140 433.246V549.919C140 556.36 145.222 561.583 151.663 561.583H268.336C274.777 561.583 280 556.36 280 549.919V433.246C280 426.805 274.777 421.583 268.336 421.583Z" stroke="#3B2017" stroke-width="2" stroke-miterlimit="10"/>
<mask id="mask5_23_150" style="mask-type:luminance" maskUnits="userSpaceOnUse" x="1159" y="560" width="141" height="141">
<path d="M1171.66 701L1288.33 701C1294.78 701 1300 695.778 1300 689.336L1300 572.664C1300 566.222 1294.78 561 1288.33 561L1171.66 561C1165.22 561 1160 566.222 1160 572.664L1160 689.336C1160 695.778 1165.22 701 1171.66 701Z" fill="white"/>
</mask>
<g mask="url(#mask5_23_150)">
<path d="M1171.66 701L1288.33 701C1294.78 701 1300 695.778 1300 689.336L1300 572.664C1300 566.222 1294.78 561 1288.33 561L1171.66 561C1165.22 561 1160 566.222 1160 572.664L1160 689.336C1160 695.778 1165.22 701 1171.66 701Z" fill="#FDFAF1"/>
<path d="M1230 561C1191.34 561 1160 592.342 1160 631L1230 631L1230 561Z" fill="#E59BF0"/>
<path d="M1230 701C1268.66 701 1300 669.657 1300 631L1230 631L1230 701Z" fill="#E59BF0"/>
<path d="M1300 631C1300 592.342 1268.66 561 1230 561L1230 631L1300 631Z" fill="#E59BF0"/>
<path d="M1230 701L1230 631L1160 631C1160 669.657 1191.34 701 1230 701Z" fill="#E59BF0"/>
</g>
<path d="M1171.66 701L1288.33 701C1294.78 701 1300 695.778 1300 689.336L1300 572.664C1300 566.222 1294.78 561 1288.33 561L1171.66 561C1165.22 561 1160 566.222 1160 572.664L1160 689.336C1160 695.778 1165.22 701 1171.66 701Z" stroke="#3B2017" stroke-width="2" stroke-miterlimit="10"/>
</svg>
