<svg width="281" height="282" viewBox="0 0 281 282" fill="none" xmlns="http://www.w3.org/2000/svg">
<mask id="mask0_23_352" style="mask-type:luminance" maskUnits="userSpaceOnUse" x="0" y="1" width="280" height="280">
<path d="M268.336 1H11.6637C5.222 1 0 6.22204 0 12.6637V269.336C0 275.778 5.222 281 11.6637 281H268.336C274.778 281 280 275.778 280 269.336V12.6637C280 6.22204 274.778 1 268.336 1Z" fill="white"/>
</mask>
<g mask="url(#mask0_23_352)">
<path d="M268.336 1H11.6637C5.222 1 0 6.22204 0 12.6637V269.336C0 275.778 5.222 281 11.6637 281H268.336C274.778 281 280 275.778 280 269.336V12.6637C280 6.22204 274.778 1 268.336 1Z" fill="#FDFAF1"/>
<path d="M280 1C202.676 1 140 63.6762 140 141H280V1Z" fill="#FFA872"/>
<path d="M0 141C0 218.324 62.6762 281 140 281V141H0Z" fill="#FFA872"/>
<path d="M140 141C140 218.324 202.676 281 280 281V141H140Z" fill="#FFA872"/>
<path d="M0 141H140V1C62.6762 1 0 63.6762 0 141Z" fill="#FFA872"/>
</g>
<path d="M268.336 1H11.6637C5.222 1 0 6.22204 0 12.6637V269.336C0 275.778 5.222 281 11.6637 281H268.336C274.778 281 280 275.778 280 269.336V12.6637C280 6.22204 274.778 1 268.336 1Z" stroke="#3B2017" stroke-width="2" stroke-miterlimit="10"/>
</svg>
