<svg width="161" height="133" viewBox="0 0 161 133" fill="none" xmlns="http://www.w3.org/2000/svg">
<path d="M137.214 7.95752H23.7906C20.652 7.95752 18.1077 10.5045 18.1077 13.6463V86.0365C18.1077 89.1783 20.652 91.7253 23.7906 91.7253H137.214C140.353 91.7253 142.897 89.1783 142.897 86.0365V13.6463C142.897 10.5045 140.353 7.95752 137.214 7.95752Z" stroke="#3B2017" stroke-width="3" stroke-miterlimit="10"/>
<path d="M150.87 115.728C150.65 117.205 149.385 118.423 147.751 118.423H13.2586C11.6198 118.423 10.3548 117.205 10.1344 115.728C10.0577 115.243 10.0961 114.73 10.2734 114.221L17.3698 93.8454C17.8155 92.5743 19.0086 91.7253 20.355 91.7253H140.655C141.996 91.7253 143.194 92.5743 143.635 93.8454L150.732 114.221C150.909 114.73 150.947 115.243 150.87 115.728Z" stroke="#3B2017" stroke-width="3" stroke-miterlimit="10"/>
<path d="M132.824 16H28.176C26.9742 16 26 16.9633 26 18.1517V81.8483C26 83.0367 26.9742 84 28.176 84H132.824C134.026 84 135 83.0367 135 81.8483V18.1517C135 16.9633 134.026 16 132.824 16Z" stroke="#3B2017" stroke-width="3" stroke-miterlimit="10"/>
<path d="M150.904 115.728V121.723C150.904 123.556 149.418 125.038 147.593 125.038H13.407C11.5766 125.038 10.0959 123.551 10.0959 121.723V115.728H10.1343C10.3547 117.205 11.6197 118.423 13.2584 118.423H147.751C149.385 118.423 150.65 117.205 150.87 115.728H150.909H150.904Z" stroke="#3B2017" stroke-width="3" stroke-miterlimit="10"/>
<path d="M21.0754 111.21L25.6558 97.9019C25.8418 97.3589 26.3468 97 26.9094 97H134.091C134.658 97 135.158 97.3634 135.345 97.9019L139.925 111.21C140.226 112.085 139.584 113 138.671 113H22.3291C21.4121 113 20.7742 112.085 21.0754 111.21Z" stroke="#3B2017" stroke-width="3" stroke-miterlimit="10"/>
<path d="M83.1632 67C83.1632 57.7245 75.6611 50.2063 66.4055 50.2063V67H83.1632Z" fill="#3B2017"/>
<path d="M66.4055 50.2063C75.6611 50.2063 83.1632 42.6881 83.1632 33.4126H66.4055V50.2063Z" fill="#3B2017"/>
<path d="M99.9242 50.2063C90.6685 50.2063 83.1665 57.7245 83.1665 67H99.9242V50.2063Z" fill="#3B2017"/>
<path d="M83.1631 33.4126V50.2063H99.9208C99.9208 40.9308 92.4187 33.4126 83.1631 33.4126Z" fill="#3B2017"/>
</svg>
