<svg width="85" height="85" viewBox="0 0 85 85" fill="none" xmlns="http://www.w3.org/2000/svg">
<circle cx="42.5" cy="42.5" r="41" stroke="#3B2017" stroke-width="3"/>
<rect x="26.5" y="31.5002" width="35" height="31" rx="4" stroke="#3B2017" stroke-width="3"/>
<path d="M54.5 31.5V28C54.5 22.201 49.799 17.5 44 17.5C38.201 17.5 33.5 22.201 33.5 28V31.5" stroke="#3B2017" stroke-width="3" stroke-linecap="round"/>
<path d="M44.0452 38.5002L44.0452 37.5002H44.0452V38.5002ZM48.0452 42.5002L49.0452 42.5003V42.5002H48.0452ZM40.0452 42.5002H39.0452V42.5003L40.0452 42.5002ZM39.5326 54.5753L38.5959 54.2254L39.5326 54.5753ZM48.5547 54.5753L49.4915 54.2253L48.5547 54.5753ZM45.8999 46.0434L46.3643 46.9291L45.8999 46.0434ZM45.6186 46.7158L44.6818 47.0657L45.6186 46.7158ZM44.0452 38.5002L44.0451 39.5002C45.702 39.5003 47.0452 40.8435 47.0452 42.5002H48.0452H49.0452C49.0452 39.7388 46.8065 37.5003 44.0452 37.5002L44.0452 38.5002ZM48.0452 42.5002L47.0452 42.5002C47.0452 43.6529 46.3947 44.6549 45.4356 45.1578L45.8999 46.0434L46.3643 46.9291C47.9551 46.095 49.0451 44.4265 49.0452 42.5003L48.0452 42.5002ZM45.6186 46.7158L44.6818 47.0657L47.618 54.9252L48.5547 54.5753L49.4915 54.2253L46.5554 46.3658L45.6186 46.7158ZM48.0863 55.2502V54.2502H40.001V55.2502V56.2502H48.0863V55.2502ZM39.5326 54.5753L40.4694 54.9252L43.4057 47.0644L42.4689 46.7144L41.5322 46.3645L38.5959 54.2254L39.5326 54.5753ZM42.1879 46.0423L42.6529 45.1569C41.6947 44.6538 41.0452 43.6523 41.0452 42.5002L40.0452 42.5002L39.0452 42.5003C39.0452 44.4253 40.1336 46.093 41.723 46.9277L42.1879 46.0423ZM40.0452 42.5002H41.0452C41.0452 40.8434 42.3883 39.5002 44.0452 39.5002V38.5002V37.5002C41.2837 37.5002 39.0452 39.7388 39.0452 42.5002H40.0452ZM42.4689 46.7144L43.4057 47.0644C43.7049 46.2634 43.2731 45.4827 42.6529 45.1569L42.1879 46.0423L41.723 46.9277C41.5915 46.8586 41.4262 46.6483 41.5322 46.3645L42.4689 46.7144ZM40.001 55.2502V54.2502C40.3499 54.2502 40.5915 54.5984 40.4694 54.9252L39.5326 54.5753L38.5959 54.2254C38.2297 55.2057 38.9545 56.2502 40.001 56.2502V55.2502ZM48.5547 54.5753L47.618 54.9252C47.4959 54.5984 47.7375 54.2502 48.0863 54.2502V55.2502V56.2502C49.1329 56.2502 49.8577 55.2056 49.4915 54.2253L48.5547 54.5753ZM45.8999 46.0434L45.4356 45.1578C44.8148 45.4833 44.3825 46.2644 44.6818 47.0657L45.6186 46.7158L46.5554 46.3658C46.6614 46.6498 46.4959 46.8601 46.3643 46.9291L45.8999 46.0434Z" fill="#3B2017"/>
</svg>
