<svg width="37" height="37" viewBox="0 0 37 37" fill="none" xmlns="http://www.w3.org/2000/svg">
<g clip-path="url(#clip0_34_37)">
<path d="M22.3837 18.4998C22.3837 20.6431 20.6433 22.3807 18.5001 22.3807C16.3568 22.3807 14.6165 20.6431 14.6165 18.4998C14.6165 16.3566 16.3541 14.6162 18.5001 14.6162C20.6461 14.6162 22.3837 16.3538 22.3837 18.4998Z" fill="#3B2017"/>
<path d="M27.9801 13.7916C27.9281 12.657 27.739 12.0403 27.58 11.6292C27.3689 11.0865 27.1168 10.6973 26.7084 10.289C26.3001 9.88332 25.9136 9.63117 25.3682 9.4174C24.9598 9.25843 24.3432 9.06932 23.2058 9.01725C21.9779 8.96243 21.6107 8.94873 18.4999 8.94873C15.3892 8.94873 15.0219 8.96243 13.7913 9.01725C12.6567 9.06932 12.04 9.25843 11.6289 9.4174C11.0862 9.63117 10.697 9.88332 10.2914 10.289C9.88576 10.6946 9.63088 11.0865 9.41984 11.6292C9.26088 12.0403 9.06902 12.657 9.01695 13.7916C8.96214 15.0195 8.95117 15.3895 8.95117 18.5002C8.95117 21.611 8.96214 21.9782 9.01695 23.2061C9.06902 24.3407 9.26088 24.9574 9.41984 25.3685C9.63088 25.9112 9.88302 26.3004 10.2914 26.7087C10.697 27.1171 11.0862 27.3692 11.6289 27.5803C12.04 27.7392 12.6567 27.9284 13.7941 27.9804C15.0219 28.0352 15.3892 28.049 18.4999 28.049C21.6107 28.049 21.9779 28.0352 23.2058 27.9804C24.3432 27.9284 24.9598 27.7392 25.3682 27.5803C25.9136 27.3692 26.3001 27.1171 26.7084 26.7087C27.1168 26.3004 27.3689 25.9112 27.58 25.3685C27.739 24.9574 27.9281 24.3407 27.9801 23.2061C28.0377 21.9782 28.0487 21.6082 28.0487 18.5002C28.0487 15.3922 28.0377 15.0195 27.9801 13.7916ZM18.4999 24.4805C15.1973 24.4805 12.5169 21.8028 12.5169 18.5002C12.5169 15.1976 15.1973 12.5172 18.4999 12.5172C21.8025 12.5172 24.4802 15.1949 24.4802 18.5002C24.4802 21.8055 21.8025 24.4805 18.4999 24.4805ZM24.7187 13.6792C23.9458 13.6792 23.3209 13.0544 23.3209 12.2815C23.3209 11.5086 23.9458 10.8837 24.7187 10.8837C25.4915 10.8837 26.1164 11.5086 26.1164 12.2815C26.1164 13.0544 25.4888 13.6792 24.7187 13.6792Z" fill="#3B2017"/>
<path d="M18.5 0C8.28252 0 0 8.28252 0 18.5C0 28.7175 8.28252 37 18.5 37C28.7175 37 37 28.7175 37 18.5C37 8.28252 28.7175 0 18.5 0ZM30.0769 23.3018C30.0221 24.5406 29.8247 25.3875 29.537 26.1302C29.2382 26.8949 28.8408 27.5444 28.194 28.1913C27.5444 28.8408 26.8949 29.2382 26.1302 29.5342C25.3875 29.8247 24.5433 30.0193 23.3018 30.0769C22.0602 30.1344 21.6628 30.1481 18.5 30.1481C15.3372 30.1481 14.9398 30.1344 13.6982 30.0769C12.4567 30.0193 11.6098 29.8247 10.8698 29.5342C10.1024 29.2382 9.45282 28.8408 8.806 28.1913C8.15919 27.5444 7.76178 26.8949 7.46304 26.1302C7.17526 25.3875 6.97793 24.5406 6.92037 23.3018C6.86556 22.0602 6.85185 21.6628 6.85185 18.5C6.85185 15.3372 6.86556 14.9398 6.92037 13.6955C6.97793 12.4567 7.17526 11.6098 7.46304 10.8698C7.76178 10.1024 8.15919 9.45282 8.806 8.806C9.45282 8.15919 10.1024 7.75904 10.8698 7.46304C11.6098 7.17526 12.4567 6.97793 13.6982 6.92037C14.9398 6.86281 15.3372 6.85185 18.5 6.85185C21.6628 6.85185 22.0602 6.86281 23.3018 6.92037C24.5433 6.97793 25.3875 7.17526 26.1302 7.46304C26.8949 7.75904 27.5444 8.15919 28.194 8.806C28.8408 9.45282 29.2382 10.1024 29.537 10.8698C29.8247 11.6098 30.0221 12.4567 30.0769 13.6955C30.1344 14.9398 30.1481 15.3344 30.1481 18.5C30.1481 21.6656 30.1344 22.0602 30.0769 23.3018Z" fill="#3B2017"/>
</g>
<defs>
<clipPath id="clip0_34_37">
<rect width="37" height="37" fill="white"/>
</clipPath>
</defs>
</svg>
