<svg width="21" height="26" viewBox="0 0 21 26" fill="none" xmlns="http://www.w3.org/2000/svg">
<path d="M20.2301 15.4673C20.2301 20.9249 16.5454 25.5879 10.0858 25.5879C3.62621 25.5879 0 21.1203 0 15.4543C0 10.0945 3.97714 5.45753 10.1638 5.45753C16.3505 5.45753 20.2301 10.1075 20.2301 15.4608V15.4673ZM2.87887 15.3827C2.87887 19.5377 5.40682 23.2955 10.1768 23.2955C14.9467 23.2955 17.3447 19.707 17.3447 15.5194C17.3447 11.3319 14.8298 7.74995 10.0078 7.74995C5.5173 7.74995 2.87887 11.3058 2.87887 15.3827ZM16.1945 0L10.8201 3.77729H8.10373L12.6917 0H16.1945Z" fill="#3B2017"/>
</svg>
