<svg width="142" height="142" viewBox="0 0 142 142" fill="none" xmlns="http://www.w3.org/2000/svg">
<mask id="mask0_23_186" style="mask-type:luminance" maskUnits="userSpaceOnUse" x="1" y="1" width="140" height="140">
<path d="M129.336 1H12.6637C6.22204 1 1 6.22204 1 12.6637V129.336C1 135.778 6.22204 141 12.6637 141H129.336C135.778 141 141 135.778 141 129.336V12.6637C141 6.22204 135.778 1 129.336 1Z" fill="white"/>
</mask>
<g mask="url(#mask0_23_186)">
<path d="M129.336 1H12.6637C6.22204 1 1 6.22204 1 12.6637V129.336C1 135.778 6.22204 141 12.6637 141H129.336C135.778 141 141 135.778 141 129.336V12.6637C141 6.22204 135.778 1 129.336 1Z" fill="#FDFAF1"/>
<path d="M141 71C141 32.3425 109.657 1.00001 71 1L71 71L141 71Z" fill="#FFFA64"/>
<path d="M71 1.00003C32.3425 1.00003 0.999998 32.3425 1 71L71 71L71 1.00003Z" fill="#FFFA64"/>
<path d="M0.999997 71C0.999999 109.657 32.3425 141 71 141L71 71L0.999997 71Z" fill="#FFFA64"/>
<path d="M140.998 71L70.998 71L70.998 141C109.656 141 140.998 109.658 140.998 71Z" fill="#FFFA64"/>
</g>
<path d="M129.336 1H12.6637C6.22204 1 1 6.22204 1 12.6637V129.336C1 135.778 6.22204 141 12.6637 141H129.336C135.778 141 141 135.778 141 129.336V12.6637C141 6.22204 135.778 1 129.336 1Z" stroke="#3B2017" stroke-width="2" stroke-miterlimit="10"/>
</svg>
