<svg width="141" height="142" viewBox="0 0 141 142" fill="none" xmlns="http://www.w3.org/2000/svg">
<mask id="mask0_23_162" style="mask-type:luminance" maskUnits="userSpaceOnUse" x="-1" y="1" width="141" height="140">
<path d="M11.6633 141L128.336 141C134.777 141 139.999 135.778 140 129.336L140 12.6638C140 6.22205 134.777 1.00001 128.336 1.00001L11.6633 1C5.22157 1 -0.000476778 6.22205 -0.000477954 12.6638L-0.000499264 129.336C-0.00050044 135.778 5.22154 141 11.6633 141Z" fill="white"/>
</mask>
<g mask="url(#mask0_23_162)">
<path d="M-0.00146911 12.6647L-0.0014791 129.337C-0.00147966 135.779 5.22056 141.001 11.6623 141.001L128.335 141.001C134.776 141.001 139.999 135.779 139.999 129.337L139.999 12.6647C139.999 6.22301 134.776 1.00097 128.335 1.00097L11.6623 1.00097C5.22057 1.00097 -0.00146856 6.22301 -0.00146911 12.6647Z" fill="#FDFAF1"/>
<path d="M-0.00176589 70.999C38.6557 70.999 69.9982 39.6565 69.9982 0.999016L-0.00175476 0.999012L-0.00176589 70.999Z" fill="#E59BF0"/>
<path d="M69.9985 71.001C31.341 71.001 -0.00147734 102.343 -0.0014801 141.001L69.9985 141.001L69.9985 71.001Z" fill="#E59BF0"/>
<path d="M69.9985 71.001C69.9985 109.658 101.341 141.001 139.999 141.001L139.999 71.001L69.9985 71.001Z" fill="#E59BF0"/>
<path d="M69.9983 0.998989L69.9983 70.999L139.998 70.999C139.998 32.3415 108.656 0.998991 69.9983 0.998989Z" fill="#FFA872"/>
</g>
<path d="M11.6633 141L128.336 141C134.777 141 140 135.778 140 129.336L140 12.6638C140 6.22205 134.777 1.00001 128.336 1.00001L11.6633 0.999996C5.22157 0.999996 -0.000478644 6.22204 -0.000479208 12.6638L-0.000489407 129.336C-0.00048997 135.778 5.22156 141 11.6633 141Z" stroke="#3B2017" stroke-width="2" stroke-miterlimit="10"/>
</svg>
