<svg width="101" height="104" viewBox="0 0 101 104" fill="none" xmlns="http://www.w3.org/2000/svg">
<path d="M50.0952 52.3413C64.2293 52.3413 75.6872 40.8482 75.6872 26.6707C75.6872 12.4931 64.2293 1 50.0952 1C35.9611 1 24.5031 12.4931 24.5031 26.6707C24.5031 40.8482 35.9611 52.3413 50.0952 52.3413Z" fill="#FFFA64" stroke="#3B2017" stroke-width="2" stroke-linecap="round" stroke-linejoin="round"/>
<path d="M99.1814 97.3517C99.1814 98.7159 98.6302 99.9464 97.7413 100.847C96.8435 101.739 95.6168 102.291 94.2567 102.291H5.93351C3.20452 102.291 1 100.08 1 97.3517C1 90.3789 2.58228 83.7807 5.40905 77.8869C7.61357 73.277 10.5737 69.1041 14.1383 65.5286C17.5339 62.1225 21.4807 59.2514 25.8276 57.0757C31.8545 54.053 38.6636 52.35 45.8639 52.35H54.3264C61.5267 52.35 68.3358 54.053 74.3627 57.0846C83.2608 61.5429 90.4699 68.8812 94.7723 77.8869C97.5991 83.7807 99.1814 90.3789 99.1814 97.3517Z" fill="#FFFA64" stroke="#3B2017" stroke-width="2" stroke-linecap="round" stroke-linejoin="round"/>
</svg>
