<svg width="113" height="61" viewBox="0 0 113 61" fill="none" xmlns="http://www.w3.org/2000/svg">
<path d="M56.0521 31.7279C64.0279 31.7279 70.4936 25.2423 70.4936 17.242C70.4936 9.2417 64.0279 2.75616 56.0521 2.75616C48.0763 2.75616 41.6106 9.2417 41.6106 17.242C41.6106 25.2423 48.0763 31.7279 56.0521 31.7279Z" fill="#FFFA64" stroke="#3B2017" stroke-width="2" stroke-linecap="round" stroke-linejoin="round"/>
<path d="M83.7512 57.127C83.7512 57.8968 83.4402 58.5912 82.9386 59.0994C82.432 59.6025 81.7397 59.9145 80.9723 59.9145H31.1319C29.5919 59.9145 28.3479 58.6666 28.3479 57.127C28.3479 53.1923 29.2408 49.469 30.8359 46.1431C32.0799 43.5418 33.7503 41.187 35.7618 39.1694C37.6779 37.2473 39.9051 35.6271 42.358 34.3994C45.7589 32.6938 49.6013 31.7327 53.6644 31.7327H58.4398C62.5028 31.7327 66.3452 32.6938 69.7462 34.4045C74.7673 36.9203 78.8354 41.0612 81.2632 46.1431C82.8584 49.469 83.7512 53.1923 83.7512 57.127Z" fill="#FFFA64" stroke="#3B2017" stroke-width="2" stroke-linecap="round" stroke-linejoin="round"/>
<path d="M89.2191 23.8835C95.5188 23.8835 100.626 18.7609 100.626 12.4418C100.626 6.12265 95.5188 1 89.2191 1C82.9193 1 77.8124 6.12265 77.8124 12.4418C77.8124 18.7609 82.9193 23.8835 89.2191 23.8835Z" fill="#E59BF0" stroke="#3B2017" stroke-width="2" stroke-linecap="round" stroke-linejoin="round"/>
<path d="M111.099 43.9394C111.099 44.5482 110.854 45.0966 110.457 45.4991C110.061 45.8966 109.509 46.1432 108.902 46.1432H81.2634C78.8356 41.0613 74.7675 36.9203 69.7463 34.4046C70.6693 32.6938 71.833 31.129 73.1974 29.7604C76.8141 26.1327 81.8102 23.8886 87.3329 23.8886H91.1051C102.151 23.8886 111.099 32.8649 111.099 43.9394Z" fill="#E59BF0" stroke="#3B2017" stroke-width="2" stroke-linecap="round" stroke-linejoin="round"/>
<path d="M22.8805 23.8835C29.1802 23.8835 34.2872 18.7609 34.2872 12.4418C34.2872 6.12265 29.1802 1 22.8805 1C16.5807 1 11.4738 6.12265 11.4738 12.4418C11.4738 18.7609 16.5807 23.8835 22.8805 23.8835Z" fill="#FFA872" stroke="#3B2017" stroke-width="2" stroke-linecap="round" stroke-linejoin="round"/>
<path d="M42.3581 34.3995C39.9052 35.6272 37.6781 37.2474 35.7619 39.1694C33.7504 41.1871 32.08 43.5419 30.836 46.1432H3.19707C1.98316 46.1432 1 45.157 1 43.9394C1 38.4046 3.2372 33.3882 6.85886 29.7604C10.4755 26.1327 15.4766 23.8886 20.9944 23.8886H24.7665C32.366 23.8886 38.9772 28.1403 42.3581 34.3995Z" fill="#FFA872" stroke="#3B2017" stroke-width="2" stroke-linecap="round" stroke-linejoin="round"/>
</svg>
