<svg width="141" height="142" viewBox="0 0 141 142" fill="none" xmlns="http://www.w3.org/2000/svg">
<mask id="mask0_23_212" style="mask-type:luminance" maskUnits="userSpaceOnUse" x="1" y="1" width="140" height="140">
<path d="M129.336 1H12.6637C6.22204 1 1 6.22204 1 12.6637V129.336C1 135.778 6.22204 141 12.6637 141H129.336C135.778 141 141 135.778 141 129.336V12.6637C141 6.22204 135.778 1 129.336 1Z" fill="white"/>
</mask>
<g mask="url(#mask0_23_212)">
<path d="M129.336 1H12.6637C6.22204 1 1 6.22204 1 12.6637V129.336C1 135.778 6.22204 141 12.6637 141H129.336C135.778 141 141 135.778 141 129.336V12.6637C141 6.22204 135.778 1 129.336 1Z" fill="#FDFAF1"/>
<path d="M70.9988 71.0001C70.9988 109.658 102.341 141 140.999 141L140.999 71.0001L70.9988 71.0001Z" fill="#FFA872"/>
<path d="M71 1.00006C32.3425 1.00006 0.999998 32.3426 1 71.0001L71 71.0001L71 1.00006Z" fill="#FFA872"/>
<path d="M0.999997 71C0.999999 109.658 32.3425 141 71 141L71 71L0.999997 71Z" fill="#FFA872"/>
<path d="M70.9994 71H140.999V1C102.342 1 70.9994 32.3425 70.9994 71Z" fill="#FFA872"/>
</g>
<path d="M129.336 1H12.6637C6.22204 1 1 6.22204 1 12.6637V129.336C1 135.778 6.22204 141 12.6637 141H129.336C135.778 141 141 135.778 141 129.336V12.6637C141 6.22204 135.778 1 129.336 1Z" stroke="#3B2017" stroke-width="2" stroke-miterlimit="10"/>
</svg>
